G04 Layer_Color=128*
%FSLAX43Y43*%
%MOMM*%
G71*
G01*
G75*
%ADD103C,0.100*%
%ADD260C,0.051*%
D103*
X100500Y-0D02*
G03*
X101000Y500I0J500D01*
G01*
X500Y71000D02*
G03*
X-0Y70500I0J-500D01*
G01*
X101000D02*
G03*
X100500Y71000I-500J0D01*
G01*
X-0Y500D02*
G03*
X500Y-0I500J0D01*
G01*
X500Y0D02*
X100500D01*
X101000Y500D02*
Y70500D01*
X0Y500D02*
Y70500D01*
X500Y71000D02*
X100500D01*
D260*
X20750Y18500D02*
X24250D01*
X22500Y16750D02*
Y20250D01*
X78750Y67500D02*
X82250D01*
X80500Y65750D02*
Y69250D01*
X20750Y67500D02*
X24250D01*
X22500Y65750D02*
Y69250D01*
X86910Y40500D02*
X87830D01*
X87370Y40040D02*
Y40960D01*
X86910Y43000D02*
X87830D01*
X87370Y42540D02*
Y43460D01*
X86910Y47500D02*
X87830D01*
X87370Y47040D02*
Y47960D01*
X86910Y45000D02*
X87830D01*
X87370Y44540D02*
Y45460D01*
X85855Y37430D02*
X88185D01*
X87020Y36265D02*
Y38595D01*
X85855Y50570D02*
X88185D01*
X87020Y49405D02*
Y51735D01*
X91535Y37430D02*
X93865D01*
X92700Y36265D02*
Y38595D01*
X91535Y50570D02*
X93865D01*
X92700Y49405D02*
Y51735D01*
X89530Y40500D02*
X90450D01*
X89990Y40040D02*
Y40960D01*
X89530Y43000D02*
X90450D01*
X89990Y42540D02*
Y43460D01*
X89530Y47500D02*
X90450D01*
X89990Y47040D02*
Y47960D01*
X89530Y45000D02*
X90450D01*
X89990Y44540D02*
Y45460D01*
X6880Y35770D02*
X7480D01*
X7180Y35470D02*
Y36070D01*
X8130Y34300D02*
X8530D01*
X8330Y34100D02*
Y34500D01*
X7420Y33900D02*
X7820D01*
X7620Y33700D02*
Y34100D01*
X8130Y33500D02*
X8530D01*
X8330Y33300D02*
Y33700D01*
X7420Y33100D02*
X7820D01*
X7620Y32900D02*
Y33300D01*
X8130Y32700D02*
X8530D01*
X8330Y32500D02*
Y32900D01*
X7420Y32300D02*
X7820D01*
X7620Y32100D02*
Y32500D01*
X8130Y31900D02*
X8530D01*
X8330Y31700D02*
Y32100D01*
X8130Y31100D02*
X8530D01*
X8330Y30900D02*
Y31300D01*
X7420Y30700D02*
X7820D01*
X7620Y30500D02*
Y30900D01*
X8130Y30300D02*
X8530D01*
X8330Y30100D02*
Y30500D01*
X7420Y29900D02*
X7820D01*
X7620Y29700D02*
Y30100D01*
X8130Y29500D02*
X8530D01*
X8330Y29300D02*
Y29700D01*
X7420Y29100D02*
X7820D01*
X7620Y28900D02*
Y29300D01*
X8130Y28700D02*
X8530D01*
X8330Y28500D02*
Y28900D01*
X2150Y35770D02*
X2750D01*
X2450Y35470D02*
Y36070D01*
X6880Y27230D02*
X7480D01*
X7180Y26930D02*
Y27530D01*
X2150Y27230D02*
X2750D01*
X2450Y26930D02*
Y27530D01*
X86910Y58500D02*
X87830D01*
X87370Y58040D02*
Y58960D01*
X86910Y61000D02*
X87830D01*
X87370Y60540D02*
Y61460D01*
X86910Y65500D02*
X87830D01*
X87370Y65040D02*
Y65960D01*
X86910Y63000D02*
X87830D01*
X87370Y62540D02*
Y63460D01*
X85855Y55430D02*
X88185D01*
X87020Y54265D02*
Y56595D01*
X85855Y68570D02*
X88185D01*
X87020Y67405D02*
Y69735D01*
X91535Y55430D02*
X93865D01*
X92700Y54265D02*
Y56595D01*
X91535Y68570D02*
X93865D01*
X92700Y67405D02*
Y69735D01*
X89530Y58500D02*
X90450D01*
X89990Y58040D02*
Y58960D01*
X89530Y61000D02*
X90450D01*
X89990Y60540D02*
Y61460D01*
X89530Y65500D02*
X90450D01*
X89990Y65040D02*
Y65960D01*
X89530Y63000D02*
X90450D01*
X89990Y62540D02*
Y63460D01*
X93825Y2250D02*
X95175D01*
X94500Y1575D02*
Y2925D01*
X93825Y16750D02*
X95175D01*
X94500Y16075D02*
Y17425D01*
X98725Y1650D02*
X100075D01*
X99400Y975D02*
Y2325D01*
X98725Y17350D02*
X100075D01*
X99400Y16675D02*
Y18025D01*
X34650Y1900D02*
X35850D01*
X35250Y1300D02*
Y2500D01*
X31150Y1900D02*
X32350D01*
X31750Y1300D02*
Y2500D01*
X22650Y57700D02*
X23150D01*
X22900Y57450D02*
Y57950D01*
X22650Y58950D02*
X23150D01*
X22900Y58700D02*
Y59200D01*
X15840Y20215D02*
X16740D01*
X16290Y19765D02*
Y20665D01*
X13300Y18945D02*
X14200D01*
X13750Y18495D02*
Y19395D01*
X15840Y17675D02*
X16740D01*
X16290Y17225D02*
Y18125D01*
X13300Y16405D02*
X14200D01*
X13750Y15955D02*
Y16855D01*
X15840Y15135D02*
X16740D01*
X16290Y14685D02*
Y15585D01*
X13300Y13865D02*
X14200D01*
X13750Y13415D02*
Y14315D01*
X15840Y12595D02*
X16740D01*
X16290Y12145D02*
Y13045D01*
X13300Y11325D02*
X14200D01*
X13750Y10875D02*
Y11775D01*
X15840Y10055D02*
X16740D01*
X16290Y9605D02*
Y10505D01*
X13300Y8785D02*
X14200D01*
X13750Y8335D02*
Y9235D01*
X2840Y21130D02*
X3840D01*
X3340Y20630D02*
Y21630D01*
X2840Y18590D02*
X3840D01*
X3340Y18090D02*
Y19090D01*
X2840Y10410D02*
X3840D01*
X3340Y9910D02*
Y10910D01*
X2840Y7870D02*
X3840D01*
X3340Y7370D02*
Y8370D01*
X9600Y6750D02*
X11300D01*
X10450Y5900D02*
Y7600D01*
X9600Y22250D02*
X11300D01*
X10450Y21400D02*
Y23100D01*
X5800Y20215D02*
X9000D01*
X7400Y18615D02*
Y21815D01*
X5800Y8785D02*
X9000D01*
X7400Y7185D02*
Y10385D01*
X88810Y1525D02*
X89810D01*
X89310Y1025D02*
Y2025D01*
X86270Y1525D02*
X87270D01*
X86770Y1025D02*
Y2025D01*
X83730Y1525D02*
X84730D01*
X84230Y1025D02*
Y2025D01*
X81190Y1525D02*
X82190D01*
X81690Y1025D02*
Y2025D01*
X57350Y66230D02*
X58350D01*
X57850Y65730D02*
Y66730D01*
X59890Y66230D02*
X60890D01*
X60390Y65730D02*
Y66730D01*
X57350Y68770D02*
X58350D01*
X57850Y68270D02*
Y69270D01*
X59890Y68770D02*
X60890D01*
X60390Y68270D02*
Y69270D01*
X67510Y68770D02*
X68510D01*
X68010Y68270D02*
Y69270D01*
X62430Y68770D02*
X63430D01*
X62930Y68270D02*
Y69270D01*
X64970Y68770D02*
X65970D01*
X65470Y68270D02*
Y69270D01*
X67510Y66230D02*
X68510D01*
X68010Y65730D02*
Y66730D01*
X64970Y66230D02*
X65970D01*
X65470Y65730D02*
Y66730D01*
X62430Y66230D02*
X63430D01*
X62930Y65730D02*
Y66730D01*
X75130Y66230D02*
X76130D01*
X75630Y65730D02*
Y66730D01*
X75130Y68770D02*
X76130D01*
X75630Y68270D02*
Y69270D01*
X72590Y68770D02*
X73590D01*
X73090Y68270D02*
Y69270D01*
X70050Y68770D02*
X71050D01*
X70550Y68270D02*
Y69270D01*
X72590Y66230D02*
X73590D01*
X73090Y65730D02*
Y66730D01*
X70050Y66230D02*
X71050D01*
X70550Y65730D02*
Y66730D01*
X44650Y66230D02*
X45650D01*
X45150Y65730D02*
Y66730D01*
X47190Y66230D02*
X48190D01*
X47690Y65730D02*
Y66730D01*
X44650Y68770D02*
X45650D01*
X45150Y68270D02*
Y69270D01*
X47190Y68770D02*
X48190D01*
X47690Y68270D02*
Y69270D01*
X54810Y68770D02*
X55810D01*
X55310Y68270D02*
Y69270D01*
X49730Y68770D02*
X50730D01*
X50230Y68270D02*
Y69270D01*
X52270Y68770D02*
X53270D01*
X52770Y68270D02*
Y69270D01*
X54810Y66230D02*
X55810D01*
X55310Y65730D02*
Y66730D01*
X52270Y66230D02*
X53270D01*
X52770Y65730D02*
Y66730D01*
X49730Y66230D02*
X50730D01*
X50230Y65730D02*
Y66730D01*
X37030Y66230D02*
X38030D01*
X37530Y65730D02*
Y66730D01*
X39570Y66230D02*
X40570D01*
X40070Y65730D02*
Y66730D01*
X42110Y66230D02*
X43110D01*
X42610Y65730D02*
Y66730D01*
X39570Y68770D02*
X40570D01*
X40070Y68270D02*
Y69270D01*
X37030Y68770D02*
X38030D01*
X37530Y68270D02*
Y69270D01*
X42110Y68770D02*
X43110D01*
X42610Y68270D02*
Y69270D01*
X34490Y68770D02*
X35490D01*
X34990Y68270D02*
Y69270D01*
X26870Y68770D02*
X27870D01*
X27370Y68270D02*
Y69270D01*
X29410Y68770D02*
X30410D01*
X29910Y68270D02*
Y69270D01*
X31950Y68770D02*
X32950D01*
X32450Y68270D02*
Y69270D01*
X34490Y66230D02*
X35490D01*
X34990Y65730D02*
Y66730D01*
X31950Y66230D02*
X32950D01*
X32450Y65730D02*
Y66730D01*
X29410Y66230D02*
X30410D01*
X29910Y65730D02*
Y66730D01*
X26870Y66230D02*
X27870D01*
X27370Y65730D02*
Y66730D01*
X72550Y4150D02*
X73450D01*
X73000Y3700D02*
Y4600D01*
X77550Y4150D02*
X78450D01*
X78000Y3700D02*
Y4600D01*
X71700Y1450D02*
X72300D01*
X72000Y1150D02*
Y1750D01*
X78700Y1450D02*
X79300D01*
X79000Y1150D02*
Y1750D01*
X93520Y23505D02*
X94120D01*
X93820Y23205D02*
Y23805D01*
X92470Y24975D02*
X92870D01*
X92670Y24775D02*
Y25175D01*
X93180Y25375D02*
X93580D01*
X93380Y25175D02*
Y25575D01*
X92470Y25775D02*
X92870D01*
X92670Y25575D02*
Y25975D01*
X93180Y26175D02*
X93580D01*
X93380Y25975D02*
Y26375D01*
X92470Y26575D02*
X92870D01*
X92670Y26375D02*
Y26775D01*
X93180Y26975D02*
X93580D01*
X93380Y26775D02*
Y27175D01*
X92470Y27375D02*
X92870D01*
X92670Y27175D02*
Y27575D01*
X92470Y28175D02*
X92870D01*
X92670Y27975D02*
Y28375D01*
X93180Y28575D02*
X93580D01*
X93380Y28375D02*
Y28775D01*
X92470Y28975D02*
X92870D01*
X92670Y28775D02*
Y29175D01*
X93180Y29375D02*
X93580D01*
X93380Y29175D02*
Y29575D01*
X92470Y29775D02*
X92870D01*
X92670Y29575D02*
Y29975D01*
X93180Y30175D02*
X93580D01*
X93380Y29975D02*
Y30375D01*
X92470Y30575D02*
X92870D01*
X92670Y30375D02*
Y30775D01*
X98250Y23505D02*
X98850D01*
X98550Y23205D02*
Y23805D01*
X93520Y32045D02*
X94120D01*
X93820Y31745D02*
Y32345D01*
X98250Y32045D02*
X98850D01*
X98550Y31745D02*
Y32345D01*
X78750Y18500D02*
X82250D01*
X80500Y16750D02*
Y20250D01*
X33000Y17875D02*
X33300D01*
X33150Y17725D02*
Y18025D01*
X31600Y59450D02*
X31800D01*
X31700Y59350D02*
Y59550D01*
X28975Y61650D02*
X29175D01*
X29075Y61550D02*
Y61750D01*
X46980Y31000D02*
X47180D01*
X47080Y30900D02*
Y31100D01*
X46625Y31650D02*
X46825D01*
X46725Y31550D02*
Y31750D01*
X51000Y27635D02*
X51200D01*
X51100Y27535D02*
Y27735D01*
X40400Y57425D02*
X40600D01*
X40500Y57325D02*
Y57525D01*
X41300Y58775D02*
X41600D01*
X41450Y58625D02*
Y58925D01*
X41400Y57800D02*
X41600D01*
X41500Y57700D02*
Y57900D01*
X33675Y70040D02*
X33875D01*
X33775Y69940D02*
Y70140D01*
X28635Y70175D02*
X28835D01*
X28735Y70075D02*
Y70275D01*
X28900Y58100D02*
X29200D01*
X29050Y57950D02*
Y58250D01*
X28800Y57100D02*
X29100D01*
X28950Y56950D02*
Y57250D01*
X24925Y59650D02*
X25225D01*
X25075Y59500D02*
Y59800D01*
X24425Y57100D02*
X24725D01*
X24575Y56950D02*
Y57250D01*
X27128Y64400D02*
X27428D01*
X27278Y64250D02*
Y64550D01*
X37075Y45475D02*
X37375D01*
X37225Y45325D02*
Y45625D01*
X30330Y63215D02*
X30530D01*
X30430Y63115D02*
Y63315D01*
X27650Y64925D02*
X27850D01*
X27750Y64825D02*
Y65025D01*
X28750Y64575D02*
X28950D01*
X28850Y64475D02*
Y64675D01*
X29980Y64550D02*
X30180D01*
X30080Y64450D02*
Y64650D01*
X29125Y65000D02*
X29325D01*
X29225Y64900D02*
Y65100D01*
X30700Y64960D02*
X30900D01*
X30800Y64860D02*
Y65060D01*
X45675Y20300D02*
X45875D01*
X45775Y20200D02*
Y20400D01*
X52950Y15200D02*
X53150D01*
X53050Y15100D02*
Y15300D01*
X55200Y15050D02*
X55400D01*
X55300Y14950D02*
Y15150D01*
X27145Y36743D02*
X27345D01*
X27245Y36643D02*
Y36843D01*
X27145Y36243D02*
X27345D01*
X27245Y36143D02*
Y36343D01*
X48630Y37690D02*
X48830D01*
X48730Y37590D02*
Y37790D01*
X59575Y62655D02*
X59775D01*
X59675Y62555D02*
Y62755D01*
X31400Y69950D02*
X31600D01*
X31500Y69850D02*
Y70050D01*
X25625Y69950D02*
X25825D01*
X25725Y69850D02*
Y70050D01*
X74225Y62200D02*
X74425D01*
X74325Y62100D02*
Y62300D01*
X47525Y59850D02*
X47725D01*
X47625Y59750D02*
Y59950D01*
X47350Y15850D02*
X47550D01*
X47450Y15750D02*
Y15950D01*
X37250Y20740D02*
X37450D01*
X37350Y20640D02*
Y20840D01*
X37955Y19959D02*
X38155D01*
X38055Y19859D02*
Y20059D01*
X37975Y20675D02*
X38175D01*
X38075Y20575D02*
Y20775D01*
X71650Y62550D02*
X71850D01*
X71750Y62450D02*
Y62650D01*
X69180Y67340D02*
X69380D01*
X69280Y67240D02*
Y67440D01*
X68863Y65277D02*
X69062D01*
X68963Y65177D02*
Y65378D01*
X69955Y64690D02*
X70155D01*
X70055Y64590D02*
Y64790D01*
X69430Y64615D02*
X69630D01*
X69530Y64515D02*
Y64715D01*
X67230Y64075D02*
X67430D01*
X67330Y63975D02*
Y64175D01*
X68850Y36900D02*
X69050D01*
X68950Y36800D02*
Y37000D01*
X22325Y62950D02*
X22525D01*
X22425Y62850D02*
Y63050D01*
X59000Y65575D02*
X59200D01*
X59100Y65475D02*
Y65675D01*
X51375Y65375D02*
X51575D01*
X51475Y65275D02*
Y65475D01*
X46325Y65300D02*
X46525D01*
X46425Y65200D02*
Y65400D01*
X43850Y65800D02*
X44050D01*
X43950Y65700D02*
Y65900D01*
X64275Y62925D02*
X64475D01*
X64375Y62825D02*
Y63025D01*
X72489Y63375D02*
X72689D01*
X72589Y63275D02*
Y63475D01*
X61675Y63600D02*
X61875D01*
X61775Y63500D02*
Y63700D01*
X35275Y64960D02*
X35475D01*
X35375Y64860D02*
Y65060D01*
X56650Y25550D02*
X56850D01*
X56750Y25450D02*
Y25650D01*
X38030Y22915D02*
X38230D01*
X38130Y22815D02*
Y23015D01*
X38030Y23415D02*
X38230D01*
X38130Y23315D02*
Y23515D01*
X60950Y7325D02*
X61150D01*
X61050Y7225D02*
Y7425D01*
X60100Y7325D02*
X60300D01*
X60200Y7225D02*
Y7425D01*
X97645Y4055D02*
X97845D01*
X97745Y3955D02*
Y4155D01*
X95105Y4055D02*
X95305D01*
X95205Y3955D02*
Y4155D01*
X59500Y9945D02*
X59700D01*
X59600Y9845D02*
Y10045D01*
X59900Y10450D02*
X60100D01*
X60000Y10350D02*
Y10550D01*
X93400Y15300D02*
X93600D01*
X93500Y15200D02*
Y15400D01*
X97645Y15595D02*
X97845D01*
X97745Y15495D02*
Y15695D01*
X50200Y21925D02*
X50400D01*
X50300Y21825D02*
Y22025D01*
X51150Y22275D02*
X51350D01*
X51250Y22175D02*
Y22375D01*
X65950Y23475D02*
X66150D01*
X66050Y23375D02*
Y23575D01*
X38750Y13075D02*
X38950D01*
X38850Y12975D02*
Y13175D01*
X32238Y15500D02*
X32438D01*
X32338Y15400D02*
Y15600D01*
X32490Y16150D02*
X32690D01*
X32590Y16050D02*
Y16250D01*
X33475Y16525D02*
X33675D01*
X33575Y16425D02*
Y16625D01*
X31625Y12000D02*
X31825D01*
X31725Y11900D02*
Y12100D01*
X32025Y10775D02*
X32225D01*
X32125Y10675D02*
Y10875D01*
X35800Y10975D02*
X36000D01*
X35900Y10875D02*
Y11075D01*
X35275Y10275D02*
X35475D01*
X35375Y10175D02*
Y10375D01*
X34650Y10115D02*
X34850D01*
X34750Y10015D02*
Y10215D01*
X29475Y14150D02*
X29775D01*
X29625Y14000D02*
Y14300D01*
X37550Y6755D02*
X37750D01*
X37650Y6655D02*
Y6855D01*
X38075Y4690D02*
X38275D01*
X38175Y4590D02*
Y4790D01*
X32550Y6825D02*
X32750D01*
X32650Y6725D02*
Y6925D01*
X67975Y3425D02*
X68175D01*
X68075Y3325D02*
Y3525D01*
X69375Y5950D02*
X69575D01*
X69475Y5850D02*
Y6050D01*
X71375Y8825D02*
X71575D01*
X71475Y8725D02*
Y8925D01*
X71525Y5100D02*
X71825D01*
X71675Y4950D02*
Y5250D01*
X97475Y27625D02*
X97775D01*
X97625Y27475D02*
Y27775D01*
X96125Y26725D02*
X96425D01*
X96275Y26575D02*
Y26875D01*
X94875Y27025D02*
X95175D01*
X95025Y26875D02*
Y27175D01*
X75300Y36300D02*
X75600D01*
X75450Y36150D02*
Y36450D01*
X76300Y36300D02*
X76600D01*
X76450Y36150D02*
Y36450D01*
X77300Y36300D02*
X77600D01*
X77450Y36150D02*
Y36450D01*
X75300Y37300D02*
X75600D01*
X75450Y37150D02*
Y37450D01*
X76300Y37300D02*
X76600D01*
X76450Y37150D02*
Y37450D01*
X77300Y37300D02*
X77600D01*
X77450Y37150D02*
Y37450D01*
X77300Y38300D02*
X77600D01*
X77450Y38150D02*
Y38450D01*
X76300Y38300D02*
X76600D01*
X76450Y38150D02*
Y38450D01*
X75300Y38300D02*
X75600D01*
X75450Y38150D02*
Y38450D01*
X11250Y35825D02*
X11550D01*
X11400Y35675D02*
Y35975D01*
X15550Y38200D02*
X15850D01*
X15700Y38050D02*
Y38350D01*
X11850Y30950D02*
X12150D01*
X12000Y30800D02*
Y31100D01*
X13375Y31725D02*
X13675D01*
X13525Y31575D02*
Y31875D01*
X71450Y41300D02*
X71650D01*
X71550Y41200D02*
Y41400D01*
X71075Y40825D02*
X71275D01*
X71175Y40725D02*
Y40925D01*
X66900Y35200D02*
X67100D01*
X67000Y35100D02*
Y35300D01*
X63300Y17400D02*
X63500D01*
X63400Y17300D02*
Y17500D01*
X63300Y17950D02*
X63500D01*
X63400Y17850D02*
Y18050D01*
X62925Y18600D02*
X63125D01*
X63025Y18500D02*
Y18700D01*
X61350Y17325D02*
X61650D01*
X61500Y17175D02*
Y17475D01*
X56225Y14075D02*
X56425D01*
X56325Y13975D02*
Y14175D01*
X52525Y12075D02*
X52725D01*
X52625Y11975D02*
Y12175D01*
X40275Y51425D02*
X40575D01*
X40425Y51275D02*
Y51575D01*
X70800Y53375D02*
X71100D01*
X70950Y53225D02*
Y53525D01*
X68275Y21175D02*
X68575D01*
X68425Y21025D02*
Y21325D01*
X68275Y23650D02*
X68575D01*
X68425Y23500D02*
Y23800D01*
X36300Y45625D02*
X36600D01*
X36450Y45475D02*
Y45775D01*
X25925Y59575D02*
X26225D01*
X26075Y59425D02*
Y59725D01*
X25925Y60200D02*
X26225D01*
X26075Y60050D02*
Y60350D01*
X38425Y62050D02*
X38725D01*
X38575Y61900D02*
Y62200D01*
X38450Y61350D02*
X38750D01*
X38600Y61200D02*
Y61500D01*
X39875Y62725D02*
X40075D01*
X39975Y62625D02*
Y62825D01*
X39525Y63150D02*
X39725D01*
X39625Y63050D02*
Y63250D01*
X38425Y62750D02*
X38725D01*
X38575Y62600D02*
Y62900D01*
X34550Y19925D02*
X34850D01*
X34700Y19775D02*
Y20075D01*
X61325Y25150D02*
X61525D01*
X61425Y25050D02*
Y25250D01*
X38350Y13825D02*
X38550D01*
X38450Y13725D02*
Y13925D01*
X38900Y14825D02*
X39100D01*
X39000Y14725D02*
Y14925D01*
X28600Y38050D02*
X28800D01*
X28700Y37950D02*
Y38150D01*
X27525Y38890D02*
X27725D01*
X27625Y38790D02*
Y38990D01*
X18976Y41352D02*
X19176D01*
X19076Y41252D02*
Y41452D01*
X96275Y7300D02*
X96475D01*
X96375Y7200D02*
Y7400D01*
X97400Y9750D02*
X97600D01*
X97500Y9650D02*
Y9850D01*
X98000Y12175D02*
X98200D01*
X98100Y12075D02*
Y12275D01*
X96900Y17500D02*
X97100D01*
X97000Y17400D02*
Y17600D01*
X95400Y22000D02*
X95600D01*
X95500Y21900D02*
Y22100D01*
X88900Y22500D02*
X89100D01*
X89000Y22400D02*
Y22600D01*
X90650Y21000D02*
X90850D01*
X90750Y20900D02*
Y21100D01*
X88650Y18500D02*
X88850D01*
X88750Y18400D02*
Y18600D01*
X94400Y29250D02*
X94600D01*
X94500Y29150D02*
Y29350D01*
X97400Y35250D02*
X97600D01*
X97500Y35150D02*
Y35350D01*
X97150Y39000D02*
X97350D01*
X97250Y38900D02*
Y39100D01*
X95150Y34250D02*
X95350D01*
X95250Y34150D02*
Y34350D01*
X95150Y45250D02*
X95350D01*
X95250Y45150D02*
Y45350D01*
X96900Y43000D02*
X97100D01*
X97000Y42900D02*
Y43100D01*
X91900Y43500D02*
X92100D01*
X92000Y43400D02*
Y43600D01*
X92150Y45500D02*
X92350D01*
X92250Y45400D02*
Y45600D01*
X97400Y47250D02*
X97600D01*
X97500Y47150D02*
Y47350D01*
X97400Y51250D02*
X97600D01*
X97500Y51150D02*
Y51350D01*
X97400Y54750D02*
X97600D01*
X97500Y54650D02*
Y54850D01*
X89650Y49250D02*
X89850D01*
X89750Y49150D02*
Y49350D01*
X89650Y53000D02*
X89850D01*
X89750Y52900D02*
Y53100D01*
X89650Y56000D02*
X89850D01*
X89750Y55900D02*
Y56100D01*
X85400Y53000D02*
X85600D01*
X85500Y52900D02*
Y53100D01*
X81900Y52000D02*
X82100D01*
X82000Y51900D02*
Y52100D01*
X77900Y53000D02*
X78100D01*
X78000Y52900D02*
Y53100D01*
X84150Y49750D02*
X84350D01*
X84250Y49650D02*
Y49850D01*
X81400Y48250D02*
X81600D01*
X81500Y48150D02*
Y48350D01*
X83400Y46500D02*
X83600D01*
X83500Y46400D02*
Y46600D01*
X81150Y50250D02*
X81350D01*
X81250Y50150D02*
Y50350D01*
X92900Y47750D02*
X93100D01*
X93000Y47650D02*
Y47850D01*
X94900Y49500D02*
X95100D01*
X95000Y49400D02*
Y49600D01*
X95150Y51750D02*
X95350D01*
X95250Y51650D02*
Y51850D01*
X94400Y53250D02*
X94600D01*
X94500Y53150D02*
Y53350D01*
X95150Y55000D02*
X95350D01*
X95250Y54900D02*
Y55100D01*
X95150Y56750D02*
X95350D01*
X95250Y56650D02*
Y56850D01*
X97650Y58250D02*
X97850D01*
X97750Y58150D02*
Y58350D01*
X97650Y63500D02*
X97850D01*
X97750Y63400D02*
Y63600D01*
X94900Y63250D02*
X95100D01*
X95000Y63150D02*
Y63350D01*
X96650Y61000D02*
X96850D01*
X96750Y60900D02*
Y61100D01*
X91900Y63500D02*
X92100D01*
X92000Y63400D02*
Y63600D01*
X91650Y61250D02*
X91850D01*
X91750Y61150D02*
Y61350D01*
X97400Y66250D02*
X97600D01*
X97500Y66150D02*
Y66350D01*
X97650Y68250D02*
X97850D01*
X97750Y68150D02*
Y68350D01*
X95150Y68250D02*
X95350D01*
X95250Y68150D02*
Y68350D01*
X94400Y66500D02*
X94600D01*
X94500Y66400D02*
Y66600D01*
X91900Y66000D02*
X92100D01*
X92000Y65900D02*
Y66100D01*
X89900Y67500D02*
X90100D01*
X90000Y67400D02*
Y67600D01*
X85650Y60750D02*
X85850D01*
X85750Y60650D02*
Y60850D01*
X83900Y60750D02*
X84100D01*
X84000Y60650D02*
Y60850D01*
X83400Y62750D02*
X83600D01*
X83500Y62650D02*
Y62850D01*
X81650Y62250D02*
X81850D01*
X81750Y62150D02*
Y62350D01*
X84150Y67500D02*
X84350D01*
X84250Y67400D02*
Y67600D01*
X83400Y65000D02*
X83600D01*
X83500Y64900D02*
Y65100D01*
X85650Y65000D02*
X85850D01*
X85750Y64900D02*
Y65100D01*
X72150Y56500D02*
X72350D01*
X72250Y56400D02*
Y56600D01*
X76125Y57800D02*
X76325D01*
X76225Y57700D02*
Y57900D01*
X76650Y59500D02*
X76850D01*
X76750Y59400D02*
Y59600D01*
X63650Y59500D02*
X63850D01*
X63750Y59400D02*
Y59600D01*
X59400Y59750D02*
X59600D01*
X59500Y59650D02*
Y59850D01*
X60550Y62725D02*
X60750D01*
X60650Y62625D02*
Y62825D01*
X53900Y59750D02*
X54100D01*
X54000Y59650D02*
Y59850D01*
X48625Y60000D02*
X48825D01*
X48725Y59900D02*
Y60100D01*
X46875Y59575D02*
X47075D01*
X46975Y59475D02*
Y59675D01*
X44925Y59450D02*
X45125D01*
X45025Y59350D02*
Y59550D01*
X17150Y6000D02*
X17350D01*
X17250Y5900D02*
Y6100D01*
X13150Y6000D02*
X13350D01*
X13250Y5900D02*
Y6100D01*
X7650Y5750D02*
X7850D01*
X7750Y5650D02*
Y5850D01*
X4650Y7000D02*
X4850D01*
X4750Y6900D02*
Y7100D01*
X8150Y15000D02*
X8350D01*
X8250Y14900D02*
Y15100D01*
X8400Y11500D02*
X8600D01*
X8500Y11400D02*
Y11600D01*
X11400Y9250D02*
X11600D01*
X11500Y9150D02*
Y9350D01*
X11900Y12250D02*
X12100D01*
X12000Y12150D02*
Y12350D01*
X11400Y16000D02*
X11600D01*
X11500Y15900D02*
Y16100D01*
X4650Y14750D02*
X4850D01*
X4750Y14650D02*
Y14850D01*
X5650Y17500D02*
X5850D01*
X5750Y17400D02*
Y17600D01*
X9650Y18250D02*
X9850D01*
X9750Y18150D02*
Y18350D01*
X11400Y20000D02*
X11600D01*
X11500Y19900D02*
Y20100D01*
X14400Y21750D02*
X14600D01*
X14500Y21650D02*
Y21850D01*
X20900Y9000D02*
X21100D01*
X21000Y8900D02*
Y9100D01*
X21400Y10500D02*
X21600D01*
X21500Y10400D02*
Y10600D01*
X18650Y13500D02*
X18850D01*
X18750Y13400D02*
Y13600D01*
X20650Y15250D02*
X20850D01*
X20750Y15150D02*
Y15350D01*
X18900Y17250D02*
X19100D01*
X19000Y17150D02*
Y17350D01*
X18900Y20000D02*
X19100D01*
X19000Y19900D02*
Y20100D01*
X20150Y21500D02*
X20350D01*
X20250Y21400D02*
Y21600D01*
X3650Y24000D02*
X3850D01*
X3750Y23900D02*
Y24100D01*
X4900Y29750D02*
X5100D01*
X5000Y29650D02*
Y29850D01*
X5650Y34250D02*
X5850D01*
X5750Y34150D02*
Y34350D01*
X10650Y40750D02*
X10850D01*
X10750Y40650D02*
Y40850D01*
X11650Y42500D02*
X11850D01*
X11750Y42400D02*
Y42600D01*
X13150Y49750D02*
X13350D01*
X13250Y49650D02*
Y49850D01*
X18900Y42750D02*
X19100D01*
X19000Y42650D02*
Y42850D01*
X11400Y50750D02*
X11600D01*
X11500Y50650D02*
Y50850D01*
X18400Y49750D02*
X18600D01*
X18500Y49650D02*
Y49850D01*
X16650Y53500D02*
X16850D01*
X16750Y53400D02*
Y53600D01*
X18400Y53500D02*
X18600D01*
X18500Y53400D02*
Y53600D01*
X20400Y52750D02*
X20600D01*
X20500Y52650D02*
Y52850D01*
X20400Y54750D02*
X20600D01*
X20500Y54650D02*
Y54850D01*
X22650Y52750D02*
X22850D01*
X22750Y52650D02*
Y52850D01*
X24150Y54801D02*
X24350D01*
X24250Y54701D02*
Y54901D01*
X23650Y56750D02*
X23850D01*
X23750Y56650D02*
Y56850D01*
X23150Y60500D02*
X23350D01*
X23250Y60400D02*
Y60600D01*
X24150Y61500D02*
X24350D01*
X24250Y61400D02*
Y61600D01*
X20400Y56500D02*
X20600D01*
X20500Y56400D02*
Y56600D01*
X20400Y58750D02*
X20600D01*
X20500Y58650D02*
Y58850D01*
X19650Y62500D02*
X19850D01*
X19750Y62400D02*
Y62600D01*
X17400Y56750D02*
X17600D01*
X17500Y56650D02*
Y56850D01*
X17400Y59250D02*
X17600D01*
X17500Y59150D02*
Y59350D01*
X17400Y61500D02*
X17600D01*
X17500Y61400D02*
Y61600D01*
X17400Y63750D02*
X17600D01*
X17500Y63650D02*
Y63850D01*
X17400Y65750D02*
X17600D01*
X17500Y65650D02*
Y65850D01*
X17400Y68000D02*
X17600D01*
X17500Y67900D02*
Y68100D01*
X21150Y64000D02*
X21350D01*
X21250Y63900D02*
Y64100D01*
X19650Y65000D02*
X19850D01*
X19750Y64900D02*
Y65100D01*
X18900Y67000D02*
X19100D01*
X19000Y66900D02*
Y67100D01*
X19150Y69000D02*
X19350D01*
X19250Y68900D02*
Y69100D01*
X650Y36250D02*
X850D01*
X750Y36150D02*
Y36350D01*
X650Y33000D02*
X850D01*
X750Y32900D02*
Y33100D01*
X650Y30000D02*
X850D01*
X750Y29900D02*
Y30100D01*
X650Y26500D02*
X850D01*
X750Y26400D02*
Y26600D01*
X650Y23000D02*
X850D01*
X750Y22900D02*
Y23100D01*
X650Y19250D02*
X850D01*
X750Y19150D02*
Y19350D01*
X650Y15750D02*
X850D01*
X750Y15650D02*
Y15850D01*
X650Y12500D02*
X850D01*
X750Y12400D02*
Y12600D01*
X650Y9000D02*
X850D01*
X750Y8900D02*
Y9100D01*
X650Y6250D02*
X850D01*
X750Y6150D02*
Y6350D01*
X650Y3750D02*
X850D01*
X750Y3650D02*
Y3850D01*
X3400Y3750D02*
X3600D01*
X3500Y3650D02*
Y3850D01*
X6375Y3775D02*
X6575D01*
X6475Y3675D02*
Y3875D01*
X16900Y3750D02*
X17100D01*
X17000Y3650D02*
Y3850D01*
X21900Y3750D02*
X22100D01*
X22000Y3650D02*
Y3850D01*
X27150Y3750D02*
X27350D01*
X27250Y3650D02*
Y3850D01*
X31050Y4800D02*
X31250D01*
X31150Y4700D02*
Y4900D01*
X39550Y2625D02*
X39750D01*
X39650Y2525D02*
Y2725D01*
X43650Y3750D02*
X43850D01*
X43750Y3650D02*
Y3850D01*
X80150Y3750D02*
X80350D01*
X80250Y3650D02*
Y3850D01*
X82900Y3750D02*
X83100D01*
X83000Y3650D02*
Y3850D01*
X85150Y3750D02*
X85350D01*
X85250Y3650D02*
Y3850D01*
X92400Y3750D02*
X92600D01*
X92500Y3650D02*
Y3850D01*
X97150Y3750D02*
X97350D01*
X97250Y3650D02*
Y3850D01*
X100150Y3750D02*
X100350D01*
X100250Y3650D02*
Y3850D01*
X100150Y12000D02*
X100350D01*
X100250Y11900D02*
Y12100D01*
X100150Y9750D02*
X100350D01*
X100250Y9650D02*
Y9850D01*
X100150Y7500D02*
X100350D01*
X100250Y7400D02*
Y7600D01*
X100150Y5000D02*
X100350D01*
X100250Y4900D02*
Y5100D01*
X100150Y21750D02*
X100350D01*
X100250Y21650D02*
Y21850D01*
X100150Y19500D02*
X100350D01*
X100250Y19400D02*
Y19600D01*
X100150Y14750D02*
X100350D01*
X100250Y14650D02*
Y14850D01*
X100150Y31500D02*
X100350D01*
X100250Y31400D02*
Y31600D01*
X100150Y29250D02*
X100350D01*
X100250Y29150D02*
Y29350D01*
X100150Y27000D02*
X100350D01*
X100250Y26900D02*
Y27100D01*
X100150Y24500D02*
X100350D01*
X100250Y24400D02*
Y24600D01*
X100150Y41250D02*
X100350D01*
X100250Y41150D02*
Y41350D01*
X100150Y39000D02*
X100350D01*
X100250Y38900D02*
Y39100D01*
X100150Y36750D02*
X100350D01*
X100250Y36650D02*
Y36850D01*
X100150Y34250D02*
X100350D01*
X100250Y34150D02*
Y34350D01*
X100150Y50750D02*
X100350D01*
X100250Y50650D02*
Y50850D01*
X100150Y48500D02*
X100350D01*
X100250Y48400D02*
Y48600D01*
X100150Y46250D02*
X100350D01*
X100250Y46150D02*
Y46350D01*
X100150Y43750D02*
X100350D01*
X100250Y43650D02*
Y43850D01*
X100150Y60500D02*
X100350D01*
X100250Y60400D02*
Y60600D01*
X100150Y58250D02*
X100350D01*
X100250Y58150D02*
Y58350D01*
X100150Y56000D02*
X100350D01*
X100250Y55900D02*
Y56100D01*
X100150Y53500D02*
X100350D01*
X100250Y53400D02*
Y53600D01*
X100150Y63250D02*
X100350D01*
X100250Y63150D02*
Y63350D01*
X100150Y65750D02*
X100350D01*
X100250Y65650D02*
Y65850D01*
X100150Y68000D02*
X100350D01*
X100250Y67900D02*
Y68100D01*
X98400Y70250D02*
X98600D01*
X98500Y70150D02*
Y70350D01*
X96400Y70250D02*
X96600D01*
X96500Y70150D02*
Y70350D01*
X100150Y70250D02*
X100350D01*
X100250Y70150D02*
Y70350D01*
X94400Y70250D02*
X94600D01*
X94500Y70150D02*
Y70350D01*
X90900Y70250D02*
X91100D01*
X91000Y70150D02*
Y70350D01*
X88650Y70250D02*
X88850D01*
X88750Y70150D02*
Y70350D01*
X85150Y70250D02*
X85350D01*
X85250Y70150D02*
Y70350D01*
X82650Y70250D02*
X82850D01*
X82750Y70150D02*
Y70350D01*
X77900Y70250D02*
X78100D01*
X78000Y70150D02*
Y70350D01*
X75400Y70250D02*
X75600D01*
X75500Y70150D02*
Y70350D01*
X24400Y70250D02*
X24600D01*
X24500Y70150D02*
Y70350D01*
X20150Y70250D02*
X20350D01*
X20250Y70150D02*
Y70350D01*
X17400Y70250D02*
X17600D01*
X17500Y70150D02*
Y70350D01*
X51680Y30415D02*
X51880D01*
X51780Y30315D02*
Y30515D01*
X50255Y29665D02*
X50455D01*
X50355Y29565D02*
Y29765D01*
X59880Y28140D02*
X60080D01*
X59980Y28040D02*
Y28240D01*
X58631Y28365D02*
X58831D01*
X58731Y28265D02*
Y28465D01*
X36155Y17365D02*
X36355D01*
X36255Y17265D02*
Y17465D01*
X57731Y28590D02*
X57931D01*
X57831Y28490D02*
Y28690D01*
X57756Y27890D02*
X57956D01*
X57856Y27790D02*
Y27990D01*
X57006Y27890D02*
X57206D01*
X57106Y27790D02*
Y27990D01*
X66856Y36391D02*
X67056D01*
X66956Y36291D02*
Y36491D01*
X67305Y36815D02*
X67505D01*
X67405Y36715D02*
Y36915D01*
X72603Y33031D02*
X72802D01*
X72702Y32931D02*
Y33131D01*
X71880Y33715D02*
X72080D01*
X71980Y33615D02*
Y33815D01*
X71580Y34915D02*
X71780D01*
X71680Y34815D02*
Y35015D01*
X71005Y34890D02*
X71205D01*
X71105Y34790D02*
Y34990D01*
X70505Y35065D02*
X70705D01*
X70605Y34965D02*
Y35165D01*
X60280Y27690D02*
X60480D01*
X60380Y27590D02*
Y27790D01*
X66330Y34965D02*
X66530D01*
X66430Y34865D02*
Y35065D01*
X61462Y28015D02*
X61662D01*
X61562Y27915D02*
Y28115D01*
X65830Y34015D02*
X66030D01*
X65930Y33915D02*
Y34115D01*
X65155Y33115D02*
X65355D01*
X65255Y33015D02*
Y33215D01*
X65805Y31365D02*
X66005D01*
X65905Y31265D02*
Y31465D01*
X41775Y19740D02*
X41975D01*
X41875Y19640D02*
Y19840D01*
X59131Y28565D02*
X59331D01*
X59231Y28465D02*
Y28665D01*
X59955Y29327D02*
X60155D01*
X60055Y29227D02*
Y29427D01*
X62430Y28390D02*
X62630D01*
X62530Y28290D02*
Y28490D01*
X57730Y61265D02*
X57930D01*
X57830Y61165D02*
Y61365D01*
X61430Y28915D02*
X61630D01*
X61530Y28815D02*
Y29015D01*
X62930Y38315D02*
X63130D01*
X63030Y38215D02*
Y38415D01*
X54205Y62690D02*
X54405D01*
X54305Y62590D02*
Y62790D01*
X57280Y59515D02*
X57480D01*
X57380Y59415D02*
Y59615D01*
X66205Y37040D02*
X66405D01*
X66305Y36940D02*
Y37140D01*
X57681Y7314D02*
X57881D01*
X57781Y7214D02*
Y7414D01*
X56680Y62265D02*
X56880D01*
X56780Y62165D02*
Y62365D01*
X63480Y37765D02*
X63680D01*
X63580Y37665D02*
Y37865D01*
X60731Y28915D02*
X60931D01*
X60831Y28815D02*
Y29015D01*
X56756Y63492D02*
X56956D01*
X56856Y63392D02*
Y63592D01*
X65481Y36291D02*
X65681D01*
X65581Y36191D02*
Y36391D01*
X65305Y36815D02*
X65505D01*
X65405Y36715D02*
Y36915D01*
X64680Y36840D02*
X64880D01*
X64780Y36740D02*
Y36940D01*
X67005Y33615D02*
X67205D01*
X67105Y33515D02*
Y33715D01*
X67406Y32990D02*
X67606D01*
X67506Y32890D02*
Y33090D01*
X68180Y33722D02*
X68380D01*
X68280Y33623D02*
Y33822D01*
X68880Y34315D02*
X69080D01*
X68980Y34215D02*
Y34415D01*
X69481Y34365D02*
X69681D01*
X69581Y34265D02*
Y34465D01*
X69455Y33790D02*
X69655D01*
X69555Y33690D02*
Y33890D01*
X69911Y34084D02*
X70111D01*
X70011Y33984D02*
Y34184D01*
X71180Y33615D02*
X71480D01*
X71330Y33465D02*
Y33765D01*
X73406Y33140D02*
X73606D01*
X73506Y33040D02*
Y33240D01*
X24825Y30965D02*
X25025D01*
X24925Y30865D02*
Y31065D01*
X36930Y17965D02*
X37130D01*
X37030Y17865D02*
Y18065D01*
X55781Y19890D02*
X55981D01*
X55881Y19790D02*
Y19990D01*
X39905Y31690D02*
X40105D01*
X40005Y31590D02*
Y31790D01*
X37155Y18465D02*
X37355D01*
X37255Y18365D02*
Y18565D01*
X56406Y21265D02*
X56606D01*
X56506Y21165D02*
Y21365D01*
X37180Y19015D02*
X37380D01*
X37280Y18915D02*
Y19115D01*
X55888Y21423D02*
X56088D01*
X55988Y21323D02*
Y21523D01*
X56930Y21390D02*
X57130D01*
X57030Y21290D02*
Y21490D01*
X48830Y63215D02*
X49030D01*
X48930Y63115D02*
Y63315D01*
X25230Y64065D02*
X25430D01*
X25330Y63965D02*
Y64165D01*
X50680Y9666D02*
X50880D01*
X50780Y9566D02*
Y9766D01*
X38750Y9565D02*
X39050D01*
X38900Y9415D02*
Y9715D01*
X30305Y17015D02*
X30605D01*
X30455Y16865D02*
Y17165D01*
X37255Y20040D02*
X37455D01*
X37355Y19940D02*
Y20140D01*
X69530Y11840D02*
X69730D01*
X69630Y11740D02*
Y11940D01*
X69705Y11340D02*
X69905D01*
X69805Y11240D02*
Y11440D01*
X70380Y11390D02*
X70580D01*
X70480Y11290D02*
Y11490D01*
X64455Y24140D02*
X64655D01*
X64555Y24040D02*
Y24240D01*
X65005Y23740D02*
X65205D01*
X65105Y23640D02*
Y23840D01*
X65630Y27015D02*
X65830D01*
X65730Y26915D02*
Y27115D01*
X65530Y27965D02*
X65830D01*
X65680Y27815D02*
Y28115D01*
X54197Y23000D02*
X54397D01*
X54297Y22900D02*
Y23100D01*
X53297Y22800D02*
X53497D01*
X53397Y22700D02*
Y22900D01*
X52880Y23090D02*
X53080D01*
X52980Y22990D02*
Y23190D01*
X55030Y21865D02*
X55330D01*
X55180Y21715D02*
Y22015D01*
X54730Y21290D02*
X54930D01*
X54830Y21190D02*
Y21390D01*
X52730Y22365D02*
X52930D01*
X52830Y22265D02*
Y22465D01*
X54705Y12190D02*
X54905D01*
X54805Y12090D02*
Y12290D01*
X25155Y60765D02*
X25355D01*
X25255Y60665D02*
Y60865D01*
X37955Y21340D02*
X38155D01*
X38055Y21240D02*
Y21440D01*
X39205Y20790D02*
X39405D01*
X39305Y20690D02*
Y20890D01*
X52155Y23465D02*
X52355D01*
X52255Y23365D02*
Y23565D01*
X51780Y23840D02*
X51980D01*
X51880Y23740D02*
Y23940D01*
X17850Y55500D02*
X18050D01*
X17950Y55400D02*
Y55600D01*
X13150Y51575D02*
X13350D01*
X13250Y51475D02*
Y51675D01*
X55130Y8315D02*
X55430D01*
X55280Y8165D02*
Y8465D01*
X53555Y32940D02*
X53755D01*
X53655Y32840D02*
Y33040D01*
X53405Y31865D02*
X53605D01*
X53505Y31765D02*
Y31965D01*
X51605Y28415D02*
X51805D01*
X51705Y28315D02*
Y28515D01*
X51605Y29715D02*
X51805D01*
X51705Y29615D02*
Y29815D01*
X50955Y29065D02*
X51155D01*
X51055Y28965D02*
Y29165D01*
X52255Y31665D02*
X52455D01*
X52355Y31565D02*
Y31765D01*
X51605Y31015D02*
X51805D01*
X51705Y30915D02*
Y31115D01*
X51600Y31660D02*
X51800D01*
X51700Y31560D02*
Y31760D01*
X50950Y31010D02*
X51150D01*
X51050Y30910D02*
Y31110D01*
X49655Y29715D02*
X49855D01*
X49755Y29615D02*
Y29815D01*
X48355Y28415D02*
X48555D01*
X48455Y28315D02*
Y28515D01*
X50955Y31665D02*
X51155D01*
X51055Y31565D02*
Y31765D01*
X49655Y30365D02*
X49855D01*
X49755Y30265D02*
Y30465D01*
X48355Y29065D02*
X48555D01*
X48455Y28965D02*
Y29165D01*
X50295Y31655D02*
X50495D01*
X50395Y31555D02*
Y31755D01*
X48990Y30350D02*
X49190D01*
X49090Y30250D02*
Y30450D01*
X47700Y29060D02*
X47900D01*
X47800Y28960D02*
Y29160D01*
X49005Y31015D02*
X49205D01*
X49105Y30915D02*
Y31115D01*
X49005Y31665D02*
X49205D01*
X49105Y31565D02*
Y31765D01*
X47705Y30365D02*
X47905D01*
X47805Y30265D02*
Y30465D01*
X48355Y31665D02*
X48555D01*
X48455Y31565D02*
Y31765D01*
X52255Y29715D02*
X52455D01*
X52355Y29615D02*
Y29815D01*
X51605Y29065D02*
X51805D01*
X51705Y28965D02*
Y29165D01*
X52255Y31015D02*
X52455D01*
X52355Y30915D02*
Y31115D01*
X50955Y29715D02*
X51155D01*
X51055Y29615D02*
Y29815D01*
X49655Y28415D02*
X49855D01*
X49755Y28315D02*
Y28515D01*
X27030Y34690D02*
X27330D01*
X27180Y34540D02*
Y34840D01*
X5975Y40700D02*
X6275D01*
X6125Y40550D02*
Y40850D01*
X4850Y56375D02*
X5150D01*
X5000Y56225D02*
Y56525D01*
X6100Y57375D02*
X6400D01*
X6250Y57225D02*
Y57525D01*
X7275Y57375D02*
X7575D01*
X7425Y57225D02*
Y57525D01*
X8425Y57375D02*
X8725D01*
X8575Y57225D02*
Y57525D01*
X9675Y57375D02*
X9975D01*
X9825Y57225D02*
Y57525D01*
X10975Y57375D02*
X11275D01*
X11125Y57225D02*
Y57525D01*
X12375Y57375D02*
X12675D01*
X12525Y57225D02*
Y57525D01*
X6100Y56375D02*
X6400D01*
X6250Y56225D02*
Y56525D01*
X7275Y56375D02*
X7575D01*
X7425Y56225D02*
Y56525D01*
X8425Y56375D02*
X8725D01*
X8575Y56225D02*
Y56525D01*
X9675Y56375D02*
X9975D01*
X9825Y56225D02*
Y56525D01*
X10975Y56375D02*
X11275D01*
X11125Y56225D02*
Y56525D01*
X12375Y56375D02*
X12675D01*
X12525Y56225D02*
Y56525D01*
X12375Y55275D02*
X12675D01*
X12525Y55125D02*
Y55425D01*
X10975Y55275D02*
X11275D01*
X11125Y55125D02*
Y55425D01*
X9675Y55275D02*
X9975D01*
X9825Y55125D02*
Y55425D01*
X8425Y55275D02*
X8725D01*
X8575Y55125D02*
Y55425D01*
X7275Y55275D02*
X7575D01*
X7425Y55125D02*
Y55425D01*
X6100Y55275D02*
X6400D01*
X6250Y55125D02*
Y55425D01*
X4825Y58475D02*
X5125D01*
X4975Y58325D02*
Y58625D01*
X6100Y58475D02*
X6400D01*
X6250Y58325D02*
Y58625D01*
X7275Y58475D02*
X7575D01*
X7425Y58325D02*
Y58625D01*
X8425Y58475D02*
X8725D01*
X8575Y58325D02*
Y58625D01*
X9675Y58475D02*
X9975D01*
X9825Y58325D02*
Y58625D01*
X10975Y58475D02*
X11275D01*
X11125Y58325D02*
Y58625D01*
X12375Y58475D02*
X12675D01*
X12525Y58325D02*
Y58625D01*
X12375Y59575D02*
X12675D01*
X12525Y59425D02*
Y59725D01*
X10975Y59575D02*
X11275D01*
X11125Y59425D02*
Y59725D01*
X9675Y59575D02*
X9975D01*
X9825Y59425D02*
Y59725D01*
X8425Y59575D02*
X8725D01*
X8575Y59425D02*
Y59725D01*
X7275Y59575D02*
X7575D01*
X7425Y59425D02*
Y59725D01*
X6100Y59575D02*
X6400D01*
X6250Y59425D02*
Y59725D01*
X4850Y59575D02*
X5150D01*
X5000Y59425D02*
Y59725D01*
X15050Y54300D02*
X15350D01*
X15200Y54150D02*
Y54450D01*
X15050Y55500D02*
X15350D01*
X15200Y55350D02*
Y55650D01*
X15050Y56750D02*
X15350D01*
X15200Y56600D02*
Y56900D01*
X15050Y57900D02*
X15350D01*
X15200Y57750D02*
Y58050D01*
X15050Y58975D02*
X15350D01*
X15200Y58825D02*
Y59125D01*
X15050Y60075D02*
X15350D01*
X15200Y59925D02*
Y60225D01*
X15050Y61225D02*
X15350D01*
X15200Y61075D02*
Y61375D01*
X15050Y62325D02*
X15350D01*
X15200Y62175D02*
Y62475D01*
X15050Y63525D02*
X15350D01*
X15200Y63375D02*
Y63675D01*
X15050Y64675D02*
X15350D01*
X15200Y64525D02*
Y64825D01*
X15050Y65825D02*
X15350D01*
X15200Y65675D02*
Y65975D01*
X15050Y66900D02*
X15350D01*
X15200Y66750D02*
Y67050D01*
X15050Y68000D02*
X15350D01*
X15200Y67850D02*
Y68150D01*
X15050Y69100D02*
X15350D01*
X15200Y68950D02*
Y69250D01*
X15050Y70250D02*
X15350D01*
X15200Y70100D02*
Y70400D01*
X10000Y53800D02*
X10300D01*
X10150Y53650D02*
Y53950D01*
X11250Y53800D02*
X11550D01*
X11400Y53650D02*
Y53950D01*
X12575Y53800D02*
X12875D01*
X12725Y53650D02*
Y53950D01*
X5250Y53900D02*
X5550D01*
X5400Y53750D02*
Y54050D01*
X3800Y53900D02*
X4100D01*
X3950Y53750D02*
Y54050D01*
X5150Y44875D02*
X5450D01*
X5300Y44725D02*
Y45025D01*
X3650Y44875D02*
X3950D01*
X3800Y44725D02*
Y45025D01*
X5150Y46900D02*
X5450D01*
X5300Y46750D02*
Y47050D01*
X3650Y46900D02*
X3950D01*
X3800Y46750D02*
Y47050D01*
X7475Y38700D02*
X7775D01*
X7625Y38550D02*
Y38850D01*
X6000Y38700D02*
X6300D01*
X6150Y38550D02*
Y38850D01*
X4525Y38700D02*
X4825D01*
X4675Y38550D02*
Y38850D01*
X3075Y38700D02*
X3375D01*
X3225Y38550D02*
Y38850D01*
X1650Y38700D02*
X1950D01*
X1800Y38550D02*
Y38850D01*
X550Y38700D02*
X850D01*
X700Y38550D02*
Y38850D01*
X550Y39825D02*
X850D01*
X700Y39675D02*
Y39975D01*
X550Y41075D02*
X850D01*
X700Y40925D02*
Y41225D01*
X550Y42425D02*
X850D01*
X700Y42275D02*
Y42575D01*
X550Y43700D02*
X850D01*
X700Y43550D02*
Y43850D01*
X550Y46200D02*
X850D01*
X700Y46050D02*
Y46350D01*
X550Y47325D02*
X850D01*
X700Y47175D02*
Y47475D01*
X550Y48550D02*
X850D01*
X700Y48400D02*
Y48700D01*
X650Y51275D02*
X950D01*
X800Y51125D02*
Y51425D01*
X575Y49825D02*
X875D01*
X725Y49675D02*
Y49975D01*
X3775Y51250D02*
X4075D01*
X3925Y51100D02*
Y51400D01*
X4225Y50726D02*
X4425D01*
X4325Y50626D02*
Y50826D01*
X4675Y50425D02*
X4875D01*
X4775Y50325D02*
Y50525D01*
X3775Y50425D02*
X3975D01*
X3875Y50325D02*
Y50525D01*
X5700Y50850D02*
X6000D01*
X5850Y50700D02*
Y51000D01*
X10000Y52400D02*
X10300D01*
X10150Y52250D02*
Y52550D01*
X6850Y54100D02*
X7150D01*
X7000Y53950D02*
Y54250D01*
X8300Y54100D02*
X8600D01*
X8450Y53950D02*
Y54250D01*
X7363Y49825D02*
X7662D01*
X7512Y49675D02*
Y49975D01*
X9425Y51600D02*
X9725D01*
X9575Y51450D02*
Y51750D01*
X11625Y48600D02*
X11925D01*
X11775Y48450D02*
Y48750D01*
X10325Y49400D02*
X10625D01*
X10475Y49250D02*
Y49550D01*
X7575Y47800D02*
X7875D01*
X7725Y47650D02*
Y47950D01*
X8650Y47350D02*
X8850D01*
X8750Y47250D02*
Y47450D01*
X7375Y46900D02*
X7575D01*
X7475Y46800D02*
Y47000D01*
X10351Y46902D02*
X10551D01*
X10451Y46802D02*
Y47002D01*
X9175Y42975D02*
X9475D01*
X9325Y42825D02*
Y43125D01*
X11625Y47500D02*
X11925D01*
X11775Y47350D02*
Y47650D01*
X11625Y46300D02*
X11925D01*
X11775Y46150D02*
Y46450D01*
X11625Y45100D02*
X11925D01*
X11775Y44950D02*
Y45250D01*
X11625Y43900D02*
X11925D01*
X11775Y43750D02*
Y44050D01*
X10351Y45702D02*
X10551D01*
X10451Y45602D02*
Y45802D01*
X10351Y44502D02*
X10551D01*
X10451Y44402D02*
Y44602D01*
X10351Y43302D02*
X10551D01*
X10451Y43202D02*
Y43402D01*
X1713Y43375D02*
X2013D01*
X1863Y43225D02*
Y43525D01*
X8275Y43275D02*
X8475D01*
X8375Y43175D02*
Y43375D01*
X7325Y43137D02*
X7625D01*
X7475Y42987D02*
Y43287D01*
X6150Y43300D02*
X6350D01*
X6250Y43200D02*
Y43400D01*
X5525Y42325D02*
X5825D01*
X5675Y42175D02*
Y42475D01*
X3325Y43375D02*
X3525D01*
X3425Y43275D02*
Y43475D01*
X1524Y44650D02*
X1724D01*
X1624Y44550D02*
Y44750D01*
X1524Y45550D02*
X1724D01*
X1624Y45450D02*
Y45650D01*
X1825Y45100D02*
X2025D01*
X1925Y45000D02*
Y45200D01*
X1825Y46000D02*
X2025D01*
X1925Y45900D02*
Y46100D01*
X1524Y47350D02*
X1724D01*
X1624Y47250D02*
Y47450D01*
X1825Y47800D02*
X2025D01*
X1925Y47700D02*
Y47900D01*
X1524Y48250D02*
X1724D01*
X1624Y48150D02*
Y48350D01*
X1825Y48700D02*
X2025D01*
X1925Y48600D02*
Y48800D01*
X13800Y53800D02*
X14100D01*
X13950Y53650D02*
Y53950D01*
X13800Y54875D02*
X14100D01*
X13950Y54725D02*
Y55025D01*
X13800Y56075D02*
X14100D01*
X13950Y55925D02*
Y56225D01*
X13800Y57400D02*
X14100D01*
X13950Y57250D02*
Y57550D01*
X13800Y58475D02*
X14100D01*
X13950Y58325D02*
Y58625D01*
X13800Y59500D02*
X14100D01*
X13950Y59350D02*
Y59650D01*
X13800Y60575D02*
X14100D01*
X13950Y60425D02*
Y60725D01*
X12375Y60575D02*
X12675D01*
X12525Y60425D02*
Y60725D01*
X10975Y60575D02*
X11275D01*
X11125Y60425D02*
Y60725D01*
X9675Y60575D02*
X9975D01*
X9825Y60425D02*
Y60725D01*
X8425Y60575D02*
X8725D01*
X8575Y60425D02*
Y60725D01*
X7275Y60575D02*
X7575D01*
X7425Y60425D02*
Y60725D01*
X6100Y60575D02*
X6400D01*
X6250Y60425D02*
Y60725D01*
X4850Y60575D02*
X5150D01*
X5000Y60425D02*
Y60725D01*
X575Y59625D02*
X875D01*
X725Y59475D02*
Y59775D01*
X575Y58700D02*
X875D01*
X725Y58550D02*
Y58850D01*
X575Y57725D02*
X875D01*
X725Y57575D02*
Y57875D01*
X575Y56750D02*
X875D01*
X725Y56600D02*
Y56900D01*
X575Y55875D02*
X875D01*
X725Y55725D02*
Y56025D01*
X575Y54900D02*
X875D01*
X725Y54750D02*
Y55050D01*
X575Y53775D02*
X875D01*
X725Y53625D02*
Y53925D01*
X2050Y59600D02*
X2350D01*
X2200Y59450D02*
Y59750D01*
X3600Y59575D02*
X3900D01*
X3750Y59425D02*
Y59725D01*
X3600Y60575D02*
X3900D01*
X3750Y60425D02*
Y60725D01*
Y58525D02*
X4050D01*
X3900Y58375D02*
Y58675D01*
X3875Y55700D02*
X4175D01*
X4025Y55550D02*
Y55850D01*
X3875Y56925D02*
X4175D01*
X4025Y56775D02*
Y57075D01*
X1875Y54900D02*
X2175D01*
X2025Y54750D02*
Y55050D01*
X1775Y55875D02*
X2075D01*
X1925Y55725D02*
Y56025D01*
X1775Y56775D02*
X2075D01*
X1925Y56625D02*
Y56925D01*
X1875Y57725D02*
X2175D01*
X2025Y57575D02*
Y57875D01*
X2050Y58700D02*
X2350D01*
X2200Y58550D02*
Y58850D01*
X575Y60575D02*
X875D01*
X725Y60425D02*
Y60725D01*
X2050Y60575D02*
X2350D01*
X2200Y60425D02*
Y60725D01*
X4500Y54900D02*
X4800D01*
X4650Y54750D02*
Y55050D01*
X4500Y57725D02*
X4800D01*
X4650Y57575D02*
Y57875D01*
X38425Y54125D02*
X38725D01*
X38575Y53975D02*
Y54275D01*
X39200Y54575D02*
X39500D01*
X39350Y54425D02*
Y54725D01*
X32750Y55475D02*
X32950D01*
X32850Y55375D02*
Y55575D01*
X25925Y60825D02*
X26225D01*
X26075Y60675D02*
Y60975D01*
X38500Y58025D02*
X38800D01*
X38650Y57875D02*
Y58175D01*
X35575Y58225D02*
X35775D01*
X35675Y58125D02*
Y58325D01*
X59095Y57730D02*
X59295D01*
X59195Y57630D02*
Y57830D01*
X63094Y61469D02*
X63394D01*
X63244Y61319D02*
Y61619D01*
X65600Y63875D02*
X65900D01*
X65750Y63725D02*
Y64025D01*
X65625Y61400D02*
X65925D01*
X65775Y61250D02*
Y61550D01*
X66753Y59300D02*
X66953D01*
X66853Y59200D02*
Y59400D01*
X29700Y42975D02*
X30000D01*
X29850Y42825D02*
Y43125D01*
X28675Y46150D02*
X28975D01*
X28825Y46000D02*
Y46300D01*
X25950Y43325D02*
X26250D01*
X26100Y43175D02*
Y43475D01*
X25776Y42527D02*
X25976D01*
X25876Y42427D02*
Y42627D01*
X25775Y42025D02*
X25975D01*
X25875Y41925D02*
Y42125D01*
X14125Y24400D02*
X14425D01*
X14275Y24250D02*
Y24550D01*
X8600Y24400D02*
X8900D01*
X8750Y24250D02*
Y24550D01*
X13400Y34675D02*
X13700D01*
X13550Y34525D02*
Y34825D01*
X5000Y22800D02*
X5300D01*
X5150Y22650D02*
Y22950D01*
X19675Y23125D02*
X19975D01*
X19825Y22975D02*
Y23275D01*
X24550Y21575D02*
X24850D01*
X24700Y21425D02*
Y21725D01*
X25075Y23025D02*
X25275D01*
X25175Y22925D02*
Y23125D01*
X17325Y27025D02*
X17625D01*
X17475Y26875D02*
Y27175D01*
X23225Y24475D02*
X23525D01*
X23375Y24325D02*
Y24625D01*
X25875Y23375D02*
X26075D01*
X25975Y23275D02*
Y23475D01*
X25875Y24550D02*
X26075D01*
X25975Y24450D02*
Y24650D01*
X26425Y25700D02*
X26625D01*
X26525Y25600D02*
Y25800D01*
X25550Y20900D02*
X25750D01*
X25650Y20800D02*
Y21000D01*
X27625Y24325D02*
X27925D01*
X27775Y24175D02*
Y24475D01*
X30700Y24300D02*
X31000D01*
X30850Y24150D02*
Y24450D01*
X27725Y22725D02*
X28025D01*
X27875Y22575D02*
Y22875D01*
X30675Y21800D02*
X30975D01*
X30825Y21650D02*
Y21950D01*
X29150Y22750D02*
X29450D01*
X29300Y22600D02*
Y22900D01*
X27725Y13800D02*
X28025D01*
X27875Y13650D02*
Y13950D01*
X25675Y21750D02*
X25975D01*
X25825Y21600D02*
Y21900D01*
X31600Y20400D02*
X31900D01*
X31750Y20250D02*
Y20550D01*
X26700Y20400D02*
X27000D01*
X26850Y20250D02*
Y20550D01*
X26325Y19325D02*
X26625D01*
X26475Y19175D02*
Y19475D01*
X30200Y19400D02*
X30400D01*
X30300Y19300D02*
Y19500D01*
X28200Y19400D02*
X28400D01*
X28300Y19300D02*
Y19500D01*
X31450Y26225D02*
X31750D01*
X31600Y26075D02*
Y26375D01*
X38075Y29475D02*
X38275D01*
X38175Y29375D02*
Y29575D01*
X38075Y30400D02*
X38375D01*
X38225Y30250D02*
Y30550D01*
X36350Y30400D02*
X36650D01*
X36500Y30250D02*
Y30550D01*
X36350Y29475D02*
X36550D01*
X36450Y29375D02*
Y29575D01*
X34650Y30400D02*
X34950D01*
X34800Y30250D02*
Y30550D01*
X34650Y29475D02*
X34850D01*
X34750Y29375D02*
Y29575D01*
X32950Y30400D02*
X33250D01*
X33100Y30250D02*
Y30550D01*
X32950Y29500D02*
X33150D01*
X33050Y29400D02*
Y29600D01*
X31250Y30400D02*
X31550D01*
X31400Y30250D02*
Y30550D01*
X31250Y29500D02*
X31450D01*
X31350Y29400D02*
Y29600D01*
X29550Y29500D02*
X29750D01*
X29650Y29400D02*
Y29600D01*
X29550Y30400D02*
X29850D01*
X29700Y30250D02*
Y30550D01*
X21000Y30075D02*
X21300D01*
X21150Y29925D02*
Y30225D01*
X21000Y29250D02*
X21300D01*
X21150Y29100D02*
Y29400D01*
X27725Y30325D02*
X28025D01*
X27875Y30175D02*
Y30475D01*
X26575Y30350D02*
X26875D01*
X26725Y30200D02*
Y30500D01*
X24300Y30350D02*
X24600D01*
X24450Y30200D02*
Y30500D01*
X24300Y29450D02*
X24600D01*
X24450Y29300D02*
Y29600D01*
X24300Y28550D02*
X24600D01*
X24450Y28400D02*
Y28700D01*
X24300Y27650D02*
X24600D01*
X24450Y27500D02*
Y27800D01*
X27875Y29075D02*
X28175D01*
X28025Y28925D02*
Y29225D01*
X26976Y28351D02*
X27276D01*
X27126Y28201D02*
Y28501D01*
X28000Y27375D02*
X28300D01*
X28150Y27225D02*
Y27525D01*
X4800Y12050D02*
X5100D01*
X4950Y11900D02*
Y12200D01*
X1650Y12050D02*
X1950D01*
X1800Y11900D02*
Y12200D01*
X1650Y22750D02*
X1950D01*
X1800Y22600D02*
Y22900D01*
X10500Y13875D02*
X10800D01*
X10650Y13725D02*
Y14025D01*
X18425Y28400D02*
X18725D01*
X18575Y28250D02*
Y28550D01*
X13925Y28875D02*
X14225D01*
X14075Y28725D02*
Y29025D01*
X9125Y39425D02*
X9425D01*
X9275Y39275D02*
Y39575D01*
X9125Y38450D02*
X9425D01*
X9275Y38300D02*
Y38600D01*
X6300Y37225D02*
X6600D01*
X6450Y37075D02*
Y37375D01*
X10800Y36300D02*
X11100D01*
X10950Y36150D02*
Y36450D01*
X14225Y38900D02*
X14525D01*
X14375Y38750D02*
Y39050D01*
X14250Y40900D02*
X14550D01*
X14400Y40750D02*
Y41050D01*
X15550Y40900D02*
X15850D01*
X15700Y40750D02*
Y41050D01*
X15550Y38950D02*
X15850D01*
X15700Y38800D02*
Y39100D01*
X18425Y31500D02*
X18725D01*
X18575Y31350D02*
Y31650D01*
X18941Y32800D02*
X19241D01*
X19091Y32650D02*
Y32950D01*
X18310Y44590D02*
X18510D01*
X18410Y44490D02*
Y44690D01*
X19000Y44650D02*
X19200D01*
X19100Y44550D02*
Y44750D01*
X19276Y46327D02*
X19576D01*
X19426Y46177D02*
Y46477D01*
X14125Y42475D02*
X14425D01*
X14275Y42325D02*
Y42625D01*
X14125Y43575D02*
X14425D01*
X14275Y43425D02*
Y43725D01*
X14125Y44675D02*
X14425D01*
X14275Y44525D02*
Y44825D01*
X14125Y46875D02*
X14425D01*
X14275Y46725D02*
Y47025D01*
X14125Y49075D02*
X14425D01*
X14275Y48925D02*
Y49225D01*
X14125Y50175D02*
X14425D01*
X14275Y50025D02*
Y50325D01*
X16725Y46875D02*
X16925D01*
X16825Y46775D02*
Y46975D01*
X16725Y44675D02*
X16925D01*
X16825Y44575D02*
Y44775D01*
X16725Y42475D02*
X16925D01*
X16825Y42375D02*
Y42575D01*
X16725Y43575D02*
X16925D01*
X16825Y43475D02*
Y43675D01*
X16725Y49075D02*
X16925D01*
X16825Y48975D02*
Y49175D01*
X16725Y50175D02*
X16925D01*
X16825Y50075D02*
Y50275D01*
X16750Y52225D02*
X16950D01*
X16850Y52125D02*
Y52325D01*
X14125Y45775D02*
X14425D01*
X14275Y45625D02*
Y45925D01*
X14125Y47975D02*
X14425D01*
X14275Y47825D02*
Y48125D01*
X14125Y51325D02*
X14425D01*
X14275Y51175D02*
Y51475D01*
X71525Y27225D02*
X71825D01*
X71675Y27075D02*
Y27375D01*
X73375Y24600D02*
X73675D01*
X73525Y24450D02*
Y24750D01*
X68950Y24625D02*
X69250D01*
X69100Y24475D02*
Y24775D01*
X74075Y29800D02*
X74375D01*
X74225Y29650D02*
Y29950D01*
X68950Y29825D02*
X69250D01*
X69100Y29675D02*
Y29975D01*
X80750Y14075D02*
X80950D01*
X80850Y13975D02*
Y14175D01*
X82575Y14075D02*
X82775D01*
X82675Y13975D02*
Y14175D01*
X81600Y8775D02*
X81900D01*
X81750Y8625D02*
Y8925D01*
X83100Y5700D02*
X83400D01*
X83250Y5550D02*
Y5850D01*
X69600Y17675D02*
X69800D01*
X69700Y17575D02*
Y17775D01*
X68625Y17525D02*
X68925D01*
X68775Y17375D02*
Y17675D01*
X66800Y19200D02*
X67100D01*
X66950Y19050D02*
Y19350D01*
X72150Y17700D02*
X72350D01*
X72250Y17600D02*
Y17800D01*
X73025Y17575D02*
X73225D01*
X73125Y17475D02*
Y17675D01*
X74850Y18725D02*
X75050D01*
X74950Y18625D02*
Y18825D01*
X75900Y16725D02*
X76200D01*
X76050Y16575D02*
Y16875D01*
X74600Y18025D02*
X74900D01*
X74750Y17875D02*
Y18175D01*
X73450Y13500D02*
X73650D01*
X73550Y13400D02*
Y13600D01*
X68250Y16875D02*
X68450D01*
X68350Y16775D02*
Y16975D01*
X71100Y11350D02*
X71400D01*
X71250Y11200D02*
Y11500D01*
X73925Y10675D02*
X74225D01*
X74075Y10525D02*
Y10825D01*
X73925Y9775D02*
X74225D01*
X74075Y9625D02*
Y9925D01*
X67200Y9125D02*
X67400D01*
X67300Y9025D02*
Y9225D01*
X66100Y11075D02*
X66300D01*
X66200Y10975D02*
Y11175D01*
X68650Y11975D02*
X68850D01*
X68750Y11875D02*
Y12075D01*
X63100Y10925D02*
X63400D01*
X63250Y10775D02*
Y11075D01*
X63100Y11975D02*
X63400D01*
X63250Y11825D02*
Y12125D01*
X67275Y14225D02*
X67475D01*
X67375Y14125D02*
Y14325D01*
Y13225D02*
X67675D01*
X67525Y13075D02*
Y13375D01*
X60725Y14950D02*
X61025D01*
X60875Y14800D02*
Y15100D01*
X62575Y12800D02*
X62875D01*
X62725Y12650D02*
Y12950D01*
X64250Y12800D02*
X64550D01*
X64400Y12650D02*
Y12950D01*
X63950Y17325D02*
X64250D01*
X64100Y17175D02*
Y17475D01*
X70425Y8375D02*
X70625D01*
X70525Y8275D02*
Y8475D01*
X76300Y14225D02*
X76500D01*
X76400Y14125D02*
Y14325D01*
X74250Y8725D02*
X74550D01*
X74400Y8575D02*
Y8875D01*
X77625Y10350D02*
X77925D01*
X77775Y10200D02*
Y10500D01*
X77625Y13900D02*
X77925D01*
X77775Y13750D02*
Y14050D01*
X74125Y26975D02*
X74425D01*
X74275Y26825D02*
Y27125D01*
X84825Y8550D02*
X85125D01*
X84975Y8400D02*
Y8700D01*
X83775Y8550D02*
X84075D01*
X83925Y8400D02*
Y8700D01*
X73825Y23375D02*
X74025D01*
X73925Y23275D02*
Y23475D01*
X72675Y23650D02*
X72975D01*
X72825Y23500D02*
Y23800D01*
X72675Y21200D02*
X72975D01*
X72825Y21050D02*
Y21350D01*
X75275Y23650D02*
X75575D01*
X75425Y23500D02*
Y23800D01*
X71775Y21200D02*
X72075D01*
X71925Y21050D02*
Y21350D01*
X71775Y23650D02*
X72075D01*
X71925Y23500D02*
Y23800D01*
X69775Y21200D02*
X70075D01*
X69925Y21050D02*
Y21350D01*
X69775Y23650D02*
X70075D01*
X69925Y23500D02*
Y23800D01*
X67950Y27975D02*
X68250D01*
X68100Y27825D02*
Y28125D01*
X67950Y30475D02*
X68250D01*
X68100Y30325D02*
Y30625D01*
X73779Y30551D02*
X74079D01*
X73929Y30401D02*
Y30701D01*
X70275Y30800D02*
X70575D01*
X70425Y30650D02*
Y30950D01*
X74500Y33050D02*
X74800D01*
X74650Y32900D02*
Y33200D01*
X76725Y32600D02*
X77025D01*
X76875Y32450D02*
Y32750D01*
X75250Y30950D02*
X75550D01*
X75400Y30800D02*
Y31100D01*
X77250Y31475D02*
X77450D01*
X77350Y31375D02*
Y31575D01*
X80250Y29900D02*
X80450D01*
X80350Y29800D02*
Y30000D01*
X77512Y30200D02*
X77812D01*
X77662Y30050D02*
Y30350D01*
X75100Y28475D02*
X75400D01*
X75250Y28325D02*
Y28625D01*
X77550Y28475D02*
X77850D01*
X77700Y28325D02*
Y28625D01*
X84850Y24525D02*
X85150D01*
X85000Y24375D02*
Y24675D01*
X77550Y26975D02*
X77850D01*
X77700Y26825D02*
Y27125D01*
X77925Y23975D02*
X78225D01*
X78075Y23825D02*
Y24125D01*
X75100Y25475D02*
X75400D01*
X75250Y25325D02*
Y25625D01*
X77550Y25475D02*
X77850D01*
X77700Y25325D02*
Y25625D01*
X76400Y22325D02*
X76700D01*
X76550Y22175D02*
Y22475D01*
X90250Y4775D02*
X90550D01*
X90400Y4625D02*
Y4925D01*
X92000Y9950D02*
X92200D01*
X92100Y9850D02*
Y10050D01*
X88250Y9950D02*
X88450D01*
X88350Y9850D02*
Y10050D01*
X88250Y13025D02*
X88450D01*
X88350Y12925D02*
Y13125D01*
X92000Y13025D02*
X92200D01*
X92100Y12925D02*
Y13125D01*
X72950Y38550D02*
X73150D01*
X73050Y38450D02*
Y38650D01*
X73600Y38050D02*
X73800D01*
X73700Y37950D02*
Y38150D01*
X72950Y37550D02*
X73150D01*
X73050Y37450D02*
Y37650D01*
X73525Y37050D02*
X73825D01*
X73675Y36900D02*
Y37200D01*
X74025Y35150D02*
X74325D01*
X74175Y35000D02*
Y35300D01*
X75650Y41075D02*
X75850D01*
X75750Y40975D02*
Y41175D01*
X85575Y23875D02*
X85875D01*
X85725Y23725D02*
Y24025D01*
X87525Y23875D02*
X87825D01*
X87675Y23725D02*
Y24025D01*
X88900Y24500D02*
X89200D01*
X89050Y24350D02*
Y24650D01*
X78050Y40375D02*
X78250D01*
X78150Y40275D02*
Y40475D01*
X87925Y29900D02*
X88125D01*
X88025Y29800D02*
Y30000D01*
X82750Y32275D02*
X83050D01*
X82900Y32125D02*
Y32425D01*
X83600Y31475D02*
X83900D01*
X83750Y31325D02*
Y31625D01*
X81800Y31475D02*
X82100D01*
X81950Y31325D02*
Y31625D01*
X85525Y33900D02*
X85825D01*
X85675Y33750D02*
Y34050D01*
X81025Y33900D02*
X81325D01*
X81175Y33750D02*
Y34050D01*
X80800Y38050D02*
X81100D01*
X80950Y37900D02*
Y38200D01*
X80800Y36450D02*
X81100D01*
X80950Y36300D02*
Y36600D01*
X90125Y32200D02*
X90425D01*
X90275Y32050D02*
Y32350D01*
X90775Y32200D02*
X91075D01*
X90925Y32050D02*
Y32350D01*
X63025Y35195D02*
X63225D01*
X63125Y35095D02*
Y35295D01*
X63025Y34695D02*
X63225D01*
X63125Y34595D02*
Y34795D01*
X66475Y48425D02*
X66775D01*
X66625Y48275D02*
Y48575D01*
X67700Y48400D02*
X68000D01*
X67850Y48250D02*
Y48550D01*
X66825Y47525D02*
X67125D01*
X66975Y47375D02*
Y47675D01*
X65225Y47525D02*
X65525D01*
X65375Y47375D02*
Y47675D01*
X68450Y47550D02*
X68750D01*
X68600Y47400D02*
Y47700D01*
X68375Y50400D02*
X68675D01*
X68525Y50250D02*
Y50550D01*
X68450Y49350D02*
X68750D01*
X68600Y49200D02*
Y49500D01*
X67500Y50800D02*
X67800D01*
X67650Y50650D02*
Y50950D01*
X87525Y29375D02*
X87725D01*
X87625Y29275D02*
Y29475D01*
X86225Y28875D02*
X86525D01*
X86375Y28725D02*
Y29025D01*
X75350Y45775D02*
X75650D01*
X75500Y45625D02*
Y45925D01*
X72950Y41650D02*
X73250D01*
X73100Y41500D02*
Y41800D01*
X74250Y42700D02*
X74550D01*
X74400Y42550D02*
Y42850D01*
X71200Y44975D02*
X71500D01*
X71350Y44825D02*
Y45125D01*
X70450Y43325D02*
X70750D01*
X70600Y43175D02*
Y43475D01*
X63575Y39925D02*
X63875D01*
X63725Y39775D02*
Y40075D01*
X63575Y41925D02*
X63875D01*
X63725Y41775D02*
Y42075D01*
X65050Y37575D02*
X65350D01*
X65200Y37425D02*
Y37725D01*
X68600Y37575D02*
X68900D01*
X68750Y37425D02*
Y37725D01*
X66825Y37575D02*
X67125D01*
X66975Y37425D02*
Y37725D01*
X70050Y39925D02*
X70350D01*
X70200Y39775D02*
Y40075D01*
X70050Y37900D02*
X70350D01*
X70200Y37750D02*
Y38050D01*
X70050Y41875D02*
X70350D01*
X70200Y41725D02*
Y42025D01*
X67675Y44900D02*
X67975D01*
X67825Y44750D02*
Y45050D01*
X68225Y43300D02*
X68525D01*
X68375Y43150D02*
Y43450D01*
X64450Y42900D02*
X64750D01*
X64600Y42750D02*
Y43050D01*
X69150Y42900D02*
X69450D01*
X69300Y42750D02*
Y43050D01*
X63775Y45875D02*
X64075D01*
X63925Y45725D02*
Y46025D01*
X64175Y44425D02*
X64475D01*
X64325Y44275D02*
Y44575D01*
X61975Y44200D02*
X62275D01*
X62125Y44050D02*
Y44350D01*
X71700Y54725D02*
X71900D01*
X71800Y54625D02*
Y54825D01*
X71600Y55375D02*
X71800D01*
X71700Y55275D02*
Y55475D01*
X61200Y46700D02*
X61500D01*
X61350Y46550D02*
Y46850D01*
X60675Y47750D02*
X60975D01*
X60825Y47600D02*
Y47900D01*
X65325Y48525D02*
X65625D01*
X65475Y48375D02*
Y48675D01*
X62975Y48100D02*
X63175D01*
X63075Y48000D02*
Y48200D01*
X60675Y48800D02*
X60975D01*
X60825Y48650D02*
Y48950D01*
X61450Y52100D02*
X61750D01*
X61600Y51950D02*
Y52250D01*
X62975Y48650D02*
X63175D01*
X63075Y48550D02*
Y48750D01*
X61575Y49625D02*
X61875D01*
X61725Y49475D02*
Y49775D01*
X63100Y53675D02*
X63400D01*
X63250Y53525D02*
Y53825D01*
X65225Y54575D02*
X65525D01*
X65375Y54425D02*
Y54725D01*
X62775Y52225D02*
X63075D01*
X62925Y52075D02*
Y52375D01*
Y51350D02*
X63125D01*
X63025Y51250D02*
Y51450D01*
X70400Y57375D02*
X70700D01*
X70550Y57225D02*
Y57525D01*
X63500Y57900D02*
X63800D01*
X63650Y57750D02*
Y58050D01*
X77500Y53500D02*
X77700D01*
X77600Y53400D02*
Y53600D01*
X70450Y55325D02*
X70650D01*
X70550Y55225D02*
Y55425D01*
X70975Y54950D02*
X71175D01*
X71075Y54850D02*
Y55050D01*
X77500Y54195D02*
X77700D01*
X77600Y54095D02*
Y54295D01*
X77475Y55465D02*
X77675D01*
X77575Y55365D02*
Y55565D01*
X67025Y54450D02*
X67325D01*
X67175Y54300D02*
Y54600D01*
X77250Y41150D02*
X77450D01*
X77350Y41050D02*
Y41250D01*
X65400Y52875D02*
X65600D01*
X65500Y52775D02*
Y52975D01*
X77250Y41825D02*
X77450D01*
X77350Y41725D02*
Y41925D01*
X65900Y52875D02*
X66100D01*
X66000Y52775D02*
Y52975D01*
X68125Y54475D02*
X68425D01*
X68275Y54325D02*
Y54625D01*
X73900Y46375D02*
X74100D01*
X74000Y46275D02*
Y46475D01*
X67500Y52900D02*
X67700D01*
X67600Y52800D02*
Y53000D01*
X68150Y52925D02*
X68350D01*
X68250Y52825D02*
Y53025D01*
X81000Y46000D02*
X81300D01*
X81150Y45850D02*
Y46150D01*
X78775Y46475D02*
X79075D01*
X78925Y46325D02*
Y46625D01*
X69025Y54000D02*
X69325D01*
X69175Y53850D02*
Y54150D01*
X69925Y54000D02*
X70225D01*
X70075Y53850D02*
Y54150D01*
X94650Y40500D02*
X94950D01*
X94800Y40350D02*
Y40650D01*
X94650Y42100D02*
X94950D01*
X94800Y41950D02*
Y42250D01*
X78200Y48050D02*
X78500D01*
X78350Y47900D02*
Y48200D01*
X78200Y50450D02*
X78500D01*
X78350Y50300D02*
Y50600D01*
X73025Y50675D02*
X73325D01*
X73175Y50525D02*
Y50825D01*
X73350Y49575D02*
X73650D01*
X73500Y49425D02*
Y49725D01*
X78200Y61450D02*
X78500D01*
X78350Y61300D02*
Y61600D01*
X23375Y61275D02*
X23675D01*
X23525Y61125D02*
Y61425D01*
X78750Y58850D02*
X79050D01*
X78900Y58700D02*
Y59000D01*
X80950Y53500D02*
X81250D01*
X81100Y53350D02*
Y53650D01*
X82525Y59575D02*
X82825D01*
X82675Y59425D02*
Y59725D01*
X94650Y58450D02*
X94950D01*
X94800Y58300D02*
Y58600D01*
X94650Y60050D02*
X94950D01*
X94800Y59900D02*
Y60200D01*
X25850Y38000D02*
X26150D01*
X26000Y37850D02*
Y38150D01*
X26075Y32000D02*
X26375D01*
X26225Y31850D02*
Y32150D01*
X26075Y41000D02*
X26375D01*
X26225Y40850D02*
Y41150D01*
X48150Y37830D02*
X48350D01*
X48250Y37730D02*
Y37930D01*
X46140Y39260D02*
X46340D01*
X46240Y39160D02*
Y39360D01*
X45470Y38860D02*
X45670D01*
X45570Y38760D02*
Y38960D01*
X55880Y36370D02*
X56080D01*
X55980Y36270D02*
Y36470D01*
X53660Y50340D02*
X53860D01*
X53760Y50240D02*
Y50440D01*
X44330Y36700D02*
X44530D01*
X44430Y36600D02*
Y36800D01*
X44730Y37590D02*
X44930D01*
X44830Y37490D02*
Y37690D01*
X50780Y38390D02*
X50980D01*
X50880Y38290D02*
Y38490D01*
X53060Y34290D02*
X53260D01*
X53160Y34190D02*
Y34390D01*
X53660Y51140D02*
X53860D01*
X53760Y51040D02*
Y51240D01*
X54480Y46720D02*
X54680D01*
X54580Y46620D02*
Y46820D01*
X54480Y47490D02*
X54680D01*
X54580Y47390D02*
Y47590D01*
X51580Y34230D02*
X51780D01*
X51680Y34130D02*
Y34330D01*
X49220Y38540D02*
X49420D01*
X49320Y38440D02*
Y38640D01*
X51180Y36800D02*
X51380D01*
X51280Y36700D02*
Y36900D01*
X47930Y49140D02*
X48130D01*
X48030Y49040D02*
Y49240D01*
X51130Y53140D02*
X51330D01*
X51230Y53040D02*
Y53240D01*
X51130Y49140D02*
X51330D01*
X51230Y49040D02*
Y49240D01*
X51930Y49140D02*
X52130D01*
X52030Y49040D02*
Y49240D01*
X47650Y37830D02*
X47850D01*
X47750Y37730D02*
Y37930D01*
X48460Y39440D02*
X48660D01*
X48560Y39340D02*
Y39540D01*
X45650Y37660D02*
X45850D01*
X45750Y37560D02*
Y37760D01*
X48620Y38440D02*
X48820D01*
X48720Y38340D02*
Y38540D01*
X45700Y37140D02*
X45900D01*
X45800Y37040D02*
Y37240D01*
X48730Y49940D02*
X48930D01*
X48830Y49840D02*
Y50040D01*
X53820Y43550D02*
X54020D01*
X53920Y43450D02*
Y43650D01*
X52380Y42810D02*
X52580D01*
X52480Y42710D02*
Y42910D01*
X53730Y45040D02*
X53930D01*
X53830Y44940D02*
Y45140D01*
X47130D02*
X47330D01*
X47230Y45040D02*
Y45240D01*
X47130Y33950D02*
X47330D01*
X47230Y33850D02*
Y34050D01*
X51150Y38040D02*
X51350D01*
X51250Y37940D02*
Y38140D01*
X48730Y48340D02*
X48930D01*
X48830Y48240D02*
Y48440D01*
X47560Y33640D02*
X47760D01*
X47660Y33540D02*
Y33740D01*
X47560Y34260D02*
X47760D01*
X47660Y34160D02*
Y34360D01*
X48440Y34200D02*
X48640D01*
X48540Y34100D02*
Y34300D01*
X49040Y33740D02*
X49240D01*
X49140Y33640D02*
Y33840D01*
X49550Y33730D02*
X49750D01*
X49650Y33630D02*
Y33830D01*
X50680Y34260D02*
X50880D01*
X50780Y34160D02*
Y34360D01*
X48490Y33700D02*
X48690D01*
X48590Y33600D02*
Y33800D01*
X46410Y34240D02*
X46610D01*
X46510Y34140D02*
Y34340D01*
X46410Y33740D02*
X46610D01*
X46510Y33640D02*
Y33840D01*
X49510Y34260D02*
X49710D01*
X49610Y34160D02*
Y34360D01*
X47630Y37020D02*
X47830D01*
X47730Y36920D02*
Y37120D01*
X51180Y37520D02*
X51380D01*
X51280Y37420D02*
Y37620D01*
X47130Y48340D02*
X47330D01*
X47230Y48240D02*
Y48440D01*
X50680Y33740D02*
X50880D01*
X50780Y33640D02*
Y33840D01*
X51540Y33700D02*
X51740D01*
X51640Y33600D02*
Y33800D01*
X46270Y45180D02*
X46470D01*
X46370Y45080D02*
Y45280D01*
X46060Y55250D02*
X46260D01*
X46160Y55150D02*
Y55350D01*
X47130Y55540D02*
X47330D01*
X47230Y55440D02*
Y55640D01*
X48700Y53950D02*
X48900D01*
X48800Y53850D02*
Y54050D01*
X48730Y54740D02*
X48930D01*
X48830Y54640D02*
Y54840D01*
X48700Y53130D02*
X48900D01*
X48800Y53030D02*
Y53230D01*
X46080Y54340D02*
X46280D01*
X46180Y54240D02*
Y54440D01*
X47930Y55540D02*
X48130D01*
X48030Y55440D02*
Y55640D01*
X47130Y53940D02*
X47330D01*
X47230Y53840D02*
Y54040D01*
X46050Y56090D02*
X46250D01*
X46150Y55990D02*
Y56190D01*
X46080Y52740D02*
X46280D01*
X46180Y52640D02*
Y52840D01*
X41830Y49940D02*
X42030D01*
X41930Y49840D02*
Y50040D01*
X58380Y50200D02*
X58580D01*
X58480Y50100D02*
Y50300D01*
X54480Y45890D02*
X54680D01*
X54580Y45790D02*
Y45990D01*
X53660Y48740D02*
X53860D01*
X53760Y48640D02*
Y48840D01*
X51930Y47540D02*
X52130D01*
X52030Y47440D02*
Y47640D01*
X47130Y45940D02*
X47330D01*
X47230Y45840D02*
Y46040D01*
X51930Y45940D02*
X52130D01*
X52030Y45840D02*
Y46040D01*
X51930Y46740D02*
X52130D01*
X52030Y46640D02*
Y46840D01*
X53630Y44320D02*
X53830D01*
X53730Y44220D02*
Y44420D01*
X58410Y47620D02*
X58610D01*
X58510Y47520D02*
Y47720D01*
X41830Y52140D02*
X42030D01*
X41930Y52040D02*
Y52240D01*
X41830Y47840D02*
X42030D01*
X41930Y47740D02*
Y47940D01*
X41830Y45690D02*
X42030D01*
X41930Y45590D02*
Y45790D01*
X54450Y54910D02*
X54650D01*
X54550Y54810D02*
Y55010D01*
X54480Y44240D02*
X54680D01*
X54580Y44140D02*
Y44340D01*
X54480Y45050D02*
X54680D01*
X54580Y44950D02*
Y45150D01*
X47130Y47540D02*
X47330D01*
X47230Y47440D02*
Y47640D01*
X52730Y53140D02*
X52930D01*
X52830Y53040D02*
Y53240D01*
X54450Y55640D02*
X54650D01*
X54550Y55540D02*
Y55740D01*
X46180Y46690D02*
X46380D01*
X46280Y46590D02*
Y46790D01*
X47930Y46740D02*
X48130D01*
X48030Y46640D02*
Y46840D01*
X47930Y45940D02*
X48130D01*
X48030Y45840D02*
Y46040D01*
X48730Y49140D02*
X48930D01*
X48830Y49040D02*
Y49240D01*
X46190Y44320D02*
X46390D01*
X46290Y44220D02*
Y44420D01*
X45880Y45590D02*
X46080D01*
X45980Y45490D02*
Y45690D01*
X41830Y54340D02*
X42030D01*
X41930Y54240D02*
Y54440D01*
X54480Y43520D02*
X54680D01*
X54580Y43420D02*
Y43620D01*
X52140Y43430D02*
X52340D01*
X52240Y43330D02*
Y43530D01*
X51130Y50740D02*
X51330D01*
X51230Y50640D02*
Y50840D01*
X46080Y50340D02*
X46280D01*
X46180Y50240D02*
Y50440D01*
X46080Y51140D02*
X46280D01*
X46180Y51040D02*
Y51240D01*
X46080Y53540D02*
X46280D01*
X46180Y53440D02*
Y53640D01*
X53560Y33730D02*
X53760D01*
X53660Y33630D02*
Y33830D01*
X52090Y33690D02*
X52290D01*
X52190Y33590D02*
Y33790D01*
X42050Y43380D02*
X42250D01*
X42150Y43280D02*
Y43480D01*
X53660Y51940D02*
X53860D01*
X53760Y51840D02*
Y52040D01*
X51930Y55540D02*
X52130D01*
X52030Y55440D02*
Y55640D01*
X51930Y54740D02*
X52130D01*
X52030Y54640D02*
Y54840D01*
X51130Y54740D02*
X51330D01*
X51230Y54640D02*
Y54840D01*
X52730Y54740D02*
X52930D01*
X52830Y54640D02*
Y54840D01*
X52730Y53940D02*
X52930D01*
X52830Y53840D02*
Y54040D01*
X53580Y45940D02*
X53780D01*
X53680Y45840D02*
Y46040D01*
X53560Y34290D02*
X53760D01*
X53660Y34190D02*
Y34390D01*
X44930Y37130D02*
X45130D01*
X45030Y37030D02*
Y37230D01*
X47130Y46740D02*
X47330D01*
X47230Y46640D02*
Y46840D01*
X45220Y43930D02*
X45420D01*
X45320Y43830D02*
Y44030D01*
X46990Y43220D02*
X47190D01*
X47090Y43120D02*
Y43320D01*
X47930Y48340D02*
X48130D01*
X48030Y48240D02*
Y48440D01*
X47930Y47540D02*
X48130D01*
X48030Y47440D02*
Y47640D01*
X58390Y54440D02*
X58590D01*
X58490Y54340D02*
Y54540D01*
X53060Y33790D02*
X53260D01*
X53160Y33690D02*
Y33890D01*
X54890Y41480D02*
X55090D01*
X54990Y41380D02*
Y41580D01*
X45810Y43950D02*
X46010D01*
X45910Y43850D02*
Y44050D01*
X48720Y38930D02*
X48920D01*
X48820Y38830D02*
Y39030D01*
X46380Y37740D02*
X46580D01*
X46480Y37640D02*
Y37840D01*
X46880Y37740D02*
X47080D01*
X46980Y37640D02*
Y37840D01*
X53870Y49450D02*
X54070D01*
X53970Y49350D02*
Y49550D01*
X40860Y38870D02*
X41060D01*
X40960Y38770D02*
Y38970D01*
X40440Y39560D02*
X40640D01*
X40540Y39460D02*
Y39660D01*
X47130Y49140D02*
X47330D01*
X47230Y49040D02*
Y49240D01*
X58980Y35920D02*
X59180D01*
X59080Y35820D02*
Y36020D01*
X57100Y34690D02*
X57300D01*
X57200Y34590D02*
Y34790D01*
X57800Y34690D02*
X58000D01*
X57900Y34590D02*
Y34790D01*
X58380Y52350D02*
X58580D01*
X58480Y52250D02*
Y52450D01*
X58930Y55190D02*
X59130D01*
X59030Y55090D02*
Y55290D01*
X59480Y55180D02*
X59680D01*
X59580Y55080D02*
Y55280D01*
X58410Y44860D02*
X58610D01*
X58510Y44760D02*
Y44960D01*
X59960Y37490D02*
X60160D01*
X60060Y37390D02*
Y37590D01*
X52730Y55540D02*
X52930D01*
X52830Y55440D02*
Y55640D01*
X46080Y51940D02*
X46280D01*
X46180Y51840D02*
Y52040D01*
X59480Y54320D02*
X59680D01*
X59580Y54220D02*
Y54420D01*
X59600Y34720D02*
X59800D01*
X59700Y34620D02*
Y34820D01*
X59600Y35660D02*
X59800D01*
X59700Y35560D02*
Y35760D01*
X40450Y37890D02*
X40650D01*
X40550Y37790D02*
Y37990D01*
X40450Y36980D02*
X40650D01*
X40550Y36880D02*
Y37080D01*
X40180Y55310D02*
X40380D01*
X40280Y55210D02*
Y55410D01*
X40180Y56220D02*
X40380D01*
X40280Y56120D02*
Y56320D01*
X52255Y32965D02*
X52455D01*
X52355Y32865D02*
Y33065D01*
X51605Y32965D02*
X51805D01*
X51705Y32865D02*
Y33065D01*
X50955Y32965D02*
X51155D01*
X51055Y32865D02*
Y33065D01*
X50305Y32965D02*
X50505D01*
X50405Y32865D02*
Y33065D01*
X49655Y32965D02*
X49855D01*
X49755Y32865D02*
Y33065D01*
X49005Y32965D02*
X49205D01*
X49105Y32865D02*
Y33065D01*
X48355Y32965D02*
X48555D01*
X48455Y32865D02*
Y33065D01*
X47705Y32965D02*
X47905D01*
X47805Y32865D02*
Y33065D01*
X26375Y7975D02*
X26675D01*
X26525Y7825D02*
Y8125D01*
X26375Y11375D02*
X26675D01*
X26525Y11225D02*
Y11525D01*
X26375Y9700D02*
X26675D01*
X26525Y9550D02*
Y9850D01*
X19625Y3725D02*
X19925D01*
X19775Y3575D02*
Y3875D01*
X24075Y3725D02*
X24375D01*
X24225Y3575D02*
Y3875D01*
X18800Y6250D02*
X19000D01*
X18900Y6150D02*
Y6350D01*
X41425Y3725D02*
X41725D01*
X41575Y3575D02*
Y3875D01*
X45875Y3725D02*
X46175D01*
X46025Y3575D02*
Y3875D01*
X39350Y6650D02*
X39550D01*
X39450Y6550D02*
Y6750D01*
X46250Y7675D02*
X46550D01*
X46400Y7525D02*
Y7825D01*
X56325Y7875D02*
X56625D01*
X56475Y7725D02*
Y8025D01*
X66375Y4200D02*
X66675D01*
X66525Y4050D02*
Y4350D01*
X64550Y7675D02*
X64750D01*
X64650Y7575D02*
Y7775D01*
X62975Y7675D02*
X63175D01*
X63075Y7575D02*
Y7775D01*
X29925Y10200D02*
X30125D01*
X30025Y10100D02*
Y10300D01*
X31325Y10200D02*
X31525D01*
X31425Y10100D02*
Y10300D01*
X36325Y10200D02*
X36525D01*
X36425Y10100D02*
Y10300D01*
X39300Y7625D02*
X39600D01*
X39450Y7475D02*
Y7775D01*
X49175Y7350D02*
X49475D01*
X49325Y7200D02*
Y7500D01*
X40600Y15650D02*
X40800D01*
X40700Y15550D02*
Y15750D01*
X39550Y15650D02*
X39750D01*
X39650Y15550D02*
Y15750D01*
X39625Y19725D02*
X39825D01*
X39725Y19625D02*
Y19825D01*
X41025Y19725D02*
X41225D01*
X41125Y19625D02*
Y19825D01*
X42425Y19725D02*
X42625D01*
X42525Y19625D02*
Y19825D01*
X43825Y19725D02*
X44025D01*
X43925Y19625D02*
Y19825D01*
X39650Y11375D02*
X39950D01*
X39800Y11225D02*
Y11525D01*
X40900Y11225D02*
X41200D01*
X41050Y11075D02*
Y11375D01*
X43275Y8950D02*
X43575D01*
X43425Y8800D02*
Y9100D01*
X44025Y7675D02*
X44325D01*
X44175Y7525D02*
Y7825D01*
X42375Y7850D02*
X42675D01*
X42525Y7700D02*
Y8000D01*
X45250Y7675D02*
X45550D01*
X45400Y7525D02*
Y7825D01*
X24050Y10675D02*
X24250D01*
X24150Y10575D02*
Y10775D01*
X50425Y8500D02*
X50725D01*
X50575Y8350D02*
Y8650D01*
X49825Y11575D02*
X50125D01*
X49975Y11425D02*
Y11725D01*
X50300Y12700D02*
X50600D01*
X50450Y12550D02*
Y12850D01*
X45575Y14175D02*
X45875D01*
X45725Y14025D02*
Y14325D01*
X44175Y12825D02*
X44475D01*
X44325Y12675D02*
Y12975D01*
X42625Y14375D02*
X42925D01*
X42775Y14225D02*
Y14525D01*
X42650Y11275D02*
X42950D01*
X42800Y11125D02*
Y11425D01*
X45250Y11275D02*
X45550D01*
X45400Y11125D02*
Y11425D01*
X53950Y13125D02*
X54250D01*
X54100Y12975D02*
Y13275D01*
X59030Y13125D02*
X59330D01*
X59180Y12975D02*
Y13275D01*
X46725Y18700D02*
X47025D01*
X46875Y18550D02*
Y18850D01*
X44925Y17925D02*
X45225D01*
X45075Y17775D02*
Y18075D01*
X47750Y18900D02*
X48050D01*
X47900Y18750D02*
Y19050D01*
X45825Y16400D02*
X46125D01*
X45975Y16250D02*
Y16550D01*
X42950Y16200D02*
X43150D01*
X43050Y16100D02*
Y16300D01*
X59150Y7075D02*
X59450D01*
X59300Y6925D02*
Y7225D01*
X50575Y18975D02*
X50875D01*
X50725Y18825D02*
Y19125D01*
X56975Y19100D02*
X57275D01*
X57125Y18950D02*
Y19250D01*
X61350Y38550D02*
X61650D01*
X61500Y38400D02*
Y38700D01*
X61400Y36200D02*
X61600D01*
X61500Y36100D02*
Y36300D01*
X59550Y18875D02*
X59850D01*
X59700Y18725D02*
Y19025D01*
X33855Y46190D02*
X34055D01*
X33955Y46090D02*
Y46290D01*
X18030Y48090D02*
X18230D01*
X18130Y47990D02*
Y48190D01*
X21880Y63490D02*
X22080D01*
X21980Y63390D02*
Y63590D01*
X60680Y49740D02*
X60880D01*
X60780Y49640D02*
Y49840D01*
X60480Y50365D02*
X60680D01*
X60580Y50265D02*
Y50465D01*
X34755Y45815D02*
X34955D01*
X34855Y45715D02*
Y45915D01*
X18030Y48590D02*
X18230D01*
X18130Y48490D02*
Y48690D01*
X66106Y8964D02*
X66306D01*
X66206Y8864D02*
Y9064D01*
X34930Y44925D02*
X35130D01*
X35030Y44825D02*
Y45025D01*
X18855Y48315D02*
X19055D01*
X18955Y48215D02*
Y48415D01*
X19405Y8065D02*
X19605D01*
X19505Y7965D02*
Y8165D01*
X18805Y8090D02*
X19005D01*
X18905Y7990D02*
Y8190D01*
X19880Y7390D02*
X20080D01*
X19980Y7290D02*
Y7490D01*
X46875Y33498D02*
X47075D01*
X46975Y33398D02*
Y33598D01*
X47205Y33121D02*
X47405D01*
X47305Y33021D02*
Y33221D01*
X41380Y34065D02*
X41680D01*
X41530Y33915D02*
Y34215D01*
X46505Y32765D02*
X46705D01*
X46605Y32665D02*
Y32865D01*
X27812Y42908D02*
X28012D01*
X27912Y42808D02*
Y43008D01*
X28898Y42908D02*
X29098D01*
X28998Y42808D02*
Y43008D01*
X46405Y32190D02*
X46605D01*
X46505Y32090D02*
Y32290D01*
X38680Y37967D02*
X38880D01*
X38780Y37867D02*
Y38067D01*
X41830Y31790D02*
X42030D01*
X41930Y31690D02*
Y31890D01*
X38205Y38340D02*
X38405D01*
X38305Y38240D02*
Y38440D01*
X29346Y33707D02*
X29546D01*
X29446Y33607D02*
Y33807D01*
X29346Y34207D02*
X29546D01*
X29446Y34107D02*
Y34307D01*
X29797Y36240D02*
X29997D01*
X29897Y36140D02*
Y36340D01*
X29797Y36740D02*
X29997D01*
X29897Y36640D02*
Y36840D01*
X33213Y34207D02*
X33413D01*
X33313Y34107D02*
Y34307D01*
X33213Y33707D02*
X33413D01*
X33313Y33607D02*
Y33807D01*
X41280Y31740D02*
X41480D01*
X41380Y31640D02*
Y31840D01*
X33955Y44415D02*
X34155D01*
X34055Y44315D02*
Y44515D01*
X43330Y30590D02*
X43530D01*
X43430Y30490D02*
Y30690D01*
X42830Y30590D02*
X43030D01*
X42930Y30490D02*
Y30690D01*
X42155Y30915D02*
X42355D01*
X42255Y30815D02*
Y31015D01*
X42116Y29865D02*
X42316D01*
X42216Y29765D02*
Y29965D01*
X37455Y35490D02*
X37655D01*
X37555Y35390D02*
Y35590D01*
X40230Y30840D02*
X40430D01*
X40330Y30740D02*
Y30940D01*
X33755Y43890D02*
X33955D01*
X33855Y43790D02*
Y43990D01*
X40505Y30365D02*
X40705D01*
X40605Y30265D02*
Y30465D01*
X41305Y29840D02*
X41505D01*
X41405Y29740D02*
Y29940D01*
X40755Y29790D02*
X40955D01*
X40855Y29690D02*
Y29890D01*
X34830Y43140D02*
X35030D01*
X34930Y43040D02*
Y43240D01*
X51730Y60590D02*
X52030D01*
X51880Y60440D02*
Y60740D01*
X42980Y29665D02*
X43180D01*
X43080Y29565D02*
Y29765D01*
X39830Y29890D02*
X40030D01*
X39930Y29790D02*
Y29990D01*
X40105Y29440D02*
X40305D01*
X40205Y29340D02*
Y29540D01*
X34480Y40790D02*
X34680D01*
X34580Y40690D02*
Y40890D01*
X40455Y29040D02*
X40655D01*
X40555Y28940D02*
Y29140D01*
X39680Y29090D02*
X39880D01*
X39780Y28990D02*
Y29190D01*
X39901Y28604D02*
X40101D01*
X40001Y28504D02*
Y28704D01*
X33755Y40840D02*
X33955D01*
X33855Y40740D02*
Y40940D01*
X39780Y28065D02*
X39980D01*
X39880Y27965D02*
Y28165D01*
X34755Y63915D02*
X34955D01*
X34855Y63815D02*
Y64015D01*
X34155Y63915D02*
X34355D01*
X34255Y63815D02*
Y64015D01*
X38505Y28715D02*
X38705D01*
X38605Y28615D02*
Y28815D01*
X38568Y28215D02*
X38768D01*
X38667Y28115D02*
Y28315D01*
X34705Y63165D02*
X34905D01*
X34805Y63065D02*
Y63265D01*
X40455Y27465D02*
X40655D01*
X40555Y27365D02*
Y27565D01*
X46355Y27915D02*
X46555D01*
X46455Y27815D02*
Y28015D01*
X37980Y28215D02*
X38180D01*
X38080Y28115D02*
Y28315D01*
X38505Y27490D02*
X38705D01*
X38605Y27390D02*
Y27590D01*
X31580Y40290D02*
X31780D01*
X31680Y40190D02*
Y40390D01*
X38780Y27015D02*
X38980D01*
X38880Y26915D02*
Y27115D01*
X32654Y37466D02*
X32854D01*
X32754Y37366D02*
Y37566D01*
X39205Y26515D02*
X39405D01*
X39305Y26415D02*
Y26615D01*
X33280Y63540D02*
X33480D01*
X33380Y63440D02*
Y63640D01*
X37205Y27090D02*
X37405D01*
X37305Y26990D02*
Y27190D01*
X32205Y35640D02*
X32405D01*
X32305Y35540D02*
Y35740D01*
X37606Y26691D02*
X37806D01*
X37706Y26591D02*
Y26791D01*
X32875Y62114D02*
X33075D01*
X32975Y62014D02*
Y62214D01*
X36505Y27290D02*
X36705D01*
X36605Y27190D02*
Y27390D01*
X46880Y27915D02*
X47080D01*
X46980Y27815D02*
Y28015D01*
X47230Y27540D02*
X47430D01*
X47330Y27440D02*
Y27640D01*
X43130Y26815D02*
X43330D01*
X43230Y26715D02*
Y26915D01*
X31980Y64005D02*
X32180D01*
X32080Y63904D02*
Y64104D01*
X32105Y62640D02*
X32405D01*
X32255Y62490D02*
Y62790D01*
X32705Y63640D02*
X32905D01*
X32805Y63540D02*
Y63740D01*
X36380Y26765D02*
X36580D01*
X36480Y26665D02*
Y26865D01*
X32080Y63340D02*
X32280D01*
X32180Y63240D02*
Y63440D01*
X42455Y26115D02*
X42655D01*
X42555Y26015D02*
Y26215D01*
X36680Y26340D02*
X36880D01*
X36780Y26240D02*
Y26440D01*
X35430Y26965D02*
X35630D01*
X35530Y26865D02*
Y27065D01*
X43005Y25590D02*
X43205D01*
X43105Y25490D02*
Y25690D01*
X34880Y26965D02*
X35080D01*
X34980Y26865D02*
Y27065D01*
X29855Y40690D02*
X30055D01*
X29955Y40590D02*
Y40790D01*
X35005Y25550D02*
X35305D01*
X35155Y25400D02*
Y25700D01*
X34830Y26440D02*
X35030D01*
X34930Y26340D02*
Y26540D01*
X30680Y38190D02*
X30880D01*
X30780Y38090D02*
Y38290D01*
X44029Y25340D02*
X44229D01*
X44129Y25240D02*
Y25440D01*
X65225Y30475D02*
X65525D01*
X65375Y30325D02*
Y30625D01*
X43655Y24965D02*
X43855D01*
X43755Y24865D02*
Y25065D01*
X43330Y24565D02*
X43530D01*
X43430Y24465D02*
Y24665D01*
X42780Y24565D02*
X42980D01*
X42880Y24465D02*
Y24665D01*
X42180Y24565D02*
X42380D01*
X42280Y24465D02*
Y24665D01*
X35399Y26065D02*
X35599D01*
X35499Y25965D02*
Y26165D01*
X30554Y37116D02*
X30754D01*
X30654Y37016D02*
Y37216D01*
X45380Y24065D02*
X45580D01*
X45480Y23965D02*
Y24165D01*
X45805Y24465D02*
X46005D01*
X45905Y24365D02*
Y24565D01*
X45930Y23965D02*
X46130D01*
X46030Y23865D02*
Y24065D01*
X44855Y23590D02*
X45055D01*
X44955Y23490D02*
Y23690D01*
X70825Y21251D02*
X71025D01*
X70925Y21151D02*
Y21351D01*
X71068Y20773D02*
X71268D01*
X71168Y20673D02*
Y20873D01*
X69125Y20960D02*
X69325D01*
X69225Y20860D02*
Y21060D01*
X44130Y23640D02*
X44330D01*
X44230Y23540D02*
Y23740D01*
X41380Y24365D02*
X41580D01*
X41480Y24265D02*
Y24465D01*
X42425Y23395D02*
X42625D01*
X42525Y23295D02*
Y23495D01*
X39530Y24140D02*
X39730D01*
X39630Y24040D02*
Y24240D01*
X35780Y25390D02*
X35980D01*
X35880Y25290D02*
Y25490D01*
X37480Y24590D02*
X37680D01*
X37580Y24490D02*
Y24690D01*
X36980Y24590D02*
X37180D01*
X37080Y24490D02*
Y24690D01*
X37680Y23890D02*
X37880D01*
X37780Y23790D02*
Y23990D01*
X48080Y24615D02*
X48280D01*
X48180Y24515D02*
Y24715D01*
X48080Y24115D02*
X48280D01*
X48180Y24015D02*
Y24215D01*
X47990Y21500D02*
X48190D01*
X48090Y21400D02*
Y21600D01*
X48605Y21565D02*
X48805D01*
X48705Y21465D02*
Y21665D01*
X48605Y22740D02*
X48805D01*
X48705Y22640D02*
Y22840D01*
X48555Y22140D02*
X48755D01*
X48655Y22040D02*
Y22240D01*
X39730Y22615D02*
X39930D01*
X39830Y22515D02*
Y22715D01*
X39630Y22115D02*
X39830D01*
X39730Y22015D02*
Y22215D01*
X28630Y31890D02*
X28830D01*
X28730Y31790D02*
Y31990D01*
X29680Y31890D02*
X29880D01*
X29780Y31790D02*
Y31990D01*
X29280Y32240D02*
X29480D01*
X29380Y32140D02*
Y32340D01*
X39155Y21490D02*
X39355D01*
X39255Y21390D02*
Y21590D01*
X49830Y23340D02*
X50030D01*
X49930Y23240D02*
Y23440D01*
X50180Y22965D02*
X50380D01*
X50280Y22865D02*
Y23065D01*
X39805Y21140D02*
X40005D01*
X39905Y21040D02*
Y21240D01*
X27329Y32790D02*
X27529D01*
X27429Y32690D02*
Y32890D01*
X28705Y32790D02*
X28905D01*
X28805Y32690D02*
Y32890D01*
X50130Y22440D02*
X50330D01*
X50230Y22340D02*
Y22540D01*
X42930Y21290D02*
X43130D01*
X43030Y21190D02*
Y21390D01*
X20080Y8440D02*
X20280D01*
X20180Y8340D02*
Y8540D01*
X19180Y59690D02*
X19380D01*
X19280Y59590D02*
Y59790D01*
X55480Y11915D02*
X55680D01*
X55580Y11815D02*
Y12015D01*
X51280Y22865D02*
X51480D01*
X51380Y22765D02*
Y22965D01*
X63880Y24965D02*
X64080D01*
X63980Y24865D02*
Y25065D01*
X64030Y24440D02*
X64230D01*
X64130Y24340D02*
Y24540D01*
X63330Y24690D02*
X63530D01*
X63430Y24590D02*
Y24790D01*
X75558Y20917D02*
X75858D01*
X75708Y20767D02*
Y21067D01*
X75030Y20340D02*
X75230D01*
X75130Y20240D02*
Y20440D01*
X74630Y20940D02*
X74830D01*
X74730Y20840D02*
Y21040D01*
X52805Y8090D02*
X53105D01*
X52955Y7940D02*
Y8240D01*
X47980Y7665D02*
X48180D01*
X48080Y7565D02*
Y7765D01*
X42530Y6490D02*
X42730D01*
X42630Y6390D02*
Y6590D01*
X42780Y7040D02*
X42980D01*
X42880Y6940D02*
Y7140D01*
X41030Y7090D02*
X41230D01*
X41130Y6990D02*
Y7190D01*
X64680Y9540D02*
X64880D01*
X64780Y9440D02*
Y9640D01*
X58680Y20090D02*
X58880D01*
X58780Y19990D02*
Y20190D01*
X58530Y20765D02*
X58830D01*
X58680Y20615D02*
Y20915D01*
X61580Y24215D02*
X61780D01*
X61680Y24115D02*
Y24315D01*
X57381Y26390D02*
X57581D01*
X57481Y26290D02*
Y26490D01*
X65805Y29890D02*
X66005D01*
X65905Y29790D02*
Y29990D01*
X65806Y29115D02*
X66006D01*
X65906Y29015D02*
Y29215D01*
X65249Y28765D02*
X65449D01*
X65349Y28665D02*
Y28865D01*
X64130Y27065D02*
X64330D01*
X64230Y26965D02*
Y27165D01*
X60518Y32027D02*
X60718D01*
X60618Y31927D02*
Y32127D01*
X59130Y31140D02*
X59330D01*
X59230Y31040D02*
Y31240D01*
X64305Y25415D02*
X64505D01*
X64405Y25315D02*
Y25515D01*
X63705Y25940D02*
X63905D01*
X63805Y25840D02*
Y26040D01*
X63080Y26515D02*
X63280D01*
X63180Y26415D02*
Y26615D01*
X61930Y26590D02*
X62130D01*
X62030Y26490D02*
Y26690D01*
X62555Y27265D02*
X62755D01*
X62655Y27165D02*
Y27365D01*
X37680Y17990D02*
X37880D01*
X37780Y17890D02*
Y18090D01*
X23630Y28890D02*
X23830D01*
X23730Y28790D02*
Y28990D01*
X53979Y17940D02*
X54179D01*
X54079Y17840D02*
Y18040D01*
X37680Y17465D02*
X37880D01*
X37780Y17365D02*
Y17565D01*
X56855Y18490D02*
X57055D01*
X56955Y18390D02*
Y18590D01*
X56930Y17765D02*
X57130D01*
X57030Y17665D02*
Y17865D01*
X56955Y16990D02*
X57155D01*
X57055Y16890D02*
Y17090D01*
X56105Y16515D02*
X56305D01*
X56205Y16415D02*
Y16615D01*
X55180Y16140D02*
X55380D01*
X55280Y16040D02*
Y16240D01*
X62955Y20915D02*
X63155D01*
X63055Y20815D02*
Y21015D01*
X63030Y20315D02*
X63230D01*
X63130Y20215D02*
Y20415D01*
X59030Y26815D02*
X59230D01*
X59130Y26715D02*
Y26915D01*
X63031Y19815D02*
X63231D01*
X63131Y19715D02*
Y19915D01*
X62130Y8140D02*
X62330D01*
X62230Y8040D02*
Y8240D01*
X28505Y4740D02*
X28705D01*
X28605Y4640D02*
Y4840D01*
X29430Y4765D02*
X29630D01*
X29530Y4665D02*
Y4865D01*
X58730Y16615D02*
X58930D01*
X58830Y16515D02*
Y16715D01*
X65747Y17872D02*
X66048D01*
X65897Y17722D02*
Y18022D01*
X62906Y19115D02*
X63106D01*
X63006Y19015D02*
Y19215D01*
X63280Y27315D02*
X63480D01*
X63380Y27215D02*
Y27415D01*
X42180Y62142D02*
X42380D01*
X42280Y62042D02*
Y62242D01*
X62380Y33115D02*
X62580D01*
X62480Y33015D02*
Y33215D01*
X61080Y32290D02*
X61280D01*
X61180Y32190D02*
Y32390D01*
X64230Y31415D02*
X64430D01*
X64330Y31315D02*
Y31515D01*
X66305Y34265D02*
X66505D01*
X66405Y34165D02*
Y34365D01*
X63931Y29790D02*
X64131D01*
X64031Y29690D02*
Y29890D01*
X64131Y29065D02*
X64331D01*
X64231Y28965D02*
Y29165D01*
X63119Y29029D02*
X63319D01*
X63219Y28929D02*
Y29129D01*
X63181Y28115D02*
X63381D01*
X63281Y28015D02*
Y28215D01*
X63180Y35990D02*
X63380D01*
X63280Y35890D02*
Y36090D01*
X53830Y63642D02*
X54030D01*
X53930Y63542D02*
Y63742D01*
X24780Y63490D02*
X24980D01*
X24880Y63390D02*
Y63590D01*
X63681Y36016D02*
X63881D01*
X63781Y35916D02*
Y36116D01*
X54430Y63590D02*
X54630D01*
X54530Y63490D02*
Y63690D01*
X41555Y61390D02*
X41755D01*
X41655Y61290D02*
Y61490D01*
X42230Y61242D02*
X42430D01*
X42330Y61142D02*
Y61342D01*
X54955Y63615D02*
X55155D01*
X55055Y63515D02*
Y63715D01*
X62765Y29382D02*
X62965D01*
X62865Y29282D02*
Y29482D01*
X57980Y15340D02*
X58180D01*
X58080Y15240D02*
Y15440D01*
X57531Y15715D02*
X57731D01*
X57631Y15615D02*
Y15815D01*
X60205Y36865D02*
X60405D01*
X60305Y36765D02*
Y36965D01*
X55530Y63615D02*
X55730D01*
X55630Y63515D02*
Y63715D01*
X62056Y7564D02*
X62256D01*
X62156Y7464D02*
Y7664D01*
X64580Y36290D02*
X64780D01*
X64680Y36190D02*
Y36390D01*
X63080Y39190D02*
X63280D01*
X63180Y39090D02*
Y39290D01*
X37725Y57500D02*
X37925D01*
X37825Y57400D02*
Y57600D01*
X36800Y56575D02*
X37100D01*
X36950Y56425D02*
Y56725D01*
X36675Y57575D02*
X36875D01*
X36775Y57475D02*
Y57675D01*
X76925Y56725D02*
X77225D01*
X77075Y56575D02*
Y56875D01*
X76175Y56725D02*
X76475D01*
X76325Y56575D02*
Y56875D01*
X76175Y45350D02*
X76475D01*
X76325Y45200D02*
Y45500D01*
X76950Y58575D02*
X77250D01*
X77100Y58425D02*
Y58725D01*
X77230Y57881D02*
X77430D01*
X77330Y57781D02*
Y57981D01*
X76964Y45361D02*
X77264D01*
X77114Y45211D02*
Y45511D01*
X82300Y58000D02*
X82500D01*
X82400Y57900D02*
Y58100D01*
X82175Y43125D02*
X82475D01*
X82325Y42975D02*
Y43275D01*
X82575Y38695D02*
X82875D01*
X82725Y38545D02*
Y38845D01*
X82325Y39750D02*
X82625D01*
X82475Y39600D02*
Y39900D01*
X82280Y41820D02*
X82480D01*
X82380Y41720D02*
Y41920D01*
X70400Y4000D02*
X70700D01*
X70550Y3850D02*
Y4150D01*
X95125Y9250D02*
X95425D01*
X95275Y9100D02*
Y9400D01*
X95125Y10750D02*
X95425D01*
X95275Y10600D02*
Y10900D01*
X95125Y12250D02*
X95425D01*
X95275Y12100D02*
Y12400D01*
X91550Y9500D02*
X91750D01*
X91650Y9400D02*
Y9600D01*
X91550Y9000D02*
X91750D01*
X91650Y8900D02*
Y9100D01*
X91550Y11000D02*
X91750D01*
X91650Y10900D02*
Y11100D01*
X91550Y10500D02*
X91750D01*
X91650Y10400D02*
Y10600D01*
X91550Y12500D02*
X91750D01*
X91650Y12400D02*
Y12600D01*
X91550Y12000D02*
X91750D01*
X91650Y11900D02*
Y12100D01*
X91550Y14000D02*
X91750D01*
X91650Y13900D02*
Y14100D01*
X91550Y13500D02*
X91750D01*
X91650Y13400D02*
Y13600D01*
X92000Y8250D02*
X92200D01*
X92100Y8150D02*
Y8350D01*
X92000Y7250D02*
X92200D01*
X92100Y7150D02*
Y7350D01*
X92000Y6750D02*
X92200D01*
X92100Y6650D02*
Y6850D01*
X86400Y5925D02*
X86700D01*
X86550Y5775D02*
Y6075D01*
X91250Y7350D02*
X91450D01*
X91350Y7250D02*
Y7450D01*
X87575Y7575D02*
X87775D01*
X87675Y7475D02*
Y7675D01*
X88800Y8950D02*
X89000D01*
X88900Y8850D02*
Y9050D01*
X88800Y9450D02*
X89000D01*
X88900Y9350D02*
Y9550D01*
X88800Y10950D02*
X89000D01*
X88900Y10850D02*
Y11050D01*
X88800Y10450D02*
X89000D01*
X88900Y10350D02*
Y10550D01*
X88800Y12525D02*
X89000D01*
X88900Y12425D02*
Y12625D01*
X88800Y12025D02*
X89000D01*
X88900Y11925D02*
Y12125D01*
X88800Y13525D02*
X89000D01*
X88900Y13425D02*
Y13625D01*
X88800Y14025D02*
X89000D01*
X88900Y13925D02*
Y14125D01*
X88475Y7575D02*
X88675D01*
X88575Y7475D02*
Y7675D01*
X88050Y8600D02*
X88250D01*
X88150Y8500D02*
Y8700D01*
X95225Y7171D02*
X95525D01*
X95375Y7021D02*
Y7321D01*
X95600Y15575D02*
X95900D01*
X95750Y15425D02*
Y15725D01*
X32325Y21350D02*
X32525D01*
X32425Y21250D02*
Y21450D01*
X89100Y28025D02*
X89300D01*
X89200Y27925D02*
Y28125D01*
X89100Y27525D02*
X89300D01*
X89200Y27425D02*
Y27625D01*
X57225Y62675D02*
X57425D01*
X57325Y62575D02*
Y62775D01*
X55881Y62856D02*
X56081D01*
X55981Y62756D02*
Y62956D01*
X61975Y65175D02*
X62175D01*
X62075Y65075D02*
Y65275D01*
X61475Y67650D02*
X61675D01*
X61575Y67550D02*
Y67750D01*
X38825Y22675D02*
X39025D01*
X38925Y22575D02*
Y22775D01*
X37450Y16625D02*
X37650D01*
X37550Y16525D02*
Y16725D01*
X66275Y44275D02*
X66575D01*
X66425Y44125D02*
Y44425D01*
X55225Y19075D02*
X55525D01*
X55375Y18925D02*
Y19225D01*
X55750Y17525D02*
X55950D01*
X55850Y17425D02*
Y17625D01*
X54750Y17800D02*
X54950D01*
X54850Y17700D02*
Y17900D01*
X54575Y18382D02*
X54775D01*
X54675Y18282D02*
Y18482D01*
X54255Y16840D02*
X54455D01*
X54355Y16740D02*
Y16940D01*
X53100Y16150D02*
X53300D01*
X53200Y16050D02*
Y16250D01*
X50925Y16350D02*
X51225D01*
X51075Y16200D02*
Y16500D01*
X53175Y16925D02*
X53375D01*
X53275Y16825D02*
Y17025D01*
X51550Y17725D02*
X51750D01*
X51650Y17625D02*
Y17825D01*
X51300Y20820D02*
X51500D01*
X51400Y20720D02*
Y20920D01*
X50525Y21425D02*
X50725D01*
X50625Y21325D02*
Y21525D01*
X30050Y45900D02*
X30350D01*
X30200Y45750D02*
Y46050D01*
X30750Y45900D02*
X31050D01*
X30900Y45750D02*
Y46050D01*
X31425Y45900D02*
X31725D01*
X31575Y45750D02*
Y46050D01*
X31700Y60900D02*
X32000D01*
X31850Y60750D02*
Y61050D01*
X32400Y60900D02*
X32700D01*
X32550Y60750D02*
Y61050D01*
X29800Y61250D02*
X30000D01*
X29900Y61150D02*
Y61350D01*
X53375Y30725D02*
X53575D01*
X53475Y30625D02*
Y30825D01*
X52245Y29075D02*
X52445D01*
X52345Y28975D02*
Y29175D01*
X49025Y27300D02*
X49225D01*
X49125Y27200D02*
Y27400D01*
X46500Y30300D02*
X46700D01*
X46600Y30200D02*
Y30400D01*
X52375Y27144D02*
X52575D01*
X52475Y27044D02*
Y27244D01*
X53550Y28200D02*
X53750D01*
X53650Y28100D02*
Y28300D01*
X36975Y59700D02*
X37175D01*
X37075Y59600D02*
Y59800D01*
X36300Y61006D02*
X36500D01*
X36400Y60905D02*
Y61105D01*
X77250Y43100D02*
X77450D01*
X77350Y43000D02*
Y43200D01*
X31050Y56650D02*
X31250D01*
X31150Y56550D02*
Y56750D01*
X31025Y55450D02*
X31225D01*
X31125Y55350D02*
Y55550D01*
X31025Y54225D02*
X31225D01*
X31125Y54125D02*
Y54325D01*
X34500Y54225D02*
X34700D01*
X34600Y54125D02*
Y54325D01*
X34500Y55475D02*
X34700D01*
X34600Y55375D02*
Y55575D01*
X34500Y56650D02*
X34700D01*
X34600Y56550D02*
Y56750D01*
X32775Y56650D02*
X32975D01*
X32875Y56550D02*
Y56750D01*
X32775Y54225D02*
X32975D01*
X32875Y54125D02*
Y54325D01*
X36080Y51925D02*
X36280D01*
X36180Y51825D02*
Y52025D01*
X28150Y55836D02*
X28350D01*
X28250Y55736D02*
Y55936D01*
X25500Y55925D02*
X25800D01*
X25650Y55775D02*
Y56075D01*
X26075Y56525D02*
X26275D01*
X26175Y56425D02*
Y56625D01*
X26000Y55400D02*
X26200D01*
X26100Y55300D02*
Y55500D01*
X25550Y54875D02*
X25850D01*
X25700Y54725D02*
Y55025D01*
X24575Y54150D02*
X24875D01*
X24725Y54000D02*
Y54300D01*
X25200Y54150D02*
X25500D01*
X25350Y54000D02*
Y54300D01*
X26075Y53175D02*
X26275D01*
X26175Y53075D02*
Y53275D01*
X24325Y52875D02*
X24625D01*
X24475Y52725D02*
Y53025D01*
X26075Y51900D02*
X26275D01*
X26175Y51800D02*
Y52000D01*
X26075Y51075D02*
X26275D01*
X26175Y50975D02*
Y51175D01*
X28150Y51250D02*
X28450D01*
X28300Y51100D02*
Y51400D01*
X28400Y53200D02*
X28700D01*
X28550Y53050D02*
Y53350D01*
X27400Y52600D02*
X27700D01*
X27550Y52450D02*
Y52750D01*
X26000Y54275D02*
X26200D01*
X26100Y54175D02*
Y54375D01*
X29750Y52025D02*
X30050D01*
X29900Y51875D02*
Y52175D01*
X28600Y50675D02*
X28800D01*
X28700Y50575D02*
Y50775D01*
X19675Y53775D02*
X19875D01*
X19775Y53675D02*
Y53875D01*
X28900Y49775D02*
X29100D01*
X29000Y49675D02*
Y49875D01*
X27975Y49775D02*
X28175D01*
X28075Y49675D02*
Y49875D01*
X28450Y49775D02*
X28650D01*
X28550Y49675D02*
Y49875D01*
X31900Y54875D02*
X32100D01*
X32000Y54775D02*
Y54975D01*
X31900Y56075D02*
X32100D01*
X32000Y55975D02*
Y56175D01*
X33625Y56075D02*
X33825D01*
X33725Y55975D02*
Y56175D01*
X33625Y54875D02*
X33825D01*
X33725Y54775D02*
Y54975D01*
X34100Y49725D02*
X34300D01*
X34200Y49625D02*
Y49825D01*
X33675Y49725D02*
X33875D01*
X33775Y49625D02*
Y49825D01*
X33250Y49725D02*
X33450D01*
X33350Y49625D02*
Y49825D01*
X29350Y61250D02*
X29550D01*
X29450Y61150D02*
Y61350D01*
X38425Y52450D02*
X38725D01*
X38575Y52300D02*
Y52600D01*
X38425Y53250D02*
X38725D01*
X38575Y53100D02*
Y53400D01*
M02*
