G04 Layer_Color=8388736*
%FSLAX43Y43*%
%MOMM*%
G71*
G01*
G75*
%ADD72R,3.900X3.900*%
%ADD74R,3.800X3.800*%
%ADD103C,0.100*%
%ADD113C,1.600*%
%ADD117C,0.500*%
%ADD120C,1.400*%
%ADD121C,1.500*%
%ADD149R,8.500X1.750*%
%ADD150R,0.610X0.800*%
%ADD151R,0.800X0.610*%
%ADD152R,0.610X0.660*%
%ADD153R,0.700X0.350*%
%ADD154R,0.660X0.610*%
%ADD155C,1.100*%
%ADD156C,0.700*%
%ADD157R,0.990X0.740*%
%ADD158R,1.850X0.800*%
%ADD159R,1.500X1.100*%
%ADD160R,1.000X0.650*%
%ADD161R,0.500X0.850*%
%ADD162R,0.550X0.850*%
%ADD163C,0.354*%
%ADD164R,1.100X0.740*%
%ADD165R,0.740X1.100*%
%ADD166R,0.900X0.900*%
%ADD167R,0.900X0.900*%
%ADD168R,0.900X1.050*%
%ADD169R,2.100X0.900*%
%ADD170R,0.900X2.100*%
%ADD171R,1.300X0.400*%
%ADD172R,1.500X1.000*%
%ADD173R,0.740X0.990*%
%ADD174R,1.000X1.500*%
%ADD175R,0.850X1.100*%
%ADD176C,1.200*%
%ADD177R,2.000X0.400*%
%ADD178R,2.100X2.700*%
%ADD179R,2.600X2.100*%
%ADD180R,1.950X0.700*%
%ADD181R,1.750X0.700*%
%ADD182R,0.500X1.450*%
%ADD183R,1.600X2.000*%
%ADD184R,1.550X1.700*%
%ADD185R,2.300X2.700*%
%ADD186R,1.100X1.350*%
%ADD187R,0.950X0.850*%
%ADD188R,2.800X1.600*%
%ADD189R,1.500X1.300*%
%ADD190R,0.800X0.900*%
%ADD191R,0.700X0.520*%
%ADD192R,1.100X1.500*%
%ADD193R,1.300X0.700*%
%ADD194R,0.400X1.090*%
%ADD195R,0.430X0.525*%
%ADD196R,0.680X0.300*%
%ADD197R,0.680X0.500*%
%ADD198R,0.400X1.300*%
%ADD199R,1.300X0.400*%
G04:AMPARAMS|DCode=200|XSize=0.35mm|YSize=0.7mm|CornerRadius=0.113mm|HoleSize=0mm|Usage=FLASHONLY|Rotation=270.000|XOffset=0mm|YOffset=0mm|HoleType=Round|Shape=RoundedRectangle|*
%AMROUNDEDRECTD200*
21,1,0.350,0.475,0,0,270.0*
21,1,0.125,0.700,0,0,270.0*
1,1,0.225,-0.237,-0.063*
1,1,0.225,-0.237,0.063*
1,1,0.225,0.237,0.063*
1,1,0.225,0.237,-0.063*
%
%ADD200ROUNDEDRECTD200*%
%ADD201R,2.900X2.900*%
G04:AMPARAMS|DCode=202|XSize=0.35mm|YSize=0.7mm|CornerRadius=0.113mm|HoleSize=0mm|Usage=FLASHONLY|Rotation=0.000|XOffset=0mm|YOffset=0mm|HoleType=Round|Shape=RoundedRectangle|*
%AMROUNDEDRECTD202*
21,1,0.350,0.475,0,0,0.0*
21,1,0.125,0.700,0,0,0.0*
1,1,0.225,0.063,-0.237*
1,1,0.225,-0.063,-0.237*
1,1,0.225,-0.063,0.237*
1,1,0.225,0.063,0.237*
%
%ADD202ROUNDEDRECTD202*%
%ADD203O,0.850X0.400*%
%ADD204O,0.400X0.850*%
G04:AMPARAMS|DCode=205|XSize=1mm|YSize=0.4mm|CornerRadius=0.125mm|HoleSize=0mm|Usage=FLASHONLY|Rotation=180.000|XOffset=0mm|YOffset=0mm|HoleType=Round|Shape=RoundedRectangle|*
%AMROUNDEDRECTD205*
21,1,1.000,0.150,0,0,180.0*
21,1,0.750,0.400,0,0,180.0*
1,1,0.250,-0.375,0.075*
1,1,0.250,0.375,0.075*
1,1,0.250,0.375,-0.075*
1,1,0.250,-0.375,-0.075*
%
%ADD205ROUNDEDRECTD205*%
%ADD206R,1.000X0.400*%
G04:AMPARAMS|DCode=207|XSize=1mm|YSize=0.4mm|CornerRadius=0.125mm|HoleSize=0mm|Usage=FLASHONLY|Rotation=90.000|XOffset=0mm|YOffset=0mm|HoleType=Round|Shape=RoundedRectangle|*
%AMROUNDEDRECTD207*
21,1,1.000,0.150,0,0,90.0*
21,1,0.750,0.400,0,0,90.0*
1,1,0.250,0.075,0.375*
1,1,0.250,0.075,-0.375*
1,1,0.250,-0.075,-0.375*
1,1,0.250,-0.075,0.375*
%
%ADD207ROUNDEDRECTD207*%
%ADD208R,0.400X1.000*%
%ADD209R,4.000X4.000*%
%ADD210R,0.300X0.800*%
%ADD211R,0.800X0.300*%
%ADD212O,1.100X0.400*%
%ADD213O,0.400X0.950*%
%ADD214O,0.400X1.100*%
%ADD215O,0.950X0.400*%
%ADD216R,5.950X5.950*%
%ADD217C,0.330*%
%ADD218R,0.300X0.900*%
%ADD219R,4.700X3.700*%
%ADD220R,0.900X0.300*%
%ADD221R,1.000X0.750*%
%ADD222R,1.050X0.900*%
%ADD223R,1.100X0.700*%
%ADD224R,1.200X1.600*%
%ADD225R,1.100X1.100*%
%ADD226R,0.600X0.350*%
%ADD227R,0.475X0.600*%
%ADD228R,0.350X0.600*%
%ADD229R,0.950X1.400*%
%ADD230C,6.100*%
%ADD231R,1.700X1.700*%
%ADD232C,1.700*%
%ADD233C,3.900*%
%ADD234O,1.700X1.100*%
%ADD235C,2.200*%
%ADD236O,1.400X1.100*%
%ADD237R,1.500X1.500*%
%ADD238C,2.600*%
%ADD239C,3.400*%
%ADD240C,1.950*%
%ADD241R,1.950X1.950*%
%ADD242O,1.300X2.000*%
G36*
X17885Y36374D02*
X17894Y36371D01*
X17903Y36367D01*
X17911Y36361D01*
X17917Y36353D01*
X17921Y36344D01*
X17924Y36335D01*
X17925Y36325D01*
Y36075D01*
X18405D01*
X18415Y36074D01*
X18424Y36071D01*
X18433Y36067D01*
X18441Y36061D01*
X18447Y36053D01*
X18451Y36044D01*
X18454Y36035D01*
X18455Y36025D01*
Y35625D01*
X18454Y35615D01*
X18451Y35606D01*
X18447Y35597D01*
X18441Y35589D01*
X18433Y35583D01*
X18424Y35579D01*
X18415Y35576D01*
X18405Y35575D01*
X17925D01*
Y33925D01*
X17924Y33915D01*
X17921Y33906D01*
X17917Y33897D01*
X17911Y33889D01*
X17903Y33883D01*
X17894Y33879D01*
X17885Y33876D01*
X17875Y33875D01*
X15425D01*
X15415Y33876D01*
X15406Y33879D01*
X15397Y33883D01*
X15389Y33889D01*
X15383Y33897D01*
X15379Y33906D01*
X15376Y33915D01*
X15375Y33925D01*
Y35575D01*
X14895D01*
X14885Y35576D01*
X14876Y35579D01*
X14867Y35583D01*
X14859Y35589D01*
X14853Y35597D01*
X14849Y35606D01*
X14846Y35615D01*
X14845Y35625D01*
Y36025D01*
X14846Y36035D01*
X14849Y36044D01*
X14853Y36053D01*
X14859Y36061D01*
X14867Y36067D01*
X14876Y36071D01*
X14885Y36074D01*
X14895Y36075D01*
X15375D01*
Y36325D01*
X15376Y36335D01*
X15379Y36344D01*
X15383Y36353D01*
X15389Y36361D01*
X15397Y36367D01*
X15406Y36371D01*
X15415Y36374D01*
X15425Y36375D01*
X17875D01*
X17885Y36374D01*
D02*
G37*
G36*
X88585Y32924D02*
X88594Y32921D01*
X88603Y32917D01*
X88611Y32911D01*
X88617Y32903D01*
X88621Y32894D01*
X88624Y32885D01*
X88625Y32875D01*
Y32625D01*
X89105D01*
X89115Y32624D01*
X89124Y32621D01*
X89133Y32617D01*
X89141Y32611D01*
X89147Y32603D01*
X89151Y32594D01*
X89154Y32585D01*
X89155Y32575D01*
Y32175D01*
X89154Y32165D01*
X89151Y32156D01*
X89147Y32147D01*
X89141Y32139D01*
X89133Y32133D01*
X89124Y32129D01*
X89115Y32126D01*
X89105Y32125D01*
X88625D01*
Y30475D01*
X88624Y30465D01*
X88621Y30456D01*
X88617Y30447D01*
X88611Y30439D01*
X88603Y30433D01*
X88594Y30429D01*
X88585Y30426D01*
X88575Y30425D01*
X86125D01*
X86115Y30426D01*
X86106Y30429D01*
X86097Y30433D01*
X86089Y30439D01*
X86083Y30447D01*
X86079Y30456D01*
X86076Y30465D01*
X86075Y30475D01*
Y32125D01*
X85595D01*
X85585Y32126D01*
X85576Y32129D01*
X85567Y32133D01*
X85559Y32139D01*
X85553Y32147D01*
X85549Y32156D01*
X85546Y32165D01*
X85545Y32175D01*
Y32575D01*
X85546Y32585D01*
X85549Y32594D01*
X85553Y32603D01*
X85559Y32611D01*
X85567Y32617D01*
X85576Y32621D01*
X85585Y32624D01*
X85595Y32625D01*
X86075D01*
Y32875D01*
X86076Y32885D01*
X86079Y32894D01*
X86083Y32903D01*
X86089Y32911D01*
X86097Y32917D01*
X86106Y32921D01*
X86115Y32924D01*
X86125Y32925D01*
X88575D01*
X88585Y32924D01*
D02*
G37*
G36*
X84085D02*
X84094Y32921D01*
X84103Y32917D01*
X84111Y32911D01*
X84117Y32903D01*
X84121Y32894D01*
X84124Y32885D01*
X84125Y32875D01*
Y32625D01*
X84605D01*
X84615Y32624D01*
X84624Y32621D01*
X84633Y32617D01*
X84641Y32611D01*
X84647Y32603D01*
X84651Y32594D01*
X84654Y32585D01*
X84655Y32575D01*
Y32175D01*
X84654Y32165D01*
X84651Y32156D01*
X84647Y32147D01*
X84641Y32139D01*
X84633Y32133D01*
X84624Y32129D01*
X84615Y32126D01*
X84605Y32125D01*
X84125D01*
Y30475D01*
X84124Y30465D01*
X84121Y30456D01*
X84117Y30447D01*
X84111Y30439D01*
X84103Y30433D01*
X84094Y30429D01*
X84085Y30426D01*
X84075Y30425D01*
X81625D01*
X81615Y30426D01*
X81606Y30429D01*
X81597Y30433D01*
X81589Y30439D01*
X81583Y30447D01*
X81579Y30456D01*
X81576Y30465D01*
X81575Y30475D01*
Y32125D01*
X81095D01*
X81085Y32126D01*
X81076Y32129D01*
X81067Y32133D01*
X81059Y32139D01*
X81053Y32147D01*
X81049Y32156D01*
X81046Y32165D01*
X81045Y32175D01*
Y32575D01*
X81046Y32585D01*
X81049Y32594D01*
X81053Y32603D01*
X81059Y32611D01*
X81067Y32617D01*
X81076Y32621D01*
X81085Y32624D01*
X81095Y32625D01*
X81575D01*
Y32875D01*
X81576Y32885D01*
X81579Y32894D01*
X81583Y32903D01*
X81589Y32911D01*
X81597Y32917D01*
X81606Y32921D01*
X81615Y32924D01*
X81625Y32925D01*
X84075D01*
X84085Y32924D01*
D02*
G37*
G36*
X49500Y18475D02*
X48950Y17925D01*
X48400Y18475D01*
Y19175D01*
X49500D01*
Y18475D01*
D02*
G37*
G36*
Y17025D02*
X48400D01*
Y18375D01*
X48950Y17825D01*
Y17825D01*
X49500Y18375D01*
Y17025D01*
D02*
G37*
G36*
X44475Y17825D02*
X43925Y18375D01*
Y18375D01*
X43375Y17825D01*
Y19175D01*
X44475D01*
Y17825D01*
D02*
G37*
G36*
X43075D02*
X42525Y18375D01*
Y18375D01*
X41975Y17825D01*
Y19175D01*
X43075D01*
Y17825D01*
D02*
G37*
G36*
X41675D02*
X41125Y18375D01*
Y18375D01*
X40575Y17825D01*
Y19175D01*
X41675D01*
Y17825D01*
D02*
G37*
G36*
X40275D02*
X39725Y18375D01*
Y18375D01*
X39175Y17825D01*
Y19175D01*
X40275D01*
Y17825D01*
D02*
G37*
G36*
X44475Y17725D02*
Y17025D01*
X43375D01*
Y17725D01*
X43925Y18275D01*
X44475Y17725D01*
D02*
G37*
G36*
X43075D02*
Y17025D01*
X41975D01*
Y17725D01*
X42525Y18275D01*
X43075Y17725D01*
D02*
G37*
G36*
X41675D02*
Y17025D01*
X40575D01*
Y17725D01*
X41125Y18275D01*
X41675Y17725D01*
D02*
G37*
G36*
X40275D02*
Y17025D01*
X39175D01*
Y17725D01*
X39725Y18275D01*
X40275Y17725D01*
D02*
G37*
G36*
X79000Y450D02*
X77750D01*
Y2450D01*
X79000D01*
Y450D01*
D02*
G37*
G36*
X73250D02*
X72000D01*
Y2450D01*
X73250D01*
Y450D01*
D02*
G37*
G36*
X60918Y-9265D02*
X60938D01*
X60991Y-9271D01*
X61049Y-9279D01*
X61110Y-9293D01*
X61177Y-9310D01*
X61238Y-9332D01*
X61240D01*
X61246Y-9335D01*
X61254Y-9340D01*
X61265Y-9346D01*
X61293Y-9360D01*
X61329Y-9385D01*
X61371Y-9412D01*
X61413Y-9449D01*
X61451Y-9490D01*
X61488Y-9537D01*
Y-9540D01*
X61490Y-9543D01*
X61496Y-9551D01*
X61501Y-9560D01*
X61515Y-9587D01*
X61532Y-9623D01*
X61551Y-9668D01*
X61565Y-9721D01*
X61579Y-9776D01*
X61585Y-9837D01*
X61340Y-9857D01*
Y-9854D01*
Y-9848D01*
X61338Y-9840D01*
X61335Y-9826D01*
X61327Y-9796D01*
X61315Y-9754D01*
X61299Y-9710D01*
X61274Y-9665D01*
X61243Y-9623D01*
X61204Y-9585D01*
X61199Y-9582D01*
X61185Y-9571D01*
X61157Y-9554D01*
X61121Y-9537D01*
X61074Y-9521D01*
X61018Y-9504D01*
X60949Y-9493D01*
X60871Y-9490D01*
X60832D01*
X60816Y-9493D01*
X60794Y-9496D01*
X60744Y-9501D01*
X60688Y-9512D01*
X60632Y-9526D01*
X60580Y-9549D01*
X60558Y-9562D01*
X60535Y-9576D01*
X60530Y-9579D01*
X60519Y-9590D01*
X60502Y-9610D01*
X60485Y-9632D01*
X60466Y-9662D01*
X60449Y-9696D01*
X60438Y-9734D01*
X60433Y-9779D01*
Y-9784D01*
Y-9796D01*
X60435Y-9815D01*
X60441Y-9837D01*
X60449Y-9865D01*
X60463Y-9893D01*
X60480Y-9921D01*
X60505Y-9948D01*
X60508Y-9951D01*
X60521Y-9959D01*
X60533Y-9968D01*
X60544Y-9973D01*
X60560Y-9982D01*
X60580Y-9993D01*
X60605Y-10001D01*
X60632Y-10012D01*
X60663Y-10023D01*
X60699Y-10037D01*
X60738Y-10048D01*
X60782Y-10062D01*
X60832Y-10073D01*
X60888Y-10087D01*
X60891D01*
X60902Y-10090D01*
X60918Y-10093D01*
X60938Y-10098D01*
X60963Y-10104D01*
X60993Y-10112D01*
X61024Y-10120D01*
X61057Y-10129D01*
X61129Y-10148D01*
X61199Y-10168D01*
X61232Y-10179D01*
X61263Y-10190D01*
X61290Y-10198D01*
X61313Y-10209D01*
X61315D01*
X61321Y-10212D01*
X61329Y-10218D01*
X61340Y-10223D01*
X61371Y-10240D01*
X61407Y-10262D01*
X61449Y-10293D01*
X61490Y-10326D01*
X61529Y-10365D01*
X61563Y-10406D01*
X61565Y-10412D01*
X61576Y-10426D01*
X61588Y-10451D01*
X61604Y-10484D01*
X61618Y-10523D01*
X61632Y-10570D01*
X61640Y-10623D01*
X61643Y-10678D01*
Y-10681D01*
Y-10684D01*
Y-10692D01*
Y-10703D01*
X61637Y-10734D01*
X61632Y-10773D01*
X61621Y-10817D01*
X61607Y-10864D01*
X61585Y-10914D01*
X61554Y-10967D01*
Y-10970D01*
X61551Y-10973D01*
X61538Y-10989D01*
X61518Y-11014D01*
X61490Y-11042D01*
X61454Y-11075D01*
X61410Y-11112D01*
X61360Y-11145D01*
X61302Y-11175D01*
X61299D01*
X61293Y-11178D01*
X61285Y-11181D01*
X61274Y-11186D01*
X61257Y-11192D01*
X61238Y-11200D01*
X61193Y-11211D01*
X61141Y-11225D01*
X61077Y-11239D01*
X61007Y-11248D01*
X60932Y-11250D01*
X60888D01*
X60866Y-11248D01*
X60841D01*
X60813Y-11245D01*
X60780Y-11242D01*
X60710Y-11231D01*
X60638Y-11220D01*
X60566Y-11200D01*
X60496Y-11175D01*
X60494D01*
X60488Y-11173D01*
X60480Y-11167D01*
X60469Y-11161D01*
X60435Y-11145D01*
X60397Y-11120D01*
X60352Y-11087D01*
X60305Y-11048D01*
X60260Y-11000D01*
X60219Y-10948D01*
Y-10945D01*
X60213Y-10939D01*
X60210Y-10931D01*
X60202Y-10920D01*
X60197Y-10906D01*
X60188Y-10889D01*
X60169Y-10848D01*
X60149Y-10795D01*
X60133Y-10737D01*
X60122Y-10670D01*
X60116Y-10601D01*
X60355Y-10578D01*
Y-10581D01*
Y-10584D01*
X60358Y-10592D01*
Y-10603D01*
X60363Y-10628D01*
X60372Y-10665D01*
X60383Y-10701D01*
X60394Y-10742D01*
X60413Y-10781D01*
X60433Y-10817D01*
X60435Y-10820D01*
X60444Y-10831D01*
X60458Y-10851D01*
X60480Y-10870D01*
X60508Y-10895D01*
X60538Y-10920D01*
X60580Y-10945D01*
X60624Y-10967D01*
X60627D01*
X60630Y-10970D01*
X60638Y-10973D01*
X60646Y-10975D01*
X60674Y-10984D01*
X60710Y-10995D01*
X60755Y-11006D01*
X60805Y-11014D01*
X60860Y-11020D01*
X60921Y-11023D01*
X60946D01*
X60974Y-11020D01*
X61007Y-11017D01*
X61046Y-11012D01*
X61091Y-11006D01*
X61135Y-10995D01*
X61177Y-10981D01*
X61182Y-10978D01*
X61196Y-10973D01*
X61215Y-10962D01*
X61240Y-10950D01*
X61265Y-10931D01*
X61293Y-10912D01*
X61321Y-10889D01*
X61343Y-10862D01*
X61346Y-10859D01*
X61352Y-10848D01*
X61360Y-10834D01*
X61371Y-10812D01*
X61382Y-10789D01*
X61390Y-10762D01*
X61396Y-10731D01*
X61399Y-10698D01*
Y-10695D01*
Y-10681D01*
X61396Y-10665D01*
X61393Y-10642D01*
X61385Y-10620D01*
X61377Y-10592D01*
X61363Y-10565D01*
X61343Y-10540D01*
X61340Y-10537D01*
X61332Y-10528D01*
X61321Y-10517D01*
X61302Y-10501D01*
X61279Y-10484D01*
X61249Y-10465D01*
X61213Y-10445D01*
X61171Y-10429D01*
X61168Y-10426D01*
X61154Y-10423D01*
X61132Y-10415D01*
X61118Y-10412D01*
X61099Y-10406D01*
X61079Y-10398D01*
X61054Y-10392D01*
X61027Y-10384D01*
X60993Y-10376D01*
X60960Y-10367D01*
X60921Y-10356D01*
X60877Y-10345D01*
X60830Y-10334D01*
X60827D01*
X60819Y-10331D01*
X60805Y-10329D01*
X60788Y-10323D01*
X60766Y-10318D01*
X60741Y-10312D01*
X60685Y-10295D01*
X60624Y-10276D01*
X60560Y-10256D01*
X60505Y-10237D01*
X60480Y-10226D01*
X60458Y-10215D01*
X60455D01*
X60452Y-10212D01*
X60435Y-10201D01*
X60410Y-10187D01*
X60383Y-10165D01*
X60349Y-10140D01*
X60316Y-10109D01*
X60283Y-10073D01*
X60255Y-10034D01*
X60252Y-10029D01*
X60244Y-10015D01*
X60233Y-9993D01*
X60222Y-9965D01*
X60210Y-9929D01*
X60199Y-9887D01*
X60191Y-9843D01*
X60188Y-9796D01*
Y-9793D01*
Y-9790D01*
Y-9782D01*
Y-9771D01*
X60194Y-9743D01*
X60199Y-9707D01*
X60208Y-9665D01*
X60222Y-9618D01*
X60241Y-9571D01*
X60269Y-9524D01*
Y-9521D01*
X60272Y-9518D01*
X60285Y-9501D01*
X60305Y-9479D01*
X60330Y-9451D01*
X60363Y-9421D01*
X60405Y-9387D01*
X60455Y-9357D01*
X60510Y-9329D01*
X60513D01*
X60519Y-9326D01*
X60527Y-9324D01*
X60538Y-9318D01*
X60552Y-9313D01*
X60571Y-9307D01*
X60613Y-9296D01*
X60666Y-9285D01*
X60727Y-9274D01*
X60791Y-9265D01*
X60863Y-9263D01*
X60899D01*
X60918Y-9265D01*
D02*
G37*
G36*
X20304D02*
X20323D01*
X20376Y-9271D01*
X20434Y-9279D01*
X20495Y-9293D01*
X20562Y-9310D01*
X20623Y-9332D01*
X20626D01*
X20631Y-9335D01*
X20640Y-9340D01*
X20651Y-9346D01*
X20678Y-9360D01*
X20714Y-9385D01*
X20756Y-9412D01*
X20798Y-9449D01*
X20837Y-9490D01*
X20873Y-9537D01*
Y-9540D01*
X20876Y-9543D01*
X20881Y-9551D01*
X20887Y-9560D01*
X20900Y-9587D01*
X20917Y-9623D01*
X20937Y-9668D01*
X20950Y-9721D01*
X20964Y-9776D01*
X20970Y-9837D01*
X20726Y-9857D01*
Y-9854D01*
Y-9848D01*
X20723Y-9840D01*
X20720Y-9826D01*
X20712Y-9796D01*
X20701Y-9754D01*
X20684Y-9710D01*
X20659Y-9665D01*
X20628Y-9623D01*
X20590Y-9585D01*
X20584Y-9582D01*
X20570Y-9571D01*
X20542Y-9554D01*
X20506Y-9537D01*
X20459Y-9521D01*
X20404Y-9504D01*
X20334Y-9493D01*
X20256Y-9490D01*
X20218D01*
X20201Y-9493D01*
X20179Y-9496D01*
X20129Y-9501D01*
X20073Y-9512D01*
X20018Y-9526D01*
X19965Y-9549D01*
X19943Y-9562D01*
X19920Y-9576D01*
X19915Y-9579D01*
X19904Y-9590D01*
X19887Y-9610D01*
X19871Y-9632D01*
X19851Y-9662D01*
X19834Y-9696D01*
X19823Y-9734D01*
X19818Y-9779D01*
Y-9784D01*
Y-9796D01*
X19821Y-9815D01*
X19826Y-9837D01*
X19834Y-9865D01*
X19848Y-9893D01*
X19865Y-9921D01*
X19890Y-9948D01*
X19893Y-9951D01*
X19907Y-9959D01*
X19918Y-9968D01*
X19929Y-9973D01*
X19945Y-9982D01*
X19965Y-9993D01*
X19990Y-10001D01*
X20018Y-10012D01*
X20048Y-10023D01*
X20084Y-10037D01*
X20123Y-10048D01*
X20168Y-10062D01*
X20218Y-10073D01*
X20273Y-10087D01*
X20276D01*
X20287Y-10090D01*
X20304Y-10093D01*
X20323Y-10098D01*
X20348Y-10104D01*
X20379Y-10112D01*
X20409Y-10120D01*
X20442Y-10129D01*
X20515Y-10148D01*
X20584Y-10168D01*
X20617Y-10179D01*
X20648Y-10190D01*
X20676Y-10198D01*
X20698Y-10209D01*
X20701D01*
X20706Y-10212D01*
X20714Y-10218D01*
X20726Y-10223D01*
X20756Y-10240D01*
X20792Y-10262D01*
X20834Y-10293D01*
X20876Y-10326D01*
X20914Y-10365D01*
X20948Y-10406D01*
X20950Y-10412D01*
X20962Y-10426D01*
X20973Y-10451D01*
X20989Y-10484D01*
X21003Y-10523D01*
X21017Y-10570D01*
X21025Y-10623D01*
X21028Y-10678D01*
Y-10681D01*
Y-10684D01*
Y-10692D01*
Y-10703D01*
X21023Y-10734D01*
X21017Y-10773D01*
X21006Y-10817D01*
X20992Y-10864D01*
X20970Y-10914D01*
X20939Y-10967D01*
Y-10970D01*
X20937Y-10973D01*
X20923Y-10989D01*
X20903Y-11014D01*
X20876Y-11042D01*
X20839Y-11075D01*
X20795Y-11112D01*
X20745Y-11145D01*
X20687Y-11175D01*
X20684D01*
X20678Y-11178D01*
X20670Y-11181D01*
X20659Y-11186D01*
X20642Y-11192D01*
X20623Y-11200D01*
X20578Y-11211D01*
X20526Y-11225D01*
X20462Y-11239D01*
X20392Y-11248D01*
X20317Y-11250D01*
X20273D01*
X20251Y-11248D01*
X20226D01*
X20198Y-11245D01*
X20165Y-11242D01*
X20095Y-11231D01*
X20023Y-11220D01*
X19951Y-11200D01*
X19882Y-11175D01*
X19879D01*
X19873Y-11173D01*
X19865Y-11167D01*
X19854Y-11161D01*
X19821Y-11145D01*
X19782Y-11120D01*
X19737Y-11087D01*
X19690Y-11048D01*
X19646Y-11000D01*
X19604Y-10948D01*
Y-10945D01*
X19598Y-10939D01*
X19596Y-10931D01*
X19587Y-10920D01*
X19582Y-10906D01*
X19573Y-10889D01*
X19554Y-10848D01*
X19535Y-10795D01*
X19518Y-10737D01*
X19507Y-10670D01*
X19501Y-10601D01*
X19740Y-10578D01*
Y-10581D01*
Y-10584D01*
X19743Y-10592D01*
Y-10603D01*
X19748Y-10628D01*
X19757Y-10665D01*
X19768Y-10701D01*
X19779Y-10742D01*
X19798Y-10781D01*
X19818Y-10817D01*
X19821Y-10820D01*
X19829Y-10831D01*
X19843Y-10851D01*
X19865Y-10870D01*
X19893Y-10895D01*
X19923Y-10920D01*
X19965Y-10945D01*
X20009Y-10967D01*
X20012D01*
X20015Y-10970D01*
X20023Y-10973D01*
X20032Y-10975D01*
X20059Y-10984D01*
X20095Y-10995D01*
X20140Y-11006D01*
X20190Y-11014D01*
X20245Y-11020D01*
X20306Y-11023D01*
X20331D01*
X20359Y-11020D01*
X20392Y-11017D01*
X20431Y-11012D01*
X20476Y-11006D01*
X20520Y-10995D01*
X20562Y-10981D01*
X20567Y-10978D01*
X20581Y-10973D01*
X20601Y-10962D01*
X20626Y-10950D01*
X20651Y-10931D01*
X20678Y-10912D01*
X20706Y-10889D01*
X20728Y-10862D01*
X20731Y-10859D01*
X20737Y-10848D01*
X20745Y-10834D01*
X20756Y-10812D01*
X20767Y-10789D01*
X20776Y-10762D01*
X20781Y-10731D01*
X20784Y-10698D01*
Y-10695D01*
Y-10681D01*
X20781Y-10665D01*
X20778Y-10642D01*
X20770Y-10620D01*
X20762Y-10592D01*
X20748Y-10565D01*
X20728Y-10540D01*
X20726Y-10537D01*
X20717Y-10528D01*
X20706Y-10517D01*
X20687Y-10501D01*
X20665Y-10484D01*
X20634Y-10465D01*
X20598Y-10445D01*
X20556Y-10429D01*
X20553Y-10426D01*
X20540Y-10423D01*
X20517Y-10415D01*
X20503Y-10412D01*
X20484Y-10406D01*
X20465Y-10398D01*
X20440Y-10392D01*
X20412Y-10384D01*
X20379Y-10376D01*
X20345Y-10367D01*
X20306Y-10356D01*
X20262Y-10345D01*
X20215Y-10334D01*
X20212D01*
X20204Y-10331D01*
X20190Y-10329D01*
X20173Y-10323D01*
X20151Y-10318D01*
X20126Y-10312D01*
X20070Y-10295D01*
X20009Y-10276D01*
X19945Y-10256D01*
X19890Y-10237D01*
X19865Y-10226D01*
X19843Y-10215D01*
X19840D01*
X19837Y-10212D01*
X19821Y-10201D01*
X19796Y-10187D01*
X19768Y-10165D01*
X19734Y-10140D01*
X19701Y-10109D01*
X19668Y-10073D01*
X19640Y-10034D01*
X19637Y-10029D01*
X19629Y-10015D01*
X19618Y-9993D01*
X19607Y-9965D01*
X19596Y-9929D01*
X19585Y-9887D01*
X19576Y-9843D01*
X19573Y-9796D01*
Y-9793D01*
Y-9790D01*
Y-9782D01*
Y-9771D01*
X19579Y-9743D01*
X19585Y-9707D01*
X19593Y-9665D01*
X19607Y-9618D01*
X19626Y-9571D01*
X19654Y-9524D01*
Y-9521D01*
X19657Y-9518D01*
X19671Y-9501D01*
X19690Y-9479D01*
X19715Y-9451D01*
X19748Y-9421D01*
X19790Y-9387D01*
X19840Y-9357D01*
X19896Y-9329D01*
X19898D01*
X19904Y-9326D01*
X19912Y-9324D01*
X19923Y-9318D01*
X19937Y-9313D01*
X19957Y-9307D01*
X19998Y-9296D01*
X20051Y-9285D01*
X20112Y-9274D01*
X20176Y-9265D01*
X20248Y-9263D01*
X20284D01*
X20304Y-9265D01*
D02*
G37*
G36*
X57420D02*
X57443D01*
X57495Y-9271D01*
X57554Y-9279D01*
X57615Y-9293D01*
X57681Y-9310D01*
X57745Y-9332D01*
X57748D01*
X57754Y-9335D01*
X57762Y-9337D01*
X57773Y-9343D01*
X57804Y-9360D01*
X57842Y-9379D01*
X57884Y-9407D01*
X57928Y-9440D01*
X57970Y-9476D01*
X58009Y-9521D01*
X58015Y-9526D01*
X58026Y-9543D01*
X58042Y-9568D01*
X58064Y-9604D01*
X58087Y-9648D01*
X58112Y-9704D01*
X58137Y-9765D01*
X58156Y-9834D01*
X57926Y-9896D01*
Y-9893D01*
X57923Y-9890D01*
X57920Y-9882D01*
X57917Y-9871D01*
X57909Y-9846D01*
X57898Y-9812D01*
X57881Y-9773D01*
X57862Y-9737D01*
X57842Y-9698D01*
X57817Y-9665D01*
X57815Y-9662D01*
X57806Y-9651D01*
X57790Y-9637D01*
X57770Y-9618D01*
X57745Y-9596D01*
X57712Y-9573D01*
X57676Y-9551D01*
X57634Y-9532D01*
X57629Y-9529D01*
X57615Y-9524D01*
X57590Y-9515D01*
X57556Y-9504D01*
X57518Y-9496D01*
X57473Y-9487D01*
X57423Y-9482D01*
X57370Y-9479D01*
X57340D01*
X57326Y-9482D01*
X57309D01*
X57268Y-9485D01*
X57221Y-9493D01*
X57168Y-9501D01*
X57118Y-9515D01*
X57068Y-9535D01*
X57062Y-9537D01*
X57046Y-9543D01*
X57023Y-9557D01*
X56996Y-9571D01*
X56962Y-9593D01*
X56926Y-9615D01*
X56893Y-9643D01*
X56862Y-9673D01*
X56860Y-9676D01*
X56848Y-9687D01*
X56835Y-9707D01*
X56818Y-9729D01*
X56799Y-9757D01*
X56779Y-9790D01*
X56760Y-9826D01*
X56740Y-9865D01*
Y-9868D01*
X56737Y-9873D01*
X56735Y-9882D01*
X56729Y-9896D01*
X56724Y-9912D01*
X56718Y-9932D01*
X56710Y-9954D01*
X56704Y-9979D01*
X56690Y-10037D01*
X56679Y-10104D01*
X56671Y-10173D01*
X56668Y-10251D01*
Y-10254D01*
Y-10262D01*
Y-10276D01*
X56671Y-10293D01*
Y-10315D01*
X56674Y-10342D01*
X56676Y-10370D01*
X56679Y-10401D01*
X56690Y-10470D01*
X56704Y-10542D01*
X56726Y-10615D01*
X56754Y-10684D01*
Y-10687D01*
X56760Y-10692D01*
X56762Y-10701D01*
X56771Y-10712D01*
X56790Y-10742D01*
X56821Y-10781D01*
X56857Y-10823D01*
X56901Y-10864D01*
X56954Y-10903D01*
X57012Y-10939D01*
X57015D01*
X57021Y-10942D01*
X57029Y-10948D01*
X57043Y-10953D01*
X57057Y-10959D01*
X57076Y-10964D01*
X57121Y-10981D01*
X57176Y-10995D01*
X57237Y-11009D01*
X57304Y-11020D01*
X57373Y-11023D01*
X57401D01*
X57418Y-11020D01*
X57434D01*
X57476Y-11014D01*
X57526Y-11009D01*
X57579Y-10998D01*
X57637Y-10981D01*
X57695Y-10962D01*
X57698D01*
X57704Y-10959D01*
X57709Y-10956D01*
X57720Y-10950D01*
X57751Y-10937D01*
X57784Y-10920D01*
X57823Y-10901D01*
X57865Y-10878D01*
X57903Y-10853D01*
X57937Y-10826D01*
Y-10465D01*
X57370D01*
Y-10237D01*
X58187D01*
Y-10950D01*
X58184Y-10953D01*
X58178Y-10956D01*
X58167Y-10964D01*
X58153Y-10975D01*
X58137Y-10987D01*
X58117Y-11000D01*
X58092Y-11017D01*
X58067Y-11034D01*
X58009Y-11070D01*
X57942Y-11109D01*
X57873Y-11145D01*
X57798Y-11175D01*
X57795D01*
X57790Y-11178D01*
X57779Y-11181D01*
X57765Y-11186D01*
X57745Y-11192D01*
X57723Y-11200D01*
X57698Y-11206D01*
X57673Y-11211D01*
X57612Y-11225D01*
X57543Y-11239D01*
X57468Y-11248D01*
X57390Y-11250D01*
X57362D01*
X57343Y-11248D01*
X57318D01*
X57287Y-11245D01*
X57254Y-11239D01*
X57218Y-11236D01*
X57137Y-11220D01*
X57051Y-11200D01*
X56962Y-11170D01*
X56918Y-11153D01*
X56873Y-11131D01*
X56871Y-11128D01*
X56862Y-11125D01*
X56851Y-11117D01*
X56835Y-11109D01*
X56815Y-11095D01*
X56796Y-11081D01*
X56743Y-11042D01*
X56687Y-10992D01*
X56629Y-10931D01*
X56574Y-10862D01*
X56524Y-10781D01*
Y-10778D01*
X56518Y-10770D01*
X56513Y-10759D01*
X56504Y-10740D01*
X56496Y-10720D01*
X56488Y-10692D01*
X56476Y-10665D01*
X56465Y-10631D01*
X56454Y-10595D01*
X56443Y-10553D01*
X56435Y-10512D01*
X56427Y-10467D01*
X56413Y-10370D01*
X56407Y-10268D01*
Y-10265D01*
Y-10254D01*
Y-10240D01*
X56410Y-10220D01*
Y-10195D01*
X56413Y-10165D01*
X56418Y-10134D01*
X56421Y-10098D01*
X56429Y-10059D01*
X56435Y-10018D01*
X56457Y-9929D01*
X56485Y-9837D01*
X56524Y-9746D01*
X56526Y-9743D01*
X56529Y-9734D01*
X56535Y-9723D01*
X56546Y-9707D01*
X56557Y-9685D01*
X56571Y-9662D01*
X56610Y-9610D01*
X56657Y-9549D01*
X56715Y-9490D01*
X56782Y-9432D01*
X56821Y-9407D01*
X56860Y-9382D01*
X56862Y-9379D01*
X56871Y-9376D01*
X56882Y-9371D01*
X56898Y-9362D01*
X56921Y-9354D01*
X56946Y-9343D01*
X56973Y-9332D01*
X57007Y-9321D01*
X57043Y-9310D01*
X57082Y-9301D01*
X57123Y-9290D01*
X57168Y-9282D01*
X57265Y-9268D01*
X57315Y-9263D01*
X57404D01*
X57420Y-9265D01*
D02*
G37*
G36*
X24557Y-11217D02*
X24337D01*
Y-11042D01*
X24335Y-11045D01*
X24332Y-11050D01*
X24324Y-11062D01*
X24312Y-11075D01*
X24299Y-11089D01*
X24282Y-11106D01*
X24263Y-11125D01*
X24238Y-11145D01*
X24213Y-11164D01*
X24185Y-11184D01*
X24151Y-11200D01*
X24115Y-11214D01*
X24079Y-11228D01*
X24038Y-11239D01*
X23993Y-11245D01*
X23946Y-11248D01*
X23929D01*
X23918Y-11245D01*
X23885Y-11242D01*
X23846Y-11236D01*
X23799Y-11225D01*
X23746Y-11209D01*
X23693Y-11186D01*
X23641Y-11156D01*
X23638D01*
X23635Y-11150D01*
X23618Y-11139D01*
X23593Y-11117D01*
X23563Y-11089D01*
X23527Y-11053D01*
X23491Y-11009D01*
X23455Y-10959D01*
X23424Y-10901D01*
Y-10898D01*
X23421Y-10892D01*
X23419Y-10884D01*
X23413Y-10873D01*
X23407Y-10856D01*
X23399Y-10837D01*
X23394Y-10817D01*
X23388Y-10792D01*
X23374Y-10737D01*
X23360Y-10673D01*
X23352Y-10601D01*
X23349Y-10523D01*
Y-10520D01*
Y-10515D01*
Y-10504D01*
Y-10487D01*
X23352Y-10470D01*
Y-10448D01*
X23357Y-10398D01*
X23366Y-10340D01*
X23380Y-10276D01*
X23396Y-10209D01*
X23419Y-10145D01*
Y-10143D01*
X23421Y-10137D01*
X23427Y-10129D01*
X23432Y-10118D01*
X23449Y-10087D01*
X23471Y-10048D01*
X23499Y-10007D01*
X23535Y-9965D01*
X23577Y-9921D01*
X23627Y-9884D01*
X23630D01*
X23632Y-9882D01*
X23641Y-9876D01*
X23652Y-9871D01*
X23679Y-9857D01*
X23718Y-9837D01*
X23763Y-9821D01*
X23816Y-9807D01*
X23874Y-9796D01*
X23935Y-9793D01*
X23957D01*
X23979Y-9796D01*
X24010Y-9798D01*
X24046Y-9807D01*
X24085Y-9815D01*
X24124Y-9829D01*
X24160Y-9848D01*
X24165Y-9851D01*
X24176Y-9857D01*
X24193Y-9871D01*
X24215Y-9884D01*
X24243Y-9904D01*
X24268Y-9929D01*
X24296Y-9954D01*
X24321Y-9984D01*
Y-9296D01*
X24557D01*
Y-11217D01*
D02*
G37*
G36*
X17977Y-9796D02*
X17997Y-9798D01*
X18038Y-9804D01*
X18088Y-9815D01*
X18141Y-9832D01*
X18194Y-9857D01*
X18246Y-9887D01*
X18249D01*
X18252Y-9893D01*
X18269Y-9904D01*
X18294Y-9926D01*
X18324Y-9954D01*
X18357Y-9990D01*
X18391Y-10034D01*
X18424Y-10087D01*
X18452Y-10145D01*
Y-10148D01*
X18455Y-10154D01*
X18457Y-10162D01*
X18463Y-10173D01*
X18469Y-10190D01*
X18474Y-10209D01*
X18488Y-10254D01*
X18502Y-10309D01*
X18513Y-10370D01*
X18521Y-10440D01*
X18524Y-10512D01*
Y-10515D01*
Y-10520D01*
Y-10531D01*
Y-10548D01*
X18521Y-10567D01*
Y-10590D01*
X18516Y-10640D01*
X18505Y-10701D01*
X18491Y-10764D01*
X18471Y-10831D01*
X18446Y-10898D01*
Y-10901D01*
X18444Y-10906D01*
X18438Y-10914D01*
X18432Y-10925D01*
X18413Y-10956D01*
X18388Y-10995D01*
X18357Y-11037D01*
X18319Y-11078D01*
X18274Y-11120D01*
X18221Y-11159D01*
X18219D01*
X18216Y-11161D01*
X18208Y-11167D01*
X18196Y-11173D01*
X18169Y-11186D01*
X18130Y-11203D01*
X18083Y-11220D01*
X18033Y-11234D01*
X17974Y-11245D01*
X17916Y-11248D01*
X17897D01*
X17874Y-11245D01*
X17847Y-11242D01*
X17813Y-11236D01*
X17777Y-11228D01*
X17741Y-11217D01*
X17705Y-11200D01*
X17702Y-11198D01*
X17688Y-11192D01*
X17672Y-11181D01*
X17650Y-11164D01*
X17627Y-11148D01*
X17600Y-11125D01*
X17575Y-11100D01*
X17552Y-11073D01*
Y-11750D01*
X17316D01*
Y-9823D01*
X17530D01*
Y-10007D01*
X17533Y-10001D01*
X17544Y-9990D01*
X17558Y-9970D01*
X17580Y-9948D01*
X17605Y-9921D01*
X17633Y-9896D01*
X17666Y-9871D01*
X17700Y-9848D01*
X17705Y-9846D01*
X17716Y-9840D01*
X17738Y-9832D01*
X17766Y-9821D01*
X17799Y-9809D01*
X17838Y-9801D01*
X17883Y-9796D01*
X17933Y-9793D01*
X17963D01*
X17977Y-9796D01*
D02*
G37*
G36*
X26980D02*
X27011Y-9801D01*
X27047Y-9812D01*
X27086Y-9826D01*
X27130Y-9846D01*
X27178Y-9871D01*
X27091Y-10087D01*
X27089Y-10084D01*
X27078Y-10079D01*
X27061Y-10070D01*
X27039Y-10062D01*
X27014Y-10054D01*
X26983Y-10045D01*
X26953Y-10040D01*
X26922Y-10037D01*
X26908D01*
X26894Y-10040D01*
X26875Y-10043D01*
X26855Y-10048D01*
X26830Y-10057D01*
X26806Y-10068D01*
X26783Y-10084D01*
X26781Y-10087D01*
X26772Y-10093D01*
X26764Y-10104D01*
X26750Y-10118D01*
X26736Y-10137D01*
X26722Y-10159D01*
X26708Y-10184D01*
X26697Y-10215D01*
X26694Y-10220D01*
X26692Y-10237D01*
X26686Y-10262D01*
X26678Y-10295D01*
X26669Y-10337D01*
X26664Y-10384D01*
X26661Y-10434D01*
X26658Y-10490D01*
Y-11217D01*
X26422D01*
Y-9823D01*
X26636D01*
Y-10034D01*
X26639Y-10032D01*
X26650Y-10012D01*
X26664Y-9987D01*
X26686Y-9957D01*
X26708Y-9926D01*
X26733Y-9893D01*
X26758Y-9865D01*
X26783Y-9843D01*
X26786Y-9840D01*
X26794Y-9834D01*
X26811Y-9826D01*
X26828Y-9818D01*
X26850Y-9809D01*
X26878Y-9801D01*
X26905Y-9796D01*
X26936Y-9793D01*
X26955D01*
X26980Y-9796D01*
D02*
G37*
G36*
X59938Y-9524D02*
X59305D01*
Y-11217D01*
X59050D01*
Y-9524D01*
X58417D01*
Y-9296D01*
X59938D01*
Y-9524D01*
D02*
G37*
G36*
X56032Y-11217D02*
X55763D01*
Y-10948D01*
X56032D01*
Y-11217D01*
D02*
G37*
G36*
X23072D02*
X22836D01*
Y-9296D01*
X23072D01*
Y-11217D01*
D02*
G37*
G36*
X15590Y-9524D02*
X14957D01*
Y-11217D01*
X14701D01*
Y-9524D01*
X14068D01*
Y-9296D01*
X15590D01*
Y-9524D01*
D02*
G37*
G36*
X25548Y-9796D02*
X25570Y-9798D01*
X25598Y-9804D01*
X25628Y-9809D01*
X25664Y-9818D01*
X25698Y-9826D01*
X25737Y-9840D01*
X25773Y-9854D01*
X25812Y-9873D01*
X25851Y-9896D01*
X25889Y-9921D01*
X25925Y-9951D01*
X25959Y-9984D01*
X25962Y-9987D01*
X25967Y-9993D01*
X25975Y-10004D01*
X25987Y-10020D01*
X26000Y-10040D01*
X26014Y-10062D01*
X26031Y-10090D01*
X26048Y-10123D01*
X26064Y-10159D01*
X26081Y-10198D01*
X26095Y-10243D01*
X26109Y-10290D01*
X26120Y-10342D01*
X26128Y-10398D01*
X26134Y-10456D01*
X26136Y-10520D01*
Y-10523D01*
Y-10534D01*
Y-10553D01*
X26134Y-10581D01*
X25093D01*
Y-10584D01*
Y-10592D01*
X25095Y-10603D01*
Y-10620D01*
X25098Y-10640D01*
X25104Y-10662D01*
X25112Y-10712D01*
X25129Y-10767D01*
X25151Y-10828D01*
X25181Y-10884D01*
X25220Y-10934D01*
X25223D01*
X25226Y-10939D01*
X25243Y-10953D01*
X25267Y-10973D01*
X25301Y-10992D01*
X25345Y-11014D01*
X25395Y-11034D01*
X25451Y-11048D01*
X25481Y-11050D01*
X25515Y-11053D01*
X25537D01*
X25562Y-11050D01*
X25592Y-11045D01*
X25626Y-11037D01*
X25664Y-11025D01*
X25701Y-11009D01*
X25737Y-10987D01*
X25739Y-10984D01*
X25753Y-10973D01*
X25770Y-10956D01*
X25789Y-10934D01*
X25812Y-10903D01*
X25837Y-10864D01*
X25862Y-10820D01*
X25884Y-10767D01*
X26128Y-10798D01*
Y-10801D01*
X26125Y-10806D01*
X26123Y-10817D01*
X26117Y-10834D01*
X26109Y-10851D01*
X26100Y-10873D01*
X26078Y-10920D01*
X26050Y-10973D01*
X26012Y-11028D01*
X25967Y-11081D01*
X25912Y-11131D01*
X25909D01*
X25903Y-11137D01*
X25895Y-11142D01*
X25884Y-11150D01*
X25867Y-11159D01*
X25851Y-11167D01*
X25828Y-11178D01*
X25803Y-11189D01*
X25776Y-11200D01*
X25748Y-11211D01*
X25678Y-11228D01*
X25601Y-11242D01*
X25515Y-11248D01*
X25484D01*
X25465Y-11245D01*
X25440Y-11242D01*
X25409Y-11236D01*
X25376Y-11231D01*
X25340Y-11225D01*
X25262Y-11203D01*
X25220Y-11186D01*
X25181Y-11170D01*
X25140Y-11148D01*
X25101Y-11123D01*
X25065Y-11095D01*
X25029Y-11062D01*
X25026Y-11059D01*
X25020Y-11053D01*
X25012Y-11042D01*
X25001Y-11025D01*
X24987Y-11006D01*
X24973Y-10984D01*
X24957Y-10956D01*
X24940Y-10925D01*
X24923Y-10889D01*
X24907Y-10851D01*
X24893Y-10806D01*
X24879Y-10759D01*
X24868Y-10709D01*
X24859Y-10653D01*
X24854Y-10595D01*
X24851Y-10534D01*
Y-10531D01*
Y-10517D01*
Y-10501D01*
X24854Y-10476D01*
X24857Y-10445D01*
X24859Y-10412D01*
X24865Y-10373D01*
X24873Y-10334D01*
X24895Y-10245D01*
X24909Y-10201D01*
X24926Y-10154D01*
X24948Y-10109D01*
X24973Y-10068D01*
X25001Y-10026D01*
X25032Y-9987D01*
X25034Y-9984D01*
X25040Y-9979D01*
X25051Y-9970D01*
X25065Y-9957D01*
X25081Y-9943D01*
X25104Y-9926D01*
X25129Y-9907D01*
X25159Y-9890D01*
X25190Y-9871D01*
X25226Y-9854D01*
X25265Y-9837D01*
X25306Y-9823D01*
X25351Y-9809D01*
X25398Y-9801D01*
X25448Y-9796D01*
X25501Y-9793D01*
X25528D01*
X25548Y-9796D01*
D02*
G37*
G36*
X21958D02*
X21983Y-9798D01*
X22011Y-9804D01*
X22042Y-9809D01*
X22078Y-9815D01*
X22153Y-9840D01*
X22191Y-9854D01*
X22230Y-9873D01*
X22269Y-9893D01*
X22308Y-9921D01*
X22344Y-9948D01*
X22380Y-9982D01*
X22383Y-9984D01*
X22389Y-9990D01*
X22397Y-10001D01*
X22408Y-10015D01*
X22422Y-10034D01*
X22439Y-10059D01*
X22455Y-10087D01*
X22472Y-10118D01*
X22488Y-10151D01*
X22505Y-10193D01*
X22522Y-10234D01*
X22536Y-10281D01*
X22547Y-10331D01*
X22555Y-10384D01*
X22561Y-10440D01*
X22563Y-10501D01*
Y-10504D01*
Y-10512D01*
Y-10526D01*
Y-10545D01*
X22561Y-10567D01*
X22558Y-10595D01*
Y-10623D01*
X22552Y-10653D01*
X22544Y-10723D01*
X22527Y-10792D01*
X22508Y-10862D01*
X22480Y-10925D01*
Y-10928D01*
X22477Y-10931D01*
X22472Y-10939D01*
X22466Y-10950D01*
X22447Y-10978D01*
X22422Y-11012D01*
X22389Y-11050D01*
X22347Y-11089D01*
X22300Y-11128D01*
X22244Y-11164D01*
X22241D01*
X22239Y-11167D01*
X22230Y-11173D01*
X22216Y-11178D01*
X22203Y-11184D01*
X22186Y-11189D01*
X22144Y-11206D01*
X22097Y-11220D01*
X22039Y-11234D01*
X21978Y-11245D01*
X21911Y-11248D01*
X21883D01*
X21861Y-11245D01*
X21836Y-11242D01*
X21808Y-11236D01*
X21775Y-11231D01*
X21742Y-11225D01*
X21667Y-11203D01*
X21625Y-11186D01*
X21586Y-11170D01*
X21547Y-11148D01*
X21508Y-11123D01*
X21472Y-11095D01*
X21436Y-11062D01*
X21434Y-11059D01*
X21428Y-11053D01*
X21420Y-11042D01*
X21409Y-11025D01*
X21395Y-11006D01*
X21381Y-10984D01*
X21364Y-10956D01*
X21347Y-10923D01*
X21331Y-10887D01*
X21314Y-10845D01*
X21300Y-10801D01*
X21286Y-10753D01*
X21275Y-10701D01*
X21267Y-10645D01*
X21261Y-10584D01*
X21259Y-10520D01*
Y-10515D01*
Y-10504D01*
X21261Y-10484D01*
Y-10456D01*
X21264Y-10426D01*
X21270Y-10387D01*
X21275Y-10348D01*
X21286Y-10304D01*
X21298Y-10259D01*
X21311Y-10212D01*
X21328Y-10162D01*
X21350Y-10115D01*
X21372Y-10070D01*
X21403Y-10026D01*
X21434Y-9984D01*
X21472Y-9948D01*
X21475Y-9946D01*
X21481Y-9943D01*
X21492Y-9934D01*
X21506Y-9923D01*
X21522Y-9912D01*
X21545Y-9898D01*
X21567Y-9884D01*
X21595Y-9871D01*
X21625Y-9857D01*
X21658Y-9843D01*
X21733Y-9818D01*
X21819Y-9798D01*
X21864Y-9796D01*
X21911Y-9793D01*
X21939D01*
X21958Y-9796D01*
D02*
G37*
G36*
X16434D02*
X16459Y-9798D01*
X16486Y-9804D01*
X16517Y-9809D01*
X16553Y-9815D01*
X16628Y-9840D01*
X16667Y-9854D01*
X16706Y-9873D01*
X16744Y-9893D01*
X16783Y-9921D01*
X16819Y-9948D01*
X16856Y-9982D01*
X16858Y-9984D01*
X16864Y-9990D01*
X16872Y-10001D01*
X16883Y-10015D01*
X16897Y-10034D01*
X16914Y-10059D01*
X16931Y-10087D01*
X16947Y-10118D01*
X16964Y-10151D01*
X16980Y-10193D01*
X16997Y-10234D01*
X17011Y-10281D01*
X17022Y-10331D01*
X17030Y-10384D01*
X17036Y-10440D01*
X17039Y-10501D01*
Y-10504D01*
Y-10512D01*
Y-10526D01*
Y-10545D01*
X17036Y-10567D01*
X17033Y-10595D01*
Y-10623D01*
X17028Y-10653D01*
X17019Y-10723D01*
X17003Y-10792D01*
X16983Y-10862D01*
X16955Y-10925D01*
Y-10928D01*
X16953Y-10931D01*
X16947Y-10939D01*
X16942Y-10950D01*
X16922Y-10978D01*
X16897Y-11012D01*
X16864Y-11050D01*
X16822Y-11089D01*
X16775Y-11128D01*
X16720Y-11164D01*
X16717D01*
X16714Y-11167D01*
X16706Y-11173D01*
X16692Y-11178D01*
X16678Y-11184D01*
X16661Y-11189D01*
X16620Y-11206D01*
X16572Y-11220D01*
X16514Y-11234D01*
X16453Y-11245D01*
X16386Y-11248D01*
X16359D01*
X16336Y-11245D01*
X16311Y-11242D01*
X16284Y-11236D01*
X16250Y-11231D01*
X16217Y-11225D01*
X16142Y-11203D01*
X16100Y-11186D01*
X16062Y-11170D01*
X16023Y-11148D01*
X15984Y-11123D01*
X15948Y-11095D01*
X15912Y-11062D01*
X15909Y-11059D01*
X15903Y-11053D01*
X15895Y-11042D01*
X15884Y-11025D01*
X15870Y-11006D01*
X15856Y-10984D01*
X15839Y-10956D01*
X15823Y-10923D01*
X15806Y-10887D01*
X15789Y-10845D01*
X15776Y-10801D01*
X15762Y-10753D01*
X15751Y-10701D01*
X15742Y-10645D01*
X15737Y-10584D01*
X15734Y-10520D01*
Y-10515D01*
Y-10504D01*
X15737Y-10484D01*
Y-10456D01*
X15740Y-10426D01*
X15745Y-10387D01*
X15751Y-10348D01*
X15762Y-10304D01*
X15773Y-10259D01*
X15787Y-10212D01*
X15803Y-10162D01*
X15826Y-10115D01*
X15848Y-10070D01*
X15878Y-10026D01*
X15909Y-9984D01*
X15948Y-9948D01*
X15950Y-9946D01*
X15956Y-9943D01*
X15967Y-9934D01*
X15981Y-9923D01*
X15998Y-9912D01*
X16020Y-9898D01*
X16042Y-9884D01*
X16070Y-9871D01*
X16100Y-9857D01*
X16134Y-9843D01*
X16209Y-9818D01*
X16295Y-9798D01*
X16339Y-9796D01*
X16386Y-9793D01*
X16414D01*
X16434Y-9796D01*
D02*
G37*
%LPC*%
G36*
X23960Y-9987D02*
X23946D01*
X23935Y-9990D01*
X23904Y-9993D01*
X23868Y-10004D01*
X23827Y-10018D01*
X23782Y-10043D01*
X23738Y-10073D01*
X23716Y-10095D01*
X23696Y-10118D01*
Y-10120D01*
X23691Y-10123D01*
X23688Y-10132D01*
X23679Y-10143D01*
X23671Y-10156D01*
X23663Y-10173D01*
X23655Y-10193D01*
X23643Y-10215D01*
X23632Y-10243D01*
X23624Y-10273D01*
X23616Y-10306D01*
X23607Y-10342D01*
X23602Y-10381D01*
X23596Y-10426D01*
X23591Y-10473D01*
Y-10523D01*
Y-10526D01*
Y-10534D01*
Y-10548D01*
X23593Y-10567D01*
Y-10590D01*
X23596Y-10615D01*
X23605Y-10673D01*
X23618Y-10737D01*
X23638Y-10803D01*
X23666Y-10867D01*
X23682Y-10895D01*
X23702Y-10923D01*
X23704D01*
X23707Y-10928D01*
X23721Y-10942D01*
X23746Y-10964D01*
X23777Y-10987D01*
X23816Y-11012D01*
X23863Y-11034D01*
X23913Y-11048D01*
X23940Y-11050D01*
X23968Y-11053D01*
X23982D01*
X23993Y-11050D01*
X24024Y-11048D01*
X24060Y-11037D01*
X24101Y-11023D01*
X24146Y-11000D01*
X24190Y-10970D01*
X24213Y-10950D01*
X24232Y-10928D01*
Y-10925D01*
X24238Y-10923D01*
X24243Y-10914D01*
X24249Y-10903D01*
X24257Y-10889D01*
X24268Y-10876D01*
X24276Y-10853D01*
X24287Y-10831D01*
X24299Y-10806D01*
X24307Y-10778D01*
X24318Y-10745D01*
X24326Y-10712D01*
X24332Y-10673D01*
X24337Y-10634D01*
X24343Y-10590D01*
Y-10542D01*
Y-10540D01*
Y-10528D01*
Y-10515D01*
X24340Y-10495D01*
Y-10473D01*
X24337Y-10445D01*
X24335Y-10415D01*
X24329Y-10381D01*
X24315Y-10315D01*
X24296Y-10245D01*
X24268Y-10179D01*
X24251Y-10151D01*
X24232Y-10123D01*
Y-10120D01*
X24226Y-10118D01*
X24213Y-10101D01*
X24188Y-10079D01*
X24157Y-10054D01*
X24118Y-10029D01*
X24071Y-10009D01*
X24018Y-9993D01*
X23990Y-9990D01*
X23960Y-9987D01*
D02*
G37*
G36*
X17911Y-9979D02*
X17897D01*
X17886Y-9982D01*
X17858Y-9987D01*
X17822Y-9995D01*
X17780Y-10012D01*
X17736Y-10037D01*
X17711Y-10054D01*
X17688Y-10073D01*
X17666Y-10095D01*
X17644Y-10120D01*
Y-10123D01*
X17638Y-10126D01*
X17633Y-10134D01*
X17627Y-10145D01*
X17619Y-10162D01*
X17608Y-10179D01*
X17597Y-10201D01*
X17588Y-10223D01*
X17577Y-10251D01*
X17566Y-10281D01*
X17558Y-10315D01*
X17547Y-10351D01*
X17541Y-10392D01*
X17536Y-10434D01*
X17530Y-10479D01*
Y-10528D01*
Y-10531D01*
Y-10540D01*
Y-10553D01*
X17533Y-10573D01*
Y-10595D01*
X17536Y-10620D01*
X17544Y-10678D01*
X17558Y-10745D01*
X17575Y-10809D01*
X17602Y-10873D01*
X17619Y-10901D01*
X17638Y-10925D01*
X17644Y-10931D01*
X17658Y-10945D01*
X17680Y-10967D01*
X17711Y-10989D01*
X17749Y-11012D01*
X17794Y-11034D01*
X17844Y-11048D01*
X17872Y-11050D01*
X17899Y-11053D01*
X17916D01*
X17927Y-11050D01*
X17955Y-11045D01*
X17994Y-11037D01*
X18035Y-11020D01*
X18080Y-10998D01*
X18124Y-10964D01*
X18146Y-10945D01*
X18169Y-10923D01*
Y-10920D01*
X18174Y-10917D01*
X18180Y-10909D01*
X18185Y-10898D01*
X18196Y-10884D01*
X18205Y-10864D01*
X18216Y-10845D01*
X18227Y-10820D01*
X18235Y-10795D01*
X18246Y-10762D01*
X18258Y-10728D01*
X18266Y-10692D01*
X18271Y-10651D01*
X18277Y-10606D01*
X18283Y-10559D01*
Y-10509D01*
Y-10506D01*
Y-10498D01*
Y-10484D01*
X18280Y-10465D01*
Y-10442D01*
X18277Y-10417D01*
X18269Y-10359D01*
X18255Y-10295D01*
X18235Y-10231D01*
X18208Y-10168D01*
X18191Y-10137D01*
X18171Y-10112D01*
Y-10109D01*
X18166Y-10107D01*
X18152Y-10090D01*
X18130Y-10070D01*
X18099Y-10045D01*
X18060Y-10020D01*
X18016Y-9998D01*
X17966Y-9984D01*
X17938Y-9982D01*
X17911Y-9979D01*
D02*
G37*
G36*
X25503Y-9987D02*
X25487D01*
X25476Y-9990D01*
X25445Y-9993D01*
X25409Y-10001D01*
X25365Y-10015D01*
X25317Y-10034D01*
X25273Y-10062D01*
X25229Y-10098D01*
X25223Y-10104D01*
X25212Y-10118D01*
X25193Y-10143D01*
X25173Y-10176D01*
X25151Y-10215D01*
X25131Y-10265D01*
X25115Y-10323D01*
X25106Y-10387D01*
X25887D01*
Y-10384D01*
Y-10379D01*
X25884Y-10370D01*
Y-10359D01*
X25878Y-10326D01*
X25870Y-10290D01*
X25856Y-10245D01*
X25842Y-10204D01*
X25820Y-10162D01*
X25795Y-10126D01*
Y-10123D01*
X25789Y-10120D01*
X25776Y-10104D01*
X25751Y-10082D01*
X25717Y-10057D01*
X25676Y-10032D01*
X25626Y-10009D01*
X25567Y-9993D01*
X25537Y-9990D01*
X25503Y-9987D01*
D02*
G37*
G36*
X21911D02*
X21894D01*
X21881Y-9990D01*
X21850Y-9993D01*
X21808Y-10004D01*
X21761Y-10020D01*
X21711Y-10043D01*
X21664Y-10076D01*
X21639Y-10098D01*
X21617Y-10120D01*
Y-10123D01*
X21611Y-10126D01*
X21606Y-10134D01*
X21597Y-10145D01*
X21589Y-10159D01*
X21581Y-10176D01*
X21570Y-10198D01*
X21558Y-10220D01*
X21547Y-10248D01*
X21536Y-10276D01*
X21528Y-10309D01*
X21520Y-10345D01*
X21511Y-10384D01*
X21506Y-10426D01*
X21503Y-10473D01*
X21500Y-10520D01*
Y-10523D01*
Y-10531D01*
Y-10545D01*
X21503Y-10565D01*
Y-10587D01*
X21506Y-10612D01*
X21514Y-10670D01*
X21528Y-10737D01*
X21550Y-10803D01*
X21578Y-10867D01*
X21597Y-10895D01*
X21617Y-10923D01*
X21620D01*
X21622Y-10928D01*
X21639Y-10942D01*
X21664Y-10964D01*
X21697Y-10987D01*
X21739Y-11012D01*
X21789Y-11034D01*
X21847Y-11048D01*
X21878Y-11050D01*
X21911Y-11053D01*
X21928D01*
X21942Y-11050D01*
X21972Y-11045D01*
X22014Y-11037D01*
X22058Y-11020D01*
X22108Y-10998D01*
X22155Y-10964D01*
X22180Y-10942D01*
X22203Y-10920D01*
X22205Y-10917D01*
X22208Y-10914D01*
X22214Y-10906D01*
X22222Y-10895D01*
X22230Y-10881D01*
X22241Y-10864D01*
X22253Y-10842D01*
X22264Y-10820D01*
X22275Y-10792D01*
X22283Y-10762D01*
X22294Y-10728D01*
X22302Y-10692D01*
X22311Y-10651D01*
X22316Y-10609D01*
X22322Y-10562D01*
Y-10512D01*
Y-10509D01*
Y-10501D01*
Y-10487D01*
X22319Y-10470D01*
Y-10448D01*
X22316Y-10423D01*
X22308Y-10365D01*
X22294Y-10304D01*
X22272Y-10237D01*
X22241Y-10176D01*
X22225Y-10145D01*
X22203Y-10120D01*
Y-10118D01*
X22197Y-10115D01*
X22180Y-10098D01*
X22155Y-10079D01*
X22122Y-10054D01*
X22080Y-10029D01*
X22030Y-10007D01*
X21975Y-9993D01*
X21944Y-9990D01*
X21911Y-9987D01*
D02*
G37*
G36*
X16386D02*
X16370D01*
X16356Y-9990D01*
X16325Y-9993D01*
X16284Y-10004D01*
X16236Y-10020D01*
X16186Y-10043D01*
X16139Y-10076D01*
X16114Y-10098D01*
X16092Y-10120D01*
Y-10123D01*
X16087Y-10126D01*
X16081Y-10134D01*
X16073Y-10145D01*
X16064Y-10159D01*
X16056Y-10176D01*
X16045Y-10198D01*
X16034Y-10220D01*
X16023Y-10248D01*
X16012Y-10276D01*
X16003Y-10309D01*
X15995Y-10345D01*
X15987Y-10384D01*
X15981Y-10426D01*
X15978Y-10473D01*
X15975Y-10520D01*
Y-10523D01*
Y-10531D01*
Y-10545D01*
X15978Y-10565D01*
Y-10587D01*
X15981Y-10612D01*
X15989Y-10670D01*
X16003Y-10737D01*
X16025Y-10803D01*
X16053Y-10867D01*
X16073Y-10895D01*
X16092Y-10923D01*
X16095D01*
X16098Y-10928D01*
X16114Y-10942D01*
X16139Y-10964D01*
X16173Y-10987D01*
X16214Y-11012D01*
X16264Y-11034D01*
X16323Y-11048D01*
X16353Y-11050D01*
X16386Y-11053D01*
X16403D01*
X16417Y-11050D01*
X16447Y-11045D01*
X16489Y-11037D01*
X16534Y-11020D01*
X16583Y-10998D01*
X16631Y-10964D01*
X16656Y-10942D01*
X16678Y-10920D01*
X16681Y-10917D01*
X16683Y-10914D01*
X16689Y-10906D01*
X16697Y-10895D01*
X16706Y-10881D01*
X16717Y-10864D01*
X16728Y-10842D01*
X16739Y-10820D01*
X16750Y-10792D01*
X16758Y-10762D01*
X16769Y-10728D01*
X16778Y-10692D01*
X16786Y-10651D01*
X16792Y-10609D01*
X16797Y-10562D01*
Y-10512D01*
Y-10509D01*
Y-10501D01*
Y-10487D01*
X16794Y-10470D01*
Y-10448D01*
X16792Y-10423D01*
X16783Y-10365D01*
X16769Y-10304D01*
X16747Y-10237D01*
X16717Y-10176D01*
X16700Y-10145D01*
X16678Y-10120D01*
Y-10118D01*
X16672Y-10115D01*
X16656Y-10098D01*
X16631Y-10079D01*
X16597Y-10054D01*
X16556Y-10029D01*
X16506Y-10007D01*
X16450Y-9993D01*
X16420Y-9990D01*
X16386Y-9987D01*
D02*
G37*
%LPD*%
D72*
X29300Y22750D02*
D03*
D74*
X44325Y12825D02*
D03*
D103*
X100500Y-0D02*
G03*
X101000Y500I0J500D01*
G01*
X500Y71000D02*
G03*
X-0Y70500I0J-500D01*
G01*
X101000D02*
G03*
X100500Y71000I-500J0D01*
G01*
X-0Y500D02*
G03*
X500Y-0I500J0D01*
G01*
X500Y0D02*
X100500D01*
X101000Y500D02*
Y70500D01*
X0Y500D02*
Y70500D01*
X500Y71000D02*
X100500D01*
D113*
X3340Y21130D02*
D03*
Y18590D02*
D03*
Y10410D02*
D03*
Y7870D02*
D03*
X73000Y4150D02*
D03*
X78000D02*
D03*
D117*
X53230Y43940D02*
D03*
X52430D02*
D03*
X51630D02*
D03*
X48430D02*
D03*
X47630D02*
D03*
X46830D02*
D03*
X53230Y44740D02*
D03*
X52430D02*
D03*
X51630D02*
D03*
X48430D02*
D03*
X47630D02*
D03*
X46830D02*
D03*
X53230Y45540D02*
D03*
X52430D02*
D03*
X51630D02*
D03*
X48430D02*
D03*
X47630D02*
D03*
X46830D02*
D03*
X53230Y46340D02*
D03*
X52430D02*
D03*
X51630D02*
D03*
X48430D02*
D03*
X47630D02*
D03*
X46830D02*
D03*
X53230Y47140D02*
D03*
X52430D02*
D03*
X51630D02*
D03*
X48430D02*
D03*
X47630D02*
D03*
X46830D02*
D03*
X53230Y47940D02*
D03*
X52430D02*
D03*
X51630D02*
D03*
X48430D02*
D03*
X47630D02*
D03*
X46830D02*
D03*
X53230Y48740D02*
D03*
X52430D02*
D03*
X51630D02*
D03*
X48430D02*
D03*
X47630D02*
D03*
X46830D02*
D03*
X53230Y49540D02*
D03*
X52430D02*
D03*
X51630D02*
D03*
X48430D02*
D03*
X47630D02*
D03*
X46830D02*
D03*
X53230Y50340D02*
D03*
X52430D02*
D03*
X51630D02*
D03*
X48430D02*
D03*
X47630D02*
D03*
X46830D02*
D03*
X53230Y51140D02*
D03*
X52430D02*
D03*
X51630D02*
D03*
X48430D02*
D03*
X47630D02*
D03*
X46830D02*
D03*
X53230Y51940D02*
D03*
X52430D02*
D03*
X51630D02*
D03*
X48430D02*
D03*
X47630D02*
D03*
X46830D02*
D03*
X53230Y52740D02*
D03*
X52430D02*
D03*
X51630D02*
D03*
X48430D02*
D03*
X47630D02*
D03*
X46830D02*
D03*
X53230Y53540D02*
D03*
X52430D02*
D03*
X51630D02*
D03*
X48430D02*
D03*
X47630D02*
D03*
X46830D02*
D03*
X53230Y54340D02*
D03*
X52430D02*
D03*
X51630D02*
D03*
X48430D02*
D03*
X47630D02*
D03*
X46830D02*
D03*
X53230Y55140D02*
D03*
X52430D02*
D03*
X51630D02*
D03*
X48430D02*
D03*
X47630D02*
D03*
X46830D02*
D03*
X53230Y55940D02*
D03*
X52430D02*
D03*
X51630D02*
D03*
X48430D02*
D03*
X47630D02*
D03*
X46830D02*
D03*
D120*
X35250Y1900D02*
D03*
X31750D02*
D03*
D121*
X13750Y18945D02*
D03*
X16290Y17675D02*
D03*
X13750Y16405D02*
D03*
X16290Y15135D02*
D03*
X13750Y13865D02*
D03*
X16290Y12595D02*
D03*
X13750Y11325D02*
D03*
X16290Y10055D02*
D03*
X13750Y8785D02*
D03*
D149*
X11425Y1775D02*
D03*
D150*
X52250Y21475D02*
D03*
X51350D02*
D03*
X40600Y58000D02*
D03*
X39700D02*
D03*
X74850Y40325D02*
D03*
X75750D02*
D03*
X79950Y40375D02*
D03*
X79050D02*
D03*
X37625Y54675D02*
D03*
X36725D02*
D03*
X10050Y37225D02*
D03*
X10950D02*
D03*
X47950Y39170D02*
D03*
X47050D02*
D03*
X16050Y46875D02*
D03*
X15150D02*
D03*
X74175Y34275D02*
D03*
X75075D02*
D03*
X80250Y35425D02*
D03*
X79350D02*
D03*
X81625Y35425D02*
D03*
X82525D02*
D03*
X62125Y45050D02*
D03*
X63025D02*
D03*
X62125Y46100D02*
D03*
X63025D02*
D03*
Y47150D02*
D03*
X62125D02*
D03*
X49075Y15250D02*
D03*
X48175D02*
D03*
X49075Y10600D02*
D03*
X48175D02*
D03*
X40425Y13075D02*
D03*
X39525D02*
D03*
X8825Y43900D02*
D03*
X7925D02*
D03*
X10900Y45100D02*
D03*
X10000D02*
D03*
X10900Y47500D02*
D03*
X10000D02*
D03*
X10900Y43900D02*
D03*
X10000D02*
D03*
X10900Y46300D02*
D03*
X10000D02*
D03*
X20675Y24725D02*
D03*
X21575D02*
D03*
X20675Y25875D02*
D03*
X21575D02*
D03*
X22925Y23675D02*
D03*
X23825D02*
D03*
X25850Y25300D02*
D03*
X24950D02*
D03*
X56800Y22075D02*
D03*
X55900D02*
D03*
X77975Y8775D02*
D03*
X77075D02*
D03*
X73575D02*
D03*
X72675D02*
D03*
X64050Y22300D02*
D03*
X64950D02*
D03*
Y21250D02*
D03*
X64050D02*
D03*
Y11975D02*
D03*
X64950D02*
D03*
X64050Y10925D02*
D03*
X64950D02*
D03*
X64050Y20200D02*
D03*
X64950D02*
D03*
X50525Y17125D02*
D03*
X51425D02*
D03*
X64950Y19150D02*
D03*
X64050D02*
D03*
X16050Y52225D02*
D03*
X15150D02*
D03*
X16050Y50175D02*
D03*
X15150D02*
D03*
X16050Y49075D02*
D03*
X15150D02*
D03*
X16050Y44675D02*
D03*
X15150D02*
D03*
X16050Y43575D02*
D03*
X15150D02*
D03*
X16050Y42475D02*
D03*
X15150D02*
D03*
X57500Y7975D02*
D03*
X58400D02*
D03*
X60200D02*
D03*
X59300D02*
D03*
X18650Y30600D02*
D03*
X19550D02*
D03*
X18650Y29300D02*
D03*
X19550D02*
D03*
X10050Y38450D02*
D03*
X10950D02*
D03*
X12775Y34675D02*
D03*
X11875D02*
D03*
X45190Y39760D02*
D03*
X44290D02*
D03*
X33575Y19875D02*
D03*
X32675D02*
D03*
X59200Y18000D02*
D03*
X58300D02*
D03*
D151*
X53100Y18325D02*
D03*
Y17425D02*
D03*
X73425Y40100D02*
D03*
Y39200D02*
D03*
X75525Y42625D02*
D03*
Y41725D02*
D03*
X76575D02*
D03*
Y42625D02*
D03*
X61500Y37775D02*
D03*
Y36875D02*
D03*
X48425Y6075D02*
D03*
Y6975D02*
D03*
X68000Y7675D02*
D03*
Y6775D02*
D03*
X63825Y7675D02*
D03*
Y6775D02*
D03*
X39625Y51850D02*
D03*
Y52750D02*
D03*
X55155Y48390D02*
D03*
Y49290D02*
D03*
X49575Y22750D02*
D03*
Y21850D02*
D03*
X52075Y19625D02*
D03*
Y20525D02*
D03*
X69625Y44075D02*
D03*
Y44975D02*
D03*
X50000Y10475D02*
D03*
Y9575D02*
D03*
X27450Y7950D02*
D03*
Y7050D02*
D03*
Y11350D02*
D03*
Y10450D02*
D03*
X40700Y14175D02*
D03*
Y15075D02*
D03*
X39650Y14175D02*
D03*
Y15075D02*
D03*
X2975Y56775D02*
D03*
Y55875D02*
D03*
Y53050D02*
D03*
Y52150D02*
D03*
X83925Y10275D02*
D03*
Y9375D02*
D03*
X84975Y10275D02*
D03*
Y9375D02*
D03*
X77800Y23025D02*
D03*
Y22125D02*
D03*
X65784Y59286D02*
D03*
Y60186D02*
D03*
X13500Y24400D02*
D03*
Y25300D02*
D03*
X9525Y24400D02*
D03*
Y25300D02*
D03*
X34600Y21650D02*
D03*
Y20750D02*
D03*
X33525Y21650D02*
D03*
Y20750D02*
D03*
X28875Y30400D02*
D03*
Y29500D02*
D03*
X30575Y30400D02*
D03*
Y29500D02*
D03*
X35675Y30400D02*
D03*
Y29500D02*
D03*
X30575Y28700D02*
D03*
Y27800D02*
D03*
X28875Y28700D02*
D03*
Y27800D02*
D03*
X37400Y28675D02*
D03*
Y27775D02*
D03*
X35675Y28675D02*
D03*
Y27775D02*
D03*
X33975Y28675D02*
D03*
Y27775D02*
D03*
X32275Y28700D02*
D03*
Y27800D02*
D03*
X37400Y29500D02*
D03*
Y30400D02*
D03*
X33975Y29500D02*
D03*
Y30400D02*
D03*
X32275Y29500D02*
D03*
Y30400D02*
D03*
X19625Y53225D02*
D03*
Y52325D02*
D03*
X57525Y19800D02*
D03*
Y20700D02*
D03*
X59575Y19800D02*
D03*
Y20700D02*
D03*
X76150Y11300D02*
D03*
Y10400D02*
D03*
X70525Y5050D02*
D03*
Y5950D02*
D03*
X82375Y11600D02*
D03*
Y12500D02*
D03*
X70525Y6850D02*
D03*
Y7750D02*
D03*
X80875Y11600D02*
D03*
Y12500D02*
D03*
X76150Y13000D02*
D03*
Y12100D02*
D03*
X40350Y6725D02*
D03*
Y7625D02*
D03*
X47300Y6775D02*
D03*
Y7675D02*
D03*
X56475Y6075D02*
D03*
Y6975D02*
D03*
X55350Y6775D02*
D03*
Y7675D02*
D03*
X17725Y28400D02*
D03*
Y29300D02*
D03*
Y31500D02*
D03*
Y30600D02*
D03*
X39025Y58900D02*
D03*
Y59800D02*
D03*
X40074Y58913D02*
D03*
Y59813D02*
D03*
X59875Y61900D02*
D03*
Y61000D02*
D03*
X58950Y61900D02*
D03*
Y61000D02*
D03*
X59025Y35150D02*
D03*
Y34250D02*
D03*
X60006Y47750D02*
D03*
Y46850D02*
D03*
D152*
X52050Y18325D02*
D03*
X51150D02*
D03*
X15150Y45775D02*
D03*
X16050D02*
D03*
X10000Y48600D02*
D03*
X10900D02*
D03*
X57100Y35320D02*
D03*
X58000D02*
D03*
X79350Y38050D02*
D03*
X80250D02*
D03*
X79350Y36450D02*
D03*
X80250D02*
D03*
X82525Y36400D02*
D03*
X81625D02*
D03*
X64825Y45125D02*
D03*
X63925D02*
D03*
X70075Y53175D02*
D03*
X69175D02*
D03*
X67375Y53650D02*
D03*
X68275D02*
D03*
X65175Y53675D02*
D03*
X64275D02*
D03*
X48175Y11575D02*
D03*
X49075D02*
D03*
X48175Y9625D02*
D03*
X49075D02*
D03*
X40425Y12100D02*
D03*
X39525D02*
D03*
X2975Y57725D02*
D03*
X3875D02*
D03*
X2975Y54900D02*
D03*
X3875D02*
D03*
X2975Y53875D02*
D03*
X2075D02*
D03*
X2975Y51325D02*
D03*
X2075D02*
D03*
X26050Y30350D02*
D03*
X25150D02*
D03*
X26050Y29450D02*
D03*
X25150D02*
D03*
X26050Y28550D02*
D03*
X25150D02*
D03*
X26050Y27650D02*
D03*
X25150D02*
D03*
X33400Y26675D02*
D03*
X34300D02*
D03*
X26850Y26750D02*
D03*
X27750D02*
D03*
X58255Y32040D02*
D03*
X59155D02*
D03*
X37775Y55725D02*
D03*
X38675D02*
D03*
X36700Y53825D02*
D03*
X37600D02*
D03*
X38684Y56562D02*
D03*
X37784D02*
D03*
X27700Y53175D02*
D03*
X26800D02*
D03*
X27700Y54325D02*
D03*
X26800D02*
D03*
X27700Y55400D02*
D03*
X26800D02*
D03*
X27700Y51900D02*
D03*
X26800D02*
D03*
X27700Y51075D02*
D03*
X26800D02*
D03*
X27700Y56325D02*
D03*
X26800D02*
D03*
X10050Y39425D02*
D03*
X10950D02*
D03*
X53075Y21625D02*
D03*
X53975D02*
D03*
D153*
X78350Y52050D02*
D03*
Y51550D02*
D03*
Y51050D02*
D03*
X79650D02*
D03*
Y51550D02*
D03*
Y52050D02*
D03*
X78350Y60650D02*
D03*
Y60150D02*
D03*
Y59650D02*
D03*
X79650D02*
D03*
Y60150D02*
D03*
Y60650D02*
D03*
X78350Y63050D02*
D03*
Y62550D02*
D03*
Y62050D02*
D03*
X79650D02*
D03*
Y62550D02*
D03*
Y63050D02*
D03*
X78350Y49650D02*
D03*
Y49150D02*
D03*
Y48650D02*
D03*
X79650D02*
D03*
Y49150D02*
D03*
Y49650D02*
D03*
D154*
X89050Y26075D02*
D03*
Y25175D02*
D03*
X84350Y26075D02*
D03*
Y25175D02*
D03*
X24850Y57850D02*
D03*
Y58750D02*
D03*
X60250Y54290D02*
D03*
Y55190D02*
D03*
X39620Y56230D02*
D03*
Y55330D02*
D03*
X39880Y36980D02*
D03*
Y37880D02*
D03*
X60360Y34730D02*
D03*
Y35630D02*
D03*
X44920Y46530D02*
D03*
Y45630D02*
D03*
X44940Y53340D02*
D03*
Y54240D02*
D03*
X55300Y55740D02*
D03*
Y54840D02*
D03*
X44920Y55260D02*
D03*
Y56160D02*
D03*
X55230Y43220D02*
D03*
Y44120D02*
D03*
Y44960D02*
D03*
Y45860D02*
D03*
X55140Y51290D02*
D03*
Y50390D02*
D03*
X44910Y51030D02*
D03*
Y50130D02*
D03*
X55230Y47600D02*
D03*
Y46700D02*
D03*
X70600Y44975D02*
D03*
Y44075D02*
D03*
X72550Y49150D02*
D03*
Y50050D02*
D03*
X68650Y44975D02*
D03*
Y44075D02*
D03*
X62500Y49625D02*
D03*
Y50525D02*
D03*
X66450Y53575D02*
D03*
Y54475D02*
D03*
X65200Y41050D02*
D03*
Y41950D02*
D03*
X68750Y41900D02*
D03*
Y41000D02*
D03*
X74400Y44350D02*
D03*
Y43450D02*
D03*
X45400Y9325D02*
D03*
Y8425D02*
D03*
X46300Y9325D02*
D03*
Y8425D02*
D03*
X27450Y5350D02*
D03*
Y6250D02*
D03*
X47800Y18000D02*
D03*
Y17100D02*
D03*
X27450Y8750D02*
D03*
Y9650D02*
D03*
X45075Y16325D02*
D03*
Y17225D02*
D03*
X44175Y9325D02*
D03*
Y8425D02*
D03*
X46875Y17100D02*
D03*
Y18000D02*
D03*
X45975Y17100D02*
D03*
Y18000D02*
D03*
X9575Y49975D02*
D03*
Y50875D02*
D03*
X90400Y6400D02*
D03*
Y5500D02*
D03*
X64825Y60175D02*
D03*
Y59275D02*
D03*
X19825Y24850D02*
D03*
Y23950D02*
D03*
Y25750D02*
D03*
Y26650D02*
D03*
X26100Y45000D02*
D03*
Y44100D02*
D03*
X41790Y36715D02*
D03*
Y37615D02*
D03*
X60005Y31140D02*
D03*
Y32040D02*
D03*
X56550Y20700D02*
D03*
Y19800D02*
D03*
X64900Y18225D02*
D03*
Y17325D02*
D03*
X61625Y16475D02*
D03*
Y15575D02*
D03*
Y13475D02*
D03*
Y14375D02*
D03*
X39500Y4875D02*
D03*
Y3975D02*
D03*
X25250Y5950D02*
D03*
Y5050D02*
D03*
X29350Y52050D02*
D03*
Y51150D02*
D03*
X12825Y33750D02*
D03*
Y32850D02*
D03*
X11925D02*
D03*
Y33750D02*
D03*
X45075Y19600D02*
D03*
Y18700D02*
D03*
X55175Y20675D02*
D03*
Y19775D02*
D03*
X50625Y19725D02*
D03*
Y20625D02*
D03*
X46925Y19675D02*
D03*
Y20575D02*
D03*
D155*
X66200Y20375D02*
D03*
X40592Y46652D02*
D03*
X40605Y41540D02*
D03*
X38905D02*
D03*
Y43265D02*
D03*
X43205Y20315D02*
D03*
X53600Y14475D02*
D03*
X40605Y43265D02*
D03*
X78125Y32700D02*
D03*
X73050Y35375D02*
D03*
X76475Y33675D02*
D03*
X72430Y36865D02*
D03*
X40605Y44965D02*
D03*
X64300Y61400D02*
D03*
X41230Y30890D02*
D03*
X2475Y42050D02*
D03*
X4375D02*
D03*
X2475Y40150D02*
D03*
X4375D02*
D03*
X67875Y20375D02*
D03*
D156*
X41790Y38890D02*
D03*
Y40810D02*
D03*
X58430Y37480D02*
D03*
X8330Y34300D02*
D03*
X7620Y33900D02*
D03*
X8330Y33500D02*
D03*
X7620Y33100D02*
D03*
X8330Y32700D02*
D03*
X7620Y32300D02*
D03*
X8330Y31900D02*
D03*
Y31100D02*
D03*
X7620Y30700D02*
D03*
X8330Y30300D02*
D03*
X7620Y29900D02*
D03*
X8330Y29500D02*
D03*
X7620Y29100D02*
D03*
X8330Y28700D02*
D03*
X92670Y24975D02*
D03*
X93380Y25375D02*
D03*
X92670Y25775D02*
D03*
X93380Y26175D02*
D03*
X92670Y26575D02*
D03*
X93380Y26975D02*
D03*
X92670Y27375D02*
D03*
Y28175D02*
D03*
X93380Y28575D02*
D03*
X92670Y28975D02*
D03*
X93380Y29375D02*
D03*
X92670Y29775D02*
D03*
X93380Y30175D02*
D03*
X92670Y30575D02*
D03*
D157*
X43850Y54710D02*
D03*
Y56110D02*
D03*
X40150Y9150D02*
D03*
Y10550D02*
D03*
X41550Y7825D02*
D03*
Y9225D02*
D03*
X7000Y53225D02*
D03*
Y51825D02*
D03*
X8450Y53225D02*
D03*
Y51825D02*
D03*
X27125Y27675D02*
D03*
Y29075D02*
D03*
X29750Y48850D02*
D03*
Y50250D02*
D03*
X33625Y48850D02*
D03*
Y50250D02*
D03*
X28250Y61100D02*
D03*
Y59700D02*
D03*
X32250Y61650D02*
D03*
Y60250D02*
D03*
X56390Y56180D02*
D03*
Y54780D02*
D03*
D158*
X83675Y45630D02*
D03*
Y44360D02*
D03*
Y43090D02*
D03*
Y41820D02*
D03*
X78925D02*
D03*
Y43090D02*
D03*
Y44360D02*
D03*
Y45630D02*
D03*
X83675Y58005D02*
D03*
Y56735D02*
D03*
Y55465D02*
D03*
Y54195D02*
D03*
X78925D02*
D03*
Y55465D02*
D03*
Y56735D02*
D03*
Y58005D02*
D03*
D159*
X16300Y29000D02*
D03*
Y30900D02*
D03*
X14100Y29950D02*
D03*
D160*
X12300Y28875D02*
D03*
Y30125D02*
D03*
X24250Y62825D02*
D03*
Y64075D02*
D03*
D161*
X86375Y33900D02*
D03*
X87025D02*
D03*
X87675D02*
D03*
X88325D02*
D03*
X87675Y30850D02*
D03*
X87025D02*
D03*
X15675Y37350D02*
D03*
X16325D02*
D03*
X16975D02*
D03*
X17625D02*
D03*
X16975Y34300D02*
D03*
X16325D02*
D03*
X81875Y33900D02*
D03*
X82525D02*
D03*
X83175D02*
D03*
X83825D02*
D03*
X83175Y30850D02*
D03*
X82525D02*
D03*
D162*
X88350D02*
D03*
X86350D02*
D03*
X17650Y34300D02*
D03*
X15650D02*
D03*
X83850Y30850D02*
D03*
X81850D02*
D03*
D163*
X48950Y18600D02*
D03*
Y17500D02*
D03*
X43925Y17600D02*
D03*
Y18700D02*
D03*
X41125Y17600D02*
D03*
Y18700D02*
D03*
X39725Y17600D02*
D03*
Y18700D02*
D03*
X42525Y17600D02*
D03*
Y18700D02*
D03*
D164*
X50825Y15450D02*
D03*
Y14050D02*
D03*
D165*
X37925Y62175D02*
D03*
X36525D02*
D03*
X15175Y33000D02*
D03*
X13775D02*
D03*
D166*
X10775Y25300D02*
D03*
X12275D02*
D03*
X7450Y37225D02*
D03*
X8950D02*
D03*
D167*
X47300Y4275D02*
D03*
Y5775D02*
D03*
X55350Y4275D02*
D03*
Y5775D02*
D03*
X63825D02*
D03*
Y4275D02*
D03*
X61125Y44300D02*
D03*
Y45800D02*
D03*
D168*
X33175Y18725D02*
D03*
X31575D02*
D03*
X27900Y46150D02*
D03*
X26300D02*
D03*
X59450Y21850D02*
D03*
X57850D02*
D03*
X77100Y44350D02*
D03*
X75500D02*
D03*
D169*
X35575Y48625D02*
D03*
Y50625D02*
D03*
X30275Y61900D02*
D03*
Y59900D02*
D03*
X31675Y48625D02*
D03*
Y50625D02*
D03*
D170*
X35675Y60225D02*
D03*
X33675D02*
D03*
D171*
X9580Y28750D02*
D03*
Y29250D02*
D03*
Y29750D02*
D03*
Y30250D02*
D03*
Y30750D02*
D03*
Y31250D02*
D03*
Y31750D02*
D03*
Y32250D02*
D03*
Y32750D02*
D03*
Y33250D02*
D03*
Y33750D02*
D03*
Y34250D02*
D03*
X91420Y30525D02*
D03*
Y30025D02*
D03*
Y29525D02*
D03*
Y29025D02*
D03*
Y28525D02*
D03*
Y28025D02*
D03*
Y27525D02*
D03*
Y27025D02*
D03*
Y26525D02*
D03*
Y26025D02*
D03*
Y25525D02*
D03*
Y25025D02*
D03*
D172*
X73050Y44350D02*
D03*
Y42650D02*
D03*
D173*
X49725Y8500D02*
D03*
X48325D02*
D03*
X49650Y12700D02*
D03*
X48250D02*
D03*
X49650Y14050D02*
D03*
X48250D02*
D03*
X24575Y26525D02*
D03*
X25975D02*
D03*
X34325Y25550D02*
D03*
X32925D02*
D03*
X26875Y57350D02*
D03*
X28275D02*
D03*
X26875Y58625D02*
D03*
X28275D02*
D03*
X29850Y47450D02*
D03*
X31250D02*
D03*
X33750Y47450D02*
D03*
X35150D02*
D03*
X27050Y62175D02*
D03*
X28450D02*
D03*
X34200Y62150D02*
D03*
X35600D02*
D03*
D174*
X16350Y32800D02*
D03*
X18050D02*
D03*
D175*
X57675Y4750D02*
D03*
Y6250D02*
D03*
X62125Y4750D02*
D03*
Y6250D02*
D03*
X19775Y4750D02*
D03*
Y6250D02*
D03*
X24225Y4750D02*
D03*
Y6250D02*
D03*
X49625Y4750D02*
D03*
Y6250D02*
D03*
X54075Y4750D02*
D03*
Y6250D02*
D03*
X41575Y4750D02*
D03*
Y6250D02*
D03*
X46025Y4750D02*
D03*
Y6250D02*
D03*
D176*
X4575Y1850D02*
D03*
X97075Y53025D02*
D03*
X18325Y62575D02*
D03*
D177*
X93500Y5250D02*
D03*
Y5750D02*
D03*
Y6250D02*
D03*
Y7250D02*
D03*
Y6750D02*
D03*
Y7750D02*
D03*
Y8250D02*
D03*
Y8750D02*
D03*
Y9250D02*
D03*
Y14250D02*
D03*
Y13750D02*
D03*
Y13250D02*
D03*
Y12750D02*
D03*
Y12250D02*
D03*
Y11750D02*
D03*
Y11250D02*
D03*
Y10750D02*
D03*
Y10250D02*
D03*
Y9750D02*
D03*
D178*
X33500Y12600D02*
D03*
D179*
X30000D02*
D03*
X37000D02*
D03*
X29500Y3100D02*
D03*
X37500D02*
D03*
D180*
X24425Y41000D02*
D03*
Y40000D02*
D03*
Y39000D02*
D03*
Y38000D02*
D03*
Y37000D02*
D03*
Y36000D02*
D03*
Y35000D02*
D03*
Y34000D02*
D03*
Y33000D02*
D03*
Y32000D02*
D03*
Y42000D02*
D03*
Y43000D02*
D03*
Y44000D02*
D03*
Y45000D02*
D03*
Y46000D02*
D03*
Y47000D02*
D03*
Y48000D02*
D03*
Y49000D02*
D03*
Y50000D02*
D03*
Y51000D02*
D03*
D181*
X20675Y41000D02*
D03*
Y40000D02*
D03*
Y39000D02*
D03*
Y38000D02*
D03*
Y37000D02*
D03*
Y36000D02*
D03*
Y35000D02*
D03*
Y34000D02*
D03*
Y33000D02*
D03*
Y32000D02*
D03*
Y42000D02*
D03*
Y43000D02*
D03*
Y44000D02*
D03*
Y45000D02*
D03*
Y46000D02*
D03*
Y47000D02*
D03*
Y48000D02*
D03*
Y49000D02*
D03*
Y50000D02*
D03*
Y51000D02*
D03*
D182*
X74200Y4150D02*
D03*
X74850D02*
D03*
X75500D02*
D03*
X76150D02*
D03*
X76800D02*
D03*
D183*
X74500Y1450D02*
D03*
X76500D02*
D03*
D184*
X27475Y44200D02*
D03*
X29825D02*
D03*
D185*
X17350Y39900D02*
D03*
X12750D02*
D03*
D186*
X49575Y20575D02*
D03*
X48075D02*
D03*
D187*
X67650Y41950D02*
D03*
X66300D02*
D03*
Y40900D02*
D03*
X67650D02*
D03*
D188*
X63625Y15925D02*
D03*
Y14025D02*
D03*
D189*
X18450Y24500D02*
D03*
X16250D02*
D03*
Y26100D02*
D03*
X18450D02*
D03*
D190*
X53150Y19325D02*
D03*
Y20625D02*
D03*
X54150D02*
D03*
Y19325D02*
D03*
D191*
X14050Y35925D02*
D03*
Y36575D02*
D03*
Y37225D02*
D03*
X12150D02*
D03*
Y36575D02*
D03*
Y35925D02*
D03*
D192*
X87650Y26075D02*
D03*
X85750D02*
D03*
X86700Y23875D02*
D03*
D193*
X25250Y8750D02*
D03*
Y9700D02*
D03*
Y10650D02*
D03*
X22950D02*
D03*
Y9700D02*
D03*
Y8750D02*
D03*
D194*
X77275Y12905D02*
D03*
X77775D02*
D03*
X78275D02*
D03*
Y11295D02*
D03*
X77775D02*
D03*
X77275D02*
D03*
D195*
X40350Y4887D02*
D03*
Y4262D02*
D03*
D196*
X18410Y45325D02*
D03*
Y45825D02*
D03*
Y46825D02*
D03*
Y47325D02*
D03*
X17590D02*
D03*
Y46825D02*
D03*
Y45825D02*
D03*
Y45325D02*
D03*
D197*
X18410Y46325D02*
D03*
X17590D02*
D03*
D198*
X67750Y18725D02*
D03*
X68250D02*
D03*
X68750D02*
D03*
X69250D02*
D03*
X69750D02*
D03*
X70250D02*
D03*
X70750D02*
D03*
X71250D02*
D03*
X71750D02*
D03*
X72250D02*
D03*
X72750D02*
D03*
X73250D02*
D03*
Y10225D02*
D03*
X72750D02*
D03*
X72250D02*
D03*
X71750D02*
D03*
X71250D02*
D03*
X70750D02*
D03*
X70250D02*
D03*
X69750D02*
D03*
X69250D02*
D03*
X68750D02*
D03*
X68250D02*
D03*
X67750D02*
D03*
D199*
X74750Y17225D02*
D03*
Y16725D02*
D03*
Y16225D02*
D03*
Y15725D02*
D03*
Y15225D02*
D03*
Y14725D02*
D03*
Y14225D02*
D03*
Y13725D02*
D03*
Y13225D02*
D03*
Y12725D02*
D03*
Y12225D02*
D03*
Y11725D02*
D03*
X66250D02*
D03*
Y12225D02*
D03*
Y12725D02*
D03*
Y13225D02*
D03*
Y13725D02*
D03*
Y14225D02*
D03*
Y14725D02*
D03*
Y15225D02*
D03*
Y15725D02*
D03*
Y16225D02*
D03*
Y16725D02*
D03*
Y17225D02*
D03*
D200*
X78350Y36550D02*
D03*
Y37050D02*
D03*
Y38550D02*
D03*
Y38050D02*
D03*
Y37550D02*
D03*
Y36050D02*
D03*
X74550D02*
D03*
Y36550D02*
D03*
Y37050D02*
D03*
Y37550D02*
D03*
Y38050D02*
D03*
Y38550D02*
D03*
D201*
X76450Y37300D02*
D03*
D202*
X77700Y35400D02*
D03*
X77200D02*
D03*
X76700D02*
D03*
X76200D02*
D03*
X75700D02*
D03*
X75200D02*
D03*
Y39200D02*
D03*
X75700D02*
D03*
X76200D02*
D03*
X76700D02*
D03*
X77200D02*
D03*
X77700D02*
D03*
D203*
X41900Y14575D02*
D03*
Y14075D02*
D03*
Y13575D02*
D03*
Y13075D02*
D03*
Y12575D02*
D03*
Y12075D02*
D03*
Y11575D02*
D03*
Y11075D02*
D03*
X46750D02*
D03*
Y11575D02*
D03*
Y12075D02*
D03*
Y12575D02*
D03*
Y13075D02*
D03*
Y13575D02*
D03*
Y14075D02*
D03*
Y14575D02*
D03*
D204*
X42575Y10400D02*
D03*
X43075D02*
D03*
X43575D02*
D03*
X44075D02*
D03*
X44575D02*
D03*
X45075D02*
D03*
X45575D02*
D03*
X46075D02*
D03*
Y15250D02*
D03*
X45575D02*
D03*
X45075D02*
D03*
X44575D02*
D03*
X44075D02*
D03*
X43575D02*
D03*
X43075D02*
D03*
X42575D02*
D03*
D205*
X69750Y47150D02*
D03*
Y51150D02*
D03*
X64250D02*
D03*
Y47150D02*
D03*
D206*
X69750Y47650D02*
D03*
Y48150D02*
D03*
Y48650D02*
D03*
Y49150D02*
D03*
Y49650D02*
D03*
Y50150D02*
D03*
Y50650D02*
D03*
X64250D02*
D03*
Y50150D02*
D03*
Y49650D02*
D03*
Y49150D02*
D03*
Y48650D02*
D03*
Y48150D02*
D03*
Y47650D02*
D03*
D207*
X69000Y51900D02*
D03*
X65000D02*
D03*
Y46400D02*
D03*
X69000D02*
D03*
D208*
X68500Y51900D02*
D03*
X68000D02*
D03*
X67500D02*
D03*
X67000D02*
D03*
X66500D02*
D03*
X66000D02*
D03*
X65500D02*
D03*
Y46400D02*
D03*
X66000D02*
D03*
X66500D02*
D03*
X67000D02*
D03*
X67500D02*
D03*
X68000D02*
D03*
X68500D02*
D03*
D209*
X67000Y49150D02*
D03*
D210*
X31100Y20300D02*
D03*
X30700D02*
D03*
X30300D02*
D03*
X29900D02*
D03*
X29500D02*
D03*
X29100D02*
D03*
X28700D02*
D03*
X28300D02*
D03*
X27900D02*
D03*
X27500D02*
D03*
Y25200D02*
D03*
X27900D02*
D03*
X28300D02*
D03*
X28700D02*
D03*
X29100D02*
D03*
X29500D02*
D03*
X29900D02*
D03*
X30300D02*
D03*
X30700D02*
D03*
X31100D02*
D03*
D211*
X26850Y20950D02*
D03*
Y21350D02*
D03*
Y21750D02*
D03*
Y22150D02*
D03*
Y22550D02*
D03*
Y22950D02*
D03*
Y23350D02*
D03*
Y23750D02*
D03*
Y24150D02*
D03*
Y24550D02*
D03*
X31750Y20950D02*
D03*
Y21350D02*
D03*
Y21750D02*
D03*
Y22150D02*
D03*
Y22550D02*
D03*
Y22950D02*
D03*
Y23350D02*
D03*
Y23750D02*
D03*
Y24150D02*
D03*
Y24550D02*
D03*
D212*
X66875Y23975D02*
D03*
Y24475D02*
D03*
Y23475D02*
D03*
Y30975D02*
D03*
Y30475D02*
D03*
Y29975D02*
D03*
Y29475D02*
D03*
Y28975D02*
D03*
Y28475D02*
D03*
Y27975D02*
D03*
Y27475D02*
D03*
Y26975D02*
D03*
Y26475D02*
D03*
Y25975D02*
D03*
Y25475D02*
D03*
Y24975D02*
D03*
X76475Y27975D02*
D03*
Y28475D02*
D03*
Y28975D02*
D03*
Y29475D02*
D03*
Y29975D02*
D03*
Y30475D02*
D03*
Y23475D02*
D03*
Y23975D02*
D03*
Y24475D02*
D03*
Y24975D02*
D03*
Y25475D02*
D03*
Y25975D02*
D03*
Y26475D02*
D03*
Y26975D02*
D03*
Y27475D02*
D03*
Y30975D02*
D03*
D213*
X67425Y32100D02*
D03*
X75925D02*
D03*
X67425Y22350D02*
D03*
X75925D02*
D03*
D214*
X67925Y32025D02*
D03*
X75425D02*
D03*
X74925D02*
D03*
X74425D02*
D03*
X73925D02*
D03*
X73425D02*
D03*
X72925D02*
D03*
X72425D02*
D03*
X71925D02*
D03*
X71425D02*
D03*
X70925D02*
D03*
X70425D02*
D03*
X69925D02*
D03*
X69425D02*
D03*
X68925D02*
D03*
X68425D02*
D03*
X73425Y22425D02*
D03*
X73925D02*
D03*
X74425D02*
D03*
X74925D02*
D03*
X67925D02*
D03*
X68425D02*
D03*
X68925D02*
D03*
X69425D02*
D03*
X69925D02*
D03*
X70425D02*
D03*
X70925D02*
D03*
X71425D02*
D03*
X71925D02*
D03*
X72425D02*
D03*
X72925D02*
D03*
X75425D02*
D03*
D215*
X66800Y22975D02*
D03*
X66800Y31475D02*
D03*
X76550Y22975D02*
D03*
Y31475D02*
D03*
D216*
X71675Y27225D02*
D03*
D217*
X44580Y25190D02*
D03*
Y25690D02*
D03*
Y26190D02*
D03*
Y26690D02*
D03*
Y27190D02*
D03*
Y28190D02*
D03*
Y28690D02*
D03*
Y29690D02*
D03*
Y30190D02*
D03*
Y31190D02*
D03*
Y31690D02*
D03*
Y32690D02*
D03*
Y33190D02*
D03*
Y34190D02*
D03*
Y34690D02*
D03*
Y35190D02*
D03*
Y35690D02*
D03*
Y36190D02*
D03*
X45080Y25190D02*
D03*
Y25690D02*
D03*
Y26190D02*
D03*
Y26690D02*
D03*
Y27190D02*
D03*
Y27690D02*
D03*
Y28190D02*
D03*
Y28690D02*
D03*
Y29190D02*
D03*
Y29690D02*
D03*
Y30190D02*
D03*
Y30690D02*
D03*
Y31190D02*
D03*
Y31690D02*
D03*
Y32190D02*
D03*
Y32690D02*
D03*
Y33190D02*
D03*
Y33690D02*
D03*
Y34190D02*
D03*
Y34690D02*
D03*
Y35190D02*
D03*
Y35690D02*
D03*
Y36190D02*
D03*
X45580Y25190D02*
D03*
Y25690D02*
D03*
Y26190D02*
D03*
Y26690D02*
D03*
Y27190D02*
D03*
Y27690D02*
D03*
Y28190D02*
D03*
Y28690D02*
D03*
Y29190D02*
D03*
Y29690D02*
D03*
Y30190D02*
D03*
Y30690D02*
D03*
Y31190D02*
D03*
Y31690D02*
D03*
Y32190D02*
D03*
Y32690D02*
D03*
Y33190D02*
D03*
Y33690D02*
D03*
Y34190D02*
D03*
Y34690D02*
D03*
Y35190D02*
D03*
Y35690D02*
D03*
Y36190D02*
D03*
X46080Y25190D02*
D03*
Y25690D02*
D03*
Y26190D02*
D03*
Y26690D02*
D03*
Y27190D02*
D03*
Y27690D02*
D03*
Y28190D02*
D03*
Y28690D02*
D03*
Y29190D02*
D03*
Y29690D02*
D03*
Y30190D02*
D03*
Y30690D02*
D03*
Y31190D02*
D03*
Y31690D02*
D03*
Y32190D02*
D03*
Y32690D02*
D03*
Y33190D02*
D03*
Y33690D02*
D03*
Y34190D02*
D03*
Y34690D02*
D03*
Y35190D02*
D03*
Y35690D02*
D03*
Y36190D02*
D03*
X46580Y25190D02*
D03*
Y25690D02*
D03*
Y26190D02*
D03*
Y26690D02*
D03*
Y34690D02*
D03*
Y35190D02*
D03*
Y35690D02*
D03*
Y36190D02*
D03*
X47080Y25690D02*
D03*
Y26190D02*
D03*
Y26690D02*
D03*
Y34690D02*
D03*
Y35190D02*
D03*
Y35690D02*
D03*
X47580Y25190D02*
D03*
Y25690D02*
D03*
Y26190D02*
D03*
Y26690D02*
D03*
Y34690D02*
D03*
Y35190D02*
D03*
Y35690D02*
D03*
Y36190D02*
D03*
X48080Y25190D02*
D03*
Y25690D02*
D03*
Y26190D02*
D03*
Y26690D02*
D03*
X47480Y28740D02*
D03*
Y29390D02*
D03*
Y30040D02*
D03*
Y30690D02*
D03*
Y31340D02*
D03*
Y31990D02*
D03*
Y32640D02*
D03*
X48080Y34690D02*
D03*
Y35190D02*
D03*
Y35690D02*
D03*
Y36190D02*
D03*
X48580Y25690D02*
D03*
Y26190D02*
D03*
Y26690D02*
D03*
X48130Y28090D02*
D03*
Y28740D02*
D03*
Y29390D02*
D03*
Y30040D02*
D03*
Y30690D02*
D03*
Y31340D02*
D03*
Y31990D02*
D03*
Y32640D02*
D03*
Y33290D02*
D03*
X48580Y34690D02*
D03*
Y35190D02*
D03*
Y35690D02*
D03*
X49080Y25190D02*
D03*
Y25690D02*
D03*
Y26190D02*
D03*
Y26690D02*
D03*
X48780Y28090D02*
D03*
Y28740D02*
D03*
Y29390D02*
D03*
Y30040D02*
D03*
Y30690D02*
D03*
Y31340D02*
D03*
Y31990D02*
D03*
Y32640D02*
D03*
Y33290D02*
D03*
X49080Y34690D02*
D03*
Y35190D02*
D03*
Y35690D02*
D03*
Y36190D02*
D03*
X49580Y25190D02*
D03*
Y25690D02*
D03*
Y26190D02*
D03*
Y26690D02*
D03*
X49430Y28090D02*
D03*
Y28740D02*
D03*
Y29390D02*
D03*
Y30040D02*
D03*
Y30690D02*
D03*
Y31340D02*
D03*
Y31990D02*
D03*
Y32640D02*
D03*
Y33290D02*
D03*
X49580Y34690D02*
D03*
Y35190D02*
D03*
Y35690D02*
D03*
Y36190D02*
D03*
X50080Y25690D02*
D03*
Y26190D02*
D03*
Y26690D02*
D03*
Y28090D02*
D03*
Y28740D02*
D03*
Y29390D02*
D03*
Y30040D02*
D03*
Y30690D02*
D03*
Y31340D02*
D03*
Y31990D02*
D03*
Y32640D02*
D03*
Y33290D02*
D03*
Y34690D02*
D03*
Y35190D02*
D03*
Y35690D02*
D03*
X50580Y25190D02*
D03*
Y25690D02*
D03*
Y26190D02*
D03*
Y26690D02*
D03*
X50730Y28090D02*
D03*
Y28740D02*
D03*
Y29390D02*
D03*
Y30040D02*
D03*
Y30690D02*
D03*
Y31340D02*
D03*
Y31990D02*
D03*
Y32640D02*
D03*
Y33290D02*
D03*
X50580Y34690D02*
D03*
Y35190D02*
D03*
Y35690D02*
D03*
Y36190D02*
D03*
X51080Y25190D02*
D03*
Y25690D02*
D03*
Y26190D02*
D03*
Y26690D02*
D03*
X51380Y28090D02*
D03*
Y28740D02*
D03*
Y29390D02*
D03*
Y30040D02*
D03*
Y30690D02*
D03*
Y31340D02*
D03*
Y31990D02*
D03*
Y32640D02*
D03*
Y33290D02*
D03*
X51080Y34690D02*
D03*
Y35190D02*
D03*
Y35690D02*
D03*
Y36190D02*
D03*
X51580Y25690D02*
D03*
Y26190D02*
D03*
Y26690D02*
D03*
X52030Y28090D02*
D03*
Y28740D02*
D03*
Y29390D02*
D03*
Y30040D02*
D03*
Y30690D02*
D03*
Y31340D02*
D03*
Y31990D02*
D03*
Y32640D02*
D03*
Y33290D02*
D03*
X51580Y34690D02*
D03*
Y35190D02*
D03*
Y35690D02*
D03*
X52080Y25190D02*
D03*
Y25690D02*
D03*
Y26190D02*
D03*
Y26690D02*
D03*
X52680Y28740D02*
D03*
Y29390D02*
D03*
Y30040D02*
D03*
Y30690D02*
D03*
Y31340D02*
D03*
Y31990D02*
D03*
Y32640D02*
D03*
X52080Y34690D02*
D03*
Y35190D02*
D03*
Y35690D02*
D03*
Y36190D02*
D03*
X52580Y25190D02*
D03*
Y25690D02*
D03*
Y26190D02*
D03*
Y26690D02*
D03*
Y34690D02*
D03*
Y35190D02*
D03*
Y35690D02*
D03*
Y36190D02*
D03*
X53080Y25690D02*
D03*
Y26190D02*
D03*
Y26690D02*
D03*
Y34690D02*
D03*
Y35190D02*
D03*
Y35690D02*
D03*
X53580Y25190D02*
D03*
Y25690D02*
D03*
Y26190D02*
D03*
Y26690D02*
D03*
Y34690D02*
D03*
Y35190D02*
D03*
Y35690D02*
D03*
Y36190D02*
D03*
X54080Y25190D02*
D03*
Y25690D02*
D03*
Y26190D02*
D03*
Y26690D02*
D03*
Y27190D02*
D03*
Y27690D02*
D03*
Y28190D02*
D03*
Y28690D02*
D03*
Y29190D02*
D03*
Y29690D02*
D03*
Y30190D02*
D03*
Y30690D02*
D03*
Y31190D02*
D03*
Y31690D02*
D03*
Y32190D02*
D03*
Y32690D02*
D03*
Y33190D02*
D03*
Y33690D02*
D03*
Y34190D02*
D03*
Y34690D02*
D03*
Y35190D02*
D03*
Y35690D02*
D03*
Y36190D02*
D03*
X54580Y25190D02*
D03*
Y25690D02*
D03*
Y26190D02*
D03*
Y26690D02*
D03*
Y27190D02*
D03*
Y27690D02*
D03*
Y28190D02*
D03*
Y28690D02*
D03*
Y29190D02*
D03*
Y29690D02*
D03*
Y30190D02*
D03*
Y30690D02*
D03*
Y31190D02*
D03*
Y31690D02*
D03*
Y32190D02*
D03*
Y32690D02*
D03*
Y33190D02*
D03*
Y33690D02*
D03*
Y34190D02*
D03*
Y34690D02*
D03*
Y35190D02*
D03*
Y35690D02*
D03*
Y36190D02*
D03*
X55080Y25190D02*
D03*
Y25690D02*
D03*
Y26190D02*
D03*
Y26690D02*
D03*
Y27190D02*
D03*
Y27690D02*
D03*
Y28190D02*
D03*
Y28690D02*
D03*
Y29190D02*
D03*
Y29690D02*
D03*
Y30190D02*
D03*
Y30690D02*
D03*
Y31190D02*
D03*
Y31690D02*
D03*
Y32190D02*
D03*
Y32690D02*
D03*
Y33190D02*
D03*
Y33690D02*
D03*
Y34190D02*
D03*
Y34690D02*
D03*
Y35190D02*
D03*
Y35690D02*
D03*
Y36190D02*
D03*
X55580Y25190D02*
D03*
Y25690D02*
D03*
Y26190D02*
D03*
Y26690D02*
D03*
Y27190D02*
D03*
Y28190D02*
D03*
Y28690D02*
D03*
Y29690D02*
D03*
Y30190D02*
D03*
Y31190D02*
D03*
Y31690D02*
D03*
Y32690D02*
D03*
Y33190D02*
D03*
Y34190D02*
D03*
Y34690D02*
D03*
Y35190D02*
D03*
Y35690D02*
D03*
Y36190D02*
D03*
D218*
X35050Y53025D02*
D03*
X30650Y57925D02*
D03*
X33050D02*
D03*
X33450D02*
D03*
X33850D02*
D03*
X34250D02*
D03*
X34650D02*
D03*
X32650D02*
D03*
X32250D02*
D03*
X31850D02*
D03*
X31450D02*
D03*
X31050D02*
D03*
X30650Y53025D02*
D03*
X31050D02*
D03*
X31450D02*
D03*
X31850D02*
D03*
X32250D02*
D03*
X34650D02*
D03*
X34250D02*
D03*
X33850D02*
D03*
X33450D02*
D03*
X33050D02*
D03*
X32650D02*
D03*
X35050Y57925D02*
D03*
D219*
X32850Y55475D02*
D03*
D220*
X35800Y55275D02*
D03*
Y54875D02*
D03*
Y54475D02*
D03*
Y54075D02*
D03*
Y53675D02*
D03*
Y55675D02*
D03*
Y56075D02*
D03*
Y56475D02*
D03*
Y56875D02*
D03*
Y57275D02*
D03*
X29900D02*
D03*
Y56875D02*
D03*
Y56475D02*
D03*
Y56075D02*
D03*
Y53675D02*
D03*
Y54075D02*
D03*
Y54475D02*
D03*
Y54875D02*
D03*
Y55275D02*
D03*
Y55675D02*
D03*
D221*
X2975Y62725D02*
D03*
Y61775D02*
D03*
D222*
X8375Y50625D02*
D03*
Y49025D02*
D03*
D223*
X68000Y5500D02*
D03*
Y4200D02*
D03*
D224*
X80875Y7150D02*
D03*
X82375Y10150D02*
D03*
X80875D02*
D03*
X82375Y7150D02*
D03*
D225*
X3800Y47900D02*
D03*
Y45900D02*
D03*
X5300D02*
D03*
Y47900D02*
D03*
D226*
X2525Y46900D02*
D03*
Y46450D02*
D03*
Y46000D02*
D03*
Y45550D02*
D03*
Y45100D02*
D03*
Y44650D02*
D03*
Y49150D02*
D03*
Y48700D02*
D03*
Y48250D02*
D03*
Y47800D02*
D03*
Y47350D02*
D03*
X6575D02*
D03*
Y47800D02*
D03*
Y48250D02*
D03*
Y48700D02*
D03*
Y49150D02*
D03*
Y44650D02*
D03*
Y45100D02*
D03*
Y45550D02*
D03*
Y46000D02*
D03*
Y46450D02*
D03*
Y46900D02*
D03*
D227*
X2463Y43975D02*
D03*
X6637D02*
D03*
Y49825D02*
D03*
X2463D02*
D03*
D228*
X6125Y43975D02*
D03*
X5675D02*
D03*
X5225D02*
D03*
X4775D02*
D03*
X2975D02*
D03*
X3425D02*
D03*
X3875D02*
D03*
X4325D02*
D03*
Y49825D02*
D03*
X3875D02*
D03*
X3425D02*
D03*
X2975D02*
D03*
X4775D02*
D03*
X5225D02*
D03*
X5675D02*
D03*
X6125D02*
D03*
D229*
X89225Y5925D02*
D03*
X87475D02*
D03*
D230*
X22500Y18500D02*
D03*
X80500Y67500D02*
D03*
X22500D02*
D03*
X80500Y18500D02*
D03*
D231*
X87370Y40500D02*
D03*
Y58500D02*
D03*
D232*
Y43000D02*
D03*
Y47500D02*
D03*
Y45000D02*
D03*
X89990Y40500D02*
D03*
Y43000D02*
D03*
Y47500D02*
D03*
Y45000D02*
D03*
X87370Y61000D02*
D03*
Y65500D02*
D03*
Y63000D02*
D03*
X89990Y58500D02*
D03*
Y61000D02*
D03*
Y65500D02*
D03*
Y63000D02*
D03*
D233*
X87020Y37430D02*
D03*
Y50570D02*
D03*
X92700Y37430D02*
D03*
Y50570D02*
D03*
X87020Y55430D02*
D03*
Y68570D02*
D03*
X92700Y55430D02*
D03*
Y68570D02*
D03*
D234*
X7180Y35770D02*
D03*
X2450D02*
D03*
X7180Y27230D02*
D03*
X2450D02*
D03*
X93820Y23505D02*
D03*
X98550D02*
D03*
X93820Y32045D02*
D03*
X98550D02*
D03*
D235*
X94500Y2250D02*
D03*
Y16750D02*
D03*
X99400Y1650D02*
D03*
Y17350D02*
D03*
D236*
X22900Y57700D02*
D03*
Y58950D02*
D03*
D237*
X16290Y20215D02*
D03*
D238*
X10450Y6750D02*
D03*
Y22250D02*
D03*
D239*
X7400Y20215D02*
D03*
Y8785D02*
D03*
D240*
X89310Y1525D02*
D03*
X86770D02*
D03*
X84230D02*
D03*
X57850Y66230D02*
D03*
X60390D02*
D03*
X57850Y68770D02*
D03*
X60390D02*
D03*
X68010D02*
D03*
X62930D02*
D03*
X65470D02*
D03*
X68010Y66230D02*
D03*
X65470D02*
D03*
X62930D02*
D03*
X75630D02*
D03*
Y68770D02*
D03*
X73090D02*
D03*
X70550D02*
D03*
X73090Y66230D02*
D03*
X70550D02*
D03*
X45150D02*
D03*
X47690D02*
D03*
X45150Y68770D02*
D03*
X47690D02*
D03*
X55310D02*
D03*
X50230D02*
D03*
X52770D02*
D03*
X55310Y66230D02*
D03*
X52770D02*
D03*
X50230D02*
D03*
X37530D02*
D03*
X40070D02*
D03*
X42610D02*
D03*
X40070Y68770D02*
D03*
X37530D02*
D03*
X42610D02*
D03*
X34990D02*
D03*
X27370D02*
D03*
X29910D02*
D03*
X32450D02*
D03*
X34990Y66230D02*
D03*
X32450D02*
D03*
X29910D02*
D03*
D241*
X81690Y1525D02*
D03*
X27370Y66230D02*
D03*
D242*
X72000Y1450D02*
D03*
X79000D02*
D03*
M02*
