M48
;Layer_Color=9474304
;FILE_FORMAT=4:3
METRIC,LZ
;TYPE=PLATED
T2F00S00C0.200
T3F00S00C0.300
T4F00S00C0.400
T5F00S00C0.500
T8F00S00C0.900
T9F00S00C0.920
T10F00S00C1.000
T11F00S00C1.350
T12F00S00C1.700
T13F00S00C2.330
T14F00S00C3.500
%
T02
X000075Y000375
Y000625
X000475Y0007
X000775Y000575
X0006475Y0003775
X00035Y000375
X001325Y0006
X001725
X00189Y000625
X001998Y000739
X0022Y000375
X0017
X002725
X0028605Y000474
X002953Y0004765
X003115Y00048
X003265Y0006825
X003765Y0006755
X003945Y000665
X004113Y000709
X004288Y000704
X004263Y000649
X004375Y000375
X003965Y0002625
X0038175Y000469
X0057781Y0007314
X00602Y0007325
X006105
X0069475Y000595
X0068075Y0003425
X008025Y000375
X0083
X008525
X00925
X0095205Y0004055
X009725Y000375
X0097745Y0004055
X010025Y000375
Y0005
Y00075
X0096375Y00073
X00921Y000725
Y000675
X009135Y000735
X00921Y000825
X009165Y0009
Y00095
X00921Y000995
X009165Y00105
Y0011
Y0012
Y00125
X00921Y0013025
X009165Y00135
Y0014
X00889Y0014025
Y0013525
Y0012525
Y0012025
Y001095
Y001045
Y000945
Y000895
X008815Y00086
X0088575Y0007575
X0087675Y0007575
X008835Y000995
Y0013025
X008875Y00185
X0089Y00225
X009075Y0021
X00955Y0022
X010025Y002175
Y00195
Y001475
Y0012
Y000975
X00975
X00981Y0012175
X0097745Y0015595
X0097Y00175
X00935Y00153
X0082675Y0014075
X008085
X00764Y0014225
X007735Y0031475
X008035Y00299
X0088025
X0087625Y0029375
X00892Y0028025
Y0027525
X00945Y002925
X009525Y003425
X00975Y003525
X010025Y003425
Y003675
Y0039
Y004125
Y004375
Y004625
X009525Y004525
X009225Y00455
X0092Y00435
X0097Y0043
X009725Y0039
X010025Y00315
Y002925
Y0027
Y00245
X008238Y004182
X007735Y0041825
Y004115
X007815Y0040375
X007735Y00431
X00835Y00465
X0074Y0046375
X007575Y0041075
X007155Y00413
X0071175Y0040825
X007305Y003855
Y003755
X00737Y003805
X0073506Y003314
X0072702Y0033031
X007198Y0033715
X007168Y0034915
X0071105Y003489
X0070605Y0035065
X0070011Y0034084
X0069581Y0034365
X0069555Y003379
X006898Y0034315
X006828Y0033722
X0067105Y0033615
X0067506Y003299
X0065255Y0033115
X006593Y0034015
X0066405Y0034265
X006643Y0034965
X0067Y00352
X0066956Y0036391
X0067405Y0036815
X0066305Y003704
X0065405Y0036815
X006478Y003684
X006468Y003629
X0065581Y0036291
X0063781Y0036016
X006328Y003599
X0063125Y0035195
Y0034695
X006248Y0033115
X006118Y003229
X0060618Y0032027
X005923Y003114
X0059231Y0028565
X0058731Y0028365
X0057831Y002859
X0057856Y002789
X0057106
X0057481Y002639
X005675Y002555
X005913Y0026815
X006038Y002769
X005998Y002814
X0060055Y0029327
X0060831Y0028915
X006153Y0028915
X0061562Y0028015
X006253Y002839
X0063281Y0028115
X006338Y0027315
X0062655Y0027265
X006318Y0026515
X0063805Y002594
X0064405Y0025415
X006398Y0024965
X006413Y002444
X0064555Y002414
X0065105Y002374
X006605Y0023475
X006343Y002469
X006168Y0024215
X0061425Y002515
X006203Y002659
X006423Y0027065
X006573Y0027015
X0065349Y0028765
X0065906Y0029115
X0065905Y002989
Y0031365
X006433Y0031415
X0064031Y002979
X0064231Y0029065
X0063219Y0029029
X0062865Y0029382
X00615Y00362
X0060305Y0036865
X006006Y003749
X00597Y003566
X005908Y003592
X00597Y003472
X00579Y003469
X00572
X005598Y003637
X005366Y003429
X005316
Y003379
X005366Y003373
X0053655Y003294
X0053505Y0031865
X0053475Y0030725
X0052355Y0031015
Y0031665
X00517Y003166
X0051055Y0031665
X005105Y003101
X0051705Y0031015
X005178Y0030415
X0051705Y0029715
X0051055
Y0029065
X0051705
X0051705Y0028415
X0052345Y0029075
X0052355Y0029715
X0050355Y0029665
X0049755Y0029715
X0049755Y0030365
X004909Y003035
X0049105Y0031015
Y0031665
X0048455
X0048455Y0032965
X0049105
X0049755
X0050405
X0051055
X0051705
X0052355
X005219Y003369
X005164Y00337
X005168Y003423
X005078Y003426
Y003374
X004965Y003373
X004914Y003374
X004859Y00337
X004854Y00342
X004766Y003426
X004766Y003364
X004723Y003395
X0046975Y0033498
X004651Y003374
Y003424
X0046605Y0032765
X0046505Y003219
X0046725Y003165
X004708Y0031
X00466Y00303
X0047805Y0030365
X00478Y002906
X0048455Y0029065
Y0028415
X0049755
X0049125Y00273
X004733Y002754
X004698Y0027915
X0046455Y0027915
X0045905Y0024465
X004603Y0023965
X004548Y0024065
X0044955Y002359
X004423Y002364
X004343Y0024565
X004288
X004228Y0024565
X004148Y0024365
X0042525Y0023395
X004303Y002129
X0042525Y0019725
X0041875Y001974
X0041125Y0019725
X0039725
X0039305Y002079
X0039255Y002149
X0039905Y002114
X003973Y0022115
X003983Y0022615
X0038925Y0022675
X003813Y0022915
Y0023415
X003778Y002389
X003758Y002459
X003708Y002459
X003678Y002634
X003648Y0026765
X0036605Y002729
X0037305Y002709
X0037706Y0026691
X003888Y0027015
X0038605Y002749
X0038667Y0028215
X0038605Y0028715
X003808Y0028215
X0038175Y0029475
X003645
X003978Y002909
X0040001Y0028604
X003988Y0028065
X0040555Y0027465
X0040555Y002904
X0040205Y002944
X003993Y002989
X0040855Y002979
X0041405Y002984
X0042216Y0029865
X004308Y0029665
X004293Y003059
X004343
X0042255Y0030915
X004193Y003179
X004138Y003174
X0040005Y003169
X004033Y003084
X0040605Y0030365
X0039305Y0026515
X003963Y002414
X0038055Y002134
X0038075Y0020675
X0038055Y0019959
X0037355Y002004
X003735Y002074
X003728Y0019015
X0037255Y0018465
X003703Y0017965
X003778Y001799
X003778Y0017465
X003755Y0016625
X0036255Y0017365
X003965Y001565
X00407
X0039Y0014825
X003845Y0013825
X003885Y0013075
X0036425Y00102
X004305Y00162
X0043925Y0019725
X0045775Y00203
X004809Y00215
X0048705Y0021565
X0048655Y002214
X0048705Y002274
X005028Y0022965
X005023Y002244
X00503Y0021925
X0050625Y0021425
X00514Y002082
X005125Y0022275
X005138Y0022865
X0052255Y0023465
X005188Y002384
X005298Y002309
X0053397Y00228
X005283Y0022365
X0054297Y0023
X005483Y002129
X0055988Y0021423
X0056506Y0021265
X005703Y002139
X0055881Y001989
X005585Y0017525
X005485Y00178
X0054675Y0018382
X0054079Y001794
X0054355Y001684
X0053275Y0016925
X00532Y001615
X005305Y00152
X00553Y001505
X005528Y001614
X0056205Y0016515
X0057055Y001699
X005703Y0017765
X0056955Y001849
X005878Y002009
X005883Y0016615
X005808Y001534
X0057631Y0015715
X0056325Y0014075
X005558Y0011915
X0054805Y001219
X0052625Y0012075
X005078Y0009666
X004808Y0007665
X004745Y001585
X005165Y0017725
X004993Y002334
X004818Y0024115
Y0024615
X0043755Y0024965
X0044129Y002534
X0043105Y002559
X0042555Y0026115
X004323Y0026815
X00511Y0027635
X0052475Y0027144
X005365Y00282
X0050395Y0031655
X004961Y003426
X0047805Y0032965
X0047305Y0033121
X004773Y003702
X004775Y003783
X004825
X004873Y003769
X004872Y003844
X004882Y003893
X004856Y003944
X004932Y003854
X005088Y003839
X005125Y003804
X005128Y003752
Y00368
X004698Y003774
X004648
X004575Y003766
X00458Y003714
X004503Y003713
X004483Y003759
X004443Y00367
X004557Y003886
X004624Y003926
X004709Y004322
X004629Y004432
X004591Y004395
X004532Y004393
X004637Y004518
X004598Y004559
X004628Y004669
X004723Y004674
X004803
Y004594
X004723
Y004514
X005203Y004594
Y004674
X005368Y004594
X005458Y004589
Y004672
Y004505
X005383Y004504
X005373Y004432
X005458Y004424
Y004352
X005392Y004355
X005224Y004343
X005248Y004281
X005499Y004148
X005851Y004486
X006318Y003919
X006303Y0038315
X006358Y0037765
X006895Y00369
X0069225Y002096
X0070925Y0021251
X0071168Y0020773
X007473Y002094
X007513Y002034
X007495Y0018725
X0073125Y0017575
X007225Y00177
X00697Y0017675
X006835Y0016875
X0067375Y0014225
X006875Y0011975
X006963Y001184
X0069805Y001134
X007048Y001139
X0070525Y0008375
X0071475Y0008825
X00673Y0009125
X0066206Y0008964
X006478Y000954
X006465Y0007675
X0063075
X0062156Y0007564
X006223Y000814
X00596Y0009945
X006Y001045
X00662Y0011075
X00634Y00174
Y001795
X0063025Y00186
X0063006Y0019115
X0063131Y0019815
X006313Y0020315
X0063055Y0020915
X0073925Y0023375
X007355Y00135
X004055Y003698
Y003789
X004096Y003887
X004054Y003956
X003878Y0037967
X0038305Y003834
X0037555Y003549
X004215Y004338
X004193Y004569
X0034855Y0045815
X003503Y0044925
X0034055Y0044415
X0033855Y004389
X003493Y004314
X003458Y004079
X0033855Y004084
X003168Y004029
X0029955Y004069
X0028998Y0042908
X0027912
X0025876Y0042527
X0025875Y0042025
X0027625Y003889
X00287Y003805
X003078Y003819
X0030654Y0037116
X0029897Y003674
Y003624
X0029446Y0034207
Y0033707
X002938Y003224
X002978Y003189
X002873Y003189
X0028805Y003279
X0027429Y003279
X0027245Y0036243
Y0036743
X0032305Y003564
X0032754Y0037466
X0033313Y0034207
Y0033707
X003305Y00295
X003135
X002965
X003475Y0029475
X003498Y0026965
X003553Y0026965
X0035499Y0026065
X003493Y002644
X003588Y002539
X0032425Y002135
X00303Y00194
X00283
X002565Y00209
X0025175Y0023025
X0025975Y0023375
X0025975Y002455
X0026525Y00257
X002373Y002889
X0024925Y0030965
X002025Y00215
X0019Y002
Y001725
X002075Y001525
X001875Y00135
X0018905Y000809
X0019505Y0008065
X002018Y000844
X0021Y0009
X00215Y00105
X002415Y0010675
X0030025Y00102
X0031425
X0032125Y0010775
X0031725Y0012
X0032338Y00155
X003259Y001615
X0033575Y0016525
X003475Y0010115
X0035375Y0010275
X00359Y0010975
X0012Y001225
X00115Y000925
X00085Y00115
X000825Y0015
X000475Y001475
X000575Y00175
X000975Y001825
X00115Y002
Y0016
X00145Y002175
X000375Y0024
X000075Y0023
Y00265
Y003
Y0033
Y003625
X000575Y003425
X0005Y002975
X000075Y001925
Y001575
Y00125
Y0009
X0001624Y004465
X0001925Y00451
X0001624Y004555
X0001925Y0046
X0003425Y0043375
X000625Y00433
X0008375Y0043275
X0010451Y0043302
Y0044502
Y0045702
Y0046902
X0007475Y00469
X001175Y00425
X001075Y004075
X0016825Y0042475
Y0043575
Y0044675
X001841Y004459
X00191Y004465
X0019Y004275
X0019076Y0041352
X0016825Y0046875
X0033955Y004619
X0033775Y0049725
X00342
X003335
X0029Y0049775
X002855
X0028075
X00287Y0050675
X0026175Y0051075
Y00519
Y0053175
X00261Y0054275
Y00554
X0026175Y0056525
X002375Y005675
X002425Y0054801
X002275Y005275
X00205
X0019775Y0053775
X00185Y00535
X001675
X001685Y0052225
X0016825Y0050175
Y0049075
X001813Y004859
Y004809
X0018955Y0048315
X00185Y004975
X001325
Y0051575
X00115Y005075
X000875Y004735
X0004775Y0050425
X0004325Y0050726
X0003875Y0050425
X0001925Y00487
X0001624Y004825
X0001925Y00478
X0001624Y004735
X001795Y00555
X00175Y005675
Y005925
X001928Y005969
X00205Y005875
Y00565
Y005475
X002325Y00605
X002425Y00615
X0025255Y0060765
X002488Y006349
X002533Y0064065
X002775Y0064925
X002885Y0064575
X0029225Y0065
X003008Y006455
X00308Y006496
X003043Y0063215
X003218Y006334
X003208Y0064005
X0032805Y006364
X003338Y006354
X0034255Y0063915
X0034855
X0034805Y0063165
X0035375Y006496
X0032975Y0062114
X00317Y005945
X003115Y005665
X0031125Y005545
Y0054225
X0032Y0054875
Y0056075
X0032875Y005665
X003285Y0055475
X0032875Y0054225
X0033725Y0054875
Y0056075
X00346Y005665
Y0055475
Y0054225
X0035675Y0058225
X00299Y006125
X002945
X0029075Y006165
X002825Y0055836
X0022425Y006295
X002198Y006349
X002125Y0064
X001975Y0065
Y00625
X00175Y00615
Y006375
Y006575
Y0068
Y007025
X002025
X001925Y0069
X0019Y0067
X00245Y007025
X0025725Y006995
X0028735Y0070175
X00315Y006995
X0033775Y007004
X00364Y0061006
X0037075Y00597
X0036775Y0057575
X0037825Y00575
X00405Y0057425
X00415Y00578
X004028Y005622
Y005531
X004193Y005434
Y005214
Y004994
Y004784
X004723Y004754
Y004834
X004803
Y004754
Y004914
X004883
Y004994
Y004834
X004723Y004914
X004618Y005034
Y005114
Y005194
Y005274
Y005354
Y005434
X004616Y005525
X004615Y005609
X004723Y005554
X004803Y005554
X004883Y005474
X00488Y005395
Y005313
X004723Y005394
X005123Y005474
X005203
Y005554
X005283
Y005474
Y005394
Y005314
X005123
Y005074
Y004914
X005203
Y004754
X005458Y004749
X005376Y004874
X005397Y004945
X005376Y005034
Y005114
Y005194
X005455Y005491
Y005564
X0054Y005975
X0054305Y006269
X005453Y006359
X0055055Y0063615
X005563
X0055981Y0062856
X005678Y0062265
X0057325Y0062675
X0056856Y0063492
X005393Y0063642
X0051475Y0065375
X004893Y0063215
X0048725Y006
X0047625Y005985
X0046975Y0059575
X0045025Y005945
X004233Y0061242
X0041655Y006139
X004228Y0062142
X0039975Y0062725
X0039625Y006315
X004395Y00658
X0046425Y00653
X00591Y0065575
X0062075Y0065175
X0061775Y00636
X006065Y0062725
X0059675Y0062655
X00595Y005975
X0059195Y005773
X005903Y005519
X005958Y005518
Y005432
X005849Y005444
X005848Y005235
Y00502
X006058Y0050365
X006078Y004974
X0063075Y004865
Y00481
X0063025Y005135
X00655Y0052875
X0066Y0052875
X00676Y00529
X006825Y0052925
X007055Y0055325
X0071075Y005495
X00718Y0054725
X00717Y0055375
X007225Y00565
X007175Y006255
X0072589Y0063375
X0074325Y00622
X0070055Y006469
X006953Y0064615
X0068963Y0065277
X006928Y006734
X006733Y0064075
X0064375Y0062925
X006375Y00595
X0066853Y00593
X005738Y0059515
X005783Y0061265
X0061575Y006765
X00755Y007025
X005851Y004762
X003618Y0051925
X0078Y0053
X00776Y00535
Y0054195
X0077575Y0055465
X007733Y0057881
X0076225Y00578
X007675Y00595
X00824Y0058
X0084Y006075
X008575
X00835Y006275
X008175Y006225
X00835Y0065
X008575
X008425Y00675
X008525Y007025
X008275
X0078
X008875
X0091
X00945
X00965
X00985
X010025
Y0068
Y006575
Y006325
Y00605
Y005825
Y0056
Y00535
Y005075
Y00485
X00975Y004725
Y005125
X009525Y005175
X00945Y005325
X009525Y0055
Y005675
X009775Y005825
X00975Y005475
X009675Y0061
X009775Y00635
X00975Y006625
X009775Y006825
X009525
X00945Y00665
X0092Y0066
Y00635
X009175Y006125
X0095Y006325
X009Y00675
X008975Y0056
Y0053
Y004925
X0093Y004775
X0095Y00495
X008425Y004975
X008125Y005025
X00815Y004825
X0082Y0052
X00855Y0053
T03
X0019775Y0003725
X0024225
X0041575
X0046025
X0049325Y000735
X00593Y0007075
X0066525Y00042
X007055Y0004
X0071675Y00051
X008325Y00057
X008655Y0005925
X00904Y0004775
X0095375Y0007171
X0095275Y000925
Y001075
Y001225
X009575Y0015575
X0096275Y0026725
X0095025Y0027025
X0097625Y0027625
X0090925Y00322
X0090275
X0085675Y00339
X008375Y0031475
X00829Y0032275
X008195Y0031475
X0081175Y00339
X008095Y003645
X008095Y003805
X0082725Y0038695
X0082475Y003975
X0082325Y0043125
X008115Y0046
X0078925Y0046475
X0077114Y0045361
X0076325Y004535
X007645Y00383
Y00373
Y00363
X007745
Y00373
Y00383
X0076875Y00326
X0077662Y00302
X00777Y0028475
Y0026975
Y0025475
X0078075Y0023975
X007655Y0022325
X007605Y0016725
X0077775Y00139
X0077775Y001035
X008175Y0008775
X0083925Y000855
X0084975
X0085Y0024525
X0085725Y0023875
X0087675Y0023875
X008905Y00245
X0086375Y0028875
X00948Y00405
Y00421
X00744Y00427
X00731Y004165
X00702Y0041875
X00706Y0043325
X00693Y00429
X0068375Y00433
X0067825Y00449
X0066425Y0044275
X0064325Y0044425
X00646Y00429
X0063725Y0041925
Y0039925
X00615Y003855
X00652Y0037575
X0066975
X006875
X00702Y00379
Y0039925
X007135Y0044975
X00755Y0045775
X007545Y00383
Y00373
Y00363
X0074175Y003515
X0073675Y003705
X007465Y003305
X00754Y003095
X0073929Y0030551
X0074225Y00298
X007525Y0028475
X0074275Y0026975
X007525Y0025475
X0075425Y002365
X0072825
X0071925
X0069925
X0068425
X00691Y0024625
X0068425Y0021175
X0069925Y00212
X0071925
X0072825
X0075708Y0020917
X007475Y0018025
X0068775Y0017525
X0065897Y0017872
X00641Y0017325
X00615
X0060875Y001495
X005918Y0013125
X0062725Y00128
X006325Y0011975
Y0010925
X00644Y00128
X0067525Y0013225
X007125Y001135
X0074075Y0010675
Y0009775
X00744Y0008725
X0073525Y00246
X0071675Y0027225
X00681Y0027975
X006568Y0027965
X0065375Y0030475
X00681
X00691Y0029825
X0070425Y00308
X007133Y0033615
X006695Y00192
X00597Y0018875
X0057125Y00191
X0055375Y0019075
X005518Y0021865
X005868Y0020765
X0050725Y0018975
X00479Y00189
X0046875Y00187
X0045075Y0017925
X0045975Y00164
X0045725Y0014175
X0044325Y0012825
X00454Y0011275
X00428
X004105Y0011225
X00398Y0011375
X00389Y0009565
X003945Y0007625
X0042525Y000785
X0044175Y0007675
X00454Y0007675
X00464Y0007675
X0043425Y000895
X0042775Y0014375
X005045Y00127
X0049975Y0011575
X0050575Y00085
X0052955Y000809
X005528Y0008315
X0056475Y0007875
X00541Y0013125
X0051075Y001635
X0038225Y00304
X00365
X004153Y0034065
X0037225Y0045475
X003645Y0045625
X006135Y00467
X0062125Y00442
X0063925Y0045875
X0031575Y00459
X00309
X00302
X0028825Y004615
X002985Y0042975
X00261Y0043325
X0026225Y0041
X0026Y0038
X002718Y003469
X0026225Y0032
X0026725Y003035
X0027875Y0030325
X0028025Y0029075
X0027126Y0028351
X002815Y0027375
X0027775Y0024325
X0027875Y0022725
X00293Y002275
X0030825Y00218
X003175Y00204
X00347Y0019925
X003315Y0017875
X0030455Y0017015
X0029625Y001415
X0027875Y00138
X0026525Y0011375
X0026525Y00097
X0026525Y0007975
X0026475Y0019325
X002685Y00204
X0025825Y002175
X00247Y0021575
X0023375Y0024475
X002445Y002765
Y002855
Y002945
Y003035
X002115Y0030075
Y002925
X0018575Y00284
X0017475Y0027025
X0014075Y0028875
X0013525Y0031725
X0012Y003095
X001355Y0034675
X00114Y0035825
X001095Y00363
X0009275Y003845
Y0039425
X0007625Y00387
X000615
X0004675
X0003225
X00018
X00007
Y0039825
Y0041075
Y0042425
Y00437
X0001863Y0043375
X00038Y0044875
X00053
Y00469
X00038
X00007Y00462
X0005675Y0042325
X0006125Y00407
X0007475Y0043137
X0009325Y0042975
X0011775Y00439
Y00451
Y00463
X0014275Y0045775
Y0046875
Y0044675
Y0043575
Y0042475
X00144Y00409
X00157Y00409
Y003895
Y00382
X0014375Y00389
X000645Y0037225
X000875Y00244
X000515Y00228
X00018Y002275
Y001205
X000495
X001065Y0013875
X0014275Y00244
X0019825Y0023125
X0018575Y00315
X0019091Y00328
X00297Y00304
X00314
X00331
X00348
X0035155Y002555
X00316Y0026225
X003085Y00243
X0019426Y0046327
X0014275Y0047975
Y0049075
Y0050175
Y0051325
X001395Y00538
Y0054875
Y0056075
Y00574
Y0058475
Y00595
Y0060575
X0012525
Y0059575
Y0058475
Y0057375
Y0056375
Y0055275
X0011125
Y0056375
Y0057375
Y0058475
Y0059575
Y0060575
X0009825
Y0059575
Y0058475
Y0057375
Y0056375
Y0055275
X0008575
Y0056375
Y0057375
Y0058475
Y0059575
Y0060575
X0007425
Y0059575
Y0058475
Y0057375
Y0056375
Y0055275
X000625
Y0056375
Y0057375
Y0058475
Y0059575
Y0060575
X0005
Y0059575
X0004975Y0058475
X000465Y0057725
X0004025Y0056925
Y00557
X000465Y00549
X000395Y00539
X00054
X0007Y00541
X000845
X001015Y00538
X00114
X0012725
X00152Y00543
Y00555
Y005675
Y00579
Y0058975
Y0060075
Y0061225
Y0062325
Y0063525
Y0064675
Y0065825
Y00669
Y0068
Y00691
Y007025
X0023525Y0061275
X0026075Y0060825
Y00602
Y0059575
X0025075Y005965
X0024575Y00571
X002565Y0055925
X00257Y0054875
X002535Y005415
X0024725
X0024475Y0052875
X002755Y00526
X002855Y00532
X00283Y005125
X00299Y0052025
X002895Y00571
X002905Y00581
X003185Y00609
X003255
X0032255Y006264
X0027278Y00644
X000375Y0060575
Y0059575
X00039Y0058525
X00022Y00587
Y00596
Y0060575
X0000725
Y0059625
Y00587
Y0057725
Y005675
Y0055875
Y00549
Y0053775
X0002025Y00549
X0001925Y0055875
Y0056775
X0002025Y0057725
X0005Y0056375
X0003925Y005125
X000585Y005085
X0007512Y0049825
X0007725Y00478
X0010475Y00494
X0011775Y00486
X0011775Y00475
X0009575Y00516
X001015Y00524
X00008Y0051275
X0000725Y0049825
X00007Y004855
Y0047325
X0038575Y005245
Y005325
Y0054125
X003935Y0054575
X003865Y0058025
X003695Y0056575
X00386Y006135
X0038575Y006205
Y006275
X004145Y0058775
X0040425Y0051425
X005188Y006059
X0063244Y0061469
X0065775Y00614
X006575Y0063875
X006365Y00579
X006325Y0053675
X0062925Y0052225
X00616Y00521
X0061725Y0049625
X0060825Y00488
Y004775
X0065375Y0047525
X0065475Y0048525
X0066625Y0048425
X006785Y00484
X00686Y004755
X0066975Y0047525
X00686Y004935
X0068525Y00504
X006765Y00508
X0067175Y005445
X0068275Y0054475
X0069175Y0054
X0070075Y0054
X007095Y0053375
X007055Y0057375
X0065375Y0054575
X0073175Y0050675
X00735Y0049575
X007835Y005045
Y004805
X00811Y00535
X0077075Y0056725
X0076325
X00771Y0058575
X00789Y005885
X007835Y006145
X0082675Y0059575
X00948Y006005
Y005845
T04
X009267Y0024975
Y0025775
Y0026575
Y0027375
Y0028175
Y0028975
Y0029775
Y0030575
X009338Y0030175
Y0029375
Y0028575
Y0026975
Y0026175
Y0025375
X000833Y00287
Y00295
Y00303
Y00311
Y00319
Y00327
Y00335
Y00343
X000762Y00339
Y00331
Y00323
Y00307
Y00299
Y00291
T05
X00229Y00577
Y005895
T08
X0073Y000415
X0078
X001629Y0010055
Y0012595
Y0015135
Y0017675
Y0020215
X001375Y0018945
Y0016405
Y0013865
Y0011325
Y0008785
T09
X008737Y00405
Y0043
Y0045
X008999
Y0043
Y00405
Y00475
X008737
Y00585
Y0061
Y0063
Y00655
X008999
Y0063
Y0061
Y00585
T10
X008169Y0001525
X008423
X008677
X008931
X000334Y000787
Y001041
Y001859
Y002113
X002737Y006623
Y006877
X002991
X003245
X003499
Y006623
X003245
X002991
X003753
X004007
X004261
X004515
X004769
Y006877
X004515
X004261
X004007
X003753
X005023
X005277
X005531
X005785
Y006623
X006039
Y006877
X006293
X006547
X006801
Y006623
X006547
X006293
X007055
Y006877
X007309
X007563
Y006623
X007309
X005531
X005277
X005023
T11
X00945Y000225
X00994Y000165
Y001735
X00945Y001675
T12
X001045Y000675
Y002225
T13
X008702Y003743
X00927
Y005057
Y005543
X008702
Y005057
Y006857
X00927
T14
X00805Y00185
X00225
Y00675
X00805
M30
