M48
;Layer_Color=9474304
;FILE_FORMAT=4:3
METRIC,LZ
;TYPE=PLATED
T1F00S00C0.100
%
T01
X0000475Y00015
X0002975
X0004225Y0004
X0001725
X0002975Y00065
X0005475
X0007975
X0009225Y0004
X0011725
X0014225
X0015475Y00065
X0017975
Y00015
X0020475
X0022975
X0025475
X0027975
X0030475
X0032975
X0034225Y0004
X0031725
X0032975Y00065
X0035475
X0030475
X0027975
X0025475
X0026725Y0004
X0012975Y00065
X0037975Y00015
X0040475
X0042975
X0045475
X0047975
X0050475
X0052975
X0055475
X0057975
X0060475
X0062975
X0065475
X0067975
X0070475
X0072975
X0071725Y0004
X0069225
X0072975Y00065
X0065475
X0062975
X0061725Y0004
X0059225
X0056725
X0054225
X0051725
X0049225
X0044225
X0079225
X0080475Y00015
X0082975
X0085475
X0086725Y0004
X0085475Y00065
X0077975
Y00015
X0090475
X0092975
X0094225Y0004
X0096725
X0099225
X0097975Y00065
X0095475
X0097975Y00015
X0099225Y0009
X0096725
X0097975Y00115
X0095475
X0096725Y0014
X0099225
X0097975Y00165
X0099225Y0019
X0096725
X0094225
X0091725
X0089225
X0090475Y00215
X0092975
X0091725Y0024
X0090475Y00265
X0089225Y0029
Y0034
X0091725
X0094225
X0096725
X0099225
X0097975Y00365
X0095475
X0096725Y0039
X0099225
X0097975Y00415
X0095475
X0092975
X0090475
X0091725Y0044
X0094225
X0096725
X0099225
X0097975Y00465
X0095475
X0092975
X0082975
X0080475
X0077975
X0080475Y00415
X0085475
X0084225Y0039
X0089225
X0090475Y00365
X0095475Y00315
X0096725Y0029
X0099225
X0097975Y00265
X0095475
X0096725Y0024
X0097975Y00215
X0092975Y00165
X0090475
X0087975
Y00215
X0082975Y00265
X0084225Y0029
X0081725
X0085475Y00315
X0077975
X0079225Y0024
X0077975Y00215
X0079225Y0014
X0081725
X0079225Y0009
X0090475Y00115
X0072975
X0071725Y0014
X0069225
X0070475Y00165
X0072975
X0074225Y0019
X0075475Y00215
Y00265
X0067975
Y00215
X0070475
Y00365
X0067975
X0069225Y0039
X0066725
X0064225
X0062975Y00415
X0060475
X0059225Y0044
Y0039
X0062975Y00365
X006143Y0031465
X0061055Y0030915
X0061531Y003019
X0060856Y002944
X0063925Y0030865
X005483Y003094
X005433Y003094
X005383Y003144
Y003044
Y002994
X005433
X005483
X005433Y002894
X005383
Y002944
X005433Y002844
Y002794
X005483
Y002744
Y002694
Y002644
Y002594
X005433
X005333
Y002644
Y002694
X005383
Y002744
X005293Y002734
X005233Y002644
Y002594
X005183Y002644
X005133Y002694
X005095Y0027075
X0050255Y0027123
X0049951Y0027325
X0049829Y002644
X005083
Y002594
X0048825Y0026445
X004833Y002694
X004783
Y002644
X004733
X004683
X004633
X004583
X004533
Y002694
X004583Y002594
X004683
X004733
X0048575Y0027411
X004583Y002794
X004533Y002844
X004583Y002894
X004633
Y002944
Y002994
X004583
Y003044
X004533
X004633Y003094
Y003144
X004583
X004533Y003294
X004583Y003394
Y003444
X0045331Y003492
X004483Y003544
X004418Y0035715
X0043202Y0035712
X004303Y0036466
X0042955Y0034215
X0043555Y0034165
X0042055Y0034065
X0040475Y00365
X0039225Y0039
X0037975Y00415
Y00315
X0040475
X0039225Y0029
X0041305Y002854
X004173Y002854
X0042255Y002824
X004213Y0025865
X004433Y002494
X004653Y002329
X0046855Y002359
X004715Y002201
X004745Y002223
X0051725Y0019
X0052975Y00115
X0054225Y0009
X0056725
X0061725
X0064225
X0066725
X0059225Y0014
X0051725Y0009
X0039225
X0056025Y0025175
X0055955Y002844
X0056405Y0028665
X005433Y003194
X005383Y003244
X005328Y003229
X005433Y003344
Y003394
X005483
Y003294
X0056505Y0034415
X0056475Y0035236
X005283Y003544
X005083
X004933Y003494
X004683
X0071725Y0044
X0072975Y00465
X0070475
X003575Y00466
X0034325Y0045825
X0032975Y00465
X0032375Y00457
X0031725Y0044
X0032975Y00415
X0030475
X0027975
X0029225Y0039
X0031725
X0034225
X0035475Y00365
X0032975
Y00315
X0035475
X0030475
X0027975
X0021725Y0029
X0022975Y00265
X0017975Y00215
X0015475
X0012975
X0011725Y0024
Y0019
X0009225
X0010475Y00165
X0007975
X0005475
X0002975
X0000475
X0001725Y0019
X0000475Y00215
X0001725Y0024
X0006725
X0005475Y00265
X0004225Y0029
X0001725
X0002975Y00315
X0000475
X0001725Y0034
X0004225
X0006725
X0007975Y00365
X0005475
X0006725Y0039
X0007975Y00415
X0010475
X0005475
X0002975
X0001725Y0044
X0012975Y00465
X0016725Y0045575
X0016725Y0044
X0019225
X0017975Y00415
X0019225Y0039
Y0034
X0014225
X0007975Y00315
X0005475Y00215
X0006725Y0014
X0009225
X0011725
X0010475Y00115
X0007975
X0005475
X0002975
X0000475
X0001725Y0014
X0004225
Y0009
X0001725
X0019225
X0021725
X0022975Y00115
X0025475
X0029225Y0009
X0031725
X0034225
X0016725Y0014
X0022975Y00415
Y00465
Y00515
X0021725Y0054
X0019225
X0017975Y00565
X0019225Y0059
X0021725
X0024225
X00262Y0058775
X0026144Y0057744
X0026215Y0057375
X0028882Y0056482
X002925Y0056475
X003145Y0058475
Y00588
X0033075Y00585
X00348Y0059425
Y0061
X00342Y0062775
X0033525Y0062125
X0032825Y006165
X003165
X0028475Y0060375
X00279
X002745Y00608
X002685Y006135
X0026325Y006185
X0026375Y006255
X002705Y0062925
X00277Y0062175
X0025475Y00615
X0024975Y00628
X00234Y0062825
X0020475Y00615
X0019225Y0064
X0016725
X0017975Y00665
X0016725Y0069
Y0059
X0011725
X0009225
X0006725
X0010475Y00565
X0009225Y0054
X0010475Y00515
X0015475
X0017975
X0019225Y0049
X0026275Y004895
Y00498
X00268Y00504
X002755
X0027675Y0048625
X0026775Y0048075
X0027325Y00475
X002835
X00294Y004745
X00303
X0030325Y004885
X0029175
X0028825Y0049175
X0028911Y0051125
X003105Y004965
X003185Y005245
X003225
X003345
X003425
X0034825Y0049625
X003405Y00482
X0033375
X0022975Y00565
X0004225Y0049
X0036325Y0049625
X0037075Y0051325
X003805Y0053825
X0039225Y0054
X0039053Y00555
X003915Y00567
X0036325Y0056075
X0036725Y0064
X0044225
X0046725
X0049225
X0051725
X0054225
X0055475Y00615
X0052975
X0050475
X0047975
X0045475
X0042975
X0044225Y0059
X0046725
X0049225
X0051725
X0054225
X0056725
X0059225
X0060475Y00615
Y00565
X0062975
X0065475
X0067975
X0070475
X0071725Y0059
X0069225
X0070475Y00615
X0072975
X0075475
X0074225Y0064
X0071725
X0069225
X0066725
X0064225
Y0069
X0066725
X0071725
X0074225
X0075475Y00565
Y00515
X0070475
X0071725Y0054
X0067975Y00615
X0064225Y0059
X0059225Y0054
Y0049
X0061725
X0041725
X0039225
X0059225Y0069
X0076725Y0064
X0079225
X0080475Y00615
X0082975
X0085475
Y00665
X0087975
X0089225Y0069
Y0064
X0091725
X0094225
X0096725
X0099225
X0097975Y00665
X0095475
X0096725Y0069
X0099225
X0097975Y00615
X0095475
X0092975
X0094225Y0059
X0096725
X0099225
X0097975Y00565
X0099225Y0054
X0096725
X0097975Y00515
X0099225Y0049
X0096725
X0089225
X0090475Y00515
X0089225Y0054
X0090475Y00565
X0091725Y0059
X0081725
X0080475Y00565
X0076725Y0054
Y0049
X0082975Y00515
X0084225Y0069
M30
