G04 Layer_Color=16711935*
%FSLAX43Y43*%
%MOMM*%
G71*
G01*
G75*
%ADD103C,0.100*%
%ADD113C,1.600*%
%ADD120C,1.400*%
%ADD121C,1.500*%
%ADD149R,8.500X1.750*%
%ADD150R,0.610X0.800*%
%ADD151R,0.800X0.610*%
%ADD152R,0.610X0.660*%
%ADD153R,0.700X0.350*%
%ADD154R,0.660X0.610*%
%ADD156C,0.700*%
%ADD157R,0.990X0.740*%
%ADD159R,1.500X1.100*%
%ADD160R,1.000X0.650*%
%ADD163C,0.354*%
%ADD164R,1.100X0.740*%
%ADD165R,0.740X1.100*%
%ADD166R,0.900X0.900*%
%ADD168R,0.900X1.050*%
%ADD172R,1.500X1.000*%
%ADD173R,0.740X0.990*%
%ADD176C,1.200*%
%ADD192R,1.100X1.500*%
%ADD196R,0.680X0.300*%
%ADD197R,0.680X0.500*%
%ADD211R,0.800X0.300*%
%ADD230C,6.100*%
%ADD231R,1.700X1.700*%
%ADD232C,1.700*%
%ADD233C,3.900*%
%ADD234O,1.700X1.100*%
%ADD235C,2.200*%
%ADD236O,1.400X1.100*%
%ADD237R,1.500X1.500*%
%ADD238C,2.600*%
%ADD239C,3.400*%
%ADD240C,1.950*%
%ADD241R,1.950X1.950*%
%ADD242O,1.300X2.000*%
%ADD243R,0.650X1.000*%
%ADD244R,1.160X0.640*%
%ADD245R,1.116X2.513*%
%ADD246R,1.500X1.880*%
G04:AMPARAMS|DCode=247|XSize=0.66mm|YSize=0.61mm|CornerRadius=0mm|HoleSize=0mm|Usage=FLASHONLY|Rotation=315.000|XOffset=0mm|YOffset=0mm|HoleType=Round|Shape=Rectangle|*
%AMROTATEDRECTD247*
4,1,4,-0.449,0.018,-0.018,0.449,0.449,-0.018,0.018,-0.449,-0.449,0.018,0.0*
%
%ADD247ROTATEDRECTD247*%

G04:AMPARAMS|DCode=248|XSize=0.66mm|YSize=0.61mm|CornerRadius=0mm|HoleSize=0mm|Usage=FLASHONLY|Rotation=45.000|XOffset=0mm|YOffset=0mm|HoleType=Round|Shape=Rectangle|*
%AMROTATEDRECTD248*
4,1,4,-0.018,-0.449,-0.449,-0.018,0.018,0.449,0.449,0.018,-0.018,-0.449,0.0*
%
%ADD248ROTATEDRECTD248*%

%ADD249R,1.700X0.900*%
%ADD250R,3.200X1.300*%
%ADD251R,3.600X1.700*%
%ADD252R,3.600X1.500*%
%ADD253R,3.600X1.600*%
%ADD254R,1.500X2.050*%
%ADD255R,0.640X1.160*%
%ADD256R,0.750X0.350*%
%ADD257R,1.800X3.200*%
%ADD258R,0.700X1.400*%
%ADD259R,1.600X2.250*%
G36*
X36975Y7475D02*
X35875D01*
Y8825D01*
X36425Y8275D01*
Y8275D01*
X36975Y8825D01*
Y7475D01*
D02*
G37*
G36*
X30575Y8925D02*
X30025Y8375D01*
X29475Y8925D01*
Y9625D01*
X30575D01*
Y8925D01*
D02*
G37*
G36*
X31975D02*
X31425Y8375D01*
X30875Y8925D01*
Y9625D01*
X31975D01*
Y8925D01*
D02*
G37*
G36*
X35575Y7475D02*
X34475D01*
Y8825D01*
X35025Y8275D01*
Y8275D01*
X35575Y8825D01*
Y7475D01*
D02*
G37*
G36*
X79041Y-9828D02*
X79089Y-9836D01*
X79130Y-9844D01*
X79166Y-9855D01*
X79197Y-9869D01*
X79219Y-9878D01*
X79233Y-9886D01*
X79239Y-9889D01*
X79277Y-9914D01*
X79311Y-9941D01*
X79341Y-9969D01*
X79366Y-9997D01*
X79386Y-10019D01*
X79402Y-10039D01*
X79411Y-10050D01*
X79414Y-10055D01*
Y-9855D01*
X79625D01*
Y-11249D01*
X79389D01*
Y-10527D01*
X79386Y-10461D01*
X79383Y-10402D01*
X79377Y-10352D01*
X79369Y-10311D01*
X79361Y-10280D01*
X79355Y-10258D01*
X79352Y-10244D01*
X79350Y-10238D01*
X79333Y-10202D01*
X79314Y-10172D01*
X79294Y-10144D01*
X79275Y-10122D01*
X79255Y-10105D01*
X79241Y-10094D01*
X79230Y-10086D01*
X79228Y-10083D01*
X79194Y-10066D01*
X79164Y-10052D01*
X79130Y-10044D01*
X79103Y-10036D01*
X79080Y-10033D01*
X79061Y-10030D01*
X79044D01*
X78997Y-10033D01*
X78958Y-10041D01*
X78925Y-10055D01*
X78900Y-10069D01*
X78880Y-10086D01*
X78867Y-10097D01*
X78858Y-10108D01*
X78855Y-10111D01*
X78836Y-10144D01*
X78822Y-10180D01*
X78811Y-10219D01*
X78806Y-10258D01*
X78800Y-10291D01*
X78797Y-10322D01*
Y-10333D01*
Y-10338D01*
Y-10344D01*
Y-10347D01*
Y-11249D01*
X78561D01*
Y-10441D01*
X78556Y-10366D01*
X78545Y-10302D01*
X78531Y-10250D01*
X78511Y-10205D01*
X78495Y-10172D01*
X78478Y-10150D01*
X78467Y-10136D01*
X78464Y-10130D01*
X78425Y-10097D01*
X78384Y-10072D01*
X78342Y-10055D01*
X78303Y-10041D01*
X78270Y-10036D01*
X78242Y-10033D01*
X78231Y-10030D01*
X78217D01*
X78186Y-10033D01*
X78161Y-10036D01*
X78136Y-10041D01*
X78117Y-10050D01*
X78098Y-10058D01*
X78086Y-10064D01*
X78078Y-10066D01*
X78075Y-10069D01*
X78053Y-10086D01*
X78037Y-10102D01*
X78023Y-10119D01*
X78012Y-10136D01*
X78003Y-10150D01*
X77998Y-10161D01*
X77992Y-10169D01*
Y-10172D01*
X77984Y-10197D01*
X77978Y-10230D01*
X77975Y-10263D01*
X77973Y-10297D01*
X77970Y-10327D01*
Y-10352D01*
Y-10369D01*
Y-10372D01*
Y-10374D01*
Y-11249D01*
X77734D01*
Y-10294D01*
Y-10250D01*
X77739Y-10211D01*
X77745Y-10172D01*
X77751Y-10139D01*
X77759Y-10105D01*
X77770Y-10077D01*
X77778Y-10052D01*
X77789Y-10027D01*
X77801Y-10008D01*
X77809Y-9989D01*
X77828Y-9964D01*
X77839Y-9947D01*
X77845Y-9941D01*
X77889Y-9903D01*
X77942Y-9875D01*
X77995Y-9853D01*
X78045Y-9839D01*
X78092Y-9830D01*
X78111Y-9828D01*
X78131D01*
X78145Y-9825D01*
X78164D01*
X78214Y-9828D01*
X78259Y-9836D01*
X78303Y-9847D01*
X78345Y-9864D01*
X78384Y-9883D01*
X78420Y-9903D01*
X78450Y-9925D01*
X78481Y-9947D01*
X78508Y-9972D01*
X78531Y-9994D01*
X78550Y-10014D01*
X78567Y-10033D01*
X78581Y-10050D01*
X78589Y-10061D01*
X78595Y-10069D01*
X78597Y-10072D01*
X78614Y-10030D01*
X78636Y-9994D01*
X78661Y-9964D01*
X78683Y-9939D01*
X78706Y-9916D01*
X78722Y-9903D01*
X78733Y-9894D01*
X78739Y-9891D01*
X78778Y-9869D01*
X78819Y-9853D01*
X78861Y-9841D01*
X78903Y-9833D01*
X78936Y-9828D01*
X78967Y-9825D01*
X78992D01*
X79041Y-9828D01*
D02*
G37*
G36*
X30575Y7475D02*
X29475D01*
Y8825D01*
X30025Y8275D01*
Y8275D01*
X30575Y8825D01*
Y7475D01*
D02*
G37*
G36*
X31975D02*
X30875D01*
Y8825D01*
X31425Y8275D01*
Y8275D01*
X31975Y8825D01*
Y7475D01*
D02*
G37*
G36*
X79850Y11875D02*
X79300Y11325D01*
X78600D01*
Y12425D01*
X79300D01*
X79850Y11875D01*
D02*
G37*
G36*
X80750Y11325D02*
X79400D01*
X79950Y11875D01*
X79950D01*
X79400Y12425D01*
X80750D01*
Y11325D01*
D02*
G37*
G36*
X66525Y11975D02*
X66525D01*
X67075Y11425D01*
X65725D01*
Y12525D01*
X67075D01*
X66525Y11975D01*
D02*
G37*
G36*
X67875Y9575D02*
X67175D01*
X66625Y10125D01*
X67175Y10675D01*
X67875D01*
Y9575D01*
D02*
G37*
G36*
X35575Y8925D02*
X35025Y8375D01*
X34475Y8925D01*
Y9625D01*
X35575D01*
Y8925D01*
D02*
G37*
G36*
X36975D02*
X36425Y8375D01*
X35875Y8925D01*
Y9625D01*
X36975D01*
Y8925D01*
D02*
G37*
G36*
X66525Y10125D02*
X66525D01*
X67075Y9575D01*
X65725D01*
Y10675D01*
X67075D01*
X66525Y10125D01*
D02*
G37*
G36*
X82570Y-9511D02*
Y-9855D01*
X82745D01*
Y-10039D01*
X82570D01*
Y-10844D01*
Y-10883D01*
Y-10916D01*
X82567Y-10946D01*
X82565Y-10977D01*
Y-11002D01*
X82562Y-11024D01*
X82556Y-11060D01*
X82551Y-11088D01*
X82548Y-11107D01*
X82542Y-11119D01*
Y-11121D01*
X82531Y-11146D01*
X82515Y-11166D01*
X82498Y-11185D01*
X82484Y-11199D01*
X82467Y-11213D01*
X82456Y-11221D01*
X82448Y-11227D01*
X82445Y-11230D01*
X82415Y-11243D01*
X82384Y-11252D01*
X82351Y-11260D01*
X82317Y-11263D01*
X82290Y-11266D01*
X82267Y-11268D01*
X82245D01*
X82184Y-11266D01*
X82154Y-11263D01*
X82126Y-11257D01*
X82101Y-11255D01*
X82081Y-11252D01*
X82070Y-11249D01*
X82065D01*
X82095Y-11041D01*
X82118Y-11044D01*
X82140Y-11046D01*
X82159D01*
X82173Y-11049D01*
X82201D01*
X82237Y-11046D01*
X82262Y-11041D01*
X82276Y-11035D01*
X82281Y-11032D01*
X82301Y-11019D01*
X82312Y-11005D01*
X82320Y-10994D01*
X82323Y-10988D01*
X82326Y-10974D01*
X82329Y-10955D01*
X82331Y-10910D01*
X82334Y-10891D01*
Y-10874D01*
Y-10863D01*
Y-10858D01*
Y-10039D01*
X82095D01*
Y-9855D01*
X82334D01*
Y-9370D01*
X82570Y-9511D01*
D02*
G37*
G36*
X76018Y-9297D02*
X76082Y-9306D01*
X76143Y-9317D01*
X76196Y-9328D01*
X76238Y-9339D01*
X76257Y-9345D01*
X76271Y-9350D01*
X76282Y-9356D01*
X76290Y-9358D01*
X76296Y-9361D01*
X76299D01*
X76354Y-9389D01*
X76404Y-9419D01*
X76446Y-9453D01*
X76479Y-9483D01*
X76504Y-9511D01*
X76523Y-9533D01*
X76537Y-9550D01*
X76540Y-9553D01*
Y-9556D01*
X76568Y-9603D01*
X76587Y-9650D01*
X76601Y-9697D01*
X76610Y-9739D01*
X76615Y-9775D01*
X76621Y-9803D01*
Y-9814D01*
Y-9822D01*
Y-9825D01*
Y-9828D01*
X76618Y-9875D01*
X76610Y-9919D01*
X76598Y-9961D01*
X76587Y-9997D01*
X76576Y-10025D01*
X76565Y-10047D01*
X76557Y-10061D01*
X76554Y-10066D01*
X76526Y-10105D01*
X76493Y-10141D01*
X76460Y-10172D01*
X76426Y-10197D01*
X76399Y-10219D01*
X76374Y-10233D01*
X76357Y-10244D01*
X76354Y-10247D01*
X76351D01*
X76329Y-10258D01*
X76304Y-10269D01*
X76249Y-10288D01*
X76185Y-10308D01*
X76124Y-10327D01*
X76068Y-10344D01*
X76043Y-10350D01*
X76021Y-10355D01*
X76004Y-10361D01*
X75990Y-10363D01*
X75982Y-10366D01*
X75979D01*
X75932Y-10377D01*
X75888Y-10388D01*
X75849Y-10399D01*
X75816Y-10408D01*
X75782Y-10416D01*
X75754Y-10424D01*
X75729Y-10430D01*
X75710Y-10438D01*
X75691Y-10444D01*
X75677Y-10447D01*
X75655Y-10455D01*
X75641Y-10458D01*
X75638Y-10461D01*
X75596Y-10477D01*
X75560Y-10497D01*
X75530Y-10516D01*
X75507Y-10533D01*
X75488Y-10549D01*
X75477Y-10561D01*
X75469Y-10569D01*
X75466Y-10572D01*
X75446Y-10597D01*
X75432Y-10624D01*
X75424Y-10652D01*
X75416Y-10674D01*
X75413Y-10697D01*
X75410Y-10713D01*
Y-10727D01*
Y-10730D01*
X75413Y-10763D01*
X75419Y-10794D01*
X75427Y-10821D01*
X75438Y-10844D01*
X75449Y-10866D01*
X75457Y-10880D01*
X75463Y-10891D01*
X75466Y-10894D01*
X75488Y-10921D01*
X75516Y-10944D01*
X75543Y-10963D01*
X75568Y-10982D01*
X75593Y-10994D01*
X75613Y-11005D01*
X75627Y-11010D01*
X75632Y-11013D01*
X75674Y-11027D01*
X75718Y-11038D01*
X75763Y-11044D01*
X75802Y-11049D01*
X75835Y-11052D01*
X75863Y-11055D01*
X75888D01*
X75949Y-11052D01*
X76004Y-11046D01*
X76054Y-11038D01*
X76099Y-11027D01*
X76135Y-11016D01*
X76163Y-11007D01*
X76171Y-11005D01*
X76179Y-11002D01*
X76182Y-10999D01*
X76185D01*
X76229Y-10977D01*
X76271Y-10952D01*
X76301Y-10927D01*
X76329Y-10902D01*
X76351Y-10883D01*
X76365Y-10863D01*
X76374Y-10852D01*
X76376Y-10849D01*
X76396Y-10813D01*
X76415Y-10774D01*
X76426Y-10733D01*
X76437Y-10697D01*
X76446Y-10660D01*
X76451Y-10635D01*
Y-10624D01*
X76454Y-10616D01*
Y-10613D01*
Y-10610D01*
X76693Y-10633D01*
X76687Y-10702D01*
X76676Y-10769D01*
X76660Y-10827D01*
X76640Y-10880D01*
X76621Y-10921D01*
X76612Y-10938D01*
X76607Y-10952D01*
X76598Y-10963D01*
X76596Y-10971D01*
X76590Y-10977D01*
Y-10980D01*
X76548Y-11032D01*
X76504Y-11080D01*
X76457Y-11119D01*
X76412Y-11152D01*
X76374Y-11177D01*
X76340Y-11193D01*
X76329Y-11199D01*
X76321Y-11205D01*
X76315Y-11207D01*
X76312D01*
X76243Y-11232D01*
X76171Y-11252D01*
X76099Y-11263D01*
X76029Y-11274D01*
X75996Y-11277D01*
X75968Y-11280D01*
X75943D01*
X75921Y-11282D01*
X75877D01*
X75802Y-11280D01*
X75732Y-11271D01*
X75668Y-11257D01*
X75616Y-11243D01*
X75571Y-11232D01*
X75552Y-11224D01*
X75535Y-11218D01*
X75524Y-11213D01*
X75516Y-11210D01*
X75510Y-11207D01*
X75507D01*
X75449Y-11177D01*
X75399Y-11144D01*
X75355Y-11107D01*
X75319Y-11074D01*
X75291Y-11046D01*
X75271Y-11021D01*
X75258Y-11005D01*
X75255Y-11002D01*
Y-10999D01*
X75224Y-10946D01*
X75202Y-10896D01*
X75188Y-10849D01*
X75177Y-10805D01*
X75171Y-10766D01*
X75166Y-10735D01*
Y-10724D01*
Y-10716D01*
Y-10713D01*
Y-10710D01*
X75169Y-10655D01*
X75177Y-10602D01*
X75191Y-10555D01*
X75205Y-10516D01*
X75221Y-10483D01*
X75233Y-10458D01*
X75244Y-10444D01*
X75246Y-10438D01*
X75280Y-10397D01*
X75319Y-10358D01*
X75360Y-10325D01*
X75402Y-10294D01*
X75438Y-10272D01*
X75469Y-10255D01*
X75480Y-10250D01*
X75488Y-10244D01*
X75493Y-10241D01*
X75496D01*
X75518Y-10230D01*
X75546Y-10222D01*
X75577Y-10211D01*
X75610Y-10200D01*
X75679Y-10180D01*
X75752Y-10161D01*
X75785Y-10152D01*
X75816Y-10144D01*
X75846Y-10136D01*
X75871Y-10130D01*
X75890Y-10125D01*
X75907Y-10122D01*
X75918Y-10119D01*
X75921D01*
X75977Y-10105D01*
X76027Y-10094D01*
X76071Y-10080D01*
X76110Y-10069D01*
X76146Y-10055D01*
X76176Y-10044D01*
X76204Y-10033D01*
X76229Y-10025D01*
X76249Y-10014D01*
X76265Y-10005D01*
X76276Y-10000D01*
X76287Y-9991D01*
X76301Y-9983D01*
X76304Y-9980D01*
X76329Y-9953D01*
X76346Y-9925D01*
X76360Y-9897D01*
X76368Y-9869D01*
X76374Y-9847D01*
X76376Y-9828D01*
Y-9816D01*
Y-9811D01*
X76371Y-9767D01*
X76360Y-9728D01*
X76343Y-9694D01*
X76324Y-9664D01*
X76307Y-9642D01*
X76290Y-9622D01*
X76279Y-9611D01*
X76274Y-9608D01*
X76251Y-9594D01*
X76229Y-9580D01*
X76176Y-9558D01*
X76121Y-9544D01*
X76065Y-9533D01*
X76015Y-9528D01*
X75993Y-9525D01*
X75977Y-9522D01*
X75938D01*
X75860Y-9525D01*
X75791Y-9536D01*
X75735Y-9553D01*
X75688Y-9569D01*
X75652Y-9586D01*
X75624Y-9603D01*
X75610Y-9614D01*
X75605Y-9617D01*
X75566Y-9655D01*
X75535Y-9697D01*
X75510Y-9742D01*
X75493Y-9786D01*
X75482Y-9828D01*
X75474Y-9858D01*
X75471Y-9872D01*
X75469Y-9880D01*
Y-9886D01*
Y-9889D01*
X75224Y-9869D01*
X75230Y-9808D01*
X75244Y-9753D01*
X75258Y-9700D01*
X75277Y-9655D01*
X75294Y-9619D01*
X75307Y-9592D01*
X75313Y-9583D01*
X75319Y-9575D01*
X75321Y-9572D01*
Y-9569D01*
X75357Y-9522D01*
X75396Y-9481D01*
X75438Y-9444D01*
X75480Y-9417D01*
X75516Y-9392D01*
X75543Y-9378D01*
X75555Y-9372D01*
X75563Y-9367D01*
X75568Y-9364D01*
X75571D01*
X75632Y-9342D01*
X75699Y-9325D01*
X75760Y-9311D01*
X75818Y-9303D01*
X75871Y-9297D01*
X75890D01*
X75910Y-9295D01*
X75946D01*
X76018Y-9297D01*
D02*
G37*
G36*
X71873Y-10016D02*
X71898Y-9986D01*
X71926Y-9961D01*
X71951Y-9936D01*
X71979Y-9916D01*
X72001Y-9903D01*
X72018Y-9889D01*
X72029Y-9883D01*
X72034Y-9880D01*
X72070Y-9861D01*
X72109Y-9847D01*
X72148Y-9839D01*
X72184Y-9830D01*
X72215Y-9828D01*
X72237Y-9825D01*
X72259D01*
X72320Y-9828D01*
X72379Y-9839D01*
X72431Y-9853D01*
X72476Y-9869D01*
X72515Y-9889D01*
X72542Y-9903D01*
X72553Y-9908D01*
X72562Y-9914D01*
X72565Y-9916D01*
X72567D01*
X72617Y-9953D01*
X72659Y-9997D01*
X72695Y-10039D01*
X72723Y-10080D01*
X72745Y-10119D01*
X72762Y-10150D01*
X72767Y-10161D01*
X72773Y-10169D01*
X72776Y-10175D01*
Y-10177D01*
X72798Y-10241D01*
X72814Y-10308D01*
X72828Y-10372D01*
X72837Y-10430D01*
X72842Y-10480D01*
Y-10502D01*
X72845Y-10519D01*
Y-10536D01*
Y-10547D01*
Y-10552D01*
Y-10555D01*
X72842Y-10633D01*
X72834Y-10705D01*
X72820Y-10769D01*
X72806Y-10824D01*
X72801Y-10849D01*
X72795Y-10869D01*
X72787Y-10888D01*
X72781Y-10905D01*
X72776Y-10916D01*
X72773Y-10924D01*
X72770Y-10930D01*
Y-10933D01*
X72739Y-10991D01*
X72703Y-11041D01*
X72667Y-11085D01*
X72631Y-11121D01*
X72601Y-11149D01*
X72576Y-11171D01*
X72559Y-11182D01*
X72556Y-11188D01*
X72553D01*
X72501Y-11218D01*
X72448Y-11241D01*
X72395Y-11257D01*
X72348Y-11268D01*
X72309Y-11274D01*
X72276Y-11277D01*
X72265Y-11280D01*
X72248D01*
X72201Y-11277D01*
X72156Y-11271D01*
X72115Y-11260D01*
X72079Y-11246D01*
X72043Y-11232D01*
X72009Y-11216D01*
X71982Y-11196D01*
X71957Y-11177D01*
X71932Y-11157D01*
X71912Y-11138D01*
X71896Y-11121D01*
X71882Y-11107D01*
X71871Y-11094D01*
X71862Y-11082D01*
X71859Y-11077D01*
X71857Y-11074D01*
Y-11249D01*
X71637D01*
Y-9328D01*
X71873D01*
Y-10016D01*
D02*
G37*
G36*
X74330Y-9828D02*
X74375Y-9830D01*
X74461Y-9850D01*
X74536Y-9875D01*
X74569Y-9889D01*
X74600Y-9903D01*
X74627Y-9916D01*
X74650Y-9930D01*
X74672Y-9944D01*
X74688Y-9955D01*
X74702Y-9966D01*
X74713Y-9975D01*
X74719Y-9977D01*
X74722Y-9980D01*
X74761Y-10016D01*
X74791Y-10058D01*
X74822Y-10102D01*
X74844Y-10147D01*
X74866Y-10194D01*
X74883Y-10244D01*
X74897Y-10291D01*
X74908Y-10336D01*
X74919Y-10380D01*
X74924Y-10419D01*
X74930Y-10458D01*
X74933Y-10488D01*
Y-10516D01*
X74935Y-10536D01*
Y-10547D01*
Y-10552D01*
X74933Y-10616D01*
X74927Y-10677D01*
X74919Y-10733D01*
X74908Y-10785D01*
X74894Y-10833D01*
X74880Y-10877D01*
X74863Y-10919D01*
X74847Y-10955D01*
X74830Y-10988D01*
X74813Y-11016D01*
X74799Y-11038D01*
X74786Y-11057D01*
X74774Y-11074D01*
X74766Y-11085D01*
X74761Y-11091D01*
X74758Y-11094D01*
X74722Y-11127D01*
X74686Y-11155D01*
X74647Y-11180D01*
X74608Y-11202D01*
X74569Y-11218D01*
X74527Y-11235D01*
X74452Y-11257D01*
X74419Y-11263D01*
X74386Y-11268D01*
X74358Y-11274D01*
X74333Y-11277D01*
X74311Y-11280D01*
X74283D01*
X74216Y-11277D01*
X74155Y-11266D01*
X74097Y-11252D01*
X74050Y-11238D01*
X74008Y-11221D01*
X73992Y-11216D01*
X73978Y-11210D01*
X73964Y-11205D01*
X73955Y-11199D01*
X73953Y-11196D01*
X73950D01*
X73894Y-11160D01*
X73847Y-11121D01*
X73806Y-11082D01*
X73772Y-11044D01*
X73747Y-11010D01*
X73728Y-10982D01*
X73722Y-10971D01*
X73717Y-10963D01*
X73714Y-10960D01*
Y-10958D01*
X73686Y-10894D01*
X73667Y-10824D01*
X73650Y-10755D01*
X73642Y-10685D01*
X73636Y-10655D01*
Y-10627D01*
X73633Y-10599D01*
X73631Y-10577D01*
Y-10558D01*
Y-10544D01*
Y-10536D01*
Y-10533D01*
X73633Y-10472D01*
X73639Y-10416D01*
X73647Y-10363D01*
X73658Y-10313D01*
X73672Y-10266D01*
X73689Y-10225D01*
X73706Y-10183D01*
X73722Y-10150D01*
X73739Y-10119D01*
X73756Y-10091D01*
X73772Y-10066D01*
X73786Y-10047D01*
X73797Y-10033D01*
X73806Y-10022D01*
X73811Y-10016D01*
X73814Y-10014D01*
X73850Y-9980D01*
X73886Y-9953D01*
X73925Y-9925D01*
X73964Y-9905D01*
X74003Y-9886D01*
X74042Y-9872D01*
X74116Y-9847D01*
X74153Y-9841D01*
X74183Y-9836D01*
X74211Y-9830D01*
X74236Y-9828D01*
X74255Y-9825D01*
X74283D01*
X74330Y-9828D01*
D02*
G37*
G36*
X43058Y-9300D02*
X43155Y-9314D01*
X43199Y-9322D01*
X43241Y-9333D01*
X43280Y-9342D01*
X43316Y-9353D01*
X43349Y-9364D01*
X43377Y-9375D01*
X43402Y-9386D01*
X43424Y-9394D01*
X43441Y-9403D01*
X43452Y-9408D01*
X43460Y-9411D01*
X43463Y-9414D01*
X43502Y-9439D01*
X43541Y-9464D01*
X43608Y-9522D01*
X43666Y-9580D01*
X43713Y-9642D01*
X43752Y-9694D01*
X43766Y-9717D01*
X43777Y-9739D01*
X43788Y-9755D01*
X43794Y-9767D01*
X43796Y-9775D01*
X43799Y-9778D01*
X43838Y-9869D01*
X43866Y-9961D01*
X43888Y-10050D01*
X43893Y-10091D01*
X43902Y-10130D01*
X43905Y-10166D01*
X43910Y-10197D01*
X43913Y-10227D01*
Y-10252D01*
X43916Y-10272D01*
Y-10286D01*
Y-10297D01*
Y-10300D01*
X43910Y-10402D01*
X43896Y-10499D01*
X43888Y-10544D01*
X43880Y-10585D01*
X43868Y-10627D01*
X43857Y-10663D01*
X43846Y-10697D01*
X43835Y-10724D01*
X43827Y-10752D01*
X43819Y-10771D01*
X43810Y-10791D01*
X43805Y-10802D01*
X43799Y-10810D01*
Y-10813D01*
X43749Y-10894D01*
X43694Y-10963D01*
X43635Y-11024D01*
X43580Y-11074D01*
X43527Y-11113D01*
X43508Y-11127D01*
X43488Y-11141D01*
X43472Y-11149D01*
X43460Y-11157D01*
X43452Y-11160D01*
X43449Y-11163D01*
X43405Y-11185D01*
X43360Y-11202D01*
X43272Y-11232D01*
X43186Y-11252D01*
X43105Y-11268D01*
X43069Y-11271D01*
X43036Y-11277D01*
X43005Y-11280D01*
X42980D01*
X42961Y-11282D01*
X42933D01*
X42855Y-11280D01*
X42780Y-11271D01*
X42711Y-11257D01*
X42650Y-11243D01*
X42625Y-11238D01*
X42600Y-11232D01*
X42578Y-11224D01*
X42558Y-11218D01*
X42544Y-11213D01*
X42533Y-11210D01*
X42528Y-11207D01*
X42525D01*
X42450Y-11177D01*
X42380Y-11141D01*
X42314Y-11102D01*
X42256Y-11066D01*
X42231Y-11049D01*
X42206Y-11032D01*
X42186Y-11019D01*
X42169Y-11007D01*
X42156Y-10996D01*
X42144Y-10988D01*
X42139Y-10985D01*
X42136Y-10982D01*
Y-10269D01*
X42952D01*
Y-10497D01*
X42386D01*
Y-10858D01*
X42419Y-10885D01*
X42458Y-10910D01*
X42500Y-10933D01*
X42539Y-10952D01*
X42572Y-10969D01*
X42603Y-10982D01*
X42614Y-10988D01*
X42619Y-10991D01*
X42625Y-10994D01*
X42628D01*
X42686Y-11013D01*
X42744Y-11030D01*
X42797Y-11041D01*
X42847Y-11046D01*
X42888Y-11052D01*
X42905D01*
X42922Y-11055D01*
X42950D01*
X43019Y-11052D01*
X43086Y-11041D01*
X43147Y-11027D01*
X43202Y-11013D01*
X43247Y-10996D01*
X43266Y-10991D01*
X43280Y-10985D01*
X43294Y-10980D01*
X43302Y-10974D01*
X43308Y-10971D01*
X43310D01*
X43369Y-10935D01*
X43422Y-10896D01*
X43466Y-10855D01*
X43502Y-10813D01*
X43533Y-10774D01*
X43552Y-10744D01*
X43560Y-10733D01*
X43563Y-10724D01*
X43569Y-10719D01*
Y-10716D01*
X43596Y-10647D01*
X43619Y-10574D01*
X43633Y-10502D01*
X43644Y-10433D01*
X43646Y-10402D01*
X43649Y-10374D01*
X43652Y-10347D01*
Y-10325D01*
X43655Y-10308D01*
Y-10294D01*
Y-10286D01*
Y-10283D01*
X43652Y-10205D01*
X43644Y-10136D01*
X43633Y-10069D01*
X43619Y-10011D01*
X43613Y-9986D01*
X43605Y-9964D01*
X43599Y-9944D01*
X43594Y-9928D01*
X43588Y-9914D01*
X43585Y-9905D01*
X43583Y-9900D01*
Y-9897D01*
X43563Y-9858D01*
X43544Y-9822D01*
X43524Y-9789D01*
X43505Y-9761D01*
X43488Y-9739D01*
X43474Y-9719D01*
X43463Y-9708D01*
X43460Y-9705D01*
X43430Y-9675D01*
X43397Y-9647D01*
X43360Y-9625D01*
X43327Y-9603D01*
X43299Y-9589D01*
X43277Y-9575D01*
X43261Y-9569D01*
X43255Y-9567D01*
X43205Y-9547D01*
X43155Y-9533D01*
X43102Y-9525D01*
X43055Y-9517D01*
X43013Y-9514D01*
X42997D01*
X42983Y-9511D01*
X42952D01*
X42900Y-9514D01*
X42850Y-9519D01*
X42805Y-9528D01*
X42766Y-9536D01*
X42733Y-9547D01*
X42708Y-9556D01*
X42694Y-9561D01*
X42689Y-9564D01*
X42647Y-9583D01*
X42611Y-9605D01*
X42578Y-9628D01*
X42553Y-9650D01*
X42533Y-9669D01*
X42516Y-9683D01*
X42508Y-9694D01*
X42505Y-9697D01*
X42480Y-9730D01*
X42461Y-9769D01*
X42442Y-9805D01*
X42425Y-9844D01*
X42414Y-9878D01*
X42405Y-9903D01*
X42403Y-9914D01*
X42400Y-9922D01*
X42397Y-9925D01*
Y-9928D01*
X42167Y-9866D01*
X42186Y-9797D01*
X42211Y-9736D01*
X42236Y-9680D01*
X42258Y-9636D01*
X42280Y-9600D01*
X42297Y-9575D01*
X42308Y-9558D01*
X42314Y-9553D01*
X42353Y-9508D01*
X42394Y-9472D01*
X42439Y-9439D01*
X42480Y-9411D01*
X42519Y-9392D01*
X42550Y-9375D01*
X42561Y-9370D01*
X42569Y-9367D01*
X42575Y-9364D01*
X42578D01*
X42641Y-9342D01*
X42708Y-9325D01*
X42769Y-9311D01*
X42827Y-9303D01*
X42880Y-9297D01*
X42902D01*
X42919Y-9295D01*
X43008D01*
X43058Y-9300D01*
D02*
G37*
G36*
X39382Y-9297D02*
X39446Y-9306D01*
X39507Y-9317D01*
X39560Y-9328D01*
X39601Y-9339D01*
X39621Y-9345D01*
X39635Y-9350D01*
X39646Y-9356D01*
X39654Y-9358D01*
X39660Y-9361D01*
X39663D01*
X39718Y-9389D01*
X39768Y-9419D01*
X39810Y-9453D01*
X39843Y-9483D01*
X39868Y-9511D01*
X39887Y-9533D01*
X39901Y-9550D01*
X39904Y-9553D01*
Y-9556D01*
X39932Y-9603D01*
X39951Y-9650D01*
X39965Y-9697D01*
X39973Y-9739D01*
X39979Y-9775D01*
X39985Y-9803D01*
Y-9814D01*
Y-9822D01*
Y-9825D01*
Y-9828D01*
X39982Y-9875D01*
X39973Y-9919D01*
X39962Y-9961D01*
X39951Y-9997D01*
X39940Y-10025D01*
X39929Y-10047D01*
X39921Y-10061D01*
X39918Y-10066D01*
X39890Y-10105D01*
X39857Y-10141D01*
X39824Y-10172D01*
X39790Y-10197D01*
X39762Y-10219D01*
X39737Y-10233D01*
X39721Y-10244D01*
X39718Y-10247D01*
X39715D01*
X39693Y-10258D01*
X39668Y-10269D01*
X39613Y-10288D01*
X39549Y-10308D01*
X39488Y-10327D01*
X39432Y-10344D01*
X39407Y-10350D01*
X39385Y-10355D01*
X39368Y-10361D01*
X39354Y-10363D01*
X39346Y-10366D01*
X39343D01*
X39296Y-10377D01*
X39252Y-10388D01*
X39213Y-10399D01*
X39179Y-10408D01*
X39146Y-10416D01*
X39118Y-10424D01*
X39093Y-10430D01*
X39074Y-10438D01*
X39055Y-10444D01*
X39041Y-10447D01*
X39018Y-10455D01*
X39005Y-10458D01*
X39002Y-10461D01*
X38960Y-10477D01*
X38924Y-10497D01*
X38894Y-10516D01*
X38871Y-10533D01*
X38852Y-10549D01*
X38841Y-10561D01*
X38832Y-10569D01*
X38830Y-10572D01*
X38810Y-10597D01*
X38796Y-10624D01*
X38788Y-10652D01*
X38780Y-10674D01*
X38777Y-10697D01*
X38774Y-10713D01*
Y-10727D01*
Y-10730D01*
X38777Y-10763D01*
X38782Y-10794D01*
X38791Y-10821D01*
X38802Y-10844D01*
X38813Y-10866D01*
X38821Y-10880D01*
X38827Y-10891D01*
X38830Y-10894D01*
X38852Y-10921D01*
X38880Y-10944D01*
X38907Y-10963D01*
X38932Y-10982D01*
X38957Y-10994D01*
X38977Y-11005D01*
X38991Y-11010D01*
X38996Y-11013D01*
X39038Y-11027D01*
X39082Y-11038D01*
X39127Y-11044D01*
X39166Y-11049D01*
X39199Y-11052D01*
X39227Y-11055D01*
X39252D01*
X39313Y-11052D01*
X39368Y-11046D01*
X39418Y-11038D01*
X39463Y-11027D01*
X39499Y-11016D01*
X39526Y-11007D01*
X39535Y-11005D01*
X39543Y-11002D01*
X39546Y-10999D01*
X39549D01*
X39593Y-10977D01*
X39635Y-10952D01*
X39665Y-10927D01*
X39693Y-10902D01*
X39715Y-10883D01*
X39729Y-10863D01*
X39737Y-10852D01*
X39740Y-10849D01*
X39760Y-10813D01*
X39779Y-10774D01*
X39790Y-10733D01*
X39801Y-10697D01*
X39810Y-10660D01*
X39815Y-10635D01*
Y-10624D01*
X39818Y-10616D01*
Y-10613D01*
Y-10610D01*
X40057Y-10633D01*
X40051Y-10702D01*
X40040Y-10769D01*
X40023Y-10827D01*
X40004Y-10880D01*
X39985Y-10921D01*
X39976Y-10938D01*
X39971Y-10952D01*
X39962Y-10963D01*
X39960Y-10971D01*
X39954Y-10977D01*
Y-10980D01*
X39912Y-11032D01*
X39868Y-11080D01*
X39821Y-11119D01*
X39776Y-11152D01*
X39737Y-11177D01*
X39704Y-11193D01*
X39693Y-11199D01*
X39685Y-11205D01*
X39679Y-11207D01*
X39676D01*
X39607Y-11232D01*
X39535Y-11252D01*
X39463Y-11263D01*
X39393Y-11274D01*
X39360Y-11277D01*
X39332Y-11280D01*
X39307D01*
X39285Y-11282D01*
X39241D01*
X39166Y-11280D01*
X39096Y-11271D01*
X39032Y-11257D01*
X38980Y-11243D01*
X38935Y-11232D01*
X38916Y-11224D01*
X38899Y-11218D01*
X38888Y-11213D01*
X38880Y-11210D01*
X38874Y-11207D01*
X38871D01*
X38813Y-11177D01*
X38763Y-11144D01*
X38719Y-11107D01*
X38683Y-11074D01*
X38655Y-11046D01*
X38635Y-11021D01*
X38621Y-11005D01*
X38619Y-11002D01*
Y-10999D01*
X38588Y-10946D01*
X38566Y-10896D01*
X38552Y-10849D01*
X38541Y-10805D01*
X38535Y-10766D01*
X38530Y-10735D01*
Y-10724D01*
Y-10716D01*
Y-10713D01*
Y-10710D01*
X38533Y-10655D01*
X38541Y-10602D01*
X38555Y-10555D01*
X38569Y-10516D01*
X38585Y-10483D01*
X38596Y-10458D01*
X38608Y-10444D01*
X38610Y-10438D01*
X38644Y-10397D01*
X38683Y-10358D01*
X38724Y-10325D01*
X38766Y-10294D01*
X38802Y-10272D01*
X38832Y-10255D01*
X38844Y-10250D01*
X38852Y-10244D01*
X38857Y-10241D01*
X38860D01*
X38882Y-10230D01*
X38910Y-10222D01*
X38941Y-10211D01*
X38974Y-10200D01*
X39043Y-10180D01*
X39116Y-10161D01*
X39149Y-10152D01*
X39179Y-10144D01*
X39210Y-10136D01*
X39235Y-10130D01*
X39254Y-10125D01*
X39271Y-10122D01*
X39282Y-10119D01*
X39285D01*
X39340Y-10105D01*
X39390Y-10094D01*
X39435Y-10080D01*
X39474Y-10069D01*
X39510Y-10055D01*
X39540Y-10044D01*
X39568Y-10033D01*
X39593Y-10025D01*
X39613Y-10014D01*
X39629Y-10005D01*
X39640Y-10000D01*
X39651Y-9991D01*
X39665Y-9983D01*
X39668Y-9980D01*
X39693Y-9953D01*
X39710Y-9925D01*
X39724Y-9897D01*
X39732Y-9869D01*
X39737Y-9847D01*
X39740Y-9828D01*
Y-9816D01*
Y-9811D01*
X39735Y-9767D01*
X39724Y-9728D01*
X39707Y-9694D01*
X39688Y-9664D01*
X39671Y-9642D01*
X39654Y-9622D01*
X39643Y-9611D01*
X39638Y-9608D01*
X39615Y-9594D01*
X39593Y-9580D01*
X39540Y-9558D01*
X39485Y-9544D01*
X39429Y-9533D01*
X39379Y-9528D01*
X39357Y-9525D01*
X39340Y-9522D01*
X39302D01*
X39224Y-9525D01*
X39154Y-9536D01*
X39099Y-9553D01*
X39052Y-9569D01*
X39016Y-9586D01*
X38988Y-9603D01*
X38974Y-9614D01*
X38968Y-9617D01*
X38930Y-9655D01*
X38899Y-9697D01*
X38874Y-9742D01*
X38857Y-9786D01*
X38846Y-9828D01*
X38838Y-9858D01*
X38835Y-9872D01*
X38832Y-9880D01*
Y-9886D01*
Y-9889D01*
X38588Y-9869D01*
X38594Y-9808D01*
X38608Y-9753D01*
X38621Y-9700D01*
X38641Y-9655D01*
X38658Y-9619D01*
X38671Y-9592D01*
X38677Y-9583D01*
X38683Y-9575D01*
X38685Y-9572D01*
Y-9569D01*
X38721Y-9522D01*
X38760Y-9481D01*
X38802Y-9444D01*
X38844Y-9417D01*
X38880Y-9392D01*
X38907Y-9378D01*
X38918Y-9372D01*
X38927Y-9367D01*
X38932Y-9364D01*
X38935D01*
X38996Y-9342D01*
X39063Y-9325D01*
X39124Y-9311D01*
X39182Y-9303D01*
X39235Y-9297D01*
X39254D01*
X39274Y-9295D01*
X39310D01*
X39382Y-9297D01*
D02*
G37*
G36*
X41772Y-11249D02*
X41040D01*
X40973Y-11246D01*
X40915Y-11243D01*
X40862Y-11238D01*
X40817Y-11232D01*
X40781Y-11227D01*
X40754Y-11224D01*
X40737Y-11218D01*
X40731D01*
X40684Y-11205D01*
X40645Y-11191D01*
X40609Y-11174D01*
X40579Y-11157D01*
X40554Y-11146D01*
X40534Y-11135D01*
X40523Y-11127D01*
X40520Y-11124D01*
X40490Y-11099D01*
X40462Y-11069D01*
X40440Y-11038D01*
X40418Y-11010D01*
X40401Y-10982D01*
X40390Y-10963D01*
X40382Y-10949D01*
X40379Y-10944D01*
X40359Y-10899D01*
X40345Y-10855D01*
X40334Y-10813D01*
X40329Y-10774D01*
X40323Y-10741D01*
X40320Y-10713D01*
Y-10697D01*
Y-10694D01*
Y-10691D01*
X40323Y-10630D01*
X40334Y-10574D01*
X40351Y-10527D01*
X40368Y-10483D01*
X40384Y-10449D01*
X40401Y-10424D01*
X40412Y-10408D01*
X40415Y-10402D01*
X40454Y-10358D01*
X40495Y-10322D01*
X40543Y-10291D01*
X40584Y-10266D01*
X40623Y-10247D01*
X40656Y-10236D01*
X40668Y-10230D01*
X40676Y-10227D01*
X40681Y-10225D01*
X40684D01*
X40637Y-10197D01*
X40595Y-10169D01*
X40562Y-10139D01*
X40534Y-10111D01*
X40512Y-10089D01*
X40495Y-10066D01*
X40487Y-10055D01*
X40484Y-10050D01*
X40462Y-10008D01*
X40445Y-9969D01*
X40432Y-9930D01*
X40423Y-9894D01*
X40418Y-9864D01*
X40415Y-9839D01*
Y-9825D01*
Y-9819D01*
X40418Y-9772D01*
X40426Y-9725D01*
X40440Y-9683D01*
X40454Y-9644D01*
X40468Y-9611D01*
X40482Y-9589D01*
X40490Y-9572D01*
X40493Y-9567D01*
X40523Y-9525D01*
X40556Y-9486D01*
X40593Y-9456D01*
X40626Y-9431D01*
X40654Y-9411D01*
X40679Y-9397D01*
X40695Y-9389D01*
X40698Y-9386D01*
X40701D01*
X40754Y-9367D01*
X40812Y-9353D01*
X40870Y-9342D01*
X40926Y-9336D01*
X40976Y-9331D01*
X40998D01*
X41017Y-9328D01*
X41772D01*
Y-11249D01*
D02*
G37*
G36*
X44560D02*
X44290D01*
Y-10980D01*
X44560D01*
Y-11249D01*
D02*
G37*
G36*
X85874D02*
X85141D01*
X85074Y-11246D01*
X85016Y-11243D01*
X84963Y-11238D01*
X84919Y-11232D01*
X84883Y-11227D01*
X84855Y-11224D01*
X84838Y-11218D01*
X84833D01*
X84785Y-11205D01*
X84747Y-11191D01*
X84711Y-11174D01*
X84680Y-11157D01*
X84655Y-11146D01*
X84636Y-11135D01*
X84624Y-11127D01*
X84622Y-11124D01*
X84591Y-11099D01*
X84563Y-11069D01*
X84541Y-11038D01*
X84519Y-11010D01*
X84502Y-10982D01*
X84491Y-10963D01*
X84483Y-10949D01*
X84480Y-10944D01*
X84461Y-10899D01*
X84447Y-10855D01*
X84436Y-10813D01*
X84430Y-10774D01*
X84425Y-10741D01*
X84422Y-10713D01*
Y-10697D01*
Y-10694D01*
Y-10691D01*
X84425Y-10630D01*
X84436Y-10574D01*
X84452Y-10527D01*
X84469Y-10483D01*
X84486Y-10449D01*
X84502Y-10424D01*
X84513Y-10408D01*
X84516Y-10402D01*
X84555Y-10358D01*
X84597Y-10322D01*
X84644Y-10291D01*
X84686Y-10266D01*
X84724Y-10247D01*
X84758Y-10236D01*
X84769Y-10230D01*
X84777Y-10227D01*
X84783Y-10225D01*
X84785D01*
X84738Y-10197D01*
X84697Y-10169D01*
X84663Y-10139D01*
X84636Y-10111D01*
X84613Y-10089D01*
X84597Y-10066D01*
X84588Y-10055D01*
X84586Y-10050D01*
X84563Y-10008D01*
X84547Y-9969D01*
X84533Y-9930D01*
X84525Y-9894D01*
X84519Y-9864D01*
X84516Y-9839D01*
Y-9825D01*
Y-9819D01*
X84519Y-9772D01*
X84527Y-9725D01*
X84541Y-9683D01*
X84555Y-9644D01*
X84569Y-9611D01*
X84583Y-9589D01*
X84591Y-9572D01*
X84594Y-9567D01*
X84624Y-9525D01*
X84658Y-9486D01*
X84694Y-9456D01*
X84727Y-9431D01*
X84755Y-9411D01*
X84780Y-9397D01*
X84797Y-9389D01*
X84799Y-9386D01*
X84802D01*
X84855Y-9367D01*
X84913Y-9353D01*
X84972Y-9342D01*
X85027Y-9336D01*
X85077Y-9331D01*
X85099D01*
X85119Y-9328D01*
X85874D01*
Y-11249D01*
D02*
G37*
G36*
X70746Y-9828D02*
X70796Y-9833D01*
X70843Y-9841D01*
X70888Y-9855D01*
X70929Y-9869D01*
X70968Y-9886D01*
X71004Y-9903D01*
X71035Y-9922D01*
X71065Y-9939D01*
X71090Y-9958D01*
X71113Y-9975D01*
X71129Y-9989D01*
X71143Y-10002D01*
X71154Y-10011D01*
X71160Y-10016D01*
X71163Y-10019D01*
X71193Y-10058D01*
X71221Y-10100D01*
X71246Y-10141D01*
X71268Y-10186D01*
X71285Y-10233D01*
X71299Y-10277D01*
X71321Y-10366D01*
X71329Y-10405D01*
X71335Y-10444D01*
X71337Y-10477D01*
X71340Y-10508D01*
X71343Y-10533D01*
Y-10549D01*
Y-10563D01*
Y-10566D01*
X71340Y-10627D01*
X71335Y-10685D01*
X71326Y-10741D01*
X71315Y-10791D01*
X71301Y-10838D01*
X71288Y-10883D01*
X71271Y-10921D01*
X71254Y-10958D01*
X71238Y-10988D01*
X71221Y-11016D01*
X71207Y-11038D01*
X71193Y-11057D01*
X71182Y-11074D01*
X71174Y-11085D01*
X71168Y-11091D01*
X71165Y-11094D01*
X71129Y-11127D01*
X71093Y-11155D01*
X71054Y-11180D01*
X71013Y-11202D01*
X70974Y-11218D01*
X70932Y-11235D01*
X70854Y-11257D01*
X70818Y-11263D01*
X70785Y-11268D01*
X70754Y-11274D01*
X70729Y-11277D01*
X70710Y-11280D01*
X70680D01*
X70593Y-11274D01*
X70516Y-11260D01*
X70446Y-11243D01*
X70419Y-11232D01*
X70391Y-11221D01*
X70366Y-11210D01*
X70344Y-11199D01*
X70327Y-11191D01*
X70310Y-11182D01*
X70299Y-11174D01*
X70291Y-11168D01*
X70285Y-11163D01*
X70283D01*
X70227Y-11113D01*
X70183Y-11060D01*
X70144Y-11005D01*
X70116Y-10952D01*
X70094Y-10905D01*
X70085Y-10883D01*
X70077Y-10866D01*
X70072Y-10849D01*
X70069Y-10838D01*
X70066Y-10833D01*
Y-10830D01*
X70310Y-10799D01*
X70332Y-10852D01*
X70357Y-10896D01*
X70382Y-10935D01*
X70405Y-10966D01*
X70424Y-10988D01*
X70441Y-11005D01*
X70455Y-11016D01*
X70457Y-11019D01*
X70494Y-11041D01*
X70530Y-11057D01*
X70568Y-11069D01*
X70602Y-11077D01*
X70632Y-11082D01*
X70657Y-11085D01*
X70680D01*
X70713Y-11082D01*
X70743Y-11080D01*
X70799Y-11066D01*
X70849Y-11046D01*
X70893Y-11024D01*
X70927Y-11005D01*
X70952Y-10985D01*
X70968Y-10971D01*
X70971Y-10966D01*
X70974D01*
X71013Y-10916D01*
X71043Y-10860D01*
X71065Y-10799D01*
X71082Y-10744D01*
X71090Y-10694D01*
X71096Y-10672D01*
X71099Y-10652D01*
Y-10635D01*
X71102Y-10624D01*
Y-10616D01*
Y-10613D01*
X70060D01*
X70058Y-10585D01*
Y-10566D01*
Y-10555D01*
Y-10552D01*
X70060Y-10488D01*
X70066Y-10430D01*
X70074Y-10374D01*
X70085Y-10322D01*
X70099Y-10275D01*
X70113Y-10230D01*
X70130Y-10191D01*
X70146Y-10155D01*
X70163Y-10122D01*
X70180Y-10094D01*
X70194Y-10072D01*
X70208Y-10052D01*
X70219Y-10036D01*
X70227Y-10025D01*
X70233Y-10019D01*
X70235Y-10016D01*
X70269Y-9983D01*
X70305Y-9953D01*
X70344Y-9928D01*
X70382Y-9905D01*
X70421Y-9886D01*
X70457Y-9872D01*
X70496Y-9858D01*
X70530Y-9850D01*
X70566Y-9841D01*
X70596Y-9836D01*
X70624Y-9830D01*
X70646Y-9828D01*
X70666Y-9825D01*
X70693D01*
X70746Y-9828D01*
D02*
G37*
G36*
X81823Y-9511D02*
Y-9855D01*
X81998D01*
Y-10039D01*
X81823D01*
Y-10844D01*
Y-10883D01*
Y-10916D01*
X81821Y-10946D01*
X81818Y-10977D01*
Y-11002D01*
X81815Y-11024D01*
X81809Y-11060D01*
X81804Y-11088D01*
X81801Y-11107D01*
X81796Y-11119D01*
Y-11121D01*
X81784Y-11146D01*
X81768Y-11166D01*
X81751Y-11185D01*
X81737Y-11199D01*
X81721Y-11213D01*
X81709Y-11221D01*
X81701Y-11227D01*
X81698Y-11230D01*
X81668Y-11243D01*
X81637Y-11252D01*
X81604Y-11260D01*
X81571Y-11263D01*
X81543Y-11266D01*
X81521Y-11268D01*
X81498D01*
X81437Y-11266D01*
X81407Y-11263D01*
X81379Y-11257D01*
X81354Y-11255D01*
X81335Y-11252D01*
X81324Y-11249D01*
X81318D01*
X81349Y-11041D01*
X81371Y-11044D01*
X81393Y-11046D01*
X81412D01*
X81426Y-11049D01*
X81454D01*
X81490Y-11046D01*
X81515Y-11041D01*
X81529Y-11035D01*
X81535Y-11032D01*
X81554Y-11019D01*
X81565Y-11005D01*
X81573Y-10994D01*
X81576Y-10988D01*
X81579Y-10974D01*
X81582Y-10955D01*
X81585Y-10910D01*
X81587Y-10891D01*
Y-10874D01*
Y-10863D01*
Y-10858D01*
Y-10039D01*
X81349D01*
Y-9855D01*
X81587D01*
Y-9370D01*
X81823Y-9511D01*
D02*
G37*
G36*
X73359Y-11249D02*
X73123D01*
Y-9328D01*
X73359D01*
Y-11249D01*
D02*
G37*
G36*
X80599Y-9828D02*
X80643Y-9830D01*
X80729Y-9850D01*
X80804Y-9875D01*
X80838Y-9889D01*
X80868Y-9903D01*
X80896Y-9916D01*
X80918Y-9930D01*
X80940Y-9944D01*
X80957Y-9955D01*
X80971Y-9966D01*
X80982Y-9975D01*
X80988Y-9977D01*
X80990Y-9980D01*
X81029Y-10016D01*
X81060Y-10058D01*
X81090Y-10102D01*
X81113Y-10147D01*
X81135Y-10194D01*
X81151Y-10244D01*
X81165Y-10291D01*
X81176Y-10336D01*
X81188Y-10380D01*
X81193Y-10419D01*
X81199Y-10458D01*
X81201Y-10488D01*
Y-10516D01*
X81204Y-10536D01*
Y-10547D01*
Y-10552D01*
X81201Y-10616D01*
X81196Y-10677D01*
X81188Y-10733D01*
X81176Y-10785D01*
X81163Y-10833D01*
X81149Y-10877D01*
X81132Y-10919D01*
X81115Y-10955D01*
X81099Y-10988D01*
X81082Y-11016D01*
X81068Y-11038D01*
X81054Y-11057D01*
X81043Y-11074D01*
X81035Y-11085D01*
X81029Y-11091D01*
X81026Y-11094D01*
X80990Y-11127D01*
X80954Y-11155D01*
X80915Y-11180D01*
X80877Y-11202D01*
X80838Y-11218D01*
X80796Y-11235D01*
X80721Y-11257D01*
X80688Y-11263D01*
X80654Y-11268D01*
X80627Y-11274D01*
X80602Y-11277D01*
X80580Y-11280D01*
X80552D01*
X80485Y-11277D01*
X80424Y-11266D01*
X80366Y-11252D01*
X80319Y-11238D01*
X80277Y-11221D01*
X80260Y-11216D01*
X80246Y-11210D01*
X80232Y-11205D01*
X80224Y-11199D01*
X80221Y-11196D01*
X80219D01*
X80163Y-11160D01*
X80116Y-11121D01*
X80074Y-11082D01*
X80041Y-11044D01*
X80016Y-11010D01*
X79997Y-10982D01*
X79991Y-10971D01*
X79985Y-10963D01*
X79983Y-10960D01*
Y-10958D01*
X79955Y-10894D01*
X79935Y-10824D01*
X79919Y-10755D01*
X79910Y-10685D01*
X79905Y-10655D01*
Y-10627D01*
X79902Y-10599D01*
X79899Y-10577D01*
Y-10558D01*
Y-10544D01*
Y-10536D01*
Y-10533D01*
X79902Y-10472D01*
X79908Y-10416D01*
X79916Y-10363D01*
X79927Y-10313D01*
X79941Y-10266D01*
X79958Y-10225D01*
X79974Y-10183D01*
X79991Y-10150D01*
X80008Y-10119D01*
X80024Y-10091D01*
X80041Y-10066D01*
X80055Y-10047D01*
X80066Y-10033D01*
X80074Y-10022D01*
X80080Y-10016D01*
X80083Y-10014D01*
X80119Y-9980D01*
X80155Y-9953D01*
X80194Y-9925D01*
X80232Y-9905D01*
X80271Y-9886D01*
X80310Y-9872D01*
X80385Y-9847D01*
X80421Y-9841D01*
X80452Y-9836D01*
X80480Y-9830D01*
X80505Y-9828D01*
X80524Y-9825D01*
X80552D01*
X80599Y-9828D01*
D02*
G37*
G36*
X83586D02*
X83631Y-9830D01*
X83717Y-9850D01*
X83792Y-9875D01*
X83825Y-9889D01*
X83855Y-9903D01*
X83883Y-9916D01*
X83905Y-9930D01*
X83928Y-9944D01*
X83944Y-9955D01*
X83958Y-9966D01*
X83969Y-9975D01*
X83975Y-9977D01*
X83978Y-9980D01*
X84016Y-10016D01*
X84047Y-10058D01*
X84078Y-10102D01*
X84100Y-10147D01*
X84122Y-10194D01*
X84139Y-10244D01*
X84153Y-10291D01*
X84164Y-10336D01*
X84175Y-10380D01*
X84180Y-10419D01*
X84186Y-10458D01*
X84189Y-10488D01*
Y-10516D01*
X84191Y-10536D01*
Y-10547D01*
Y-10552D01*
X84189Y-10616D01*
X84183Y-10677D01*
X84175Y-10733D01*
X84164Y-10785D01*
X84150Y-10833D01*
X84136Y-10877D01*
X84119Y-10919D01*
X84103Y-10955D01*
X84086Y-10988D01*
X84069Y-11016D01*
X84055Y-11038D01*
X84041Y-11057D01*
X84030Y-11074D01*
X84022Y-11085D01*
X84016Y-11091D01*
X84014Y-11094D01*
X83978Y-11127D01*
X83942Y-11155D01*
X83903Y-11180D01*
X83864Y-11202D01*
X83825Y-11218D01*
X83783Y-11235D01*
X83708Y-11257D01*
X83675Y-11263D01*
X83642Y-11268D01*
X83614Y-11274D01*
X83589Y-11277D01*
X83567Y-11280D01*
X83539D01*
X83472Y-11277D01*
X83411Y-11266D01*
X83353Y-11252D01*
X83306Y-11238D01*
X83264Y-11221D01*
X83247Y-11216D01*
X83234Y-11210D01*
X83220Y-11205D01*
X83211Y-11199D01*
X83209Y-11196D01*
X83206D01*
X83150Y-11160D01*
X83103Y-11121D01*
X83061Y-11082D01*
X83028Y-11044D01*
X83003Y-11010D01*
X82984Y-10982D01*
X82978Y-10971D01*
X82973Y-10963D01*
X82970Y-10960D01*
Y-10958D01*
X82942Y-10894D01*
X82923Y-10824D01*
X82906Y-10755D01*
X82898Y-10685D01*
X82892Y-10655D01*
Y-10627D01*
X82889Y-10599D01*
X82887Y-10577D01*
Y-10558D01*
Y-10544D01*
Y-10536D01*
Y-10533D01*
X82889Y-10472D01*
X82895Y-10416D01*
X82903Y-10363D01*
X82914Y-10313D01*
X82928Y-10266D01*
X82945Y-10225D01*
X82962Y-10183D01*
X82978Y-10150D01*
X82995Y-10119D01*
X83011Y-10091D01*
X83028Y-10066D01*
X83042Y-10047D01*
X83053Y-10033D01*
X83061Y-10022D01*
X83067Y-10016D01*
X83070Y-10014D01*
X83106Y-9980D01*
X83142Y-9953D01*
X83181Y-9925D01*
X83220Y-9905D01*
X83259Y-9886D01*
X83297Y-9872D01*
X83372Y-9847D01*
X83409Y-9841D01*
X83439Y-9836D01*
X83467Y-9830D01*
X83492Y-9828D01*
X83511Y-9825D01*
X83539D01*
X83586Y-9828D01*
D02*
G37*
G36*
X69289D02*
X69316Y-9833D01*
X69344Y-9841D01*
X69366Y-9850D01*
X69383Y-9858D01*
X69400Y-9866D01*
X69408Y-9872D01*
X69411Y-9875D01*
X69436Y-9897D01*
X69461Y-9925D01*
X69486Y-9958D01*
X69508Y-9989D01*
X69530Y-10019D01*
X69544Y-10044D01*
X69555Y-10064D01*
X69558Y-10066D01*
Y-9855D01*
X69772D01*
Y-11249D01*
X69536D01*
Y-10522D01*
X69533Y-10466D01*
X69530Y-10416D01*
X69525Y-10369D01*
X69516Y-10327D01*
X69508Y-10294D01*
X69502Y-10269D01*
X69500Y-10252D01*
X69497Y-10247D01*
X69486Y-10216D01*
X69472Y-10191D01*
X69458Y-10169D01*
X69444Y-10150D01*
X69430Y-10136D01*
X69422Y-10125D01*
X69414Y-10119D01*
X69411Y-10116D01*
X69389Y-10100D01*
X69364Y-10089D01*
X69339Y-10080D01*
X69319Y-10075D01*
X69300Y-10072D01*
X69286Y-10069D01*
X69272D01*
X69241Y-10072D01*
X69211Y-10077D01*
X69180Y-10086D01*
X69155Y-10094D01*
X69133Y-10102D01*
X69117Y-10111D01*
X69105Y-10116D01*
X69103Y-10119D01*
X69017Y-9903D01*
X69064Y-9878D01*
X69108Y-9858D01*
X69147Y-9844D01*
X69183Y-9833D01*
X69214Y-9828D01*
X69239Y-9825D01*
X69258D01*
X69289Y-9828D01*
D02*
G37*
G36*
X61325Y18675D02*
X60775Y19225D01*
Y19225D01*
X60225Y18675D01*
Y20025D01*
X61325D01*
Y18675D01*
D02*
G37*
G36*
Y21475D02*
Y20775D01*
X60225D01*
Y21475D01*
X60775Y22025D01*
X61325Y21475D01*
D02*
G37*
G36*
X62725D02*
Y20775D01*
X61625D01*
Y21475D01*
X62175Y22025D01*
X62725Y21475D01*
D02*
G37*
G36*
Y18675D02*
X62175Y19225D01*
Y19225D01*
X61625Y18675D01*
Y20025D01*
X62725D01*
Y18675D01*
D02*
G37*
G36*
X44475Y17825D02*
X43925Y18375D01*
Y18375D01*
X43375Y17825D01*
Y19175D01*
X44475D01*
Y17825D01*
D02*
G37*
G36*
X62725Y18575D02*
Y17875D01*
X61625D01*
Y18575D01*
X62175Y19125D01*
X62725Y18575D01*
D02*
G37*
G36*
X61325Y18575D02*
Y17875D01*
X60225D01*
Y18575D01*
X60775Y19125D01*
X61325Y18575D01*
D02*
G37*
G36*
Y21575D02*
X60775Y22125D01*
Y22125D01*
X60225Y21575D01*
Y22925D01*
X61325D01*
Y21575D01*
D02*
G37*
G36*
X66925Y50800D02*
X66225D01*
X65675Y51350D01*
X66225Y51900D01*
X66925D01*
Y50800D01*
D02*
G37*
G36*
X61400Y57525D02*
X60850Y56975D01*
X60150D01*
Y58075D01*
X60850D01*
X61400Y57525D01*
D02*
G37*
G36*
X62300Y56975D02*
X60950D01*
X61500Y57525D01*
X61500D01*
X60950Y58075D01*
X62300D01*
Y56975D01*
D02*
G37*
G36*
X65575Y51350D02*
X65575D01*
X66125Y50800D01*
X64775D01*
Y51900D01*
X66125D01*
X65575Y51350D01*
D02*
G37*
G36*
X62725Y21575D02*
X62175Y22125D01*
Y22125D01*
X61625Y21575D01*
Y22925D01*
X62725D01*
Y21575D01*
D02*
G37*
G36*
X65575Y49600D02*
X65575D01*
X66125Y49050D01*
X64775D01*
Y50150D01*
X66125D01*
X65575Y49600D01*
D02*
G37*
G36*
X66925Y49050D02*
X66225D01*
X65675Y49600D01*
X66225Y50150D01*
X66925D01*
Y49050D01*
D02*
G37*
G36*
X67875Y16325D02*
X67175D01*
X66625Y16875D01*
X67175Y17425D01*
X67875D01*
Y16325D01*
D02*
G37*
G36*
X66525Y16875D02*
X66525D01*
X67075Y16325D01*
X65725D01*
Y17425D01*
X67075D01*
X66525Y16875D01*
D02*
G37*
G36*
X40275Y17725D02*
Y17025D01*
X39175D01*
Y17725D01*
X39725Y18275D01*
X40275Y17725D01*
D02*
G37*
G36*
X43075D02*
Y17025D01*
X41975D01*
Y17725D01*
X42525Y18275D01*
X43075Y17725D01*
D02*
G37*
G36*
X41675D02*
Y17025D01*
X40575D01*
Y17725D01*
X41125Y18275D01*
X41675Y17725D01*
D02*
G37*
G36*
X71725Y13525D02*
X71725D01*
X72275Y12975D01*
X70925D01*
Y14075D01*
X72275D01*
X71725Y13525D01*
D02*
G37*
G36*
X67875Y11425D02*
X67175D01*
X66625Y11975D01*
X67175Y12525D01*
X67875D01*
Y11425D01*
D02*
G37*
G36*
X73075Y12975D02*
X72375D01*
X71825Y13525D01*
X72375Y14075D01*
X73075D01*
Y12975D01*
D02*
G37*
G36*
X67875Y14825D02*
X66525D01*
X67075Y15375D01*
X67075D01*
X66525Y15925D01*
X67875D01*
Y14825D01*
D02*
G37*
G36*
X66975Y15375D02*
X66425Y14825D01*
X65725D01*
Y15925D01*
X66425D01*
X66975Y15375D01*
D02*
G37*
G36*
X44475Y17725D02*
Y17025D01*
X43375D01*
Y17725D01*
X43925Y18275D01*
X44475Y17725D01*
D02*
G37*
G36*
X43075Y17825D02*
X42525Y18375D01*
Y18375D01*
X41975Y17825D01*
Y19175D01*
X43075D01*
Y17825D01*
D02*
G37*
G36*
X41675D02*
X41125Y18375D01*
Y18375D01*
X40575Y17825D01*
Y19175D01*
X41675D01*
Y17825D01*
D02*
G37*
G36*
X40275D02*
X39725Y18375D01*
Y18375D01*
X39175Y17825D01*
Y19175D01*
X40275D01*
Y17825D01*
D02*
G37*
%LPC*%
G36*
X72248Y-10019D02*
X72234D01*
X72204Y-10022D01*
X72176Y-10025D01*
X72123Y-10041D01*
X72076Y-10061D01*
X72037Y-10086D01*
X72007Y-10111D01*
X71982Y-10133D01*
X71968Y-10150D01*
X71962Y-10152D01*
Y-10155D01*
X71943Y-10183D01*
X71926Y-10211D01*
X71898Y-10277D01*
X71879Y-10347D01*
X71865Y-10413D01*
X71859Y-10447D01*
X71857Y-10477D01*
X71854Y-10505D01*
Y-10527D01*
X71851Y-10547D01*
Y-10561D01*
Y-10572D01*
Y-10574D01*
Y-10622D01*
X71857Y-10666D01*
X71862Y-10705D01*
X71868Y-10744D01*
X71876Y-10777D01*
X71887Y-10810D01*
X71896Y-10838D01*
X71907Y-10863D01*
X71918Y-10885D01*
X71926Y-10908D01*
X71937Y-10921D01*
X71945Y-10935D01*
X71951Y-10946D01*
X71957Y-10955D01*
X71962Y-10958D01*
Y-10960D01*
X71982Y-10982D01*
X72004Y-11002D01*
X72048Y-11032D01*
X72093Y-11055D01*
X72134Y-11069D01*
X72170Y-11080D01*
X72201Y-11082D01*
X72212Y-11085D01*
X72226D01*
X72254Y-11082D01*
X72281Y-11080D01*
X72331Y-11066D01*
X72379Y-11044D01*
X72417Y-11019D01*
X72448Y-10996D01*
X72473Y-10974D01*
X72487Y-10960D01*
X72490Y-10955D01*
X72492D01*
X72512Y-10927D01*
X72528Y-10899D01*
X72556Y-10835D01*
X72576Y-10769D01*
X72590Y-10705D01*
X72598Y-10647D01*
X72601Y-10622D01*
Y-10599D01*
X72603Y-10580D01*
Y-10566D01*
Y-10558D01*
Y-10555D01*
Y-10505D01*
X72598Y-10458D01*
X72592Y-10413D01*
X72587Y-10374D01*
X72578Y-10338D01*
X72570Y-10305D01*
X72562Y-10275D01*
X72551Y-10247D01*
X72540Y-10225D01*
X72531Y-10205D01*
X72523Y-10188D01*
X72515Y-10175D01*
X72506Y-10163D01*
X72504Y-10155D01*
X72498Y-10152D01*
Y-10150D01*
X72479Y-10127D01*
X72456Y-10105D01*
X72412Y-10075D01*
X72367Y-10050D01*
X72326Y-10036D01*
X72290Y-10025D01*
X72259Y-10022D01*
X72248Y-10019D01*
D02*
G37*
G36*
X74300D02*
X74283D01*
X74250Y-10022D01*
X74219Y-10025D01*
X74164Y-10039D01*
X74114Y-10061D01*
X74072Y-10086D01*
X74039Y-10111D01*
X74014Y-10130D01*
X73997Y-10147D01*
X73992Y-10150D01*
Y-10152D01*
X73969Y-10177D01*
X73953Y-10208D01*
X73922Y-10269D01*
X73900Y-10336D01*
X73886Y-10397D01*
X73878Y-10455D01*
X73875Y-10480D01*
Y-10502D01*
X73872Y-10519D01*
Y-10533D01*
Y-10541D01*
Y-10544D01*
Y-10594D01*
X73878Y-10641D01*
X73883Y-10683D01*
X73892Y-10724D01*
X73900Y-10760D01*
X73911Y-10794D01*
X73919Y-10824D01*
X73930Y-10852D01*
X73942Y-10874D01*
X73953Y-10896D01*
X73964Y-10913D01*
X73972Y-10927D01*
X73980Y-10938D01*
X73986Y-10946D01*
X73989Y-10949D01*
X73992Y-10952D01*
X74014Y-10974D01*
X74039Y-10996D01*
X74086Y-11030D01*
X74136Y-11052D01*
X74180Y-11069D01*
X74222Y-11077D01*
X74253Y-11082D01*
X74266Y-11085D01*
X74283D01*
X74316Y-11082D01*
X74347Y-11080D01*
X74405Y-11066D01*
X74455Y-11044D01*
X74497Y-11019D01*
X74530Y-10996D01*
X74555Y-10974D01*
X74572Y-10960D01*
X74575Y-10955D01*
X74577D01*
X74597Y-10927D01*
X74616Y-10899D01*
X74644Y-10835D01*
X74666Y-10769D01*
X74680Y-10702D01*
X74688Y-10644D01*
X74691Y-10619D01*
Y-10597D01*
X74694Y-10577D01*
Y-10563D01*
Y-10555D01*
Y-10552D01*
X74691Y-10505D01*
X74688Y-10458D01*
X74683Y-10416D01*
X74675Y-10377D01*
X74666Y-10341D01*
X74658Y-10308D01*
X74647Y-10280D01*
X74636Y-10252D01*
X74625Y-10230D01*
X74613Y-10208D01*
X74605Y-10191D01*
X74597Y-10177D01*
X74588Y-10166D01*
X74583Y-10158D01*
X74577Y-10155D01*
Y-10152D01*
X74555Y-10130D01*
X74530Y-10108D01*
X74483Y-10075D01*
X74433Y-10052D01*
X74386Y-10036D01*
X74344Y-10025D01*
X74314Y-10022D01*
X74300Y-10019D01*
D02*
G37*
G36*
X41517Y-10361D02*
X41012D01*
X40953Y-10366D01*
X40906Y-10372D01*
X40867Y-10377D01*
X40837Y-10383D01*
X40812Y-10388D01*
X40801Y-10391D01*
X40795Y-10394D01*
X40759Y-10408D01*
X40729Y-10424D01*
X40701Y-10444D01*
X40679Y-10463D01*
X40662Y-10480D01*
X40651Y-10494D01*
X40643Y-10505D01*
X40640Y-10508D01*
X40620Y-10538D01*
X40606Y-10569D01*
X40595Y-10599D01*
X40590Y-10627D01*
X40584Y-10652D01*
X40581Y-10674D01*
Y-10685D01*
Y-10691D01*
X40584Y-10724D01*
X40587Y-10758D01*
X40593Y-10785D01*
X40601Y-10808D01*
X40609Y-10827D01*
X40615Y-10844D01*
X40618Y-10852D01*
X40620Y-10855D01*
X40637Y-10880D01*
X40651Y-10902D01*
X40670Y-10919D01*
X40684Y-10935D01*
X40698Y-10946D01*
X40709Y-10955D01*
X40717Y-10960D01*
X40720Y-10963D01*
X40767Y-10985D01*
X40815Y-11002D01*
X40834Y-11007D01*
X40851Y-11010D01*
X40862Y-11013D01*
X40865D01*
X40887Y-11016D01*
X40912Y-11019D01*
X40970Y-11021D01*
X41517D01*
Y-10361D01*
D02*
G37*
G36*
Y-9556D02*
X41062D01*
X41001Y-9561D01*
X40953Y-9564D01*
X40912Y-9569D01*
X40881Y-9575D01*
X40862Y-9578D01*
X40848Y-9583D01*
X40845D01*
X40815Y-9594D01*
X40787Y-9611D01*
X40765Y-9628D01*
X40745Y-9644D01*
X40731Y-9658D01*
X40720Y-9672D01*
X40715Y-9680D01*
X40712Y-9683D01*
X40695Y-9711D01*
X40684Y-9739D01*
X40676Y-9767D01*
X40670Y-9794D01*
X40668Y-9816D01*
X40665Y-9833D01*
Y-9844D01*
Y-9850D01*
X40668Y-9886D01*
X40673Y-9919D01*
X40681Y-9947D01*
X40690Y-9969D01*
X40698Y-9989D01*
X40706Y-10005D01*
X40712Y-10014D01*
X40715Y-10016D01*
X40734Y-10039D01*
X40759Y-10061D01*
X40784Y-10077D01*
X40806Y-10089D01*
X40829Y-10100D01*
X40845Y-10108D01*
X40856Y-10111D01*
X40862Y-10114D01*
X40892Y-10119D01*
X40931Y-10125D01*
X40970Y-10127D01*
X41009Y-10130D01*
X41045Y-10133D01*
X41517D01*
Y-9556D01*
D02*
G37*
G36*
X85618D02*
X85163D01*
X85102Y-9561D01*
X85055Y-9564D01*
X85013Y-9569D01*
X84983Y-9575D01*
X84963Y-9578D01*
X84949Y-9583D01*
X84947D01*
X84916Y-9594D01*
X84888Y-9611D01*
X84866Y-9628D01*
X84847Y-9644D01*
X84833Y-9658D01*
X84822Y-9672D01*
X84816Y-9680D01*
X84813Y-9683D01*
X84797Y-9711D01*
X84785Y-9739D01*
X84777Y-9767D01*
X84772Y-9794D01*
X84769Y-9816D01*
X84766Y-9833D01*
Y-9844D01*
Y-9850D01*
X84769Y-9886D01*
X84774Y-9919D01*
X84783Y-9947D01*
X84791Y-9969D01*
X84799Y-9989D01*
X84808Y-10005D01*
X84813Y-10014D01*
X84816Y-10016D01*
X84835Y-10039D01*
X84860Y-10061D01*
X84885Y-10077D01*
X84908Y-10089D01*
X84930Y-10100D01*
X84947Y-10108D01*
X84958Y-10111D01*
X84963Y-10114D01*
X84994Y-10119D01*
X85033Y-10125D01*
X85071Y-10127D01*
X85110Y-10130D01*
X85146Y-10133D01*
X85618D01*
Y-9556D01*
D02*
G37*
G36*
Y-10361D02*
X85113D01*
X85055Y-10366D01*
X85008Y-10372D01*
X84969Y-10377D01*
X84938Y-10383D01*
X84913Y-10388D01*
X84902Y-10391D01*
X84897Y-10394D01*
X84860Y-10408D01*
X84830Y-10424D01*
X84802Y-10444D01*
X84780Y-10463D01*
X84763Y-10480D01*
X84752Y-10494D01*
X84744Y-10505D01*
X84741Y-10508D01*
X84722Y-10538D01*
X84708Y-10569D01*
X84697Y-10599D01*
X84691Y-10627D01*
X84686Y-10652D01*
X84683Y-10674D01*
Y-10685D01*
Y-10691D01*
X84686Y-10724D01*
X84688Y-10758D01*
X84694Y-10785D01*
X84702Y-10808D01*
X84711Y-10827D01*
X84716Y-10844D01*
X84719Y-10852D01*
X84722Y-10855D01*
X84738Y-10880D01*
X84752Y-10902D01*
X84772Y-10919D01*
X84785Y-10935D01*
X84799Y-10946D01*
X84810Y-10955D01*
X84819Y-10960D01*
X84822Y-10963D01*
X84869Y-10985D01*
X84916Y-11002D01*
X84935Y-11007D01*
X84952Y-11010D01*
X84963Y-11013D01*
X84966D01*
X84988Y-11016D01*
X85013Y-11019D01*
X85071Y-11021D01*
X85618D01*
Y-10361D01*
D02*
G37*
G36*
X70707Y-10019D02*
X70691D01*
X70657Y-10022D01*
X70627Y-10025D01*
X70568Y-10041D01*
X70519Y-10064D01*
X70477Y-10089D01*
X70444Y-10114D01*
X70419Y-10136D01*
X70405Y-10152D01*
X70399Y-10155D01*
Y-10158D01*
X70374Y-10194D01*
X70352Y-10236D01*
X70338Y-10277D01*
X70324Y-10322D01*
X70316Y-10358D01*
X70310Y-10391D01*
Y-10402D01*
X70308Y-10411D01*
Y-10416D01*
Y-10419D01*
X71088D01*
X71079Y-10355D01*
X71063Y-10297D01*
X71043Y-10247D01*
X71021Y-10208D01*
X71002Y-10175D01*
X70982Y-10150D01*
X70971Y-10136D01*
X70965Y-10130D01*
X70921Y-10094D01*
X70877Y-10066D01*
X70829Y-10047D01*
X70785Y-10033D01*
X70749Y-10025D01*
X70718Y-10022D01*
X70707Y-10019D01*
D02*
G37*
G36*
X80568D02*
X80552D01*
X80518Y-10022D01*
X80488Y-10025D01*
X80432Y-10039D01*
X80382Y-10061D01*
X80341Y-10086D01*
X80307Y-10111D01*
X80282Y-10130D01*
X80266Y-10147D01*
X80260Y-10150D01*
Y-10152D01*
X80238Y-10177D01*
X80221Y-10208D01*
X80191Y-10269D01*
X80169Y-10336D01*
X80155Y-10397D01*
X80146Y-10455D01*
X80144Y-10480D01*
Y-10502D01*
X80141Y-10519D01*
Y-10533D01*
Y-10541D01*
Y-10544D01*
Y-10594D01*
X80146Y-10641D01*
X80152Y-10683D01*
X80160Y-10724D01*
X80169Y-10760D01*
X80180Y-10794D01*
X80188Y-10824D01*
X80199Y-10852D01*
X80210Y-10874D01*
X80221Y-10896D01*
X80232Y-10913D01*
X80241Y-10927D01*
X80249Y-10938D01*
X80255Y-10946D01*
X80257Y-10949D01*
X80260Y-10952D01*
X80282Y-10974D01*
X80307Y-10996D01*
X80355Y-11030D01*
X80405Y-11052D01*
X80449Y-11069D01*
X80491Y-11077D01*
X80521Y-11082D01*
X80535Y-11085D01*
X80552D01*
X80585Y-11082D01*
X80616Y-11080D01*
X80674Y-11066D01*
X80724Y-11044D01*
X80766Y-11019D01*
X80799Y-10996D01*
X80824Y-10974D01*
X80840Y-10960D01*
X80843Y-10955D01*
X80846D01*
X80865Y-10927D01*
X80885Y-10899D01*
X80913Y-10835D01*
X80935Y-10769D01*
X80949Y-10702D01*
X80957Y-10644D01*
X80960Y-10619D01*
Y-10597D01*
X80963Y-10577D01*
Y-10563D01*
Y-10555D01*
Y-10552D01*
X80960Y-10505D01*
X80957Y-10458D01*
X80952Y-10416D01*
X80943Y-10377D01*
X80935Y-10341D01*
X80927Y-10308D01*
X80915Y-10280D01*
X80904Y-10252D01*
X80893Y-10230D01*
X80882Y-10208D01*
X80874Y-10191D01*
X80865Y-10177D01*
X80857Y-10166D01*
X80852Y-10158D01*
X80846Y-10155D01*
Y-10152D01*
X80824Y-10130D01*
X80799Y-10108D01*
X80752Y-10075D01*
X80702Y-10052D01*
X80654Y-10036D01*
X80613Y-10025D01*
X80582Y-10022D01*
X80568Y-10019D01*
D02*
G37*
G36*
X83556D02*
X83539D01*
X83506Y-10022D01*
X83475Y-10025D01*
X83420Y-10039D01*
X83370Y-10061D01*
X83328Y-10086D01*
X83295Y-10111D01*
X83270Y-10130D01*
X83253Y-10147D01*
X83247Y-10150D01*
Y-10152D01*
X83225Y-10177D01*
X83209Y-10208D01*
X83178Y-10269D01*
X83156Y-10336D01*
X83142Y-10397D01*
X83134Y-10455D01*
X83131Y-10480D01*
Y-10502D01*
X83128Y-10519D01*
Y-10533D01*
Y-10541D01*
Y-10544D01*
Y-10594D01*
X83134Y-10641D01*
X83139Y-10683D01*
X83148Y-10724D01*
X83156Y-10760D01*
X83167Y-10794D01*
X83175Y-10824D01*
X83186Y-10852D01*
X83198Y-10874D01*
X83209Y-10896D01*
X83220Y-10913D01*
X83228Y-10927D01*
X83236Y-10938D01*
X83242Y-10946D01*
X83245Y-10949D01*
X83247Y-10952D01*
X83270Y-10974D01*
X83295Y-10996D01*
X83342Y-11030D01*
X83392Y-11052D01*
X83436Y-11069D01*
X83478Y-11077D01*
X83508Y-11082D01*
X83522Y-11085D01*
X83539D01*
X83572Y-11082D01*
X83603Y-11080D01*
X83661Y-11066D01*
X83711Y-11044D01*
X83753Y-11019D01*
X83786Y-10996D01*
X83811Y-10974D01*
X83828Y-10960D01*
X83830Y-10955D01*
X83833D01*
X83853Y-10927D01*
X83872Y-10899D01*
X83900Y-10835D01*
X83922Y-10769D01*
X83936Y-10702D01*
X83944Y-10644D01*
X83947Y-10619D01*
Y-10597D01*
X83950Y-10577D01*
Y-10563D01*
Y-10555D01*
Y-10552D01*
X83947Y-10505D01*
X83944Y-10458D01*
X83939Y-10416D01*
X83930Y-10377D01*
X83922Y-10341D01*
X83914Y-10308D01*
X83903Y-10280D01*
X83892Y-10252D01*
X83880Y-10230D01*
X83869Y-10208D01*
X83861Y-10191D01*
X83853Y-10177D01*
X83844Y-10166D01*
X83839Y-10158D01*
X83833Y-10155D01*
Y-10152D01*
X83811Y-10130D01*
X83786Y-10108D01*
X83739Y-10075D01*
X83689Y-10052D01*
X83642Y-10036D01*
X83600Y-10025D01*
X83570Y-10022D01*
X83556Y-10019D01*
D02*
G37*
%LPD*%
D103*
X100500Y-0D02*
G03*
X101000Y500I0J500D01*
G01*
X500Y71000D02*
G03*
X-0Y70500I0J-500D01*
G01*
X101000D02*
G03*
X100500Y71000I-500J0D01*
G01*
X-0Y500D02*
G03*
X500Y-0I500J0D01*
G01*
X500Y0D02*
X100500D01*
X101000Y500D02*
Y70500D01*
X0Y500D02*
Y70500D01*
X500Y71000D02*
X100500D01*
D113*
X3340Y21130D02*
D03*
Y18590D02*
D03*
Y10410D02*
D03*
Y7870D02*
D03*
X73000Y4150D02*
D03*
X78000D02*
D03*
D120*
X35250Y1900D02*
D03*
X31750D02*
D03*
D121*
X13750Y18945D02*
D03*
X16290Y17675D02*
D03*
X13750Y16405D02*
D03*
X16290Y15135D02*
D03*
X13750Y13865D02*
D03*
X16290Y12595D02*
D03*
X13750Y11325D02*
D03*
X16290Y10055D02*
D03*
X13750Y8785D02*
D03*
D149*
X11425Y1775D02*
D03*
D150*
X87675Y6850D02*
D03*
X88575D02*
D03*
X44680Y46650D02*
D03*
X43780D02*
D03*
X44680Y54220D02*
D03*
X43780D02*
D03*
X55860Y48910D02*
D03*
X56760D02*
D03*
X44680Y53150D02*
D03*
X43780D02*
D03*
X55860Y47540D02*
D03*
X56760D02*
D03*
X44680Y52060D02*
D03*
X43780D02*
D03*
X55860Y49990D02*
D03*
X56760D02*
D03*
X44680Y45570D02*
D03*
X43780D02*
D03*
X55860Y54260D02*
D03*
X56760D02*
D03*
X55860Y51060D02*
D03*
X56760D02*
D03*
X55860Y52130D02*
D03*
X56760D02*
D03*
X55860Y44270D02*
D03*
X56760D02*
D03*
X44680Y44490D02*
D03*
X43780D02*
D03*
X55860Y45350D02*
D03*
X56760D02*
D03*
X44680Y47710D02*
D03*
X43780D02*
D03*
X55860Y46440D02*
D03*
X56760D02*
D03*
X44680Y49880D02*
D03*
X43780D02*
D03*
X44680Y48790D02*
D03*
X43780D02*
D03*
X55860Y53190D02*
D03*
X56760D02*
D03*
X44680Y50960D02*
D03*
X43780D02*
D03*
X64625Y47750D02*
D03*
X63725D02*
D03*
X61550Y48800D02*
D03*
X62450D02*
D03*
X61550Y51350D02*
D03*
X62450D02*
D03*
Y47750D02*
D03*
X61550D02*
D03*
X61825Y56300D02*
D03*
X62725D02*
D03*
X68800Y18725D02*
D03*
X69700D02*
D03*
X72550D02*
D03*
X73450D02*
D03*
X52140Y52360D02*
D03*
X51240D02*
D03*
D151*
X4950Y11325D02*
D03*
Y10425D02*
D03*
X51550Y8675D02*
D03*
Y9575D02*
D03*
X68425Y22875D02*
D03*
Y21975D02*
D03*
X74600Y23700D02*
D03*
Y24600D02*
D03*
X47900Y56410D02*
D03*
Y57310D02*
D03*
X46820Y56410D02*
D03*
Y57310D02*
D03*
X48970Y56410D02*
D03*
Y57310D02*
D03*
X50060Y56410D02*
D03*
Y57310D02*
D03*
X63825Y48725D02*
D03*
Y49625D02*
D03*
Y51350D02*
D03*
Y52250D02*
D03*
X76650Y30275D02*
D03*
Y31175D02*
D03*
X63650Y57200D02*
D03*
Y56300D02*
D03*
X71350Y56475D02*
D03*
Y57375D02*
D03*
X4950Y22025D02*
D03*
Y21125D02*
D03*
X1800Y11325D02*
D03*
Y10425D02*
D03*
Y21125D02*
D03*
Y22025D02*
D03*
X26700Y21175D02*
D03*
Y22075D02*
D03*
X68450Y14225D02*
D03*
Y13325D02*
D03*
X26700Y23850D02*
D03*
Y22950D02*
D03*
X32650Y7550D02*
D03*
Y8450D02*
D03*
X37650Y7550D02*
D03*
Y8450D02*
D03*
X55010Y48090D02*
D03*
Y48990D02*
D03*
D152*
X51320Y32330D02*
D03*
X50420D02*
D03*
X49700Y32310D02*
D03*
X48800D02*
D03*
X48070D02*
D03*
X47170D02*
D03*
X52940Y32330D02*
D03*
X52040D02*
D03*
X58470Y44240D02*
D03*
X57570D02*
D03*
X58470Y47010D02*
D03*
X57570D02*
D03*
X58470Y49590D02*
D03*
X57570D02*
D03*
X58470Y51740D02*
D03*
X57570D02*
D03*
X58470Y53830D02*
D03*
X57570D02*
D03*
X41925Y57750D02*
D03*
X42825D02*
D03*
X41910Y53720D02*
D03*
X42810D02*
D03*
X41910Y51510D02*
D03*
X42810D02*
D03*
X41910Y49300D02*
D03*
X42810D02*
D03*
X41910Y47200D02*
D03*
X42810D02*
D03*
X41910Y45080D02*
D03*
X42810D02*
D03*
X58575Y57750D02*
D03*
X57675D02*
D03*
X84400Y59575D02*
D03*
X83500D02*
D03*
X84400Y56475D02*
D03*
X83500D02*
D03*
X84400Y43100D02*
D03*
X83500D02*
D03*
X84400Y42200D02*
D03*
X83500D02*
D03*
X76025Y28475D02*
D03*
X76925D02*
D03*
X76025Y25475D02*
D03*
X76925D02*
D03*
X67325Y27975D02*
D03*
X66425D02*
D03*
X67325Y30475D02*
D03*
X66425D02*
D03*
X12400Y13875D02*
D03*
X11500D02*
D03*
X22025Y29250D02*
D03*
X22925D02*
D03*
X52900Y28725D02*
D03*
X53800D02*
D03*
X52900Y29450D02*
D03*
X53800D02*
D03*
X52900Y30175D02*
D03*
X53800D02*
D03*
X52900Y31275D02*
D03*
X53800D02*
D03*
X47250Y29525D02*
D03*
X46350D02*
D03*
X47250Y28700D02*
D03*
X46350D02*
D03*
X82225Y6625D02*
D03*
X83125D02*
D03*
X74300Y17225D02*
D03*
X75200D02*
D03*
X66700Y13225D02*
D03*
X65800D02*
D03*
X66700Y14225D02*
D03*
X65800D02*
D03*
X53000Y27650D02*
D03*
X53900D02*
D03*
D153*
X86925Y27525D02*
D03*
Y28025D02*
D03*
Y28525D02*
D03*
X88225D02*
D03*
Y28025D02*
D03*
Y27525D02*
D03*
D154*
X75425Y22875D02*
D03*
Y21975D02*
D03*
X72825Y22875D02*
D03*
Y21975D02*
D03*
X69925Y22875D02*
D03*
Y21975D02*
D03*
X70425Y31575D02*
D03*
Y32475D02*
D03*
X73925Y31575D02*
D03*
Y32475D02*
D03*
X71925Y22875D02*
D03*
Y21975D02*
D03*
X75700Y32025D02*
D03*
Y32925D02*
D03*
X30825Y20075D02*
D03*
Y20975D02*
D03*
X29925Y20075D02*
D03*
Y20975D02*
D03*
X29025Y20075D02*
D03*
Y20975D02*
D03*
X31225Y18525D02*
D03*
Y17625D02*
D03*
X30325Y18525D02*
D03*
Y17625D02*
D03*
X29425Y18525D02*
D03*
Y17625D02*
D03*
X54255Y33390D02*
D03*
Y32490D02*
D03*
X51750Y26900D02*
D03*
Y27800D02*
D03*
X73250Y9775D02*
D03*
Y10675D02*
D03*
X79425Y7575D02*
D03*
Y8475D02*
D03*
X79425Y10675D02*
D03*
Y9775D02*
D03*
X96275Y25025D02*
D03*
Y25925D02*
D03*
D156*
X18600Y36600D02*
D03*
X17225D02*
D03*
X10450Y34050D02*
D03*
X17500Y42225D02*
D03*
X18300Y41175D02*
D03*
X17300Y39525D02*
D03*
X8330Y34300D02*
D03*
X7620Y33900D02*
D03*
X8330Y33500D02*
D03*
X7620Y33100D02*
D03*
X8330Y32700D02*
D03*
X7620Y32300D02*
D03*
X8330Y31900D02*
D03*
Y31100D02*
D03*
X7620Y30700D02*
D03*
X8330Y30300D02*
D03*
X7620Y29900D02*
D03*
X8330Y29500D02*
D03*
X7620Y29100D02*
D03*
X8330Y28700D02*
D03*
X92670Y24975D02*
D03*
X93380Y25375D02*
D03*
X92670Y25775D02*
D03*
X93380Y26175D02*
D03*
X92670Y26575D02*
D03*
X93380Y26975D02*
D03*
X92670Y27375D02*
D03*
Y28175D02*
D03*
X93380Y28575D02*
D03*
X92670Y28975D02*
D03*
X93380Y29375D02*
D03*
X92670Y29775D02*
D03*
X93380Y30175D02*
D03*
X92670Y30575D02*
D03*
D157*
X27900Y21550D02*
D03*
Y20150D02*
D03*
X28300Y17050D02*
D03*
Y18450D02*
D03*
D159*
X65025Y55525D02*
D03*
Y57425D02*
D03*
X67225Y56475D02*
D03*
D160*
X95025Y26275D02*
D03*
Y25025D02*
D03*
D163*
X66350Y51350D02*
D03*
X65250D02*
D03*
X31425Y9050D02*
D03*
Y7950D02*
D03*
X30025Y9050D02*
D03*
Y7950D02*
D03*
X35025Y9050D02*
D03*
Y7950D02*
D03*
X36425Y9050D02*
D03*
Y7950D02*
D03*
X60725Y57525D02*
D03*
X61825D02*
D03*
X79175Y11875D02*
D03*
X80275D02*
D03*
X66300Y15375D02*
D03*
X67400D02*
D03*
X67300Y10125D02*
D03*
X66200D02*
D03*
X72500Y13525D02*
D03*
X71400D02*
D03*
X67300Y11975D02*
D03*
X66200D02*
D03*
X67300Y16875D02*
D03*
X66200D02*
D03*
X43925Y17600D02*
D03*
Y18700D02*
D03*
X41125Y17600D02*
D03*
Y18700D02*
D03*
X39725Y17600D02*
D03*
Y18700D02*
D03*
X42525Y17600D02*
D03*
Y18700D02*
D03*
X60775Y18450D02*
D03*
Y19550D02*
D03*
X62175Y18450D02*
D03*
Y19550D02*
D03*
X60775Y21350D02*
D03*
Y22450D02*
D03*
X62175Y21350D02*
D03*
Y22450D02*
D03*
X66350Y49600D02*
D03*
X65250D02*
D03*
D164*
X99225Y26425D02*
D03*
Y25025D02*
D03*
X26925Y18450D02*
D03*
Y17050D02*
D03*
D165*
X29275Y26225D02*
D03*
X30675D02*
D03*
D166*
X68725Y56475D02*
D03*
X70225D02*
D03*
D168*
X27100Y29400D02*
D03*
X25500D02*
D03*
D172*
X97625Y25025D02*
D03*
Y26725D02*
D03*
D173*
X23425Y30375D02*
D03*
X22025D02*
D03*
X79450Y6400D02*
D03*
X80850D02*
D03*
X83050Y11850D02*
D03*
X81650D02*
D03*
X41275Y56200D02*
D03*
X42675D02*
D03*
X59110Y56260D02*
D03*
X57710D02*
D03*
D176*
X18150Y60400D02*
D03*
X99050Y68225D02*
D03*
X2050Y1875D02*
D03*
D192*
X69575Y7375D02*
D03*
X71475D02*
D03*
X70525Y5175D02*
D03*
D196*
X17890Y45325D02*
D03*
Y45825D02*
D03*
Y46825D02*
D03*
Y47325D02*
D03*
X18710D02*
D03*
Y46825D02*
D03*
Y45825D02*
D03*
Y45325D02*
D03*
D197*
X17890Y46325D02*
D03*
X18710D02*
D03*
D211*
X90750Y14025D02*
D03*
Y13525D02*
D03*
Y13025D02*
D03*
Y12525D02*
D03*
Y12025D02*
D03*
X89700D02*
D03*
Y12525D02*
D03*
Y13025D02*
D03*
Y13525D02*
D03*
Y14025D02*
D03*
X90750Y10950D02*
D03*
Y10450D02*
D03*
Y9950D02*
D03*
Y9450D02*
D03*
Y8950D02*
D03*
X89700D02*
D03*
Y9450D02*
D03*
Y9950D02*
D03*
Y10450D02*
D03*
Y10950D02*
D03*
D230*
X22500Y18500D02*
D03*
X80500Y67500D02*
D03*
X22500D02*
D03*
X80500Y18500D02*
D03*
D231*
X87370Y40500D02*
D03*
Y58500D02*
D03*
D232*
Y43000D02*
D03*
Y47500D02*
D03*
Y45000D02*
D03*
X89990Y40500D02*
D03*
Y43000D02*
D03*
Y47500D02*
D03*
Y45000D02*
D03*
X87370Y61000D02*
D03*
Y65500D02*
D03*
Y63000D02*
D03*
X89990Y58500D02*
D03*
Y61000D02*
D03*
Y65500D02*
D03*
Y63000D02*
D03*
D233*
X87020Y37430D02*
D03*
Y50570D02*
D03*
X92700Y37430D02*
D03*
Y50570D02*
D03*
X87020Y55430D02*
D03*
Y68570D02*
D03*
X92700Y55430D02*
D03*
Y68570D02*
D03*
D234*
X7180Y35770D02*
D03*
X2450D02*
D03*
X7180Y27230D02*
D03*
X2450D02*
D03*
X93820Y23505D02*
D03*
X98550D02*
D03*
X93820Y32045D02*
D03*
X98550D02*
D03*
D235*
X94500Y2250D02*
D03*
Y16750D02*
D03*
X99400Y1650D02*
D03*
Y17350D02*
D03*
D236*
X22900Y57700D02*
D03*
Y58950D02*
D03*
D237*
X16290Y20215D02*
D03*
D238*
X10450Y6750D02*
D03*
Y22250D02*
D03*
D239*
X7400Y20215D02*
D03*
Y8785D02*
D03*
D240*
X89310Y1525D02*
D03*
X86770D02*
D03*
X84230D02*
D03*
X57850Y66230D02*
D03*
X60390D02*
D03*
X57850Y68770D02*
D03*
X60390D02*
D03*
X68010D02*
D03*
X62930D02*
D03*
X65470D02*
D03*
X68010Y66230D02*
D03*
X65470D02*
D03*
X62930D02*
D03*
X75630D02*
D03*
Y68770D02*
D03*
X73090D02*
D03*
X70550D02*
D03*
X73090Y66230D02*
D03*
X70550D02*
D03*
X45150D02*
D03*
X47690D02*
D03*
X45150Y68770D02*
D03*
X47690D02*
D03*
X55310D02*
D03*
X50230D02*
D03*
X52770D02*
D03*
X55310Y66230D02*
D03*
X52770D02*
D03*
X50230D02*
D03*
X37530D02*
D03*
X40070D02*
D03*
X42610D02*
D03*
X40070Y68770D02*
D03*
X37530D02*
D03*
X42610D02*
D03*
X34990D02*
D03*
X27370D02*
D03*
X29910D02*
D03*
X32450D02*
D03*
X34990Y66230D02*
D03*
X32450D02*
D03*
X29910D02*
D03*
D241*
X81690Y1525D02*
D03*
X27370Y66230D02*
D03*
D242*
X72000Y1450D02*
D03*
X79000D02*
D03*
D243*
X93975Y42100D02*
D03*
X92725D02*
D03*
X93975Y58450D02*
D03*
X92725D02*
D03*
X93975Y60050D02*
D03*
X92725D02*
D03*
X93975Y40500D02*
D03*
X92725D02*
D03*
D244*
X77495Y11875D02*
D03*
X75355D02*
D03*
D245*
X43940Y14904D02*
D03*
X46480Y11476D02*
D03*
X49020Y14905D02*
D03*
X51560Y11476D02*
D03*
X54100Y14905D02*
D03*
X56640Y11476D02*
D03*
X59180Y14905D02*
D03*
X61720Y11476D02*
D03*
X38860D02*
D03*
X36320Y14905D02*
D03*
X33780Y11476D02*
D03*
X31240Y14905D02*
D03*
X28700Y11476D02*
D03*
X26160Y14905D02*
D03*
X43940Y59736D02*
D03*
X41400Y63164D02*
D03*
X38860Y59736D02*
D03*
X36320Y63165D02*
D03*
X33780Y59736D02*
D03*
X31240Y63165D02*
D03*
X28700Y59736D02*
D03*
X26160Y63165D02*
D03*
X48004D02*
D03*
X50544Y59736D02*
D03*
X53084Y63165D02*
D03*
X55624Y59736D02*
D03*
X58164Y63165D02*
D03*
X60704Y59736D02*
D03*
X63244Y63164D02*
D03*
X65784Y59736D02*
D03*
X68324Y63164D02*
D03*
X70864Y59736D02*
D03*
D246*
X81150Y54925D02*
D03*
X83950D02*
D03*
X81150Y44650D02*
D03*
X83950D02*
D03*
X81150Y40650D02*
D03*
X83950D02*
D03*
X81150Y58025D02*
D03*
X83950D02*
D03*
D247*
X45968Y31593D02*
D03*
X45332Y30957D02*
D03*
X46548Y31008D02*
D03*
X45912Y30372D02*
D03*
D248*
X50249Y28896D02*
D03*
X50886Y28259D02*
D03*
X49282Y28018D02*
D03*
X49918Y27382D02*
D03*
X47812Y27921D02*
D03*
X48448Y27284D02*
D03*
X49924Y31171D02*
D03*
X50561Y30534D02*
D03*
X48624Y29871D02*
D03*
X49261Y29234D02*
D03*
X48448Y30697D02*
D03*
X47812Y31333D02*
D03*
D249*
X15600Y42475D02*
D03*
Y43575D02*
D03*
Y44675D02*
D03*
Y45775D02*
D03*
Y46875D02*
D03*
Y47975D02*
D03*
Y49075D02*
D03*
Y50175D02*
D03*
Y51325D02*
D03*
D250*
X13950Y52600D02*
D03*
D251*
X13450Y37600D02*
D03*
D252*
X2450Y37500D02*
D03*
D253*
Y52450D02*
D03*
D254*
X5400Y52225D02*
D03*
D255*
X84575Y12145D02*
D03*
Y10005D02*
D03*
D256*
X90700Y7850D02*
D03*
Y7350D02*
D03*
Y6850D02*
D03*
X89750D02*
D03*
Y7350D02*
D03*
Y7850D02*
D03*
D257*
X20875Y27000D02*
D03*
X23075D02*
D03*
D258*
X80800Y8025D02*
D03*
X82700D02*
D03*
Y10225D02*
D03*
X81750D02*
D03*
X80800D02*
D03*
D259*
X95205Y5600D02*
D03*
X97745D02*
D03*
Y13850D02*
D03*
X95205D02*
D03*
M02*
