M48
;Layer_Color=9474304
;FILE_FORMAT=4:3
METRIC,LZ
;TYPE=PLATED
T6F00S00C0.600
T7F00S00C0.600
%
G90
G05
T06
G00X009412Y0023505
M15
G01X009352
M16
G00X009885Y0023505
M15
G01X009825
M16
G00X009885Y0032045
M15
G01X009825
M16
G00X009412Y0032045
M15
G01X009352
M16
G00X000688Y003577
M15
G01X000748
M16
G00X000215Y003577
M15
G01X000275
M16
G00X000215Y002723
M15
G01X000275
M16
G00X000688Y002723
M15
G01X000748
M16
T07
G00X0072Y00011
M15
G01Y00018
M16
G00X0079Y00011
M15
G01Y00018
M16
M17
M30
