G04 Layer_Color=8421504*
%FSLAX43Y43*%
%MOMM*%
G71*
G01*
G75*
%ADD10R,1.000X0.640*%
%ADD11R,1.000X0.640*%
%ADD12R,0.750X0.750*%
%ADD13R,0.375X0.400*%
%ADD14C,0.100*%
%ADD15R,0.510X0.700*%
%ADD16R,0.700X0.510*%
%ADD17R,0.510X0.560*%
%ADD18R,0.600X0.250*%
%ADD19R,0.560X0.510*%
%ADD20R,0.890X0.640*%
%ADD21R,1.750X0.700*%
%ADD22R,1.400X1.000*%
%ADD23R,0.900X0.550*%
%ADD24R,0.400X0.750*%
%ADD25R,0.450X0.750*%
%ADD26R,1.000X0.640*%
%ADD27R,0.640X1.000*%
%ADD28R,0.800X0.800*%
%ADD29R,0.800X0.800*%
%ADD30R,0.800X0.950*%
%ADD31R,2.000X0.800*%
%ADD32R,0.800X2.000*%
%ADD33R,1.200X0.300*%
%ADD34R,1.400X0.900*%
%ADD35R,0.640X0.890*%
%ADD36R,0.900X1.400*%
%ADD37R,0.750X1.000*%
%ADD38R,1.900X0.300*%
%ADD39R,2.000X2.600*%
%ADD40R,2.500X2.000*%
%ADD41R,1.850X0.600*%
%ADD42R,1.650X0.600*%
%ADD43R,0.400X1.350*%
%ADD44R,1.500X1.900*%
%ADD45R,1.450X1.600*%
%ADD46R,2.200X2.600*%
%ADD47R,1.000X1.250*%
%ADD48R,0.850X0.750*%
%ADD49R,2.700X1.500*%
%ADD50R,1.400X1.200*%
%ADD51R,0.700X0.800*%
%ADD52R,0.600X0.420*%
%ADD53R,1.000X1.400*%
%ADD54R,1.200X0.600*%
%ADD55R,0.300X0.990*%
%ADD56R,0.330X0.425*%
%ADD57R,0.580X0.200*%
%ADD58R,0.580X0.400*%
%ADD59C,0.400*%
%ADD60R,0.300X1.200*%
%ADD61R,1.200X0.300*%
G04:AMPARAMS|DCode=62|XSize=0.25mm|YSize=0.6mm|CornerRadius=0.063mm|HoleSize=0mm|Usage=FLASHONLY|Rotation=270.000|XOffset=0mm|YOffset=0mm|HoleType=Round|Shape=RoundedRectangle|*
%AMROUNDEDRECTD62*
21,1,0.250,0.475,0,0,270.0*
21,1,0.125,0.600,0,0,270.0*
1,1,0.125,-0.237,-0.063*
1,1,0.125,-0.237,0.063*
1,1,0.125,0.237,0.063*
1,1,0.125,0.237,-0.063*
%
%ADD62ROUNDEDRECTD62*%
G04:AMPARAMS|DCode=63|XSize=0.25mm|YSize=0.6mm|CornerRadius=0.063mm|HoleSize=0mm|Usage=FLASHONLY|Rotation=0.000|XOffset=0mm|YOffset=0mm|HoleType=Round|Shape=RoundedRectangle|*
%AMROUNDEDRECTD63*
21,1,0.250,0.475,0,0,0.0*
21,1,0.125,0.600,0,0,0.0*
1,1,0.125,0.063,-0.237*
1,1,0.125,-0.063,-0.237*
1,1,0.125,-0.063,0.237*
1,1,0.125,0.063,0.237*
%
%ADD63ROUNDEDRECTD63*%
%ADD64O,0.750X0.300*%
%ADD65O,0.300X0.750*%
%ADD66R,3.700X3.700*%
G04:AMPARAMS|DCode=67|XSize=0.9mm|YSize=0.3mm|CornerRadius=0.075mm|HoleSize=0mm|Usage=FLASHONLY|Rotation=180.000|XOffset=0mm|YOffset=0mm|HoleType=Round|Shape=RoundedRectangle|*
%AMROUNDEDRECTD67*
21,1,0.900,0.150,0,0,180.0*
21,1,0.750,0.300,0,0,180.0*
1,1,0.150,-0.375,0.075*
1,1,0.150,0.375,0.075*
1,1,0.150,0.375,-0.075*
1,1,0.150,-0.375,-0.075*
%
%ADD67ROUNDEDRECTD67*%
%ADD68R,0.900X0.300*%
G04:AMPARAMS|DCode=69|XSize=0.9mm|YSize=0.3mm|CornerRadius=0.075mm|HoleSize=0mm|Usage=FLASHONLY|Rotation=90.000|XOffset=0mm|YOffset=0mm|HoleType=Round|Shape=RoundedRectangle|*
%AMROUNDEDRECTD69*
21,1,0.900,0.150,0,0,90.0*
21,1,0.750,0.300,0,0,90.0*
1,1,0.150,0.075,0.375*
1,1,0.150,0.075,-0.375*
1,1,0.150,-0.075,-0.375*
1,1,0.150,-0.075,0.375*
%
%ADD69ROUNDEDRECTD69*%
%ADD70R,0.300X0.900*%
%ADD71R,3.900X3.900*%
%ADD72R,0.200X0.700*%
%ADD73R,3.800X3.800*%
%ADD74R,0.700X0.200*%
%ADD75O,1.000X0.300*%
%ADD76O,0.300X0.850*%
%ADD77O,0.300X1.000*%
%ADD78O,0.850X0.300*%
%ADD79R,5.850X5.850*%
%ADD80C,0.230*%
%ADD81R,0.200X0.800*%
%ADD82R,0.800X0.200*%
%ADD83R,0.900X0.650*%
%ADD84R,0.950X0.800*%
%ADD85R,1.000X0.600*%
%ADD86R,1.100X1.500*%
%ADD87R,1.000X1.000*%
%ADD88R,0.500X0.250*%
%ADD89R,0.375X0.500*%
%ADD90R,0.250X0.500*%
%ADD91R,0.850X1.300*%
G36*
X24460Y-9823D02*
X24698D01*
Y-10007D01*
X24460D01*
Y-10826D01*
Y-10831D01*
Y-10842D01*
Y-10859D01*
X24462Y-10878D01*
X24465Y-10923D01*
X24468Y-10942D01*
X24471Y-10956D01*
X24473Y-10962D01*
X24482Y-10973D01*
X24493Y-10987D01*
X24512Y-11000D01*
X24518Y-11003D01*
X24532Y-11009D01*
X24557Y-11014D01*
X24593Y-11017D01*
X24621D01*
X24635Y-11014D01*
X24654D01*
X24676Y-11012D01*
X24698Y-11009D01*
X24729Y-11217D01*
X24723D01*
X24712Y-11220D01*
X24693Y-11223D01*
X24668Y-11225D01*
X24640Y-11231D01*
X24610Y-11234D01*
X24548Y-11236D01*
X24526D01*
X24504Y-11234D01*
X24476Y-11231D01*
X24443Y-11228D01*
X24410Y-11220D01*
X24379Y-11211D01*
X24349Y-11198D01*
X24346Y-11195D01*
X24337Y-11189D01*
X24326Y-11181D01*
X24310Y-11167D01*
X24296Y-11153D01*
X24279Y-11134D01*
X24263Y-11114D01*
X24251Y-11089D01*
Y-11087D01*
X24246Y-11075D01*
X24243Y-11056D01*
X24238Y-11028D01*
X24232Y-10992D01*
X24229Y-10970D01*
Y-10945D01*
X24226Y-10914D01*
X24224Y-10884D01*
Y-10851D01*
Y-10812D01*
Y-10007D01*
X24049D01*
Y-9823D01*
X24224D01*
Y-9479D01*
X24460Y-9337D01*
Y-9823D01*
D02*
G37*
G36*
X23355Y-9796D02*
X23396Y-9798D01*
X23441Y-9804D01*
X23488Y-9815D01*
X23538Y-9826D01*
X23585Y-9843D01*
X23588D01*
X23591Y-9846D01*
X23605Y-9851D01*
X23627Y-9862D01*
X23655Y-9876D01*
X23685Y-9896D01*
X23716Y-9918D01*
X23743Y-9943D01*
X23768Y-9970D01*
X23771Y-9973D01*
X23777Y-9984D01*
X23788Y-10004D01*
X23802Y-10026D01*
X23816Y-10059D01*
X23829Y-10095D01*
X23841Y-10137D01*
X23852Y-10184D01*
X23621Y-10215D01*
Y-10209D01*
X23618Y-10198D01*
X23613Y-10179D01*
X23605Y-10154D01*
X23591Y-10129D01*
X23574Y-10101D01*
X23555Y-10073D01*
X23527Y-10048D01*
X23524Y-10045D01*
X23513Y-10040D01*
X23496Y-10029D01*
X23471Y-10018D01*
X23444Y-10007D01*
X23407Y-9995D01*
X23363Y-9990D01*
X23316Y-9987D01*
X23288D01*
X23260Y-9990D01*
X23224Y-9993D01*
X23188Y-10001D01*
X23149Y-10009D01*
X23113Y-10023D01*
X23083Y-10043D01*
X23080Y-10045D01*
X23072Y-10051D01*
X23060Y-10062D01*
X23049Y-10079D01*
X23035Y-10095D01*
X23024Y-10118D01*
X23016Y-10143D01*
X23013Y-10168D01*
Y-10170D01*
Y-10176D01*
X23016Y-10184D01*
Y-10195D01*
X23024Y-10223D01*
X23041Y-10251D01*
X23044Y-10254D01*
X23047Y-10256D01*
X23052Y-10265D01*
X23063Y-10273D01*
X23074Y-10281D01*
X23091Y-10293D01*
X23110Y-10301D01*
X23133Y-10312D01*
X23135D01*
X23141Y-10315D01*
X23152Y-10318D01*
X23171Y-10326D01*
X23199Y-10334D01*
X23235Y-10342D01*
X23258Y-10351D01*
X23282Y-10356D01*
X23310Y-10365D01*
X23341Y-10373D01*
X23344D01*
X23352Y-10376D01*
X23366Y-10379D01*
X23382Y-10384D01*
X23402Y-10390D01*
X23427Y-10395D01*
X23480Y-10412D01*
X23538Y-10429D01*
X23596Y-10448D01*
X23649Y-10467D01*
X23671Y-10476D01*
X23691Y-10484D01*
X23696Y-10487D01*
X23707Y-10492D01*
X23724Y-10501D01*
X23749Y-10515D01*
X23774Y-10531D01*
X23799Y-10553D01*
X23824Y-10578D01*
X23846Y-10606D01*
X23849Y-10609D01*
X23854Y-10620D01*
X23865Y-10637D01*
X23877Y-10662D01*
X23885Y-10692D01*
X23896Y-10726D01*
X23902Y-10764D01*
X23904Y-10809D01*
Y-10814D01*
Y-10828D01*
X23902Y-10851D01*
X23896Y-10881D01*
X23888Y-10914D01*
X23874Y-10950D01*
X23857Y-10992D01*
X23835Y-11031D01*
X23832Y-11037D01*
X23821Y-11048D01*
X23807Y-11067D01*
X23785Y-11089D01*
X23754Y-11114D01*
X23721Y-11142D01*
X23682Y-11167D01*
X23635Y-11192D01*
X23632D01*
X23630Y-11195D01*
X23613Y-11200D01*
X23585Y-11209D01*
X23549Y-11220D01*
X23505Y-11231D01*
X23455Y-11239D01*
X23402Y-11245D01*
X23341Y-11248D01*
X23316D01*
X23296Y-11245D01*
X23274D01*
X23246Y-11242D01*
X23219Y-11239D01*
X23188Y-11234D01*
X23121Y-11220D01*
X23052Y-11200D01*
X22985Y-11173D01*
X22955Y-11156D01*
X22927Y-11137D01*
X22924Y-11134D01*
X22922Y-11131D01*
X22905Y-11114D01*
X22880Y-11089D01*
X22852Y-11050D01*
X22822Y-11003D01*
X22791Y-10948D01*
X22766Y-10878D01*
X22747Y-10801D01*
X22980Y-10764D01*
Y-10767D01*
Y-10770D01*
X22985Y-10787D01*
X22991Y-10814D01*
X23002Y-10845D01*
X23016Y-10878D01*
X23033Y-10914D01*
X23058Y-10950D01*
X23088Y-10981D01*
X23094Y-10984D01*
X23105Y-10992D01*
X23127Y-11003D01*
X23155Y-11017D01*
X23191Y-11031D01*
X23233Y-11042D01*
X23282Y-11050D01*
X23341Y-11053D01*
X23369D01*
X23396Y-11050D01*
X23432Y-11045D01*
X23471Y-11037D01*
X23513Y-11025D01*
X23549Y-11012D01*
X23582Y-10989D01*
X23585Y-10987D01*
X23596Y-10978D01*
X23607Y-10964D01*
X23624Y-10945D01*
X23638Y-10923D01*
X23652Y-10895D01*
X23660Y-10867D01*
X23663Y-10834D01*
Y-10831D01*
Y-10820D01*
X23660Y-10806D01*
X23655Y-10787D01*
X23646Y-10767D01*
X23632Y-10748D01*
X23616Y-10726D01*
X23591Y-10709D01*
X23588Y-10706D01*
X23580Y-10703D01*
X23566Y-10695D01*
X23543Y-10687D01*
X23510Y-10676D01*
X23491Y-10667D01*
X23469Y-10662D01*
X23444Y-10653D01*
X23416Y-10645D01*
X23385Y-10637D01*
X23349Y-10628D01*
X23346D01*
X23338Y-10626D01*
X23324Y-10623D01*
X23307Y-10617D01*
X23285Y-10612D01*
X23260Y-10603D01*
X23208Y-10590D01*
X23146Y-10570D01*
X23088Y-10553D01*
X23033Y-10534D01*
X23008Y-10523D01*
X22988Y-10515D01*
X22983Y-10512D01*
X22972Y-10506D01*
X22955Y-10495D01*
X22933Y-10481D01*
X22908Y-10462D01*
X22883Y-10440D01*
X22858Y-10415D01*
X22836Y-10384D01*
X22833Y-10381D01*
X22827Y-10370D01*
X22819Y-10351D01*
X22811Y-10329D01*
X22802Y-10301D01*
X22794Y-10268D01*
X22788Y-10234D01*
X22786Y-10195D01*
Y-10190D01*
Y-10179D01*
X22788Y-10162D01*
X22791Y-10137D01*
X22797Y-10112D01*
X22802Y-10082D01*
X22813Y-10054D01*
X22827Y-10023D01*
X22830Y-10020D01*
X22836Y-10009D01*
X22844Y-9995D01*
X22858Y-9976D01*
X22874Y-9957D01*
X22894Y-9932D01*
X22916Y-9909D01*
X22944Y-9890D01*
X22947Y-9887D01*
X22955Y-9884D01*
X22966Y-9876D01*
X22983Y-9868D01*
X23005Y-9857D01*
X23030Y-9846D01*
X23060Y-9834D01*
X23094Y-9823D01*
X23099Y-9821D01*
X23110Y-9818D01*
X23130Y-9812D01*
X23155Y-9807D01*
X23185Y-9801D01*
X23219Y-9798D01*
X23258Y-9793D01*
X23324D01*
X23355Y-9796D01*
D02*
G37*
G36*
X25548D02*
X25570Y-9798D01*
X25598Y-9804D01*
X25628Y-9809D01*
X25664Y-9818D01*
X25698Y-9826D01*
X25737Y-9840D01*
X25773Y-9854D01*
X25812Y-9873D01*
X25851Y-9896D01*
X25889Y-9921D01*
X25925Y-9951D01*
X25959Y-9984D01*
X25962Y-9987D01*
X25967Y-9993D01*
X25975Y-10004D01*
X25987Y-10020D01*
X26000Y-10040D01*
X26014Y-10062D01*
X26031Y-10090D01*
X26048Y-10123D01*
X26064Y-10159D01*
X26081Y-10198D01*
X26095Y-10243D01*
X26109Y-10290D01*
X26120Y-10342D01*
X26128Y-10398D01*
X26134Y-10456D01*
X26136Y-10520D01*
Y-10523D01*
Y-10534D01*
Y-10553D01*
X26134Y-10581D01*
X25093D01*
Y-10584D01*
Y-10592D01*
X25095Y-10603D01*
Y-10620D01*
X25098Y-10640D01*
X25104Y-10662D01*
X25112Y-10712D01*
X25129Y-10767D01*
X25151Y-10828D01*
X25181Y-10884D01*
X25220Y-10934D01*
X25223D01*
X25226Y-10939D01*
X25243Y-10953D01*
X25267Y-10973D01*
X25301Y-10992D01*
X25345Y-11014D01*
X25395Y-11034D01*
X25451Y-11048D01*
X25481Y-11050D01*
X25515Y-11053D01*
X25537D01*
X25562Y-11050D01*
X25592Y-11045D01*
X25626Y-11037D01*
X25664Y-11025D01*
X25701Y-11009D01*
X25737Y-10987D01*
X25739Y-10984D01*
X25753Y-10973D01*
X25770Y-10956D01*
X25789Y-10934D01*
X25812Y-10903D01*
X25837Y-10864D01*
X25862Y-10820D01*
X25884Y-10767D01*
X26128Y-10798D01*
Y-10801D01*
X26125Y-10806D01*
X26123Y-10817D01*
X26117Y-10834D01*
X26109Y-10851D01*
X26100Y-10873D01*
X26078Y-10920D01*
X26050Y-10973D01*
X26012Y-11028D01*
X25967Y-11081D01*
X25912Y-11131D01*
X25909D01*
X25903Y-11137D01*
X25895Y-11142D01*
X25884Y-11150D01*
X25867Y-11159D01*
X25851Y-11167D01*
X25828Y-11178D01*
X25803Y-11189D01*
X25776Y-11200D01*
X25748Y-11211D01*
X25678Y-11228D01*
X25601Y-11242D01*
X25515Y-11248D01*
X25484D01*
X25465Y-11245D01*
X25440Y-11242D01*
X25409Y-11236D01*
X25376Y-11231D01*
X25340Y-11225D01*
X25262Y-11203D01*
X25220Y-11186D01*
X25181Y-11170D01*
X25140Y-11148D01*
X25101Y-11123D01*
X25065Y-11095D01*
X25029Y-11062D01*
X25026Y-11059D01*
X25020Y-11053D01*
X25012Y-11042D01*
X25001Y-11025D01*
X24987Y-11006D01*
X24973Y-10984D01*
X24957Y-10956D01*
X24940Y-10925D01*
X24923Y-10889D01*
X24907Y-10851D01*
X24893Y-10806D01*
X24879Y-10759D01*
X24868Y-10709D01*
X24859Y-10653D01*
X24854Y-10595D01*
X24851Y-10534D01*
Y-10531D01*
Y-10517D01*
Y-10501D01*
X24854Y-10476D01*
X24857Y-10445D01*
X24859Y-10412D01*
X24865Y-10373D01*
X24873Y-10334D01*
X24895Y-10245D01*
X24909Y-10201D01*
X24926Y-10154D01*
X24948Y-10109D01*
X24973Y-10068D01*
X25001Y-10026D01*
X25032Y-9987D01*
X25034Y-9984D01*
X25040Y-9979D01*
X25051Y-9970D01*
X25065Y-9957D01*
X25081Y-9943D01*
X25104Y-9926D01*
X25129Y-9907D01*
X25159Y-9890D01*
X25190Y-9871D01*
X25226Y-9854D01*
X25265Y-9837D01*
X25306Y-9823D01*
X25351Y-9809D01*
X25398Y-9801D01*
X25448Y-9796D01*
X25501Y-9793D01*
X25528D01*
X25548Y-9796D01*
D02*
G37*
G36*
X21997D02*
X22039Y-9798D01*
X22086Y-9804D01*
X22133Y-9812D01*
X22180Y-9823D01*
X22225Y-9837D01*
X22230Y-9840D01*
X22244Y-9846D01*
X22264Y-9854D01*
X22289Y-9865D01*
X22316Y-9882D01*
X22344Y-9898D01*
X22369Y-9921D01*
X22391Y-9943D01*
X22394Y-9946D01*
X22400Y-9954D01*
X22408Y-9968D01*
X22419Y-9984D01*
X22433Y-10009D01*
X22444Y-10034D01*
X22455Y-10065D01*
X22464Y-10101D01*
Y-10104D01*
X22466Y-10112D01*
X22469Y-10129D01*
X22472Y-10151D01*
Y-10181D01*
X22475Y-10218D01*
X22477Y-10265D01*
Y-10318D01*
Y-10634D01*
Y-10637D01*
Y-10648D01*
Y-10665D01*
Y-10687D01*
Y-10712D01*
Y-10742D01*
X22480Y-10809D01*
Y-10878D01*
X22483Y-10948D01*
X22486Y-10978D01*
Y-11006D01*
X22488Y-11031D01*
X22491Y-11050D01*
Y-11053D01*
X22494Y-11064D01*
X22497Y-11081D01*
X22505Y-11103D01*
X22511Y-11128D01*
X22522Y-11156D01*
X22536Y-11186D01*
X22550Y-11217D01*
X22302D01*
X22300Y-11214D01*
X22297Y-11203D01*
X22291Y-11189D01*
X22283Y-11167D01*
X22275Y-11142D01*
X22269Y-11112D01*
X22264Y-11078D01*
X22258Y-11042D01*
X22255D01*
X22253Y-11048D01*
X22236Y-11062D01*
X22211Y-11081D01*
X22178Y-11106D01*
X22136Y-11131D01*
X22094Y-11159D01*
X22050Y-11184D01*
X22003Y-11203D01*
X21997Y-11206D01*
X21980Y-11209D01*
X21955Y-11217D01*
X21925Y-11225D01*
X21886Y-11234D01*
X21842Y-11239D01*
X21792Y-11245D01*
X21742Y-11248D01*
X21719D01*
X21703Y-11245D01*
X21683D01*
X21661Y-11242D01*
X21611Y-11234D01*
X21556Y-11220D01*
X21495Y-11200D01*
X21439Y-11173D01*
X21389Y-11137D01*
X21384Y-11131D01*
X21370Y-11117D01*
X21350Y-11092D01*
X21328Y-11059D01*
X21306Y-11017D01*
X21286Y-10970D01*
X21273Y-10912D01*
X21270Y-10884D01*
X21267Y-10851D01*
Y-10845D01*
Y-10834D01*
X21270Y-10814D01*
X21273Y-10789D01*
X21278Y-10759D01*
X21286Y-10728D01*
X21298Y-10695D01*
X21311Y-10665D01*
X21314Y-10662D01*
X21320Y-10651D01*
X21331Y-10634D01*
X21345Y-10615D01*
X21361Y-10592D01*
X21384Y-10570D01*
X21406Y-10548D01*
X21434Y-10528D01*
X21436Y-10526D01*
X21447Y-10520D01*
X21461Y-10509D01*
X21483Y-10498D01*
X21508Y-10487D01*
X21539Y-10473D01*
X21570Y-10462D01*
X21606Y-10451D01*
X21608D01*
X21620Y-10448D01*
X21636Y-10442D01*
X21658Y-10440D01*
X21686Y-10434D01*
X21722Y-10429D01*
X21764Y-10420D01*
X21814Y-10415D01*
X21817D01*
X21828Y-10412D01*
X21842D01*
X21861Y-10409D01*
X21883Y-10406D01*
X21911Y-10401D01*
X21942Y-10398D01*
X21975Y-10392D01*
X22042Y-10379D01*
X22114Y-10365D01*
X22178Y-10348D01*
X22208Y-10340D01*
X22236Y-10331D01*
Y-10329D01*
Y-10323D01*
X22239Y-10306D01*
Y-10287D01*
Y-10276D01*
Y-10270D01*
Y-10268D01*
Y-10265D01*
Y-10248D01*
X22236Y-10220D01*
X22230Y-10190D01*
X22222Y-10156D01*
X22208Y-10123D01*
X22191Y-10093D01*
X22169Y-10068D01*
X22166Y-10065D01*
X22153Y-10054D01*
X22130Y-10043D01*
X22103Y-10026D01*
X22064Y-10012D01*
X22019Y-9998D01*
X21964Y-9990D01*
X21900Y-9987D01*
X21872D01*
X21844Y-9990D01*
X21806Y-9995D01*
X21767Y-10001D01*
X21725Y-10012D01*
X21686Y-10026D01*
X21653Y-10045D01*
X21650Y-10048D01*
X21639Y-10057D01*
X21625Y-10070D01*
X21608Y-10093D01*
X21592Y-10120D01*
X21572Y-10156D01*
X21556Y-10201D01*
X21539Y-10251D01*
X21309Y-10220D01*
Y-10218D01*
X21311Y-10215D01*
Y-10206D01*
X21314Y-10195D01*
X21322Y-10170D01*
X21334Y-10134D01*
X21347Y-10098D01*
X21364Y-10059D01*
X21386Y-10020D01*
X21411Y-9984D01*
X21414Y-9982D01*
X21425Y-9970D01*
X21442Y-9954D01*
X21464Y-9932D01*
X21495Y-9909D01*
X21531Y-9887D01*
X21572Y-9862D01*
X21620Y-9843D01*
X21622D01*
X21625Y-9840D01*
X21633Y-9837D01*
X21645Y-9834D01*
X21672Y-9826D01*
X21711Y-9818D01*
X21756Y-9809D01*
X21811Y-9801D01*
X21869Y-9796D01*
X21936Y-9793D01*
X21967D01*
X21997Y-9796D01*
D02*
G37*
G36*
X20417Y-9299D02*
X20465Y-9301D01*
X20515Y-9304D01*
X20562Y-9310D01*
X20603Y-9315D01*
X20609D01*
X20628Y-9321D01*
X20653Y-9326D01*
X20687Y-9335D01*
X20723Y-9349D01*
X20762Y-9365D01*
X20803Y-9385D01*
X20839Y-9407D01*
X20845Y-9410D01*
X20856Y-9418D01*
X20873Y-9435D01*
X20895Y-9454D01*
X20920Y-9479D01*
X20945Y-9512D01*
X20973Y-9549D01*
X20995Y-9590D01*
X20998Y-9596D01*
X21003Y-9610D01*
X21014Y-9635D01*
X21025Y-9668D01*
X21034Y-9707D01*
X21045Y-9751D01*
X21050Y-9801D01*
X21053Y-9854D01*
Y-9857D01*
Y-9865D01*
Y-9876D01*
X21050Y-9896D01*
X21048Y-9915D01*
X21045Y-9940D01*
X21039Y-9968D01*
X21034Y-9998D01*
X21014Y-10062D01*
X21003Y-10095D01*
X20987Y-10132D01*
X20967Y-10168D01*
X20948Y-10201D01*
X20923Y-10234D01*
X20895Y-10268D01*
X20892Y-10270D01*
X20887Y-10276D01*
X20878Y-10284D01*
X20864Y-10293D01*
X20848Y-10306D01*
X20826Y-10320D01*
X20798Y-10337D01*
X20767Y-10351D01*
X20731Y-10367D01*
X20690Y-10384D01*
X20645Y-10398D01*
X20592Y-10409D01*
X20537Y-10420D01*
X20476Y-10429D01*
X20406Y-10434D01*
X20334Y-10437D01*
X19843D01*
Y-11217D01*
X19587D01*
Y-9296D01*
X20376D01*
X20417Y-9299D01*
D02*
G37*
G36*
X15590Y-9524D02*
X14957D01*
Y-11217D01*
X14701D01*
Y-9524D01*
X14068D01*
Y-9296D01*
X15590D01*
Y-9524D01*
D02*
G37*
G36*
X61032Y-9299D02*
X61079Y-9301D01*
X61129Y-9304D01*
X61177Y-9310D01*
X61218Y-9315D01*
X61224D01*
X61243Y-9321D01*
X61268Y-9326D01*
X61302Y-9335D01*
X61338Y-9349D01*
X61377Y-9365D01*
X61418Y-9385D01*
X61454Y-9407D01*
X61460Y-9410D01*
X61471Y-9418D01*
X61488Y-9435D01*
X61510Y-9454D01*
X61535Y-9479D01*
X61560Y-9512D01*
X61588Y-9549D01*
X61610Y-9590D01*
X61612Y-9596D01*
X61618Y-9610D01*
X61629Y-9635D01*
X61640Y-9668D01*
X61649Y-9707D01*
X61660Y-9751D01*
X61665Y-9801D01*
X61668Y-9854D01*
Y-9857D01*
Y-9865D01*
Y-9876D01*
X61665Y-9896D01*
X61662Y-9915D01*
X61660Y-9940D01*
X61654Y-9968D01*
X61649Y-9998D01*
X61629Y-10062D01*
X61618Y-10095D01*
X61601Y-10132D01*
X61582Y-10168D01*
X61563Y-10201D01*
X61538Y-10234D01*
X61510Y-10268D01*
X61507Y-10270D01*
X61501Y-10276D01*
X61493Y-10284D01*
X61479Y-10293D01*
X61463Y-10306D01*
X61440Y-10320D01*
X61413Y-10337D01*
X61382Y-10351D01*
X61346Y-10367D01*
X61304Y-10384D01*
X61260Y-10398D01*
X61207Y-10409D01*
X61152Y-10420D01*
X61091Y-10429D01*
X61021Y-10434D01*
X60949Y-10437D01*
X60458D01*
Y-11217D01*
X60202D01*
Y-9296D01*
X60991D01*
X61032Y-9299D01*
D02*
G37*
G36*
X16434Y-9796D02*
X16459Y-9798D01*
X16486Y-9804D01*
X16517Y-9809D01*
X16553Y-9815D01*
X16628Y-9840D01*
X16667Y-9854D01*
X16706Y-9873D01*
X16744Y-9893D01*
X16783Y-9921D01*
X16819Y-9948D01*
X16856Y-9982D01*
X16858Y-9984D01*
X16864Y-9990D01*
X16872Y-10001D01*
X16883Y-10015D01*
X16897Y-10034D01*
X16914Y-10059D01*
X16931Y-10087D01*
X16947Y-10118D01*
X16964Y-10151D01*
X16980Y-10193D01*
X16997Y-10234D01*
X17011Y-10281D01*
X17022Y-10331D01*
X17030Y-10384D01*
X17036Y-10440D01*
X17039Y-10501D01*
Y-10504D01*
Y-10512D01*
Y-10526D01*
Y-10545D01*
X17036Y-10567D01*
X17033Y-10595D01*
Y-10623D01*
X17028Y-10653D01*
X17019Y-10723D01*
X17003Y-10792D01*
X16983Y-10862D01*
X16955Y-10925D01*
Y-10928D01*
X16953Y-10931D01*
X16947Y-10939D01*
X16942Y-10950D01*
X16922Y-10978D01*
X16897Y-11012D01*
X16864Y-11050D01*
X16822Y-11089D01*
X16775Y-11128D01*
X16720Y-11164D01*
X16717D01*
X16714Y-11167D01*
X16706Y-11173D01*
X16692Y-11178D01*
X16678Y-11184D01*
X16661Y-11189D01*
X16620Y-11206D01*
X16572Y-11220D01*
X16514Y-11234D01*
X16453Y-11245D01*
X16386Y-11248D01*
X16359D01*
X16336Y-11245D01*
X16311Y-11242D01*
X16284Y-11236D01*
X16250Y-11231D01*
X16217Y-11225D01*
X16142Y-11203D01*
X16100Y-11186D01*
X16062Y-11170D01*
X16023Y-11148D01*
X15984Y-11123D01*
X15948Y-11095D01*
X15912Y-11062D01*
X15909Y-11059D01*
X15903Y-11053D01*
X15895Y-11042D01*
X15884Y-11025D01*
X15870Y-11006D01*
X15856Y-10984D01*
X15839Y-10956D01*
X15823Y-10923D01*
X15806Y-10887D01*
X15789Y-10845D01*
X15776Y-10801D01*
X15762Y-10753D01*
X15751Y-10701D01*
X15742Y-10645D01*
X15737Y-10584D01*
X15734Y-10520D01*
Y-10515D01*
Y-10504D01*
X15737Y-10484D01*
Y-10456D01*
X15740Y-10426D01*
X15745Y-10387D01*
X15751Y-10348D01*
X15762Y-10304D01*
X15773Y-10259D01*
X15787Y-10212D01*
X15803Y-10162D01*
X15826Y-10115D01*
X15848Y-10070D01*
X15878Y-10026D01*
X15909Y-9984D01*
X15948Y-9948D01*
X15950Y-9946D01*
X15956Y-9943D01*
X15967Y-9934D01*
X15981Y-9923D01*
X15998Y-9912D01*
X16020Y-9898D01*
X16042Y-9884D01*
X16070Y-9871D01*
X16100Y-9857D01*
X16134Y-9843D01*
X16209Y-9818D01*
X16295Y-9798D01*
X16339Y-9796D01*
X16386Y-9793D01*
X16414D01*
X16434Y-9796D01*
D02*
G37*
G36*
X57420Y-9265D02*
X57443D01*
X57495Y-9271D01*
X57554Y-9279D01*
X57615Y-9293D01*
X57681Y-9310D01*
X57745Y-9332D01*
X57748D01*
X57754Y-9335D01*
X57762Y-9337D01*
X57773Y-9343D01*
X57804Y-9360D01*
X57842Y-9379D01*
X57884Y-9407D01*
X57928Y-9440D01*
X57970Y-9476D01*
X58009Y-9521D01*
X58015Y-9526D01*
X58026Y-9543D01*
X58042Y-9568D01*
X58064Y-9604D01*
X58087Y-9648D01*
X58112Y-9704D01*
X58137Y-9765D01*
X58156Y-9834D01*
X57926Y-9896D01*
Y-9893D01*
X57923Y-9890D01*
X57920Y-9882D01*
X57917Y-9871D01*
X57909Y-9846D01*
X57898Y-9812D01*
X57881Y-9773D01*
X57862Y-9737D01*
X57842Y-9698D01*
X57817Y-9665D01*
X57815Y-9662D01*
X57806Y-9651D01*
X57790Y-9637D01*
X57770Y-9618D01*
X57745Y-9596D01*
X57712Y-9573D01*
X57676Y-9551D01*
X57634Y-9532D01*
X57629Y-9529D01*
X57615Y-9524D01*
X57590Y-9515D01*
X57556Y-9504D01*
X57518Y-9496D01*
X57473Y-9487D01*
X57423Y-9482D01*
X57370Y-9479D01*
X57340D01*
X57326Y-9482D01*
X57309D01*
X57268Y-9485D01*
X57221Y-9493D01*
X57168Y-9501D01*
X57118Y-9515D01*
X57068Y-9535D01*
X57062Y-9537D01*
X57046Y-9543D01*
X57023Y-9557D01*
X56996Y-9571D01*
X56962Y-9593D01*
X56926Y-9615D01*
X56893Y-9643D01*
X56862Y-9673D01*
X56860Y-9676D01*
X56848Y-9687D01*
X56835Y-9707D01*
X56818Y-9729D01*
X56799Y-9757D01*
X56779Y-9790D01*
X56760Y-9826D01*
X56740Y-9865D01*
Y-9868D01*
X56737Y-9873D01*
X56735Y-9882D01*
X56729Y-9896D01*
X56724Y-9912D01*
X56718Y-9932D01*
X56710Y-9954D01*
X56704Y-9979D01*
X56690Y-10037D01*
X56679Y-10104D01*
X56671Y-10173D01*
X56668Y-10251D01*
Y-10254D01*
Y-10262D01*
Y-10276D01*
X56671Y-10293D01*
Y-10315D01*
X56674Y-10342D01*
X56676Y-10370D01*
X56679Y-10401D01*
X56690Y-10470D01*
X56704Y-10542D01*
X56726Y-10615D01*
X56754Y-10684D01*
Y-10687D01*
X56760Y-10692D01*
X56762Y-10701D01*
X56771Y-10712D01*
X56790Y-10742D01*
X56821Y-10781D01*
X56857Y-10823D01*
X56901Y-10864D01*
X56954Y-10903D01*
X57012Y-10939D01*
X57015D01*
X57021Y-10942D01*
X57029Y-10948D01*
X57043Y-10953D01*
X57057Y-10959D01*
X57076Y-10964D01*
X57121Y-10981D01*
X57176Y-10995D01*
X57237Y-11009D01*
X57304Y-11020D01*
X57373Y-11023D01*
X57401D01*
X57418Y-11020D01*
X57434D01*
X57476Y-11014D01*
X57526Y-11009D01*
X57579Y-10998D01*
X57637Y-10981D01*
X57695Y-10962D01*
X57698D01*
X57704Y-10959D01*
X57709Y-10956D01*
X57720Y-10950D01*
X57751Y-10937D01*
X57784Y-10920D01*
X57823Y-10901D01*
X57865Y-10878D01*
X57903Y-10853D01*
X57937Y-10826D01*
Y-10465D01*
X57370D01*
Y-10237D01*
X58187D01*
Y-10950D01*
X58184Y-10953D01*
X58178Y-10956D01*
X58167Y-10964D01*
X58153Y-10975D01*
X58137Y-10987D01*
X58117Y-11000D01*
X58092Y-11017D01*
X58067Y-11034D01*
X58009Y-11070D01*
X57942Y-11109D01*
X57873Y-11145D01*
X57798Y-11175D01*
X57795D01*
X57790Y-11178D01*
X57779Y-11181D01*
X57765Y-11186D01*
X57745Y-11192D01*
X57723Y-11200D01*
X57698Y-11206D01*
X57673Y-11211D01*
X57612Y-11225D01*
X57543Y-11239D01*
X57468Y-11248D01*
X57390Y-11250D01*
X57362D01*
X57343Y-11248D01*
X57318D01*
X57287Y-11245D01*
X57254Y-11239D01*
X57218Y-11236D01*
X57137Y-11220D01*
X57051Y-11200D01*
X56962Y-11170D01*
X56918Y-11153D01*
X56873Y-11131D01*
X56871Y-11128D01*
X56862Y-11125D01*
X56851Y-11117D01*
X56835Y-11109D01*
X56815Y-11095D01*
X56796Y-11081D01*
X56743Y-11042D01*
X56687Y-10992D01*
X56629Y-10931D01*
X56574Y-10862D01*
X56524Y-10781D01*
Y-10778D01*
X56518Y-10770D01*
X56513Y-10759D01*
X56504Y-10740D01*
X56496Y-10720D01*
X56488Y-10692D01*
X56476Y-10665D01*
X56465Y-10631D01*
X56454Y-10595D01*
X56443Y-10553D01*
X56435Y-10512D01*
X56427Y-10467D01*
X56413Y-10370D01*
X56407Y-10268D01*
Y-10265D01*
Y-10254D01*
Y-10240D01*
X56410Y-10220D01*
Y-10195D01*
X56413Y-10165D01*
X56418Y-10134D01*
X56421Y-10098D01*
X56429Y-10059D01*
X56435Y-10018D01*
X56457Y-9929D01*
X56485Y-9837D01*
X56524Y-9746D01*
X56526Y-9743D01*
X56529Y-9734D01*
X56535Y-9723D01*
X56546Y-9707D01*
X56557Y-9685D01*
X56571Y-9662D01*
X56610Y-9610D01*
X56657Y-9549D01*
X56715Y-9490D01*
X56782Y-9432D01*
X56821Y-9407D01*
X56860Y-9382D01*
X56862Y-9379D01*
X56871Y-9376D01*
X56882Y-9371D01*
X56898Y-9362D01*
X56921Y-9354D01*
X56946Y-9343D01*
X56973Y-9332D01*
X57007Y-9321D01*
X57043Y-9310D01*
X57082Y-9301D01*
X57123Y-9290D01*
X57168Y-9282D01*
X57265Y-9268D01*
X57315Y-9263D01*
X57404D01*
X57420Y-9265D01*
D02*
G37*
G36*
X17977Y-9796D02*
X17997Y-9798D01*
X18038Y-9804D01*
X18088Y-9815D01*
X18141Y-9832D01*
X18194Y-9857D01*
X18246Y-9887D01*
X18249D01*
X18252Y-9893D01*
X18269Y-9904D01*
X18294Y-9926D01*
X18324Y-9954D01*
X18357Y-9990D01*
X18391Y-10034D01*
X18424Y-10087D01*
X18452Y-10145D01*
Y-10148D01*
X18455Y-10154D01*
X18457Y-10162D01*
X18463Y-10173D01*
X18469Y-10190D01*
X18474Y-10209D01*
X18488Y-10254D01*
X18502Y-10309D01*
X18513Y-10370D01*
X18521Y-10440D01*
X18524Y-10512D01*
Y-10515D01*
Y-10520D01*
Y-10531D01*
Y-10548D01*
X18521Y-10567D01*
Y-10590D01*
X18516Y-10640D01*
X18505Y-10701D01*
X18491Y-10764D01*
X18471Y-10831D01*
X18446Y-10898D01*
Y-10901D01*
X18444Y-10906D01*
X18438Y-10914D01*
X18432Y-10925D01*
X18413Y-10956D01*
X18388Y-10995D01*
X18357Y-11037D01*
X18319Y-11078D01*
X18274Y-11120D01*
X18221Y-11159D01*
X18219D01*
X18216Y-11161D01*
X18208Y-11167D01*
X18196Y-11173D01*
X18169Y-11186D01*
X18130Y-11203D01*
X18083Y-11220D01*
X18033Y-11234D01*
X17974Y-11245D01*
X17916Y-11248D01*
X17897D01*
X17874Y-11245D01*
X17847Y-11242D01*
X17813Y-11236D01*
X17777Y-11228D01*
X17741Y-11217D01*
X17705Y-11200D01*
X17702Y-11198D01*
X17688Y-11192D01*
X17672Y-11181D01*
X17650Y-11164D01*
X17627Y-11148D01*
X17600Y-11125D01*
X17575Y-11100D01*
X17552Y-11073D01*
Y-11750D01*
X17316D01*
Y-9823D01*
X17530D01*
Y-10007D01*
X17533Y-10001D01*
X17544Y-9990D01*
X17558Y-9970D01*
X17580Y-9948D01*
X17605Y-9921D01*
X17633Y-9896D01*
X17666Y-9871D01*
X17700Y-9848D01*
X17705Y-9846D01*
X17716Y-9840D01*
X17738Y-9832D01*
X17766Y-9821D01*
X17799Y-9809D01*
X17838Y-9801D01*
X17883Y-9796D01*
X17933Y-9793D01*
X17963D01*
X17977Y-9796D01*
D02*
G37*
G36*
X56032Y-11217D02*
X55763D01*
Y-10948D01*
X56032D01*
Y-11217D01*
D02*
G37*
G36*
X59938Y-9524D02*
X59305D01*
Y-11217D01*
X59050D01*
Y-9524D01*
X58417D01*
Y-9296D01*
X59938D01*
Y-9524D01*
D02*
G37*
%LPC*%
G36*
X25503Y-9987D02*
X25487D01*
X25476Y-9990D01*
X25445Y-9993D01*
X25409Y-10001D01*
X25365Y-10015D01*
X25317Y-10034D01*
X25273Y-10062D01*
X25229Y-10098D01*
X25223Y-10104D01*
X25212Y-10118D01*
X25193Y-10143D01*
X25173Y-10176D01*
X25151Y-10215D01*
X25131Y-10265D01*
X25115Y-10323D01*
X25106Y-10387D01*
X25887D01*
Y-10384D01*
Y-10379D01*
X25884Y-10370D01*
Y-10359D01*
X25878Y-10326D01*
X25870Y-10290D01*
X25856Y-10245D01*
X25842Y-10204D01*
X25820Y-10162D01*
X25795Y-10126D01*
Y-10123D01*
X25789Y-10120D01*
X25776Y-10104D01*
X25751Y-10082D01*
X25717Y-10057D01*
X25676Y-10032D01*
X25626Y-10009D01*
X25567Y-9993D01*
X25537Y-9990D01*
X25503Y-9987D01*
D02*
G37*
G36*
X22239Y-10517D02*
X22236D01*
X22233Y-10520D01*
X22225Y-10523D01*
X22214Y-10526D01*
X22200Y-10531D01*
X22183Y-10537D01*
X22164Y-10542D01*
X22141Y-10548D01*
X22116Y-10556D01*
X22086Y-10562D01*
X22055Y-10570D01*
X22019Y-10578D01*
X21980Y-10587D01*
X21942Y-10595D01*
X21897Y-10601D01*
X21850Y-10609D01*
X21844D01*
X21828Y-10612D01*
X21800Y-10617D01*
X21769Y-10623D01*
X21736Y-10628D01*
X21703Y-10637D01*
X21672Y-10645D01*
X21645Y-10656D01*
X21642D01*
X21633Y-10662D01*
X21622Y-10667D01*
X21611Y-10676D01*
X21578Y-10698D01*
X21550Y-10731D01*
Y-10734D01*
X21545Y-10740D01*
X21542Y-10751D01*
X21536Y-10764D01*
X21531Y-10781D01*
X21525Y-10798D01*
X21522Y-10820D01*
X21520Y-10842D01*
Y-10845D01*
Y-10859D01*
X21522Y-10876D01*
X21528Y-10898D01*
X21536Y-10923D01*
X21550Y-10948D01*
X21567Y-10975D01*
X21589Y-11000D01*
X21592Y-11003D01*
X21603Y-11009D01*
X21620Y-11020D01*
X21642Y-11031D01*
X21672Y-11042D01*
X21708Y-11053D01*
X21750Y-11059D01*
X21800Y-11062D01*
X21822D01*
X21850Y-11059D01*
X21881Y-11053D01*
X21919Y-11048D01*
X21958Y-11037D01*
X22000Y-11023D01*
X22042Y-11003D01*
X22047Y-11000D01*
X22058Y-10992D01*
X22078Y-10978D01*
X22100Y-10959D01*
X22125Y-10937D01*
X22153Y-10909D01*
X22175Y-10876D01*
X22197Y-10839D01*
X22200Y-10837D01*
X22203Y-10826D01*
X22208Y-10806D01*
X22216Y-10781D01*
X22225Y-10748D01*
X22230Y-10709D01*
X22233Y-10662D01*
X22236Y-10606D01*
X22239Y-10517D01*
D02*
G37*
G36*
X20392Y-9524D02*
X19843D01*
Y-10209D01*
X20359D01*
X20379Y-10206D01*
X20398D01*
X20420Y-10204D01*
X20473Y-10198D01*
X20531Y-10187D01*
X20590Y-10170D01*
X20642Y-10148D01*
X20667Y-10134D01*
X20687Y-10118D01*
X20692Y-10112D01*
X20703Y-10101D01*
X20720Y-10079D01*
X20739Y-10051D01*
X20759Y-10015D01*
X20776Y-9970D01*
X20787Y-9921D01*
X20792Y-9862D01*
Y-9859D01*
Y-9857D01*
Y-9843D01*
X20789Y-9818D01*
X20784Y-9790D01*
X20778Y-9759D01*
X20767Y-9723D01*
X20751Y-9690D01*
X20731Y-9657D01*
X20728Y-9654D01*
X20720Y-9643D01*
X20706Y-9629D01*
X20690Y-9610D01*
X20665Y-9590D01*
X20637Y-9573D01*
X20606Y-9557D01*
X20570Y-9543D01*
X20567D01*
X20556Y-9540D01*
X20540Y-9537D01*
X20517Y-9532D01*
X20484Y-9529D01*
X20442Y-9526D01*
X20392Y-9524D01*
D02*
G37*
G36*
X61007D02*
X60458D01*
Y-10209D01*
X60974D01*
X60993Y-10206D01*
X61013D01*
X61035Y-10204D01*
X61088Y-10198D01*
X61146Y-10187D01*
X61204Y-10170D01*
X61257Y-10148D01*
X61282Y-10134D01*
X61302Y-10118D01*
X61307Y-10112D01*
X61318Y-10101D01*
X61335Y-10079D01*
X61354Y-10051D01*
X61374Y-10015D01*
X61390Y-9970D01*
X61402Y-9921D01*
X61407Y-9862D01*
Y-9859D01*
Y-9857D01*
Y-9843D01*
X61404Y-9818D01*
X61399Y-9790D01*
X61393Y-9759D01*
X61382Y-9723D01*
X61365Y-9690D01*
X61346Y-9657D01*
X61343Y-9654D01*
X61335Y-9643D01*
X61321Y-9629D01*
X61304Y-9610D01*
X61279Y-9590D01*
X61252Y-9573D01*
X61221Y-9557D01*
X61185Y-9543D01*
X61182D01*
X61171Y-9540D01*
X61154Y-9537D01*
X61132Y-9532D01*
X61099Y-9529D01*
X61057Y-9526D01*
X61007Y-9524D01*
D02*
G37*
G36*
X16386Y-9987D02*
X16370D01*
X16356Y-9990D01*
X16325Y-9993D01*
X16284Y-10004D01*
X16236Y-10020D01*
X16186Y-10043D01*
X16139Y-10076D01*
X16114Y-10098D01*
X16092Y-10120D01*
Y-10123D01*
X16087Y-10126D01*
X16081Y-10134D01*
X16073Y-10145D01*
X16064Y-10159D01*
X16056Y-10176D01*
X16045Y-10198D01*
X16034Y-10220D01*
X16023Y-10248D01*
X16012Y-10276D01*
X16003Y-10309D01*
X15995Y-10345D01*
X15987Y-10384D01*
X15981Y-10426D01*
X15978Y-10473D01*
X15975Y-10520D01*
Y-10523D01*
Y-10531D01*
Y-10545D01*
X15978Y-10565D01*
Y-10587D01*
X15981Y-10612D01*
X15989Y-10670D01*
X16003Y-10737D01*
X16025Y-10803D01*
X16053Y-10867D01*
X16073Y-10895D01*
X16092Y-10923D01*
X16095D01*
X16098Y-10928D01*
X16114Y-10942D01*
X16139Y-10964D01*
X16173Y-10987D01*
X16214Y-11012D01*
X16264Y-11034D01*
X16323Y-11048D01*
X16353Y-11050D01*
X16386Y-11053D01*
X16403D01*
X16417Y-11050D01*
X16447Y-11045D01*
X16489Y-11037D01*
X16534Y-11020D01*
X16583Y-10998D01*
X16631Y-10964D01*
X16656Y-10942D01*
X16678Y-10920D01*
X16681Y-10917D01*
X16683Y-10914D01*
X16689Y-10906D01*
X16697Y-10895D01*
X16706Y-10881D01*
X16717Y-10864D01*
X16728Y-10842D01*
X16739Y-10820D01*
X16750Y-10792D01*
X16758Y-10762D01*
X16769Y-10728D01*
X16778Y-10692D01*
X16786Y-10651D01*
X16792Y-10609D01*
X16797Y-10562D01*
Y-10512D01*
Y-10509D01*
Y-10501D01*
Y-10487D01*
X16794Y-10470D01*
Y-10448D01*
X16792Y-10423D01*
X16783Y-10365D01*
X16769Y-10304D01*
X16747Y-10237D01*
X16717Y-10176D01*
X16700Y-10145D01*
X16678Y-10120D01*
Y-10118D01*
X16672Y-10115D01*
X16656Y-10098D01*
X16631Y-10079D01*
X16597Y-10054D01*
X16556Y-10029D01*
X16506Y-10007D01*
X16450Y-9993D01*
X16420Y-9990D01*
X16386Y-9987D01*
D02*
G37*
G36*
X17911Y-9979D02*
X17897D01*
X17886Y-9982D01*
X17858Y-9987D01*
X17822Y-9995D01*
X17780Y-10012D01*
X17736Y-10037D01*
X17711Y-10054D01*
X17688Y-10073D01*
X17666Y-10095D01*
X17644Y-10120D01*
Y-10123D01*
X17638Y-10126D01*
X17633Y-10134D01*
X17627Y-10145D01*
X17619Y-10162D01*
X17608Y-10179D01*
X17597Y-10201D01*
X17588Y-10223D01*
X17577Y-10251D01*
X17566Y-10281D01*
X17558Y-10315D01*
X17547Y-10351D01*
X17541Y-10392D01*
X17536Y-10434D01*
X17530Y-10479D01*
Y-10528D01*
Y-10531D01*
Y-10540D01*
Y-10553D01*
X17533Y-10573D01*
Y-10595D01*
X17536Y-10620D01*
X17544Y-10678D01*
X17558Y-10745D01*
X17575Y-10809D01*
X17602Y-10873D01*
X17619Y-10901D01*
X17638Y-10925D01*
X17644Y-10931D01*
X17658Y-10945D01*
X17680Y-10967D01*
X17711Y-10989D01*
X17749Y-11012D01*
X17794Y-11034D01*
X17844Y-11048D01*
X17872Y-11050D01*
X17899Y-11053D01*
X17916D01*
X17927Y-11050D01*
X17955Y-11045D01*
X17994Y-11037D01*
X18035Y-11020D01*
X18080Y-10998D01*
X18124Y-10964D01*
X18146Y-10945D01*
X18169Y-10923D01*
Y-10920D01*
X18174Y-10917D01*
X18180Y-10909D01*
X18185Y-10898D01*
X18196Y-10884D01*
X18205Y-10864D01*
X18216Y-10845D01*
X18227Y-10820D01*
X18235Y-10795D01*
X18246Y-10762D01*
X18258Y-10728D01*
X18266Y-10692D01*
X18271Y-10651D01*
X18277Y-10606D01*
X18283Y-10559D01*
Y-10509D01*
Y-10506D01*
Y-10498D01*
Y-10484D01*
X18280Y-10465D01*
Y-10442D01*
X18277Y-10417D01*
X18269Y-10359D01*
X18255Y-10295D01*
X18235Y-10231D01*
X18208Y-10168D01*
X18191Y-10137D01*
X18171Y-10112D01*
Y-10109D01*
X18166Y-10107D01*
X18152Y-10090D01*
X18130Y-10070D01*
X18099Y-10045D01*
X18060Y-10020D01*
X18016Y-9998D01*
X17966Y-9984D01*
X17938Y-9982D01*
X17911Y-9979D01*
D02*
G37*
%LPD*%
D10*
X48950Y17400D02*
D03*
X48950Y18800D02*
D03*
D11*
X43925Y18800D02*
D03*
X43925Y17400D02*
D03*
X41125Y18800D02*
D03*
X41125Y17400D02*
D03*
X39725Y18800D02*
D03*
X39725Y17400D02*
D03*
X42525Y18800D02*
D03*
X42525Y17400D02*
D03*
D12*
X75950Y37800D02*
D03*
X75950Y36800D02*
D03*
X76950Y36800D02*
D03*
X76950Y37800D02*
D03*
D13*
X30837Y53975D02*
D03*
X31412D02*
D03*
X31987D02*
D03*
X32562D02*
D03*
X32562Y54575D02*
D03*
X31987D02*
D03*
X31413D02*
D03*
X30837D02*
D03*
X32562Y55175D02*
D03*
X31987D02*
D03*
X31413D02*
D03*
X30837D02*
D03*
X30838Y55775D02*
D03*
X31413D02*
D03*
X31988D02*
D03*
X32563D02*
D03*
X32562Y56375D02*
D03*
X31987D02*
D03*
X31412D02*
D03*
X30837D02*
D03*
X32562Y56975D02*
D03*
X31987D02*
D03*
X31412D02*
D03*
X30837D02*
D03*
X33137Y53975D02*
D03*
X33712D02*
D03*
X34287D02*
D03*
X34862D02*
D03*
X34862Y54575D02*
D03*
X34287D02*
D03*
X33712D02*
D03*
X33137D02*
D03*
X34862Y55175D02*
D03*
X34287D02*
D03*
X33712D02*
D03*
X33137D02*
D03*
X33137Y56975D02*
D03*
X33712D02*
D03*
X34287D02*
D03*
X34862D02*
D03*
X33137Y56375D02*
D03*
X33712D02*
D03*
X34287D02*
D03*
X34862D02*
D03*
X34862Y55775D02*
D03*
X34287D02*
D03*
X33713D02*
D03*
X33138D02*
D03*
D14*
X100500Y-0D02*
G03*
X101000Y500I0J500D01*
G01*
X500Y71000D02*
G03*
X-0Y70500I0J-500D01*
G01*
X101000D02*
G03*
X100500Y71000I-500J0D01*
G01*
X-0Y500D02*
G03*
X500Y-0I500J0D01*
G01*
X500Y0D02*
X100500D01*
X101000Y500D02*
Y70500D01*
X0Y500D02*
Y70500D01*
X500Y71000D02*
X100500D01*
D15*
X52250Y21475D02*
D03*
X51350D02*
D03*
X40600Y58000D02*
D03*
X39700D02*
D03*
X74850Y40325D02*
D03*
X75750D02*
D03*
X79950Y40375D02*
D03*
X79050D02*
D03*
X37625Y54675D02*
D03*
X36725D02*
D03*
X10050Y37225D02*
D03*
X10950D02*
D03*
X47950Y39170D02*
D03*
X47050D02*
D03*
X16050Y46875D02*
D03*
X15150D02*
D03*
X74175Y34275D02*
D03*
X75075D02*
D03*
X80250Y35425D02*
D03*
X79350D02*
D03*
X81625Y35425D02*
D03*
X82525D02*
D03*
X62125Y45050D02*
D03*
X63025D02*
D03*
X62125Y46100D02*
D03*
X63025D02*
D03*
Y47150D02*
D03*
X62125D02*
D03*
X49075Y15250D02*
D03*
X48175D02*
D03*
X49075Y10600D02*
D03*
X48175D02*
D03*
X40425Y13075D02*
D03*
X39525D02*
D03*
X8825Y43900D02*
D03*
X7925D02*
D03*
X10900Y45100D02*
D03*
X10000D02*
D03*
X10900Y47500D02*
D03*
X10000D02*
D03*
X10900Y43900D02*
D03*
X10000D02*
D03*
X10900Y46300D02*
D03*
X10000D02*
D03*
X20675Y24725D02*
D03*
X21575D02*
D03*
X20675Y25875D02*
D03*
X21575D02*
D03*
X22925Y23675D02*
D03*
X23825D02*
D03*
X25850Y25300D02*
D03*
X24950D02*
D03*
X56800Y22075D02*
D03*
X55900D02*
D03*
X77975Y8775D02*
D03*
X77075D02*
D03*
X73575D02*
D03*
X72675D02*
D03*
X64050Y22300D02*
D03*
X64950D02*
D03*
Y21250D02*
D03*
X64050D02*
D03*
Y11975D02*
D03*
X64950D02*
D03*
X64050Y10925D02*
D03*
X64950D02*
D03*
X64050Y20200D02*
D03*
X64950D02*
D03*
X50525Y17125D02*
D03*
X51425D02*
D03*
X64950Y19150D02*
D03*
X64050D02*
D03*
X16050Y52225D02*
D03*
X15150D02*
D03*
X16050Y50175D02*
D03*
X15150D02*
D03*
X16050Y49075D02*
D03*
X15150D02*
D03*
X16050Y44675D02*
D03*
X15150D02*
D03*
X16050Y43575D02*
D03*
X15150D02*
D03*
X16050Y42475D02*
D03*
X15150D02*
D03*
X57500Y7975D02*
D03*
X58400D02*
D03*
X60200D02*
D03*
X59300D02*
D03*
X18650Y30600D02*
D03*
X19550D02*
D03*
X18650Y29300D02*
D03*
X19550D02*
D03*
X10050Y38450D02*
D03*
X10950D02*
D03*
X12775Y34675D02*
D03*
X11875D02*
D03*
X45190Y39760D02*
D03*
X44290D02*
D03*
X33575Y19875D02*
D03*
X32675D02*
D03*
X59200Y18000D02*
D03*
X58300D02*
D03*
D16*
X53100Y18325D02*
D03*
Y17425D02*
D03*
X73425Y40100D02*
D03*
Y39200D02*
D03*
X75525Y42625D02*
D03*
Y41725D02*
D03*
X76575D02*
D03*
Y42625D02*
D03*
X61500Y37775D02*
D03*
Y36875D02*
D03*
X48425Y6075D02*
D03*
Y6975D02*
D03*
X68000Y7675D02*
D03*
Y6775D02*
D03*
X63825Y7675D02*
D03*
Y6775D02*
D03*
X39625Y51850D02*
D03*
Y52750D02*
D03*
X55155Y48390D02*
D03*
Y49290D02*
D03*
X49575Y22750D02*
D03*
Y21850D02*
D03*
X52075Y19625D02*
D03*
Y20525D02*
D03*
X69625Y44075D02*
D03*
Y44975D02*
D03*
X50000Y10475D02*
D03*
Y9575D02*
D03*
X27450Y7950D02*
D03*
Y7050D02*
D03*
Y11350D02*
D03*
Y10450D02*
D03*
X40700Y14175D02*
D03*
Y15075D02*
D03*
X39650Y14175D02*
D03*
Y15075D02*
D03*
X2975Y56775D02*
D03*
Y55875D02*
D03*
Y53050D02*
D03*
Y52150D02*
D03*
X83925Y10275D02*
D03*
Y9375D02*
D03*
X84975Y10275D02*
D03*
Y9375D02*
D03*
X77800Y23025D02*
D03*
Y22125D02*
D03*
X65784Y59286D02*
D03*
Y60186D02*
D03*
X13500Y24400D02*
D03*
Y25300D02*
D03*
X9525Y24400D02*
D03*
Y25300D02*
D03*
X34600Y21650D02*
D03*
Y20750D02*
D03*
X33525Y21650D02*
D03*
Y20750D02*
D03*
X28875Y30400D02*
D03*
Y29500D02*
D03*
X30575Y30400D02*
D03*
Y29500D02*
D03*
X35675Y30400D02*
D03*
Y29500D02*
D03*
X30575Y28700D02*
D03*
Y27800D02*
D03*
X28875Y28700D02*
D03*
Y27800D02*
D03*
X37400Y28675D02*
D03*
Y27775D02*
D03*
X35675Y28675D02*
D03*
Y27775D02*
D03*
X33975Y28675D02*
D03*
Y27775D02*
D03*
X32275Y28700D02*
D03*
Y27800D02*
D03*
X37400Y29500D02*
D03*
Y30400D02*
D03*
X33975Y29500D02*
D03*
Y30400D02*
D03*
X32275Y29500D02*
D03*
Y30400D02*
D03*
X19625Y53225D02*
D03*
Y52325D02*
D03*
X57525Y19800D02*
D03*
Y20700D02*
D03*
X59575Y19800D02*
D03*
Y20700D02*
D03*
X76150Y11300D02*
D03*
Y10400D02*
D03*
X70525Y5050D02*
D03*
Y5950D02*
D03*
X82375Y11600D02*
D03*
Y12500D02*
D03*
X70525Y6850D02*
D03*
Y7750D02*
D03*
X80875Y11600D02*
D03*
Y12500D02*
D03*
X76150Y13000D02*
D03*
Y12100D02*
D03*
X40350Y6725D02*
D03*
Y7625D02*
D03*
X47300Y6775D02*
D03*
Y7675D02*
D03*
X56475Y6075D02*
D03*
Y6975D02*
D03*
X55350Y6775D02*
D03*
Y7675D02*
D03*
X17725Y28400D02*
D03*
Y29300D02*
D03*
Y31500D02*
D03*
Y30600D02*
D03*
X39025Y58900D02*
D03*
Y59800D02*
D03*
X40074Y58913D02*
D03*
Y59813D02*
D03*
X59875Y61900D02*
D03*
Y61000D02*
D03*
X58950Y61900D02*
D03*
Y61000D02*
D03*
X59025Y35150D02*
D03*
Y34250D02*
D03*
X60006Y47750D02*
D03*
Y46850D02*
D03*
D17*
X52050Y18325D02*
D03*
X51150D02*
D03*
X15150Y45775D02*
D03*
X16050D02*
D03*
X10000Y48600D02*
D03*
X10900D02*
D03*
X57100Y35320D02*
D03*
X58000D02*
D03*
X79350Y38050D02*
D03*
X80250D02*
D03*
X79350Y36450D02*
D03*
X80250D02*
D03*
X82525Y36400D02*
D03*
X81625D02*
D03*
X64825Y45125D02*
D03*
X63925D02*
D03*
X70075Y53175D02*
D03*
X69175D02*
D03*
X67375Y53650D02*
D03*
X68275D02*
D03*
X65175Y53675D02*
D03*
X64275D02*
D03*
X48175Y11575D02*
D03*
X49075D02*
D03*
X48175Y9625D02*
D03*
X49075D02*
D03*
X40425Y12100D02*
D03*
X39525D02*
D03*
X2975Y57725D02*
D03*
X3875D02*
D03*
X2975Y54900D02*
D03*
X3875D02*
D03*
X2975Y53875D02*
D03*
X2075D02*
D03*
X2975Y51325D02*
D03*
X2075D02*
D03*
X26050Y30350D02*
D03*
X25150D02*
D03*
X26050Y29450D02*
D03*
X25150D02*
D03*
X26050Y28550D02*
D03*
X25150D02*
D03*
X26050Y27650D02*
D03*
X25150D02*
D03*
X33400Y26675D02*
D03*
X34300D02*
D03*
X26850Y26750D02*
D03*
X27750D02*
D03*
X58255Y32040D02*
D03*
X59155D02*
D03*
X37775Y55725D02*
D03*
X38675D02*
D03*
X36700Y53825D02*
D03*
X37600D02*
D03*
X38684Y56562D02*
D03*
X37784D02*
D03*
X27700Y53175D02*
D03*
X26800D02*
D03*
X27700Y54325D02*
D03*
X26800D02*
D03*
X27700Y55400D02*
D03*
X26800D02*
D03*
X27700Y51900D02*
D03*
X26800D02*
D03*
X27700Y51075D02*
D03*
X26800D02*
D03*
X27700Y56325D02*
D03*
X26800D02*
D03*
X10050Y39425D02*
D03*
X10950D02*
D03*
X53075Y21625D02*
D03*
X53975D02*
D03*
D18*
X78350Y52050D02*
D03*
Y51550D02*
D03*
Y51050D02*
D03*
X79650D02*
D03*
Y51550D02*
D03*
Y52050D02*
D03*
X78350Y60650D02*
D03*
Y60150D02*
D03*
Y59650D02*
D03*
X79650D02*
D03*
Y60150D02*
D03*
Y60650D02*
D03*
X78350Y63050D02*
D03*
Y62550D02*
D03*
Y62050D02*
D03*
X79650D02*
D03*
Y62550D02*
D03*
Y63050D02*
D03*
X78350Y49650D02*
D03*
Y49150D02*
D03*
Y48650D02*
D03*
X79650D02*
D03*
Y49150D02*
D03*
Y49650D02*
D03*
D19*
X89050Y26075D02*
D03*
Y25175D02*
D03*
X84350Y26075D02*
D03*
Y25175D02*
D03*
X24850Y57850D02*
D03*
Y58750D02*
D03*
X60250Y54290D02*
D03*
Y55190D02*
D03*
X39620Y56230D02*
D03*
Y55330D02*
D03*
X39880Y36980D02*
D03*
Y37880D02*
D03*
X60360Y34730D02*
D03*
Y35630D02*
D03*
X44920Y46530D02*
D03*
Y45630D02*
D03*
X44940Y53340D02*
D03*
Y54240D02*
D03*
X55300Y55740D02*
D03*
Y54840D02*
D03*
X44920Y55260D02*
D03*
Y56160D02*
D03*
X55230Y43220D02*
D03*
Y44120D02*
D03*
Y44960D02*
D03*
Y45860D02*
D03*
X55140Y51290D02*
D03*
Y50390D02*
D03*
X44910Y51030D02*
D03*
Y50130D02*
D03*
X55230Y47600D02*
D03*
Y46700D02*
D03*
X70600Y44975D02*
D03*
Y44075D02*
D03*
X72550Y49150D02*
D03*
Y50050D02*
D03*
X68650Y44975D02*
D03*
Y44075D02*
D03*
X62500Y49625D02*
D03*
Y50525D02*
D03*
X66450Y53575D02*
D03*
Y54475D02*
D03*
X65200Y41050D02*
D03*
Y41950D02*
D03*
X68750Y41900D02*
D03*
Y41000D02*
D03*
X74400Y44350D02*
D03*
Y43450D02*
D03*
X45400Y9325D02*
D03*
Y8425D02*
D03*
X46300Y9325D02*
D03*
Y8425D02*
D03*
X27450Y5350D02*
D03*
Y6250D02*
D03*
X47800Y18000D02*
D03*
Y17100D02*
D03*
X27450Y8750D02*
D03*
Y9650D02*
D03*
X45075Y16325D02*
D03*
Y17225D02*
D03*
X44175Y9325D02*
D03*
Y8425D02*
D03*
X46875Y17100D02*
D03*
Y18000D02*
D03*
X45975Y17100D02*
D03*
Y18000D02*
D03*
X9575Y49975D02*
D03*
Y50875D02*
D03*
X90400Y6400D02*
D03*
Y5500D02*
D03*
X64825Y60175D02*
D03*
Y59275D02*
D03*
X19825Y24850D02*
D03*
Y23950D02*
D03*
Y25750D02*
D03*
Y26650D02*
D03*
X26100Y45000D02*
D03*
Y44100D02*
D03*
X41790Y36715D02*
D03*
Y37615D02*
D03*
X60005Y31140D02*
D03*
Y32040D02*
D03*
X56550Y20700D02*
D03*
Y19800D02*
D03*
X64900Y18225D02*
D03*
Y17325D02*
D03*
X61625Y16475D02*
D03*
Y15575D02*
D03*
Y13475D02*
D03*
Y14375D02*
D03*
X39500Y4875D02*
D03*
Y3975D02*
D03*
X25250Y5950D02*
D03*
Y5050D02*
D03*
X29350Y52050D02*
D03*
Y51150D02*
D03*
X12825Y33750D02*
D03*
Y32850D02*
D03*
X11925D02*
D03*
Y33750D02*
D03*
X45075Y19600D02*
D03*
Y18700D02*
D03*
X55175Y20675D02*
D03*
Y19775D02*
D03*
X50625Y19725D02*
D03*
Y20625D02*
D03*
X46925Y19675D02*
D03*
Y20575D02*
D03*
D20*
X43850Y54710D02*
D03*
Y56110D02*
D03*
X40150Y9150D02*
D03*
Y10550D02*
D03*
X41550Y7825D02*
D03*
Y9225D02*
D03*
X7000Y53225D02*
D03*
Y51825D02*
D03*
X8450Y53225D02*
D03*
Y51825D02*
D03*
X27125Y27675D02*
D03*
Y29075D02*
D03*
X29750Y48850D02*
D03*
Y50250D02*
D03*
X33625Y48850D02*
D03*
Y50250D02*
D03*
X28250Y61100D02*
D03*
Y59700D02*
D03*
X32250Y61650D02*
D03*
Y60250D02*
D03*
X56390Y56180D02*
D03*
Y54780D02*
D03*
D21*
X83675Y45630D02*
D03*
Y44360D02*
D03*
Y43090D02*
D03*
Y41820D02*
D03*
X78925D02*
D03*
Y43090D02*
D03*
Y44360D02*
D03*
Y45630D02*
D03*
X83675Y58005D02*
D03*
Y56735D02*
D03*
Y55465D02*
D03*
Y54195D02*
D03*
X78925D02*
D03*
Y55465D02*
D03*
Y56735D02*
D03*
Y58005D02*
D03*
D22*
X16300Y29000D02*
D03*
Y30900D02*
D03*
X14100Y29950D02*
D03*
D23*
X12300Y28875D02*
D03*
Y30125D02*
D03*
X24250Y62825D02*
D03*
Y64075D02*
D03*
D24*
X86375Y33900D02*
D03*
X87025D02*
D03*
X87675D02*
D03*
X88325D02*
D03*
X87675Y30850D02*
D03*
X87025D02*
D03*
X15675Y37350D02*
D03*
X16325D02*
D03*
X16975D02*
D03*
X17625D02*
D03*
X16975Y34300D02*
D03*
X16325D02*
D03*
X81875Y33900D02*
D03*
X82525D02*
D03*
X83175D02*
D03*
X83825D02*
D03*
X83175Y30850D02*
D03*
X82525D02*
D03*
D25*
X88350D02*
D03*
X86350D02*
D03*
X17650Y34300D02*
D03*
X15650D02*
D03*
X83850Y30850D02*
D03*
X81850D02*
D03*
D26*
X50825Y15450D02*
D03*
Y14050D02*
D03*
D27*
X37925Y62175D02*
D03*
X36525D02*
D03*
X15175Y33000D02*
D03*
X13775D02*
D03*
D28*
X10775Y25300D02*
D03*
X12275D02*
D03*
X7450Y37225D02*
D03*
X8950D02*
D03*
D29*
X47300Y4275D02*
D03*
Y5775D02*
D03*
X55350Y4275D02*
D03*
Y5775D02*
D03*
X63825D02*
D03*
Y4275D02*
D03*
X61125Y44300D02*
D03*
Y45800D02*
D03*
D30*
X33175Y18725D02*
D03*
X31575D02*
D03*
X27900Y46150D02*
D03*
X26300D02*
D03*
X59450Y21850D02*
D03*
X57850D02*
D03*
X77100Y44350D02*
D03*
X75500D02*
D03*
D31*
X35575Y48625D02*
D03*
Y50625D02*
D03*
X30275Y61900D02*
D03*
Y59900D02*
D03*
X31675Y48625D02*
D03*
Y50625D02*
D03*
D32*
X35675Y60225D02*
D03*
X33675D02*
D03*
D33*
X9580Y28750D02*
D03*
Y29250D02*
D03*
Y29750D02*
D03*
Y30250D02*
D03*
Y30750D02*
D03*
Y31250D02*
D03*
Y31750D02*
D03*
Y32250D02*
D03*
Y32750D02*
D03*
Y33250D02*
D03*
Y33750D02*
D03*
Y34250D02*
D03*
X91420Y30525D02*
D03*
Y30025D02*
D03*
Y29525D02*
D03*
Y29025D02*
D03*
Y28525D02*
D03*
Y28025D02*
D03*
Y27525D02*
D03*
Y27025D02*
D03*
Y26525D02*
D03*
Y26025D02*
D03*
Y25525D02*
D03*
Y25025D02*
D03*
D34*
X73050Y44350D02*
D03*
Y42650D02*
D03*
D35*
X49725Y8500D02*
D03*
X48325D02*
D03*
X49650Y12700D02*
D03*
X48250D02*
D03*
X49650Y14050D02*
D03*
X48250D02*
D03*
X24575Y26525D02*
D03*
X25975D02*
D03*
X34325Y25550D02*
D03*
X32925D02*
D03*
X26875Y57350D02*
D03*
X28275D02*
D03*
X26875Y58625D02*
D03*
X28275D02*
D03*
X29850Y47450D02*
D03*
X31250D02*
D03*
X33750Y47450D02*
D03*
X35150D02*
D03*
X27050Y62175D02*
D03*
X28450D02*
D03*
X34200Y62150D02*
D03*
X35600D02*
D03*
D36*
X16350Y32800D02*
D03*
X18050D02*
D03*
D37*
X57675Y4750D02*
D03*
Y6250D02*
D03*
X62125Y4750D02*
D03*
Y6250D02*
D03*
X19775Y4750D02*
D03*
Y6250D02*
D03*
X24225Y4750D02*
D03*
Y6250D02*
D03*
X49625Y4750D02*
D03*
Y6250D02*
D03*
X54075Y4750D02*
D03*
Y6250D02*
D03*
X41575Y4750D02*
D03*
Y6250D02*
D03*
X46025Y4750D02*
D03*
Y6250D02*
D03*
D38*
X93500Y5250D02*
D03*
Y5750D02*
D03*
Y6250D02*
D03*
Y7250D02*
D03*
Y6750D02*
D03*
Y7750D02*
D03*
Y8250D02*
D03*
Y8750D02*
D03*
Y9250D02*
D03*
Y14250D02*
D03*
Y13750D02*
D03*
Y13250D02*
D03*
Y12750D02*
D03*
Y12250D02*
D03*
Y11750D02*
D03*
Y11250D02*
D03*
Y10750D02*
D03*
Y10250D02*
D03*
Y9750D02*
D03*
D39*
X33500Y12600D02*
D03*
D40*
X30000D02*
D03*
X37000D02*
D03*
X29500Y3100D02*
D03*
X37500D02*
D03*
D41*
X24425Y41000D02*
D03*
Y40000D02*
D03*
Y39000D02*
D03*
Y38000D02*
D03*
Y37000D02*
D03*
Y36000D02*
D03*
Y35000D02*
D03*
Y34000D02*
D03*
Y33000D02*
D03*
Y32000D02*
D03*
Y42000D02*
D03*
Y43000D02*
D03*
Y44000D02*
D03*
Y45000D02*
D03*
Y46000D02*
D03*
Y47000D02*
D03*
Y48000D02*
D03*
Y49000D02*
D03*
Y50000D02*
D03*
Y51000D02*
D03*
D42*
X20675Y41000D02*
D03*
Y40000D02*
D03*
Y39000D02*
D03*
Y38000D02*
D03*
Y37000D02*
D03*
Y36000D02*
D03*
Y35000D02*
D03*
Y34000D02*
D03*
Y33000D02*
D03*
Y32000D02*
D03*
Y42000D02*
D03*
Y43000D02*
D03*
Y44000D02*
D03*
Y45000D02*
D03*
Y46000D02*
D03*
Y47000D02*
D03*
Y48000D02*
D03*
Y49000D02*
D03*
Y50000D02*
D03*
Y51000D02*
D03*
D43*
X74200Y4150D02*
D03*
X74850D02*
D03*
X75500D02*
D03*
X76150D02*
D03*
X76800D02*
D03*
D44*
X74500Y1450D02*
D03*
X76500D02*
D03*
D45*
X27475Y44200D02*
D03*
X29825D02*
D03*
D46*
X17350Y39900D02*
D03*
X12750D02*
D03*
D47*
X49575Y20575D02*
D03*
X48075D02*
D03*
D48*
X67650Y41950D02*
D03*
X66300D02*
D03*
Y40900D02*
D03*
X67650D02*
D03*
D49*
X63625Y15925D02*
D03*
Y14025D02*
D03*
D50*
X18450Y24500D02*
D03*
X16250D02*
D03*
Y26100D02*
D03*
X18450D02*
D03*
D51*
X53150Y19325D02*
D03*
Y20625D02*
D03*
X54150D02*
D03*
Y19325D02*
D03*
D52*
X14050Y35925D02*
D03*
Y36575D02*
D03*
Y37225D02*
D03*
X12150D02*
D03*
Y36575D02*
D03*
Y35925D02*
D03*
D53*
X87650Y26075D02*
D03*
X85750D02*
D03*
X86700Y23875D02*
D03*
D54*
X25250Y8750D02*
D03*
Y9700D02*
D03*
Y10650D02*
D03*
X22950D02*
D03*
Y9700D02*
D03*
Y8750D02*
D03*
D55*
X77275Y12905D02*
D03*
X77775D02*
D03*
X78275D02*
D03*
Y11295D02*
D03*
X77775D02*
D03*
X77275D02*
D03*
D56*
X40350Y4887D02*
D03*
Y4262D02*
D03*
D57*
X18410Y45325D02*
D03*
Y45825D02*
D03*
Y46825D02*
D03*
Y47325D02*
D03*
X17590D02*
D03*
Y46825D02*
D03*
Y45825D02*
D03*
Y45325D02*
D03*
D58*
X18410Y46325D02*
D03*
X17590D02*
D03*
D59*
X53230Y43940D02*
D03*
X52430D02*
D03*
X51630D02*
D03*
X48430D02*
D03*
X47630D02*
D03*
X46830D02*
D03*
X53230Y44740D02*
D03*
X52430D02*
D03*
X51630D02*
D03*
X48430D02*
D03*
X47630D02*
D03*
X46830D02*
D03*
X53230Y45540D02*
D03*
X52430D02*
D03*
X51630D02*
D03*
X48430D02*
D03*
X47630D02*
D03*
X46830D02*
D03*
X53230Y46340D02*
D03*
X52430D02*
D03*
X51630D02*
D03*
X48430D02*
D03*
X47630D02*
D03*
X46830D02*
D03*
X53230Y47140D02*
D03*
X52430D02*
D03*
X51630D02*
D03*
X48430D02*
D03*
X47630D02*
D03*
X46830D02*
D03*
X53230Y47940D02*
D03*
X52430D02*
D03*
X51630D02*
D03*
X48430D02*
D03*
X47630D02*
D03*
X46830D02*
D03*
X53230Y48740D02*
D03*
X52430D02*
D03*
X51630D02*
D03*
X48430D02*
D03*
X47630D02*
D03*
X46830D02*
D03*
X53230Y49540D02*
D03*
X52430D02*
D03*
X51630D02*
D03*
X48430D02*
D03*
X47630D02*
D03*
X46830D02*
D03*
X53230Y50340D02*
D03*
X52430D02*
D03*
X51630D02*
D03*
X48430D02*
D03*
X47630D02*
D03*
X46830D02*
D03*
X53230Y51140D02*
D03*
X52430D02*
D03*
X51630D02*
D03*
X48430D02*
D03*
X47630D02*
D03*
X46830D02*
D03*
X53230Y51940D02*
D03*
X52430D02*
D03*
X51630D02*
D03*
X48430D02*
D03*
X47630D02*
D03*
X46830D02*
D03*
X53230Y52740D02*
D03*
X52430D02*
D03*
X51630D02*
D03*
X48430D02*
D03*
X47630D02*
D03*
X46830D02*
D03*
X53230Y53540D02*
D03*
X52430D02*
D03*
X51630D02*
D03*
X48430D02*
D03*
X47630D02*
D03*
X46830D02*
D03*
X53230Y54340D02*
D03*
X52430D02*
D03*
X51630D02*
D03*
X48430D02*
D03*
X47630D02*
D03*
X46830D02*
D03*
X53230Y55140D02*
D03*
X52430D02*
D03*
X51630D02*
D03*
X48430D02*
D03*
X47630D02*
D03*
X46830D02*
D03*
X53230Y55940D02*
D03*
X52430D02*
D03*
X51630D02*
D03*
X48430D02*
D03*
X47630D02*
D03*
X46830D02*
D03*
D60*
X67750Y18725D02*
D03*
X68250D02*
D03*
X68750D02*
D03*
X69250D02*
D03*
X69750D02*
D03*
X70250D02*
D03*
X70750D02*
D03*
X71250D02*
D03*
X71750D02*
D03*
X72250D02*
D03*
X72750D02*
D03*
X73250D02*
D03*
Y10225D02*
D03*
X72750D02*
D03*
X72250D02*
D03*
X71750D02*
D03*
X71250D02*
D03*
X70750D02*
D03*
X70250D02*
D03*
X69750D02*
D03*
X69250D02*
D03*
X68750D02*
D03*
X68250D02*
D03*
X67750D02*
D03*
D61*
X74750Y17225D02*
D03*
Y16725D02*
D03*
Y16225D02*
D03*
Y15725D02*
D03*
Y15225D02*
D03*
Y14725D02*
D03*
Y14225D02*
D03*
Y13725D02*
D03*
Y13225D02*
D03*
Y12725D02*
D03*
Y12225D02*
D03*
Y11725D02*
D03*
X66250D02*
D03*
Y12225D02*
D03*
Y12725D02*
D03*
Y13225D02*
D03*
Y13725D02*
D03*
Y14225D02*
D03*
Y14725D02*
D03*
Y15225D02*
D03*
Y15725D02*
D03*
Y16225D02*
D03*
Y16725D02*
D03*
Y17225D02*
D03*
D62*
X78350Y36550D02*
D03*
Y37050D02*
D03*
Y38550D02*
D03*
Y38050D02*
D03*
Y37550D02*
D03*
Y36050D02*
D03*
X74550D02*
D03*
Y36550D02*
D03*
Y37050D02*
D03*
Y37550D02*
D03*
Y38050D02*
D03*
Y38550D02*
D03*
D63*
X77700Y35400D02*
D03*
X77200D02*
D03*
X76700D02*
D03*
X76200D02*
D03*
X75700D02*
D03*
X75200D02*
D03*
Y39200D02*
D03*
X75700D02*
D03*
X76200D02*
D03*
X76700D02*
D03*
X77200D02*
D03*
X77700D02*
D03*
D64*
X41900Y14575D02*
D03*
Y14075D02*
D03*
Y13575D02*
D03*
Y13075D02*
D03*
Y12575D02*
D03*
Y12075D02*
D03*
Y11575D02*
D03*
Y11075D02*
D03*
X46750D02*
D03*
Y11575D02*
D03*
Y12075D02*
D03*
Y12575D02*
D03*
Y13075D02*
D03*
Y13575D02*
D03*
Y14075D02*
D03*
Y14575D02*
D03*
D65*
X42575Y10400D02*
D03*
X43075D02*
D03*
X43575D02*
D03*
X44075D02*
D03*
X44575D02*
D03*
X45075D02*
D03*
X45575D02*
D03*
X46075D02*
D03*
Y15250D02*
D03*
X45575D02*
D03*
X45075D02*
D03*
X44575D02*
D03*
X44075D02*
D03*
X43575D02*
D03*
X43075D02*
D03*
X42575D02*
D03*
D66*
X44325Y12825D02*
D03*
D67*
X69750Y47150D02*
D03*
Y51150D02*
D03*
X64250D02*
D03*
Y47150D02*
D03*
D68*
X69750Y47650D02*
D03*
Y48150D02*
D03*
Y48650D02*
D03*
Y49150D02*
D03*
Y49650D02*
D03*
Y50150D02*
D03*
Y50650D02*
D03*
X64250D02*
D03*
Y50150D02*
D03*
Y49650D02*
D03*
Y49150D02*
D03*
Y48650D02*
D03*
Y48150D02*
D03*
Y47650D02*
D03*
D69*
X69000Y51900D02*
D03*
X65000D02*
D03*
Y46400D02*
D03*
X69000D02*
D03*
D70*
X68500Y51900D02*
D03*
X68000D02*
D03*
X67500D02*
D03*
X67000D02*
D03*
X66500D02*
D03*
X66000D02*
D03*
X65500D02*
D03*
Y46400D02*
D03*
X66000D02*
D03*
X66500D02*
D03*
X67000D02*
D03*
X67500D02*
D03*
X68000D02*
D03*
X68500D02*
D03*
D71*
X67000Y49150D02*
D03*
D72*
X31100Y20300D02*
D03*
X30700D02*
D03*
X30300D02*
D03*
X29900D02*
D03*
X29500D02*
D03*
X29100D02*
D03*
X28700D02*
D03*
X28300D02*
D03*
X27900D02*
D03*
X27500D02*
D03*
Y25200D02*
D03*
X27900D02*
D03*
X28300D02*
D03*
X28700D02*
D03*
X29100D02*
D03*
X29500D02*
D03*
X29900D02*
D03*
X30300D02*
D03*
X30700D02*
D03*
X31100D02*
D03*
D73*
X29300Y22750D02*
D03*
D74*
X26850Y20950D02*
D03*
Y21350D02*
D03*
Y21750D02*
D03*
Y22150D02*
D03*
Y22550D02*
D03*
Y22950D02*
D03*
Y23350D02*
D03*
Y23750D02*
D03*
Y24150D02*
D03*
Y24550D02*
D03*
X31750Y20950D02*
D03*
Y21350D02*
D03*
Y21750D02*
D03*
Y22150D02*
D03*
Y22550D02*
D03*
Y22950D02*
D03*
Y23350D02*
D03*
Y23750D02*
D03*
Y24150D02*
D03*
Y24550D02*
D03*
D75*
X66875Y23975D02*
D03*
Y24475D02*
D03*
Y23475D02*
D03*
Y30975D02*
D03*
Y30475D02*
D03*
Y29975D02*
D03*
Y29475D02*
D03*
Y28975D02*
D03*
Y28475D02*
D03*
Y27975D02*
D03*
Y27475D02*
D03*
Y26975D02*
D03*
Y26475D02*
D03*
Y25975D02*
D03*
Y25475D02*
D03*
Y24975D02*
D03*
X76475Y27975D02*
D03*
Y28475D02*
D03*
Y28975D02*
D03*
Y29475D02*
D03*
Y29975D02*
D03*
Y30475D02*
D03*
Y23475D02*
D03*
Y23975D02*
D03*
Y24475D02*
D03*
Y24975D02*
D03*
Y25475D02*
D03*
Y25975D02*
D03*
Y26475D02*
D03*
Y26975D02*
D03*
Y27475D02*
D03*
Y30975D02*
D03*
D76*
X67425Y32100D02*
D03*
X75925D02*
D03*
X67425Y22350D02*
D03*
X75925D02*
D03*
D77*
X67925Y32025D02*
D03*
X75425D02*
D03*
X74925D02*
D03*
X74425D02*
D03*
X73925D02*
D03*
X73425D02*
D03*
X72925D02*
D03*
X72425D02*
D03*
X71925D02*
D03*
X71425D02*
D03*
X70925D02*
D03*
X70425D02*
D03*
X69925D02*
D03*
X69425D02*
D03*
X68925D02*
D03*
X68425D02*
D03*
X73425Y22425D02*
D03*
X73925D02*
D03*
X74425D02*
D03*
X74925D02*
D03*
X67925D02*
D03*
X68425D02*
D03*
X68925D02*
D03*
X69425D02*
D03*
X69925D02*
D03*
X70425D02*
D03*
X70925D02*
D03*
X71425D02*
D03*
X71925D02*
D03*
X72425D02*
D03*
X72925D02*
D03*
X75425D02*
D03*
D78*
X66800Y22975D02*
D03*
X66800Y31475D02*
D03*
X76550Y22975D02*
D03*
Y31475D02*
D03*
D79*
X71675Y27225D02*
D03*
D80*
X44580Y25190D02*
D03*
Y25690D02*
D03*
Y26190D02*
D03*
Y26690D02*
D03*
Y27190D02*
D03*
Y28190D02*
D03*
Y28690D02*
D03*
Y29690D02*
D03*
Y30190D02*
D03*
Y31190D02*
D03*
Y31690D02*
D03*
Y32690D02*
D03*
Y33190D02*
D03*
Y34190D02*
D03*
Y34690D02*
D03*
Y35190D02*
D03*
Y35690D02*
D03*
Y36190D02*
D03*
X45080Y25190D02*
D03*
Y25690D02*
D03*
Y26190D02*
D03*
Y26690D02*
D03*
Y27190D02*
D03*
Y27690D02*
D03*
Y28190D02*
D03*
Y28690D02*
D03*
Y29190D02*
D03*
Y29690D02*
D03*
Y30190D02*
D03*
Y30690D02*
D03*
Y31190D02*
D03*
Y31690D02*
D03*
Y32190D02*
D03*
Y32690D02*
D03*
Y33190D02*
D03*
Y33690D02*
D03*
Y34190D02*
D03*
Y34690D02*
D03*
Y35190D02*
D03*
Y35690D02*
D03*
Y36190D02*
D03*
X45580Y25190D02*
D03*
Y25690D02*
D03*
Y26190D02*
D03*
Y26690D02*
D03*
Y27190D02*
D03*
Y27690D02*
D03*
Y28190D02*
D03*
Y28690D02*
D03*
Y29190D02*
D03*
Y29690D02*
D03*
Y30190D02*
D03*
Y30690D02*
D03*
Y31190D02*
D03*
Y31690D02*
D03*
Y32190D02*
D03*
Y32690D02*
D03*
Y33190D02*
D03*
Y33690D02*
D03*
Y34190D02*
D03*
Y34690D02*
D03*
Y35190D02*
D03*
Y35690D02*
D03*
Y36190D02*
D03*
X46080Y25190D02*
D03*
Y25690D02*
D03*
Y26190D02*
D03*
Y26690D02*
D03*
Y27190D02*
D03*
Y27690D02*
D03*
Y28190D02*
D03*
Y28690D02*
D03*
Y29190D02*
D03*
Y29690D02*
D03*
Y30190D02*
D03*
Y30690D02*
D03*
Y31190D02*
D03*
Y31690D02*
D03*
Y32190D02*
D03*
Y32690D02*
D03*
Y33190D02*
D03*
Y33690D02*
D03*
Y34190D02*
D03*
Y34690D02*
D03*
Y35190D02*
D03*
Y35690D02*
D03*
Y36190D02*
D03*
X46580Y25190D02*
D03*
Y25690D02*
D03*
Y26190D02*
D03*
Y26690D02*
D03*
Y34690D02*
D03*
Y35190D02*
D03*
Y35690D02*
D03*
Y36190D02*
D03*
X47080Y25690D02*
D03*
Y26190D02*
D03*
Y26690D02*
D03*
Y34690D02*
D03*
Y35190D02*
D03*
Y35690D02*
D03*
X47580Y25190D02*
D03*
Y25690D02*
D03*
Y26190D02*
D03*
Y26690D02*
D03*
Y34690D02*
D03*
Y35190D02*
D03*
Y35690D02*
D03*
Y36190D02*
D03*
X48080Y25190D02*
D03*
Y25690D02*
D03*
Y26190D02*
D03*
Y26690D02*
D03*
X47480Y28740D02*
D03*
Y29390D02*
D03*
Y30040D02*
D03*
Y30690D02*
D03*
Y31340D02*
D03*
Y31990D02*
D03*
Y32640D02*
D03*
X48080Y34690D02*
D03*
Y35190D02*
D03*
Y35690D02*
D03*
Y36190D02*
D03*
X48580Y25690D02*
D03*
Y26190D02*
D03*
Y26690D02*
D03*
X48130Y28090D02*
D03*
Y28740D02*
D03*
Y29390D02*
D03*
Y30040D02*
D03*
Y30690D02*
D03*
Y31340D02*
D03*
Y31990D02*
D03*
Y32640D02*
D03*
Y33290D02*
D03*
X48580Y34690D02*
D03*
Y35190D02*
D03*
Y35690D02*
D03*
X49080Y25190D02*
D03*
Y25690D02*
D03*
Y26190D02*
D03*
Y26690D02*
D03*
X48780Y28090D02*
D03*
Y28740D02*
D03*
Y29390D02*
D03*
Y30040D02*
D03*
Y30690D02*
D03*
Y31340D02*
D03*
Y31990D02*
D03*
Y32640D02*
D03*
Y33290D02*
D03*
X49080Y34690D02*
D03*
Y35190D02*
D03*
Y35690D02*
D03*
Y36190D02*
D03*
X49580Y25190D02*
D03*
Y25690D02*
D03*
Y26190D02*
D03*
Y26690D02*
D03*
X49430Y28090D02*
D03*
Y28740D02*
D03*
Y29390D02*
D03*
Y30040D02*
D03*
Y30690D02*
D03*
Y31340D02*
D03*
Y31990D02*
D03*
Y32640D02*
D03*
Y33290D02*
D03*
X49580Y34690D02*
D03*
Y35190D02*
D03*
Y35690D02*
D03*
Y36190D02*
D03*
X50080Y25690D02*
D03*
Y26190D02*
D03*
Y26690D02*
D03*
Y28090D02*
D03*
Y28740D02*
D03*
Y29390D02*
D03*
Y30040D02*
D03*
Y30690D02*
D03*
Y31340D02*
D03*
Y31990D02*
D03*
Y32640D02*
D03*
Y33290D02*
D03*
Y34690D02*
D03*
Y35190D02*
D03*
Y35690D02*
D03*
X50580Y25190D02*
D03*
Y25690D02*
D03*
Y26190D02*
D03*
Y26690D02*
D03*
X50730Y28090D02*
D03*
Y28740D02*
D03*
Y29390D02*
D03*
Y30040D02*
D03*
Y30690D02*
D03*
Y31340D02*
D03*
Y31990D02*
D03*
Y32640D02*
D03*
Y33290D02*
D03*
X50580Y34690D02*
D03*
Y35190D02*
D03*
Y35690D02*
D03*
Y36190D02*
D03*
X51080Y25190D02*
D03*
Y25690D02*
D03*
Y26190D02*
D03*
Y26690D02*
D03*
X51380Y28090D02*
D03*
Y28740D02*
D03*
Y29390D02*
D03*
Y30040D02*
D03*
Y30690D02*
D03*
Y31340D02*
D03*
Y31990D02*
D03*
Y32640D02*
D03*
Y33290D02*
D03*
X51080Y34690D02*
D03*
Y35190D02*
D03*
Y35690D02*
D03*
Y36190D02*
D03*
X51580Y25690D02*
D03*
Y26190D02*
D03*
Y26690D02*
D03*
X52030Y28090D02*
D03*
Y28740D02*
D03*
Y29390D02*
D03*
Y30040D02*
D03*
Y30690D02*
D03*
Y31340D02*
D03*
Y31990D02*
D03*
Y32640D02*
D03*
Y33290D02*
D03*
X51580Y34690D02*
D03*
Y35190D02*
D03*
Y35690D02*
D03*
X52080Y25190D02*
D03*
Y25690D02*
D03*
Y26190D02*
D03*
Y26690D02*
D03*
X52680Y28740D02*
D03*
Y29390D02*
D03*
Y30040D02*
D03*
Y30690D02*
D03*
Y31340D02*
D03*
Y31990D02*
D03*
Y32640D02*
D03*
X52080Y34690D02*
D03*
Y35190D02*
D03*
Y35690D02*
D03*
Y36190D02*
D03*
X52580Y25190D02*
D03*
Y25690D02*
D03*
Y26190D02*
D03*
Y26690D02*
D03*
Y34690D02*
D03*
Y35190D02*
D03*
Y35690D02*
D03*
Y36190D02*
D03*
X53080Y25690D02*
D03*
Y26190D02*
D03*
Y26690D02*
D03*
Y34690D02*
D03*
Y35190D02*
D03*
Y35690D02*
D03*
X53580Y25190D02*
D03*
Y25690D02*
D03*
Y26190D02*
D03*
Y26690D02*
D03*
Y34690D02*
D03*
Y35190D02*
D03*
Y35690D02*
D03*
Y36190D02*
D03*
X54080Y25190D02*
D03*
Y25690D02*
D03*
Y26190D02*
D03*
Y26690D02*
D03*
Y27190D02*
D03*
Y27690D02*
D03*
Y28190D02*
D03*
Y28690D02*
D03*
Y29190D02*
D03*
Y29690D02*
D03*
Y30190D02*
D03*
Y30690D02*
D03*
Y31190D02*
D03*
Y31690D02*
D03*
Y32190D02*
D03*
Y32690D02*
D03*
Y33190D02*
D03*
Y33690D02*
D03*
Y34190D02*
D03*
Y34690D02*
D03*
Y35190D02*
D03*
Y35690D02*
D03*
Y36190D02*
D03*
X54580Y25190D02*
D03*
Y25690D02*
D03*
Y26190D02*
D03*
Y26690D02*
D03*
Y27190D02*
D03*
Y27690D02*
D03*
Y28190D02*
D03*
Y28690D02*
D03*
Y29190D02*
D03*
Y29690D02*
D03*
Y30190D02*
D03*
Y30690D02*
D03*
Y31190D02*
D03*
Y31690D02*
D03*
Y32190D02*
D03*
Y32690D02*
D03*
Y33190D02*
D03*
Y33690D02*
D03*
Y34190D02*
D03*
Y34690D02*
D03*
Y35190D02*
D03*
Y35690D02*
D03*
Y36190D02*
D03*
X55080Y25190D02*
D03*
Y25690D02*
D03*
Y26190D02*
D03*
Y26690D02*
D03*
Y27190D02*
D03*
Y27690D02*
D03*
Y28190D02*
D03*
Y28690D02*
D03*
Y29190D02*
D03*
Y29690D02*
D03*
Y30190D02*
D03*
Y30690D02*
D03*
Y31190D02*
D03*
Y31690D02*
D03*
Y32190D02*
D03*
Y32690D02*
D03*
Y33190D02*
D03*
Y33690D02*
D03*
Y34190D02*
D03*
Y34690D02*
D03*
Y35190D02*
D03*
Y35690D02*
D03*
Y36190D02*
D03*
X55580Y25190D02*
D03*
Y25690D02*
D03*
Y26190D02*
D03*
Y26690D02*
D03*
Y27190D02*
D03*
Y28190D02*
D03*
Y28690D02*
D03*
Y29690D02*
D03*
Y30190D02*
D03*
Y31190D02*
D03*
Y31690D02*
D03*
Y32690D02*
D03*
Y33190D02*
D03*
Y34190D02*
D03*
Y34690D02*
D03*
Y35190D02*
D03*
Y35690D02*
D03*
Y36190D02*
D03*
D81*
X35050Y53025D02*
D03*
X30650Y57925D02*
D03*
X33050D02*
D03*
X33450D02*
D03*
X33850D02*
D03*
X34250D02*
D03*
X34650D02*
D03*
X32650D02*
D03*
X32250D02*
D03*
X31850D02*
D03*
X31450D02*
D03*
X31050D02*
D03*
X30650Y53025D02*
D03*
X31050D02*
D03*
X31450D02*
D03*
X31850D02*
D03*
X32250D02*
D03*
X34650D02*
D03*
X34250D02*
D03*
X33850D02*
D03*
X33450D02*
D03*
X33050D02*
D03*
X32650D02*
D03*
X35050Y57925D02*
D03*
D82*
X35800Y55275D02*
D03*
Y54875D02*
D03*
Y54475D02*
D03*
Y54075D02*
D03*
Y53675D02*
D03*
Y55675D02*
D03*
Y56075D02*
D03*
Y56475D02*
D03*
Y56875D02*
D03*
Y57275D02*
D03*
X29900D02*
D03*
Y56875D02*
D03*
Y56475D02*
D03*
Y56075D02*
D03*
Y53675D02*
D03*
Y54075D02*
D03*
Y54475D02*
D03*
Y54875D02*
D03*
Y55275D02*
D03*
Y55675D02*
D03*
D83*
X2975Y62725D02*
D03*
Y61775D02*
D03*
D84*
X8375Y50625D02*
D03*
Y49025D02*
D03*
D85*
X68000Y5500D02*
D03*
Y4200D02*
D03*
D86*
X80875Y7150D02*
D03*
X82375Y10150D02*
D03*
X80875D02*
D03*
X82375Y7150D02*
D03*
D87*
X3800Y47900D02*
D03*
Y45900D02*
D03*
X5300D02*
D03*
Y47900D02*
D03*
D88*
X2525Y46900D02*
D03*
Y46450D02*
D03*
Y46000D02*
D03*
Y45550D02*
D03*
Y45100D02*
D03*
Y44650D02*
D03*
Y49150D02*
D03*
Y48700D02*
D03*
Y48250D02*
D03*
Y47800D02*
D03*
Y47350D02*
D03*
X6575D02*
D03*
Y47800D02*
D03*
Y48250D02*
D03*
Y48700D02*
D03*
Y49150D02*
D03*
Y44650D02*
D03*
Y45100D02*
D03*
Y45550D02*
D03*
Y46000D02*
D03*
Y46450D02*
D03*
Y46900D02*
D03*
D89*
X2463Y43975D02*
D03*
X6637D02*
D03*
Y49825D02*
D03*
X2463D02*
D03*
D90*
X6125Y43975D02*
D03*
X5675D02*
D03*
X5225D02*
D03*
X4775D02*
D03*
X2975D02*
D03*
X3425D02*
D03*
X3875D02*
D03*
X4325D02*
D03*
Y49825D02*
D03*
X3875D02*
D03*
X3425D02*
D03*
X2975D02*
D03*
X4775D02*
D03*
X5225D02*
D03*
X5675D02*
D03*
X6125D02*
D03*
D91*
X89225Y5925D02*
D03*
X87475D02*
D03*
M02*
